<?xml version="1.0" encoding="UTF-8"?>
<svg width="80px" height="80px" viewBox="0 0 80 80" version="1.1" xmlns="http://www.w3.org/2000/svg" xmlns:xlink="http://www.w3.org/1999/xlink">
    <!-- Generator: Sketch 60.1 (88133) - https://sketch.com -->
    <title>编组@2x</title>
    <desc>Created with Sketch.</desc>
    <g id="web-" stroke="none" stroke-width="1" fill="none" fill-rule="evenodd">
        <g id="2.资料设置" transform="translate(-680.000000, -226.000000)" fill-rule="nonzero">
            <g id="编组" transform="translate(680.000000, 226.000000)">
                <circle id="椭圆形" fill="#E0E0E0" cx="40" cy="40" r="40"></circle>
                <g id="人员" transform="translate(18.000000, 18.000000)">
                    <rect id="矩形" fill="#000000" opacity="0" x="0" y="0" width="44.8" height="44.8"></rect>
                    <path d="M22.4007931,6.15665894 C16.8909367,6.15665894 12.4047245,10.6411768 12.4047245,16.1526915 C12.4047245,21.6608896 16.8876562,26.1471378 22.4007931,26.1471378 C27.9122717,26.1471378 32.3984478,21.6609257 32.3984478,16.1526915 C32.3984478,10.6411768 27.9122717,6.15665894 22.4007931,6.15665894 Z" id="路径" fill="#B3B3B3"></path>
                    <path d="M30.1052338,25.9190565 C27.9753933,27.6026478 25.3230602,28.6457584 22.4007931,28.6457584 C19.4784899,28.6457584 16.8278511,27.5994394 14.693108,25.9190565 C10.651667,28.4921181 7.83772678,33.0107021 7.45121059,38.2439915 C8.86623764,38.4363483 11.3842886,38.6433411 14.977714,38.6433411 L29.8173473,38.6433411 C33.412431,38.6433411 35.9320681,38.4363483 37.3487894,38.2439915 C36.9654455,33.0073856 34.1515413,28.4921181 30.1052338,25.9190565 Z" id="路径" fill="#B3B3B3"></path>
                </g>
            </g>
        </g>
    </g>
</svg>