<?xml version="1.0" encoding="UTF-8"?>
<svg width="26px" height="28px" viewBox="0 0 26 28" version="1.1" xmlns="http://www.w3.org/2000/svg" xmlns:xlink="http://www.w3.org/1999/xlink">
    <!-- Generator: Sketch 60.1 (88133) - https://sketch.com -->
    <title>编组 6@2x</title>
    <desc>Created with Sketch.</desc>
    <g id="web-" stroke="none" stroke-width="1" fill="none" fill-rule="evenodd">
        <g id="4.2-自主选屏模式" transform="translate(-117.000000, -844.000000)" fill-rule="nonzero">
            <g id="编组-6" transform="translate(110.000000, 838.000000)">
                <rect id="矩形" x="0" y="0" width="40" height="40"></rect>
                <g id="编组" transform="translate(7.090909, 5.545455)">
                    <path d="M16.5399735,24.664269 C17.3150113,25.5257025 18.9951031,27.3898429 19.4290841,27.8500006 C19.9973285,28.4525215 17.4982009,28.4545455 12.8693728,28.4545455 C8.24054469,28.4545455 5.74138474,28.4524903 6.30911036,27.8500006 C6.73984908,27.3929567 8.39682325,25.5545675 9.17993444,24.6849135 C10.3218054,25.0696861 11.5502456,25.2801792 12.8290711,25.2801792 C14.1315653,25.2801792 15.3803671,25.0624932 16.5399735,24.664269 Z M5.18142942,6.14127263 L9.37327052,10.3327515 C8.49847037,11.1901477 7.95911361,12.364403 7.95911361,13.659685 C7.95911361,16.2851813 10.1752537,18.4134655 12.9090909,18.4134655 C14.1857449,18.4134655 15.3494919,17.949356 16.2273851,17.1872331 L20.4189731,21.3786201 C18.4530723,23.1434482 15.8124559,24.2237593 12.9090909,24.2237593 C6.83387559,24.2237593 1.90909091,19.4936748 1.90909091,13.659685 C1.90909091,10.7175621 3.16114924,8.05660642 5.18142942,6.14127263 Z M12.9090909,3.09557959 C18.9843386,3.09557959 23.9090909,7.82466763 23.9090909,13.659685 C23.9090909,15.9984054 23.1176609,18.1597245 21.7779543,19.9100343 L17.4419983,15.5726087 C17.7101871,14.9873054 17.8590682,14.3401969 17.8590682,13.659685 C17.8590682,11.0341265 15.6429929,8.90584224 12.9091233,8.90584224 C12.2714023,8.90584224 11.6618556,9.02164668 11.1020388,9.23255413 L6.76436389,4.89602354 C8.51888953,3.75921613 10.6332698,3.09557959 12.9090909,3.09557959 Z M12.9090585,0.454545455 C14.0203871,0.454545455 14.9410039,1.22623921 15.1090844,2.2351736 C14.3963634,2.10623102 13.6610112,2.03919085 12.9090585,2.03919085 C12.1571057,2.03919085 11.4218184,2.10623102 10.709065,2.2351736 C10.8772103,1.22623921 11.7978272,0.454545455 12.9090585,0.454545455 Z" id="形状结合" fill="#2E3538"></path>
                    <rect id="矩形" fill="#FF564F" transform="translate(12.909091, 14.454545) rotate(-45.000000) translate(-12.909091, -14.454545) " x="11.9090909" y="-2.54545455" width="2" height="34" rx="1"></rect>
                </g>
            </g>
        </g>
    </g>
</svg>