<?xml version="1.0" encoding="UTF-8"?>
<svg width="18px" height="18px" viewBox="0 0 18 18" version="1.1" xmlns="http://www.w3.org/2000/svg" xmlns:xlink="http://www.w3.org/1999/xlink">
    <!-- Generator: Sketch 60.1 (88133) - https://sketch.com -->
    <title>编组 2@2x</title>
    <desc>Created with Sketch.</desc>
    <g id="web-" stroke="none" stroke-width="1" fill="none" fill-rule="evenodd">
        <g id="4.5聊天成员" transform="translate(-1408.000000, -401.000000)" fill-rule="nonzero">
            <g id="编组-2" transform="translate(1406.000000, 398.000000)">
                <rect id="矩形" x="3.55271368e-15" y="0" width="24" height="24"></rect>
                <g id="编组-6">
                    <rect id="矩形" x="0" y="0" width="24" height="24"></rect>
                    <g id="编组" transform="translate(4.875000, 3.000000)" fill="#2E3538">
                        <path d="M8.97804157,14.5906816 C9.45363299,15.1098491 10.4845984,16.2333266 10.7509049,16.5106538 C11.0996003,16.8737802 9.56604478,16.875 6.72562753,16.875 C3.88521028,16.875 2.35163485,16.8737614 2.70001194,16.5106538 C2.96432887,16.2352032 3.98110848,15.1272454 4.46165398,14.6031236 C5.16234754,14.8350178 5.91616313,14.9618775 6.70089694,14.9618775 C7.50015475,14.9618775 8.26646496,14.8306828 8.97804157,14.5906816 Z M1.62718516,3.81229258 L4.20617345,6.39215287 C3.89400401,6.84230549 3.71251393,7.38038132 3.71251393,7.95845464 C3.71251393,9.54078498 5.0724181,10.8234563 6.75,10.8234563 L6.75,10.823 L6.92847982,10.8185929 C7.41118363,10.7922138 7.86364171,10.6595247 8.25992988,10.4449781 L10.8389763,13.0244377 C9.70423891,13.8405445 8.28712844,14.3251958 6.75,14.3251958 C3.02202696,14.3251958 0,11.4744753 0,7.95845464 C0,6.37473971 0.612909774,4.92620445 1.62718516,3.81229258 Z M6.75,1.59169468 C10.4779929,1.59169468 13.5,4.4418147 13.5,7.95845464 C13.5,9.5003703 12.9188119,10.9143372 11.9517712,12.0160396 L9.3604569,9.42416909 C9.63166941,8.99535045 9.78748607,8.49407014 9.78748607,7.95845464 C9.78748607,6.37608677 8.42762169,5.09341547 6.7500199,5.09341547 C6.2453662,5.09341547 5.76946445,5.20948394 5.35068254,5.41486366 L2.75888845,2.82320378 C3.87676587,2.04897448 5.25675113,1.59169468 6.75,1.59169468 Z M6.7499801,0 C7.43193173,0 7.99685571,0.465083289 8.09999602,1.07314643 C7.6626445,0.995435499 7.21140565,0.955031822 6.7499801,0.955031822 C6.28855456,0.955031822 5.8373555,0.995435499 5.39998408,1.07314643 C5.50316418,0.465083289 6.06808817,0 6.7499801,0 Z" id="形状结合"></path>
                    </g>
                </g>
                <rect id="矩形" fill="#FF564F" transform="translate(10.875000, 12.000000) rotate(-45.000000) translate(-10.875000, -12.000000) " x="10.125" y="0.75" width="1.5" height="22.5" rx="0.75"></rect>
            </g>
        </g>
    </g>
</svg>