<?xml version="1.0" encoding="UTF-8"?>
<svg width="14px" height="18px" viewBox="0 0 14 18" version="1.1" xmlns="http://www.w3.org/2000/svg" xmlns:xlink="http://www.w3.org/1999/xlink">
    <!-- Generator: Sketch 60.1 (88133) - https://sketch.com -->
    <title>编组 6@2x</title>
    <desc>Created with Sketch.</desc>
    <g id="web-" stroke="none" stroke-width="1" fill="none" fill-rule="evenodd">
        <g id="4.5聊天成员" transform="translate(-1411.000000, -131.000000)" fill-rule="nonzero">
            <g id="成员" transform="translate(1060.000000, 113.000000)">
                <g id="编组-2">
                    <g id="编组-6" transform="translate(346.000000, 15.000000)">
                        <rect id="矩形" x="0" y="0" width="24" height="24"></rect>
                        <g>
                            <rect id="矩形" x="0" y="0" width="24" height="24"></rect>
                            <g id="编组" transform="translate(4.500000, 2.750000)" fill="#2E3538">
                                <path d="M7.5,1.90064634 C3.63395389,1.90064634 0.5,4.85632636 0.5,8.50321222 C0.5,12.1494559 3.63395389,15.1057586 7.5,15.1057586 C11.3660461,15.1057586 14.5,12.1494559 14.5,8.50321222 C14.5,4.85632636 11.3660667,1.90064634 7.5,1.90064634 Z M7.5,11.474325 C5.76028544,11.474325 4.35001444,10.1441474 4.35001444,8.50321222 C4.35001444,6.86223813 5.76026481,5.53206049 7.50002063,5.53206049 C9.23975583,5.53206049 10.6499856,6.86223813 10.6499856,8.50321222 C10.6499856,10.1441474 9.23973519,11.474325 7.5,11.474325 L7.5,11.474325 Z M5.12690043,15.39398 C4.62855694,15.9375138 3.57411883,17.086507 3.30001238,17.3721595 C2.93873244,17.7487156 4.52910695,17.75 7.47472485,17.75 C10.4203427,17.75 12.0106966,17.748735 11.6490866,17.3721595 C11.3729168,17.0845609 10.3037675,15.9194732 9.81056162,15.3810772 C9.07263033,15.6299673 8.27793825,15.7660211 7.4490783,15.7660211 C6.63528028,15.7660211 5.8535456,15.6344629 5.12690043,15.39398 Z M8.89999587,1.36289259 C8.79303555,0.732308596 8.20718846,0.25 7.49997937,0.25 C6.79283217,0.25 6.20698508,0.732308596 6.09998349,1.36289259 C6.55355385,1.28230348 7.02146398,1.24040337 7.49997937,1.24040337 C7.97849475,1.24040337 8.44644615,1.28230348 8.89999587,1.36289259 Z" id="形状"></path>
                            </g>
                        </g>
                    </g>
                </g>
            </g>
        </g>
    </g>
</svg>