<?xml version="1.0" encoding="UTF-8"?>
<svg width="22px" height="28px" viewBox="0 0 22 28" version="1.1" xmlns="http://www.w3.org/2000/svg" xmlns:xlink="http://www.w3.org/1999/xlink">
    <!-- Generator: Sketch 60.1 (88133) - https://sketch.com -->
    <title>编组 4</title>
    <desc>Created with Sketch.</desc>
    <g id="组件" stroke="none" stroke-width="1" fill="none" fill-rule="evenodd">
        <g id="PC/底部条" transform="translate(-119.000000, -14.000000)" fill-rule="nonzero">
            <g id="底部条">
                <g id="编组-7" transform="translate(98.000000, 5.000000)">
                    <g id="编组-6">
                        <g id="编组-4" transform="translate(12.000000, 3.000000)">
                            <rect id="矩形" x="3.55271368e-15" y="0" width="40" height="40"></rect>
                            <path d="M20,8.64103414 C13.9247847,8.64103414 9,13.3701222 9,19.2051396 C9,25.0391294 13.9247847,29.7692138 20,29.7692138 C26.0752153,29.7692138 31,25.0391294 31,19.2051396 C31,13.3701222 26.0752477,8.64103414 20,8.64103414 Z M20,23.95892 C17.2661628,23.95892 15.0500227,21.8306358 15.0500227,19.2051396 C15.0500227,16.579581 17.2661304,14.4512968 20.0000324,14.4512968 C22.733902,14.4512968 24.9499773,16.579581 24.9499773,19.2051396 C24.9499773,21.8306358 22.7338696,23.95892 20,23.95892 L20,23.95892 Z M16.2708435,30.230368 C15.4877323,31.100022 13.8307582,32.9384112 13.4000195,33.3954552 C12.8322938,33.9979449 15.3314538,34 19.9602819,34 C24.58911,34 27.0882375,33.997976 26.5199932,33.3954552 C26.0860122,32.9352974 24.4059204,31.0711571 23.6308826,30.2097235 C22.4712762,30.6079478 21.2224744,30.8256337 19.9199802,30.8256337 C18.6411547,30.8256337 17.4127145,30.6151406 16.2708435,30.230368 Z M22.1999935,7.78062814 C22.031913,6.77169375 21.1112962,6 19.9999676,6 C18.8887363,6 17.9681194,6.77169375 17.7999741,7.78062814 C18.5127275,7.65168557 19.2480148,7.58464539 19.9999676,7.58464539 C20.7519203,7.58464539 21.4872725,7.65168557 22.1999935,7.78062814 Z" id="形状" fill="#2E3538"></path>
                        </g>
                    </g>
                </g>
            </g>
        </g>
    </g>
</svg>