<?xml version="1.0" encoding="UTF-8"?>
<svg width="26px" height="25px" viewBox="0 0 26 25" version="1.1" xmlns="http://www.w3.org/2000/svg" xmlns:xlink="http://www.w3.org/1999/xlink">
    <!-- Generator: Sketch 60.1 (88133) - https://sketch.com -->
    <title>编组 6@2x</title>
    <desc>Created with Sketch.</desc>
    <g id="web-" stroke="none" stroke-width="1" fill="none" fill-rule="evenodd">
        <g id="4.视频全屏-hover" transform="translate(-814.000000, -845.000000)" fill-rule="nonzero">
            <g id="底部条" transform="translate(0.000000, 830.000000)">
                <g id="编组-7备份">
                    <g transform="translate(807.000000, 8.000000)">
                        <g id="编组-6">
                            <rect id="矩形" x="0" y="0" width="40" height="40"></rect>
                            <g id="编组" transform="translate(7.000000, 7.000000)" fill="#2E3538">
                                <path d="M23.2142857,0 L2.78571429,0 C1.25357143,0 -1.84741111e-13,1.24137931 -1.84741111e-13,2.75862069 L-1.84741111e-13,17.9310345 C-1.84741111e-13,19.4482759 1.25357143,20.6896552 2.78571429,20.6896552 L8.64732143,20.6896552 L13,25 L17.3526786,20.6896552 L23.2142857,20.6896552 C24.7464286,20.6896552 26,19.4482759 26,17.9310345 L26,2.75862069 C26,1.24137931 24.7464286,0 23.2142857,0 Z M6.61607143,12.7557471 C5.65558036,12.7557471 4.875,11.9827586 4.875,11.0316092 C4.875,10.0804598 5.65558036,9.30747126 6.61607143,9.30747126 C7.5765625,9.30747126 8.35714286,10.0804598 8.35714286,11.0316092 C8.35714286,11.9827586 7.5765625,12.7557471 6.61607143,12.7557471 Z M13,12.7557471 C12.0395089,12.7557471 11.2589286,11.9827586 11.2589286,11.0316092 C11.2589286,10.0804598 12.0395089,9.30747126 13,9.30747126 C13.9604911,9.30747126 14.7410714,10.0804598 14.7410714,11.0316092 C14.7410714,11.9827586 13.9604911,12.7557471 13,12.7557471 Z M19.3839286,12.7557471 C18.4234375,12.7557471 17.6428571,11.9827586 17.6428571,11.0316092 C17.6428571,10.0804598 18.4234375,9.30747126 19.3839286,9.30747126 C20.3444196,9.30747126 21.125,10.0804598 21.125,11.0316092 C21.125,11.9827586 20.3444196,12.7557471 19.3839286,12.7557471 Z" id="形状"></path>
                            </g>
                        </g>
                    </g>
                </g>
            </g>
        </g>
    </g>
</svg>