<?xml version="1.0" encoding="UTF-8"?>
<svg width="14px" height="14px" viewBox="0 0 14 14" version="1.1" xmlns="http://www.w3.org/2000/svg" xmlns:xlink="http://www.w3.org/1999/xlink">
    <!-- Generator: Sketch 60.1 (88133) - https://sketch.com -->
    <title>编组@2x</title>
    <desc>Created with Sketch.</desc>
    <g id="web-" stroke="none" stroke-width="1" fill="none" fill-rule="evenodd">
        <g id="5.设置-视频选项" transform="translate(-935.000000, -446.000000)" fill="#00AAFF" fill-rule="nonzero">
            <g id="编组-8" transform="translate(555.000000, 443.000000)">
                <g id="编组" transform="translate(380.000000, 3.000000)">
                    <path d="M4.34889191,9.50345703 C4.34930207,9.50386719 4.34943879,9.50427734 4.34984895,9.50441406 C4.63723176,9.79125 5.10262238,9.79083984 5.3893216,9.50345703 L13.4367239,1.45755859 C13.7243802,1.16976563 13.7243802,0.703144531 13.4367239,0.415351563 C13.4359036,0.414394531 13.4349466,0.413574219 13.434263,0.412890625 C13.14647,0.126464844 12.6810794,0.127558594 12.3947904,0.415351563 L4.34889191,8.46125 C4.06137238,8.74904297 4.06137238,9.21566406 4.34889191,9.50345703 Z" id="路径"></path>
                    <path d="M13.2633646,5.89435547 L13.26022,5.89435547 C12.8551224,5.89435547 12.5267239,6.22275391 12.5267239,6.62785156 L12.5267239,12.5263086 L1.47397004,12.5263086 L1.47397004,1.47123047 L7.37201691,1.47396484 L7.37256379,1.47396484 C7.77848176,1.47287109 8.10660676,1.14269531 8.10551301,0.736777344 L8.10551301,0.733632812 C8.10551301,0.328535156 7.77711457,0.00013671875 7.37201691,0.00013671875 L0.731997383,0.00013671875 C0.536913314,0.00013671875 0.34988627,0.0779558078 0.212192695,0.216152344 C0.0756165317,0.35344444 -0.000726646047,0.539432555 -1.82165036e-08,0.733085937 L-1.82165036e-08,13.2678711 C0.00094058158,13.4627196 0.078482833,13.6493808 0.215884102,13.7875391 C0.353193542,13.9241732 0.539248119,14.0005234 0.732954414,13.9997327 L13.2681497,13.9997327 C13.4629982,13.9987912 13.6496595,13.9212489 13.7878177,13.7838477 C13.9244454,13.6463107 14.0007816,13.4600937 14.0000111,13.2662305 L14.0000111,6.62785156 C13.9990482,6.22193359 13.6692825,5.89353516 13.2633646,5.89435547 Z" id="路径"></path>
                </g>
            </g>
        </g>
    </g>
</svg>