<?xml version="1.0" encoding="UTF-8"?>
<svg width="20px" height="18px" viewBox="0 0 20 18" version="1.1" xmlns="http://www.w3.org/2000/svg" xmlns:xlink="http://www.w3.org/1999/xlink">
    <!-- Generator: Sketch 60.1 (88133) - https://sketch.com -->
    <title>笑脸@2x</title>
    <desc>Created with Sketch.</desc>
    <g id="web-" stroke="none" stroke-width="1" fill="none" fill-rule="evenodd">
        <g id="4.5聊天成员" transform="translate(-1065.000000, -772.000000)">
            <g id="笑脸" transform="translate(1065.000000, 771.000000)">
                <g>
                    <rect id="Rectangle-path" fill="#FAAD14" fill-rule="nonzero" opacity="0" x="0" y="0" width="20" height="20"></rect>
                    <path d="M12.9815256,9.0912721 C12.1945818,9.09693392 11.5516356,8.50079807 11.5451547,7.75947771 L11.5583497,7.70753773 C11.5583497,6.95974918 12.2018568,6.35354678 12.9956631,6.35354678 C13.7894694,6.35354678 14.4329766,6.95974918 14.4329766,7.70753773 L14.4197816,7.75947771 C14.4166707,8.11579399 14.263359,8.45633733 13.9936032,8.70612538 C13.7238475,8.95591342 13.3597667,9.0944646 12.9815256,9.0912721 L12.9815256,9.0912721 Z M6.22568109,9.0912721 C5.43873729,9.09693392 4.79579103,8.50079807 4.78931013,7.75947771 L4.80250515,7.70753773 C4.80250515,6.95974918 5.44601231,6.35354678 6.23981861,6.35354678 C7.03362491,6.35354678 7.67713207,6.95974918 7.67713207,7.70753773 L7.66393706,7.75947771 C7.66082616,8.11579399 7.50751442,8.45633733 7.2377587,8.70612538 C6.96800298,8.95591342 6.60392214,9.0944646 6.22568109,9.0912721 L6.22568109,9.0912721 Z" id="Shape" fill="#999999" fill-rule="nonzero"></path>
                    <path d="M9.61334763,18.5 C12.020971,18.5002968 14.3284767,17.6002417 16.0270274,16.0005838 C17.7196747,14.4064856 18.668913,12.2484845 18.6692308,10.0003758 C18.6694515,5.31304954 14.62287,1.50048845 9.61632531,1.5 C4.60977599,1.49951154 0.562348467,5.31129024 0.561538454,9.99862153 C0.560728688,14.6859383 4.6068153,18.4989425 9.61334763,18.5 Z" id="Path" stroke="#979797"></path>
                    <path d="M5.36923077,12 C6.56877441,13.6191406 8.03756855,14.4287109 9.77561317,14.4287109 C11.5136578,14.4287109 12.9824519,13.6633708 14.1819956,12.1326904" id="Path" stroke="#979797" stroke-linecap="round"></path>
                </g>
            </g>
        </g>
    </g>
</svg>