<?xml version="1.0" encoding="UTF-8"?>
<svg width="18px" height="18px" viewBox="0 0 18 18" version="1.1" xmlns="http://www.w3.org/2000/svg" xmlns:xlink="http://www.w3.org/1999/xlink">
    <!-- Generator: Sketch 60.1 (88133) - https://sketch.com -->
    <title>编组 2备份@2x</title>
    <desc>Created with Sketch.</desc>
    <g id="web-" stroke="none" stroke-width="1" fill="none" fill-rule="evenodd">
        <g id="4.视频全屏-hover" transform="translate(-1399.000000, -11.000000)" fill-rule="nonzero">
            <g id="顶部">
                <g id="编组-6">
                    <g id="编组-2备份" transform="translate(1396.000000, 8.000000)">
                        <rect id="矩形" x="0" y="0" width="24" height="24"></rect>
                        <path d="M4.842,16.21 L4.84210526,19.1578947 L7.789,19.157 L7.789,20 L4,20 L4,16.21 L4.842,16.21 Z M19.157,16.21 L20,16.21 L20,20 L16.21,20 L16.21,19.157 L19.1578947,19.1578947 L19.157,16.21 Z M7.789,4 L7.789,4.842 L4.84210526,4.84210526 L4.842,7.789 L4,7.789 L4,4 L7.789,4 Z M20,4 L20,7.789 L19.157,7.789 L19.1578947,4.84210526 L16.21,4.842 L16.21,4 L20,4 Z" id="形状结合" stroke="#000000" stroke-width="0.2" fill="#000000"></path>
                    </g>
                </g>
            </g>
        </g>
    </g>
</svg>