<?xml version="1.0" encoding="UTF-8"?>
<svg width="18px" height="18px" viewBox="0 0 18 18" version="1.1" xmlns="http://www.w3.org/2000/svg" xmlns:xlink="http://www.w3.org/1999/xlink">
    <!-- Generator: Sketch 60.1 (88133) - https://sketch.com -->
    <title>编组@2x</title>
    <desc>Created with Sketch.</desc>
    <g id="web-" stroke="none" stroke-width="1" fill="none" fill-rule="evenodd">
        <g id="4.视频全屏-hover" transform="translate(-132.000000, -798.000000)" fill-rule="nonzero">
            <g id="编组-4" transform="translate(0.000000, 783.000000)">
                <g id="编组" transform="translate(132.000000, 15.000000)">
                    <path d="M9,0 C13.9707,0 18,4.02975 18,9 C18,13.9707 13.9707,18 9,18 C4.02975,18 0,13.9707 0,9 C0,4.02975 4.02975,0 9,0" id="路径" fill="#88D633"></path>
                    <path d="M6.3171,12.6999 C5.73795,12.6999 5.2677,12.5037 5.2677,11.9628 L5.2677,11.4804 C5.2677,10.41615 6.46245,9.60615 7.9119,9.60615 L10.1061,9.60615 C11.5551,9.60615 12.71025,10.41615 12.71025,11.4804 L12.71025,11.9628 C12.71025,12.5037 12.24,12.6999 11.66085,12.6999 L6.3171,12.6999 Z M7.14375,6.8733 C7.14375,6.21012574 7.49754923,5.59732745 8.07187499,5.26574031 C8.64620074,4.93415318 9.35379926,4.93415318 9.92812501,5.26574031 C10.5024508,5.59732745 10.85625,6.21012574 10.85625,6.8733 C10.85625,7.89847857 10.0251786,8.72955 9,8.72955 C7.97482143,8.72955 7.14375,7.89847857 7.14375,6.8733 L7.14375,6.8733 Z" id="形状" fill="#FFFFFF"></path>
                </g>
            </g>
        </g>
    </g>
</svg>