<?xml version="1.0" encoding="UTF-8"?>
<svg width="18px" height="27px" viewBox="0 0 18 27" version="1.1" xmlns="http://www.w3.org/2000/svg" xmlns:xlink="http://www.w3.org/1999/xlink">
    <!-- Generator: Sketch 60.1 (88133) - https://sketch.com -->
    <title>编组 3@2x</title>
    <desc>Created with Sketch.</desc>
    <g id="web-" stroke="none" stroke-width="1" fill="none" fill-rule="evenodd">
        <g id="4.视频全屏-hover" transform="translate(-51.000000, -845.000000)" fill-rule="nonzero">
            <g id="底部条" transform="translate(0.000000, 830.000000)">
                <g id="编组-2">
                    <g transform="translate(40.000000, 8.000000)">
                        <g id="编组-3">
                            <rect id="矩形" x="0" y="0" width="40" height="40"></rect>
                            <path d="M21.1182918,30.3341364 L21.1182918,31.5454545 L23.3543163,31.5454545 C23.9717775,31.5454545 24.4723286,32.0949233 24.4723286,32.7727273 C24.4723286,33.4505313 23.9717775,34 23.3543163,34 L16.6462427,34 C16.0287815,34 15.5282304,33.4505313 15.5282304,32.7727273 C15.5282304,32.0949233 16.0287815,31.5454545 16.6462427,31.5454545 L18.8822672,31.5454545 L18.8822672,30.3341364 C14.4527026,29.8579546 11.0002807,25.6465682 11.0002807,20.5398864 L11.0002807,19.2727273 C10.9909959,18.8057488 11.2126363,18.3698142 11.5795781,18.1333331 C11.9465199,17.896852 12.4013082,17.896852 12.76825,18.1333331 C13.1351918,18.3698142 13.3568322,18.8057488 13.3475475,19.2727273 L13.3475475,20.5398864 C13.3475475,24.5598182 16.2096589,27.8022727 19.7202174,27.8022727 L20.2792236,27.8022727 C23.7914591,27.8022727 26.6524525,24.5598182 26.6524525,20.5398864 L26.6524525,19.2727273 C26.6431678,18.8057488 26.8648082,18.3698142 27.23175,18.1333331 C27.5986918,17.896852 28.0534801,17.896852 28.4204219,18.1333331 C28.7873637,18.3698142 29.0090041,18.8057488 28.9997193,19.2727273 L28.9997193,20.5398864 C28.9997193,25.6465682 25.5472974,29.8579546 21.1177328,30.3341364 L21.1182918,30.3341364 Z M19.9292857,7 L20.0707143,7 C21.2380436,7 22.3576128,7.50876108 23.1830917,8.4147968 C24.0085706,9.32083252 24.4723286,10.5497497 24.4723286,11.8311591 L24.4723286,20.5779318 C24.4723286,21.8593412 24.0085706,23.0882584 23.1830917,23.9942942 C22.3576128,24.9003299 21.2380436,25.409091 20.0707143,25.409091 L19.9292857,25.409091 C17.49865,25.409091 15.5282304,23.2461073 15.5282304,20.5779318 L15.5282304,11.8311591 C15.5282304,9.16298364 17.49865,7 19.9292857,7 L19.9292857,7 Z" id="Shape" fill="#2E3538"></path>
                        </g>
                    </g>
                </g>
            </g>
        </g>
    </g>
</svg>