<?xml version="1.0" encoding="UTF-8"?>
<svg width="26px" height="28px" viewBox="0 0 26 28" version="1.1" xmlns="http://www.w3.org/2000/svg" xmlns:xlink="http://www.w3.org/1999/xlink">
    <!-- Generator: Sketch 60.1 (88133) - https://sketch.com -->
    <title>编组 3备份@2x</title>
    <desc>Created with Sketch.</desc>
    <g id="web-" stroke="none" stroke-width="1" fill="none" fill-rule="evenodd">
        <g id="4.2-自主选屏模式" transform="translate(-47.000000, -845.000000)" fill-rule="nonzero">
            <g id="编组-3备份" transform="translate(40.000000, 839.000000)">
                <rect id="矩形" x="0" y="0" width="40" height="40"></rect>
                <path d="M12.76825,17.1333331 C13.1351918,17.3698142 13.3568322,17.8057488 13.3475475,18.2727273 L13.3475475,19.5398864 C13.3475475,23.5598182 16.2096589,26.8022727 19.7202174,26.8022727 L20.2792236,26.8022727 C21.9119816,26.8022727 23.4039992,26.1015434 24.5332738,24.9477287 L26.2730078,26.6867823 C24.901705,28.1517682 23.1083922,29.1201389 21.1177328,29.3341364 L21.1182918,29.3341364 L21.1182918,30.5454545 L23.3543163,30.5454545 C23.9717775,30.5454545 24.4723286,31.0949233 24.4723286,31.7727273 C24.4723286,32.4505313 23.9717775,33 23.3543163,33 L16.6462427,33 C16.0287815,33 15.5282304,32.4505313 15.5282304,31.7727273 C15.5282304,31.0949233 16.0287815,30.5454545 16.6462427,30.5454545 L18.8822672,30.5454545 L18.8822672,29.3341364 C14.4527026,28.8579546 11.0002807,24.6465682 11.0002807,19.5398864 L11.0002807,18.2727273 C10.9909959,17.8057488 11.2126363,17.3698142 11.5795781,17.1333331 C11.9465199,16.896852 12.4013082,16.896852 12.76825,17.1333331 Z M28.4204219,17.1333331 C28.7873637,17.3698142 29.0090041,17.8057488 28.9997193,18.2727273 L28.9997193,19.5398864 C28.9997193,21.5905909 28.4429793,23.4969195 27.4897931,25.0749654 L25.7266706,23.3122144 C26.3138709,22.2136839 26.6524525,20.9227901 26.6524525,19.5398864 L26.6524525,18.2727273 C26.6431678,17.8057488 26.8648082,17.3698142 27.23175,17.1333331 C27.5986918,16.896852 28.0534801,16.896852 28.4204219,17.1333331 Z M15.528,15.941 L22.8823049,23.2952369 C22.095518,24.0122006 21.1017452,24.409091 20.0707143,24.409091 L19.9292857,24.409091 C17.49865,24.409091 15.5282304,22.2461073 15.5282304,19.5779318 L15.528,15.941 Z M20.0707143,6 C21.2380436,6 22.3576128,6.50876108 23.1830917,7.4147968 C24.0085706,8.32083252 24.4723286,9.54974974 24.4723286,10.8311591 L24.4723286,19.5779318 C24.4723286,20.2967254 24.3264055,20.999002 24.0525692,21.6370377 L15.528,13.113 L15.5282304,10.8311591 C15.5282304,8.16298364 17.49865,6 19.9292857,6 L20.0707143,6 Z" id="形状结合" fill="#2E3538"></path>
                <rect id="矩形" fill="#FF564F" transform="translate(20.000000, 21.000000) rotate(-45.000000) translate(-20.000000, -21.000000) " x="19" y="4" width="2" height="34" rx="1"></rect>
            </g>
        </g>
    </g>
</svg>