<?xml version="1.0" encoding="UTF-8"?>
<svg width="13px" height="19px" viewBox="0 0 13 19" version="1.1" xmlns="http://www.w3.org/2000/svg" xmlns:xlink="http://www.w3.org/1999/xlink">
    <!-- Generator: Sketch 60.1 (88133) - https://sketch.com -->
    <title>编组 3@2x</title>
    <desc>Created with Sketch.</desc>
    <g id="web-" stroke="none" stroke-width="1" fill="none" fill-rule="evenodd">
        <g id="4.视频全屏-hover" transform="translate(-15.000000, -797.000000)" fill-rule="nonzero">
            <g id="编组-4" transform="translate(0.000000, 783.000000)">
                <g id="编组-3" transform="translate(10.000000, 12.000000)">
                    <rect id="矩形" x="0" y="0" width="24" height="24"></rect>
                    <path d="M12.3076552,18.4203182 L12.3076552,19.2727273 L13.9225618,19.2727273 C14.3685059,19.2727273 14.7300151,19.6593904 14.7300151,20.1363636 C14.7300151,20.6133368 14.3685059,21 13.9225618,21 L9.07784193,21 C8.63189778,21 8.27038862,20.6133368 8.27038862,20.1363636 C8.27038862,19.6593904 8.63189778,19.2727273 9.07784193,19.2727273 L10.6927486,19.2727273 L10.6927486,18.4203182 C7.49361854,18.0852273 5.00020271,15.1216591 5.00020271,11.5280682 L5.00020271,10.6363637 C4.99349706,10.3077491 5.15357067,10.0009804 5.41858419,9.83456773 C5.68359772,9.66815509 6.01205594,9.66815509 6.27706946,9.83456773 C6.54208299,10.0009804 6.70215659,10.3077491 6.69545094,10.6363637 L6.69545094,11.5280682 C6.69545094,14.3569091 8.76253141,16.6386364 11.2979348,16.6386364 L11.7016615,16.6386364 C14.238276,16.6386364 16.3045491,14.3569091 16.3045491,11.5280682 L16.3045491,10.6363637 C16.2978434,10.3077491 16.457917,10.0009804 16.7229305,9.83456773 C16.9879441,9.66815509 17.3164023,9.66815509 17.5814158,9.83456773 C17.8464293,10.0009804 18.0065029,10.3077491 17.9997973,10.6363637 L17.9997973,11.5280682 C17.9997973,15.1216591 15.5063815,18.0852273 12.3072514,18.4203182 L12.3076552,18.4203182 Z M11.4489286,2 L11.5510714,2 C12.3941426,2 13.2027204,2.35801706 13.7988996,2.99559775 C14.3950788,3.63317844 14.7300151,4.49797204 14.7300151,5.39970457 L14.7300151,11.5548409 C14.7300151,12.4565734 14.3950788,13.321367 13.7988996,13.9589477 C13.2027204,14.5965284 12.3941426,14.9545455 11.5510714,14.9545455 L11.4489286,14.9545455 C9.69346943,14.9545455 8.27038862,13.4324459 8.27038862,11.5548409 L8.27038862,5.39970457 C8.27038862,3.5220996 9.69346943,2 11.4489286,2 L11.4489286,2 Z" id="Shape" fill="#88D633"></path>
                </g>
            </g>
        </g>
    </g>
</svg>