<?xml version="1.0" encoding="UTF-8"?>
<svg width="12px" height="18px" viewBox="0 0 12 18" version="1.1" xmlns="http://www.w3.org/2000/svg" xmlns:xlink="http://www.w3.org/1999/xlink">
    <!-- Generator: Sketch 60.1 (88133) - https://sketch.com -->
    <title>编组 3@2x</title>
    <desc>Created with Sketch.</desc>
    <g id="web-" stroke="none" stroke-width="1" fill="none" fill-rule="evenodd">
        <g id="4.5聊天成员" transform="translate(-1368.000000, -131.000000)" fill-rule="nonzero">
            <g id="成员" transform="translate(1060.000000, 113.000000)">
                <g id="编组-2">
                    <g id="编组-3" transform="translate(302.000000, 15.000000)">
                        <rect id="矩形" x="0" y="0" width="24" height="24"></rect>
                        <path d="M13.0082515,18.0375545 L13.0082515,18.8181818 L14.4244003,18.8181818 C14.8154591,18.8181818 15.1324748,19.1722839 15.1324748,19.6090909 C15.1324748,20.0458979 14.8154591,20.4 14.4244003,20.4 L10.1759537,20.4 C9.78489498,20.4 9.46787925,20.0458979 9.46787925,19.6090909 C9.46787925,19.1722839 9.78489498,18.8181818 10.1759537,18.8181818 L11.5921026,18.8181818 L11.5921026,18.0375545 C8.78671164,17.7306818 6.60017777,15.0166773 6.60017777,11.7257046 L6.60017777,10.9090909 C6.59429742,10.6081492 6.73466966,10.3272136 6.96706614,10.1748147 C7.19946262,10.0224157 7.4874952,10.0224157 7.71989168,10.1748147 C7.95228816,10.3272136 8.0926604,10.6081492 8.08678005,10.9090909 L8.08678005,11.7257046 C8.08678005,14.3163273 9.89945063,16.4059091 12.1228044,16.4059091 L12.4768416,16.4059091 C14.7012574,16.4059091 16.5132199,14.3163273 16.5132199,11.7257046 L16.5132199,10.9090909 C16.5073396,10.6081492 16.6477118,10.3272136 16.8801083,10.1748147 C17.1125048,10.0224157 17.4005374,10.0224157 17.6329339,10.1748147 C17.8653303,10.3272136 18.0057026,10.6081492 17.9998222,10.9090909 L17.9998222,11.7257046 C17.9998222,15.0166773 15.8132884,17.7306818 13.0078974,18.0375545 L13.0082515,18.0375545 Z M12.2552143,3 L12.3447857,3 C13.0840943,3 13.7931548,3.32786825 14.3159581,3.91175794 C14.8387614,4.49564763 15.1324748,5.2876165 15.1324748,6.11341366 L15.1324748,11.7502227 C15.1324748,12.5760199 14.8387614,13.3679888 14.3159581,13.9518785 C13.7931548,14.5357681 13.0840943,14.8636364 12.3447857,14.8636364 L12.2552143,14.8636364 C10.7158117,14.8636364 9.46787925,13.4697136 9.46787925,11.7502227 L9.46787925,6.11341366 C9.46787925,4.39392279 10.7158117,3 12.2552143,3 L12.2552143,3 Z" id="Shape" fill="#2E3538"></path>
                    </g>
                </g>
            </g>
        </g>
    </g>
</svg>