<?xml version="1.0" encoding="UTF-8"?>
<svg width="18px" height="18px" viewBox="0 0 18 18" version="1.1" xmlns="http://www.w3.org/2000/svg" xmlns:xlink="http://www.w3.org/1999/xlink">
    <!-- Generator: Sketch 60.1 (88133) - https://sketch.com -->
    <title>编组 6@2x</title>
    <desc>Created with Sketch.</desc>
    <g id="web-" stroke="none" stroke-width="1" fill="none" fill-rule="evenodd">
        <g id="4.5聊天成员" transform="translate(-1365.000000, -401.000000)" fill-rule="nonzero">
            <g id="成员备份-5" transform="translate(1060.000000, 383.000000)">
                <g id="编组-2">
                    <g id="编组-6" transform="translate(302.000000, 15.000000)">
                        <rect id="矩形" x="0" y="0" width="24" height="24"></rect>
                        <g id="编组-2">
                            <rect id="矩形" x="0" y="0" width="24" height="24"></rect>
                            <g id="编组-6">
                                <rect id="矩形" x="0" y="0" width="24" height="24"></rect>
                                <g id="编组-2">
                                    <rect id="矩形" x="0" y="0" width="24" height="24"></rect>
                                    <g id="编组" transform="translate(3.250000, 3.250000)">
                                        <path d="M4.46989168,7.42481466 C4.70228816,7.5772136 4.8426604,7.8581492 4.83678005,8.15909092 L4.83678005,8.97570456 C4.83678005,11.5663273 6.64945063,13.6559091 8.87280437,13.6559091 L9.22684159,13.6559091 C10.6377082,13.6559091 11.8826487,12.8152898 12.6045665,11.5393809 L13.7234636,12.6580393 C12.8192806,14.1111355 11.3938076,15.1086076 9.75789742,15.2875545 L9.75825146,15.2875545 L9.75825146,16.0681818 L11.1744003,16.0681818 C11.5654591,16.0681818 11.8824748,16.4222839 11.8824748,16.8590909 C11.8824748,17.2958979 11.5654591,17.65 11.1744003,17.65 L6.92595369,17.65 C6.53489498,17.65 6.21787925,17.2958979 6.21787925,16.8590909 C6.21787925,16.4222839 6.53489498,16.0681818 6.92595369,16.0681818 L8.34210258,16.0681818 L8.34210258,15.2875545 C5.53671164,14.9806818 3.35017777,12.2666773 3.35017777,8.97570456 L3.35017777,8.15909092 C3.34429742,7.8581492 3.48466966,7.5772136 3.71706614,7.42481466 C3.94946262,7.27241572 4.2374952,7.27241572 4.46989168,7.42481466 Z M6.217,5.151 L11.5466214,10.4818618 C11.4195325,10.7442347 11.2582397,10.9871299 11.0659581,11.2018785 C10.5431548,11.7857681 9.83409426,12.1136364 9.09478571,12.1136364 L9.00521429,12.1136364 C7.46581166,12.1136364 6.21787925,10.7197136 6.21787925,9.00022274 L6.217,5.151 Z M14.3829339,7.42481466 C14.6153303,7.5772136 14.7557026,7.8581492 14.7498222,8.15909092 L14.7498222,8.97570456 C14.7498222,9.76202643 14.6249953,10.5154098 14.3967252,11.2108904 L13.1694599,9.98379159 C13.2308529,9.65924103 13.2632199,9.32194784 13.2632199,8.97570456 L13.2632199,8.15909092 C13.2573396,7.8581492 13.3977118,7.5772136 13.6301083,7.42481466 C13.8625048,7.27241572 14.1505374,7.27241572 14.3829339,7.42481466 Z M9.09478571,0.25 C9.83409426,0.25 10.5431548,0.577868253 11.0659581,1.16175794 C11.5887614,1.74564763 11.8824748,2.5376165 11.8824748,3.36341366 L11.882,8.697 L6.23208925,3.04707898 C6.37400452,1.47616482 7.56141345,0.25 9.00521429,0.25 L9.09478571,0.25 Z" id="形状结合" fill="#2E3538"></path>
                                        <rect id="矩形" fill="#FF564F" transform="translate(8.625000, 8.750000) rotate(-45.000000) translate(-8.625000, -8.750000) " x="7.875" y="-2.5" width="1.5" height="22.5" rx="0.75"></rect>
                                    </g>
                                </g>
                            </g>
                        </g>
                    </g>
                </g>
            </g>
        </g>
    </g>
</svg>