<?xml version="1.0" encoding="UTF-8"?>
<svg width="24px" height="24px" viewBox="0 0 24 24" version="1.1" xmlns="http://www.w3.org/2000/svg" xmlns:xlink="http://www.w3.org/1999/xlink">
    <title>合并形状@2x</title>
    <g id="页面-1" stroke="none" stroke-width="1" fill="none" fill-rule="evenodd">
        <g id="4.1-视频全屏（头像）-" transform="translate(-1408.000000, -48.000000)" fill="#FFFFFF" fill-rule="nonzero">
            <path d="M1409.38911,62.227775 L1416.40921,62.2701807 C1416.4204,62.2701807 1416.42681,62.2661813 1416.43641,62.2661813 L1416.43641,62.2661813 L1416.92933,62.253378 C1417.199,62.2469785 1417.44386,62.3533956 1417.6175,62.5302254 C1417.79435,62.7038534 1417.85756,62.9494934 1417.85196,63.2231388 L1417.85196,63.2231388 L1417.79915,63.7152204 C1417.79915,63.7264229 1417.83595,63.7336241 1417.83595,63.7424262 L1417.83595,63.7424262 L1417.80715,70.742798 C1417.79514,71.2876883 1417.34623,71.6109424 1416.8013,71.6245434 L1416.8013,71.6245434 L1416.06913,71.6245434 C1415.52659,71.6381464 1415.09528,71.163667 1415.10729,70.6187766 L1415.10729,70.6187766 L1415.1385,66.8405407 L1410.29734,71.6045338 C1409.7708,72.1318221 1408.91941,72.1318221 1408.39368,71.6045338 C1407.86877,71.0772362 1407.86877,70.2234962 1408.3937,69.6970074 L1408.3937,69.6970074 L1413.23005,64.9066193 L1409.51154,64.8946173 C1408.96901,64.9066193 1408.46489,64.5721622 1408.38247,63.9304566 L1408.38247,63.9304566 L1408.38247,63.2367416 C1408.39609,62.6918512 1408.84579,62.2421774 1409.38911,62.227775 L1409.38911,62.227775 Z M1429.70303,48.3948649 C1430.22955,47.8683784 1431.08017,47.8683784 1431.6059,48.3948649 C1432.13163,48.9229664 1432.13163,49.7751077 1431.6043,50.2991962 L1431.6043,50.2991962 L1426.81114,55.0487729 L1430.54165,55.0631753 C1431.08418,55.0511733 1431.5883,55.4264371 1431.67152,56.0697437 L1431.67152,56.0697437 L1431.67073,56.7626571 C1431.65712,57.3075474 1431.20742,57.7580229 1430.66407,57.7700249 L1430.66407,57.7700249 L1423.63277,57.7284185 L1423.63277,57.7284185 L1423.60477,57.7340189 L1423.11345,57.74442 C1422.84218,57.7524229 1422.59653,57.6460039 1422.42369,57.4699752 C1422.24604,57.2939468 1422.18281,57.0499056 1422.18762,56.7762602 L1422.18762,56.7762602 L1422.24204,56.2825776 C1422.24204,56.272976 1422.20523,56.2665761 1422.20523,56.2561732 L1422.20523,56.2561732 L1422.23323,49.1974089 C1422.24684,48.6541173 1422.69654,48.329264 1423.23988,48.3156611 L1423.23988,48.3156611 L1423.93125,48.3156611 C1424.47378,48.3036591 1424.90668,48.7781386 1424.89388,49.3222296 L1424.89388,49.3222296 L1424.86268,53.1884645 Z" id="合并形状"></path>
        </g>
    </g>
</svg>