<?xml version="1.0" encoding="UTF-8"?>
<svg width="15px" height="3px" viewBox="0 0 15 3" version="1.1" xmlns="http://www.w3.org/2000/svg" xmlns:xlink="http://www.w3.org/1999/xlink">
    <!-- Generator: Sketch 60.1 (88133) - https://sketch.com -->
    <title>编组 4@2x</title>
    <desc>Created with Sketch.</desc>
    <g id="web-" stroke="none" stroke-width="1" fill="none" fill-rule="evenodd">
        <g id="4.2-自主选屏模式" transform="translate(-1421.000000, -50.000000)" fill-rule="nonzero">
            <g id="PC/图标/更多" transform="translate(1416.000000, 40.000000)">
                <g id="编组-4">
                    <g>
                        <rect id="矩形备份-14" opacity="0.5" x="0" y="0" width="24" height="24"></rect>
                        <path d="M6.5,10 C5.67165173,10 5,10.6714113 5,11.5000185 C5,12.3281448 5.67163323,13 6.5,13 C7.32836677,13 8,12.3281263 8,11.5000185 C8,10.6714113 7.32838526,10 6.49998151,10 L6.5,10 Z M12.4999815,10 C11.6716517,10 11,10.6714113 11,11.5000185 C11,12.3281448 11.6716147,13 12.4999815,13 C13.3283668,13 14,12.3281263 14,11.5000185 C14,10.6714113 13.3283668,10 12.4999815,10 L12.4999815,10 Z M18.5,10 C17.6716559,10 17,10.6714113 17,11.5000185 C17,12.3281448 17.6716189,13 18.5,13 C19.3283626,13 20,12.3281263 20,11.5000185 C19.999963,10.6714113 19.3283441,10 18.5,10 L18.5,10 Z" id="形状" fill="#FFFFFF"></path>
                    </g>
                </g>
            </g>
        </g>
    </g>
</svg>