<?xml version="1.0" encoding="UTF-8"?>
<svg width="28px" height="5px" viewBox="0 0 28 5" version="1.1" xmlns="http://www.w3.org/2000/svg" xmlns:xlink="http://www.w3.org/1999/xlink">
    <!-- Generator: Sketch 60.1 (88133) - https://sketch.com -->
    <title>编组 6@2x</title>
    <desc>Created with Sketch.</desc>
    <g id="web-" stroke="none" stroke-width="1" fill="none" fill-rule="evenodd">
        <g id="4.视频全屏-hover" transform="translate(-1039.000000, -855.000000)" fill-rule="nonzero">
            <g id="底部条" transform="translate(0.000000, 830.000000)">
                <g id="编组-7备份-4">
                    <g transform="translate(1033.000000, 8.000000)">
                        <g id="编组-6">
                            <rect id="矩形" x="0" y="0" width="40" height="40"></rect>
                            <g id="编组" transform="translate(6.000000, 17.000000)" fill="#2E3538">
                                <path d="M2.54547166,0 C1.13978029,0 0,1.11901885 0,2.50003082 C0,3.8802414 1.13974891,5 2.54547166,5 C3.95119442,5 5.09094333,3.88021058 5.09094333,2.50003082 C5.09094333,1.11901885 3.9512258,0 2.54544028,0 L2.54547166,0 Z M13.9999843,0 C12.5943243,0 11.454544,1.11901885 11.454544,2.50003082 C11.454544,3.8802414 12.5942616,5 13.9999843,5 C15.4057384,5 16.5454874,3.88021058 16.5454874,2.50003082 C16.5454874,1.11901885 15.4057384,0 13.9999843,0 L13.9999843,0 Z M25.4545283,0 C24.0488684,0 22.9090881,1.11901885 22.9090881,2.50003082 C22.9090881,3.8802414 24.0488056,5 25.4545283,5 C26.8602511,5 28,3.88021058 28,2.50003082 C27.9999372,1.11901885 26.8602197,0 25.4545283,0 L25.4545283,0 Z" id="形状"></path>
                            </g>
                        </g>
                    </g>
                </g>
            </g>
        </g>
    </g>
</svg>