<?xml version="1.0" encoding="UTF-8"?>
<svg width="16px" height="16px" viewBox="0 0 16 16" version="1.1" xmlns="http://www.w3.org/2000/svg" xmlns:xlink="http://www.w3.org/1999/xlink">
    <!-- Generator: Sketch 60.1 (88133) - https://sketch.com -->
    <title>编组 2备份@2x</title>
    <desc>Created with Sketch.</desc>
    <g id="web-" stroke="none" stroke-width="1" fill="none" fill-rule="evenodd">
        <g id="4.3-宫格屏幕" transform="translate(-1400.000000, -12.000000)" fill-rule="nonzero">
            <g id="顶部">
                <g id="编组-6">
                    <g id="编组-2备份" transform="translate(1396.000000, 8.000000)">
                        <rect id="矩形" x="0" y="0" width="24" height="24"></rect>
                        <path d="M20,16 L20,17.3332812 L17.3332812,17.3332812 L17.3332812,20 L16,20 L16,16 L20,16 Z M8,16 L8,20 L6.66671875,20 L6.66671875,17.3332812 L4,17.3332812 L4,16 L8,16 Z M8,4 L8,8 L4,8 L4,6.66671875 L6.66671875,6.66671875 L6.66671875,4 L8,4 Z M17.3332812,4 L17.3332812,6.66671875 L20,6.66671875 L20,8 L16,8 L16,4 L17.3332812,4 Z" id="形状结合" fill="#000000"></path>
                    </g>
                </g>
            </g>
        </g>
    </g>
</svg>