<?xml version="1.0" encoding="UTF-8"?>
<svg width="60px" height="60px" viewBox="0 0 60 60" version="1.1" xmlns="http://www.w3.org/2000/svg" xmlns:xlink="http://www.w3.org/1999/xlink">
    <!-- Generator: Sketch 60.1 (88133) - https://sketch.com -->
    <title>编组 11@2x</title>
    <desc>Created with Sketch.</desc>
    <defs>
        <rect id="path-1" x="0" y="0" width="60" height="60" rx="2"></rect>
    </defs>
    <g id="web-" stroke="none" stroke-width="1" fill="none" fill-rule="evenodd">
        <g id="3.预约界面" transform="translate(-773.000000, -226.000000)">
            <g id="编组-4" transform="translate(773.000000, 226.000000)">
                <g id="编组-11">
                    <g id="编组-2备份">
                        <g id="编组">
                            <mask id="mask-2" fill="white">
                                <use xlink:href="#path-1"></use>
                            </mask>
                            <use id="蒙版" fill="#00AAFF" fill-rule="nonzero" xlink:href="#path-1"></use>
                        </g>
                    </g>
                    <path d="M40.6132527,19.39218 C37.7789251,16.56024 34.0118644,15 30.0028884,15 C25.9953528,15 22.228052,16.56024 19.3949847,19.39248 C16.5607771,22.22568 15.0000002,25.99284 15.0000002,30.00006 C14.9992803,34.00782 16.5589767,37.77426 19.3926441,40.60902 C22.2254114,43.4397 25.9930722,45 30.0002478,45 C34.0092238,45 37.7782049,43.43862 40.6132527,40.60602 C46.461829,34.7583 46.4626692,25.24236 40.6132527,19.39218 Z M36.4202556,34.9897182 C36.0737236,35.5971369 35.4234415,35.8052814 34.823473,35.454796 L29.6451372,32.2784114 C29.4706359,32.1766261 29.1844805,32.0331265 29.0802377,31.8743804 C28.7036983,31.6558073 28.1250001,31.2606803 28.1250001,30.789382 L28.1250001,21.8956392 C28.1250001,21.1942415 28.6873689,20.625 29.3801918,20.625 C30.0731954,20.625 30.6356847,21.1941805 30.6356847,21.8956392 L30.6356847,30.2073945 L35.8427626,33.255404 C36.4441169,33.6060723 36.7667273,34.3822996 36.4202556,34.9897182 Z" id="形状" fill="#FFFFFF" fill-rule="nonzero"></path>
                </g>
            </g>
        </g>
    </g>
</svg>