<?xml version="1.0" encoding="UTF-8"?>
<svg width="28px" height="23px" viewBox="0 0 28 23" version="1.1" xmlns="http://www.w3.org/2000/svg" xmlns:xlink="http://www.w3.org/1999/xlink">
    <!-- Generator: Sketch 60.1 (88133) - https://sketch.com -->
    <title>编组 6@2x</title>
    <desc>Created with Sketch.</desc>
    <g id="web-" stroke="none" stroke-width="1" fill="none" fill-rule="evenodd">
        <g id="4.视频全屏-hover" transform="translate(-883.000000, -846.000000)" fill-rule="nonzero">
            <g id="底部条" transform="translate(0.000000, 830.000000)">
                <g id="编组-7备份-2">
                    <g transform="translate(877.000000, 8.000000)">
                        <g id="编组-6">
                            <rect id="矩形" x="0" y="0" width="40" height="40"></rect>
                            <g id="编组" transform="translate(6.000000, 8.000000)" fill="#2E3538">
                                <g>
                                    <path d="M2.54488888,-6.34908792e-16 L25.4551111,-6.34908792e-16 C26.8597778,-6.34908792e-16 28,1.14022223 28,2.54488888 L28,17.6026667 C28,19.0088889 26.8597778,20.1475556 25.4551111,20.1475556 L2.54488888,20.1475556 C1.13938556,20.1475556 0,19.00817 0,17.6026667 L0,2.54488888 C0,1.14022223 1.14022223,0.00155555859 2.54488888,0.00155555859 L2.54488888,-6.34908792e-16 Z M14.8493333,12.7757778 L19.712,9.24622223 L14.8897778,5.67155556 L14.8882222,7.69066668 C14.8882222,7.69066668 9.51066668,7.36244444 9.54177777,14.4682222 C9.98355553,13.5317778 11.9046666,9.99911112 14.8866667,10.6508889 C14.8866667,11.1548889 14.8477778,12.7773333 14.8477778,12.7773333 L14.8493333,12.7757778 Z" id="形状"></path>
                                    <path d="M7.14155556,21.4346806 L20.8584444,21.4346806 C21.376963,21.4346806 21.6362222,21.6939398 21.6362222,22.2124583 L21.6362222,22.2124583 C21.6362222,22.7309768 21.376963,22.9902361 20.8584444,22.9902361 L7.14155556,22.9902361 C6.62303705,22.9902361 6.36377777,22.7309769 6.36377777,22.2124583 L6.36377777,22.2124583 C6.36377777,21.6939398 6.62303703,21.4346806 7.14155556,21.4346806 Z" id="路径"></path>
                                </g>
                            </g>
                        </g>
                    </g>
                </g>
            </g>
        </g>
    </g>
</svg>