<?xml version="1.0" encoding="UTF-8"?>
<svg width="14px" height="17px" viewBox="0 0 14 17" version="1.1" xmlns="http://www.w3.org/2000/svg" xmlns:xlink="http://www.w3.org/1999/xlink">
    <!-- Generator: Sketch 60.1 (88133) - https://sketch.com -->
    <title>PC/图标/订阅@2x</title>
    <desc>Created with Sketch.</desc>
    <g id="web-" stroke="none" stroke-width="1" fill="none" fill-rule="evenodd">
        <g id="4.3-宫格屏幕" transform="translate(-134.000000, -85.000000)">
            <g id="PC/图标/订阅" transform="translate(128.000000, 81.000000)">
                <g fill-rule="nonzero" id="编组">
                    <g>
                        <g id="编组-7">
                            <rect id="矩形" x="0" y="0" width="24" height="24"></rect>
                            <path d="M18.8189808,5.31955397 L17.2627756,7.19232679 C16.9474515,7.57179506 16.9560117,8.12453133 17.2829355,8.4940531 L18.7645231,10.1686908 C18.9475001,10.3755096 18.9281725,10.6915016 18.7213537,10.8744786 C18.6299396,10.9553546 18.5120997,11 18.3900445,11 L7.58333333,11 L7.58333333,11 L7.58333333,19.7916667 C7.58333333,20.0908209 7.34082091,20.3333333 7.04166667,20.3333333 C6.74251243,20.3333333 6.5,20.0908209 6.5,19.7916667 L6.5,5.5 C6.5,4.94771525 6.94771525,4.5 7.5,4.5 L18.4344223,4.5 C18.7105647,4.5 18.9344223,4.72385763 18.9344223,5 C18.9344223,5.11672768 18.8935824,5.22977672 18.8189808,5.31955397 Z M17.1903333,5.58333333 L7.58333333,5.58333333 L7.58333333,9.91666667 L17.095,9.91666667 L15.8554947,8.51674606 C15.5283651,8.14727968 15.5196583,7.59441915 15.8349914,7.21483487 L17.1903333,5.58333333 L17.1903333,5.58333333 Z" id="形状" stroke="#00AAFF" stroke-width="0.5" fill="#00AAFF"></path>
                        </g>
                    </g>
                </g>
                <g id="编组" transform="translate(5.000000, 5.000000)"></g>
            </g>
        </g>
    </g>
</svg>