<?xml version="1.0" encoding="UTF-8"?>
<svg width="14px" height="14px" viewBox="0 0 14 14" version="1.1" xmlns="http://www.w3.org/2000/svg" xmlns:xlink="http://www.w3.org/1999/xlink">
    <!-- Generator: Sketch 60.1 (88133) - https://sketch.com -->
    <title>编组@2x</title>
    <desc>Created with Sketch.</desc>
    <g id="web-" stroke="none" stroke-width="1" fill="none" fill-rule="evenodd">
        <g id="4.5聊天成员" transform="translate(-1323.000000, -134.000000)" fill-rule="nonzero">
            <g id="成员" transform="translate(1060.000000, 113.000000)">
                <g id="编组-2">
                    <g id="编组-3备份" transform="translate(258.000000, 15.000000)">
                        <g id="编组">
                            <rect id="矩形" x="0" y="0" width="24" height="24"></rect>
                            <path d="M5.69998232,7.35405872 L17.3728712,7.35405872 C17.7710934,7.35405872 18.0697601,7.03972366 18.0697601,6.67702936 C18.0697601,6.29015544 17.7462045,6 17.3728712,6 L5.69998232,6 C5.32664899,6 5.00309343,6.29015544 5.00309343,6.67702936 C5.00309343,7.03972366 5.32664899,7.35405872 5.69998232,7.35405872 Z M17.2235379,13.2055268 L12.046649,8.1761658 C11.9222045,8.0552677 11.7479823,7.95854922 11.5488712,7.95854922 C11.3497601,7.95854922 11.1755379,8.03108808 11.0510934,8.1761658 L5.87420455,13.2055268 C5.7497601,13.3264249 5.67509343,13.4956822 5.67509343,13.6891192 C5.67509343,14.0759931 5.99864899,14.3661485 6.37198232,14.3661485 C6.57109343,14.3661485 6.74531566,14.2936097 6.8697601,14.148532 L10.8270934,10.328152 L10.8270934,19.3229706 C10.8270934,19.7098446 11.150649,20 11.5239823,20 C11.9222045,20 12.2208712,19.6856649 12.2208712,19.3229706 L12.2208712,10.3039724 L16.2030934,14.1727116 C16.3275379,14.2936097 16.5017601,14.3661485 16.7008712,14.3661485 C17.0990934,14.3661485 17.3977601,14.0518135 17.3977601,13.6891192 C17.422649,13.4956822 17.3479823,13.3264249 17.2235379,13.2055268 Z" id="形状" fill="#2E3538"></path>
                        </g>
                    </g>
                </g>
            </g>
        </g>
    </g>
</svg>