<?xml version="1.0" encoding="UTF-8"?>
<svg width="14px" height="14px" viewBox="0 0 14 14" version="1.1" xmlns="http://www.w3.org/2000/svg" xmlns:xlink="http://www.w3.org/1999/xlink">
    <!-- Generator: Sketch 60.1 (88133) - https://sketch.com -->
    <title>编组 3备份@2x</title>
    <desc>Created with Sketch.</desc>
    <g id="web-" stroke="none" stroke-width="1" fill="none" fill-rule="evenodd">
        <g id="4.5聊天成员" transform="translate(-1323.000000, -404.000000)" fill-rule="nonzero">
            <g id="成员备份-5" transform="translate(1060.000000, 383.000000)">
                <g id="编组-2">
                    <g id="编组-3备份" transform="translate(258.000000, 15.000000)">
                        <rect id="矩形" x="0" y="0" width="24" height="24"></rect>
                        <g id="编组" transform="translate(5.000000, 6.000000)" fill="#00AAFF">
                            <path d="M0.699982323,1.35405872 L12.3728712,1.35405872 C12.7710934,1.35405872 13.0697601,1.03972366 13.0697601,0.677029361 C13.0697601,0.29015544 12.7462045,0 12.3728712,0 L0.699982323,0 C0.32664899,0 0.00309343434,0.29015544 0.00309343434,0.677029361 C0.00309343434,1.03972366 0.32664899,1.35405872 0.699982323,1.35405872 Z M12.2235379,7.20552677 L7.04664899,2.1761658 C6.92220455,2.0552677 6.74798232,1.95854922 6.54887121,1.95854922 C6.3497601,1.95854922 6.17553788,2.03108808 6.05109343,2.1761658 L0.874204545,7.20552677 C0.749760101,7.32642487 0.675093434,7.49568221 0.675093434,7.68911917 C0.675093434,8.07599309 0.99864899,8.36614853 1.37198232,8.36614853 C1.57109343,8.36614853 1.74531566,8.29360967 1.8697601,8.14853195 L5.82709343,4.32815199 L5.82709343,13.3229706 C5.82709343,13.7098446 6.15064899,14 6.52398232,14 C6.92220455,14 7.22087121,13.6856649 7.22087121,13.3229706 L7.22087121,4.30397237 L11.2030934,8.17271157 C11.3275379,8.29360967 11.5017601,8.36614853 11.7008712,8.36614853 C12.0990934,8.36614853 12.3977601,8.05181347 12.3977601,7.68911917 C12.422649,7.49568221 12.3479823,7.32642487 12.2235379,7.20552677 Z" id="形状"></path>
                        </g>
                    </g>
                </g>
            </g>
        </g>
    </g>
</svg>