<?xml version="1.0" encoding="UTF-8"?>
<svg width="80px" height="80px" viewBox="0 0 80 80" version="1.1" xmlns="http://www.w3.org/2000/svg" xmlns:xlink="http://www.w3.org/1999/xlink">
    <!-- Generator: Sketch 60.1 (88133) - https://sketch.com -->
    <title>编组 10@2x</title>
    <desc>Created with Sketch.</desc>
    <g id="web-" stroke="none" stroke-width="1" fill="none" fill-rule="evenodd">
        <g id="4.3-宫格屏幕" transform="translate(-1100.000000, -400.000000)" fill-rule="nonzero">
            <g id="编组-6备份-3" transform="translate(940.000000, 327.000000)">
                <g id="编组-10" transform="translate(160.000000, 73.000000)">
                    <circle id="椭圆形" fill="#B7BAD3" cx="40" cy="40" r="40"></circle>
                    <g id="编组" transform="translate(20.000000, 17.000000)" fill="#FFFFFF">
                        <path d="M19.3981604,0.0411320607 C12.9740094,0.0411320607 7.76344338,4.99811321 7.76344338,11.1143396 C7.76344338,17.2305661 12.9740094,22.1905661 19.3981604,22.1905661 C25.8283491,22.1905661 31.0358962,17.2305661 31.0358962,11.1143396 C31.0358962,4.99811321 25.8313679,0.0411320607 19.3981604,0.0411320607 Z M19.3981604,0.0411320607 C12.9740094,0.0411320607 7.76344338,4.99811321 7.76344338,11.1143396 C7.76344338,17.2305661 12.9740094,22.1905661 19.3981604,22.1905661 C25.8283491,22.1905661 31.0358962,17.2305661 31.0358962,11.1143396 C31.0358962,4.99811321 25.8313679,0.0411320607 19.3981604,0.0411320607 Z M15.0389151,25.8826415 C6.73702832,25.8826415 0.00495283019,32.2886793 0.00495283019,40.1890566 L0.00495283019,41.1098113 C0.00495283019,44.34 6.73702832,44.34 15.0389151,44.34 L24.7415566,44.34 C33.0434434,44.34 39.7694811,44.2192453 39.7694811,41.1098113 L39.7694811,40.1890566 C39.7694811,32.2886792 33.0434434,25.8856603 24.7415566,25.8856604 L15.0389151,25.8856604 L15.0389151,25.8826415 Z" id="形状"></path>
                    </g>
                </g>
            </g>
        </g>
    </g>
</svg>