<?xml version="1.0" encoding="UTF-8"?>
<svg width="30px" height="22px" viewBox="0 0 30 22" version="1.1" xmlns="http://www.w3.org/2000/svg" xmlns:xlink="http://www.w3.org/1999/xlink">
    <!-- Generator: Sketch 60.1 (88133) - https://sketch.com -->
    <title>编组 6@2x</title>
    <desc>Created with Sketch.</desc>
    <g id="web-" stroke="none" stroke-width="1" fill="none" fill-rule="evenodd">
        <g id="4.视频全屏-hover" transform="translate(-968.000000, -846.000000)" fill-rule="nonzero">
            <g id="底部条" transform="translate(0.000000, 830.000000)">
                <g id="编组-7备份-3">
                    <g transform="translate(963.000000, 8.000000)">
                        <g id="编组-6">
                            <rect id="矩形" x="0" y="0" width="40" height="40"></rect>
                            <g id="编组" transform="translate(5.000000, 8.000000)" fill="#2E3538">
                                <path d="M18.1892699,16.5584968 C16.5400845,16.1085147 14.6742822,15.9900595 13.36826,14.1677977 C13.36826,14.1677977 12.7018653,13.3708059 14.2011852,11.4267404 C15.5636011,9.21241093 16.0158356,6.54338965 15.4605995,3.99386354 C15.0219918,1.68492405 13.0322717,0.0166416578 10.7170629,0.0166416578 C8.40185409,0.0166416578 6.41213391,1.68492405 5.97352626,3.99386354 C5.41840192,6.54338096 5.87059464,9.21234784 7.23284978,11.4267404 C8.74051745,13.3708059 8.07578628,14.1677978 8.07578628,14.1677977 C6.77644822,15.9714741 4.92737163,16.1033538 3.28977013,16.5501104 C2.64293292,16.7020654 2.02986397,16.975803 1.48231106,17.3571476 C-0.41836403,18.7733872 0.0514059395,22 0.0514059395,22 L21.3910675,22 C21.3910675,22 21.85745,18.7733871 19.9617049,17.3588679 C19.4234711,16.9849167 18.8229494,16.7131692 18.1892699,16.5568073 L18.1892699,16.5584968 Z M28.5175556,17.3605268 C27.9797929,16.9883201 27.3788506,16.7204176 26.7450904,16.5703547 C25.0791793,16.1101736 21.257716,13.3792845 22.7469643,11.4250816 C24.1140492,9.20815806 24.5665236,6.53357808 24.006439,3.98031613 C23.7078689,2.33971196 22.6023312,0.968976968 21.0774402,0.348706732 C19.5525492,-0.271563503 17.8210737,-0.0548223997 16.490089,0.922938098 C17.0470095,1.73158745 17.4186745,2.65658776 17.5778309,3.63011158 C18.1357125,6.54600623 17.6824773,9.56814811 16.2951278,12.1830901 C16.1195501,12.3798635 16.020659,12.634923 16.016992,12.9004566 C16.1317432,13.5085567 16.6196452,13.9720177 17.2246868,14.047653 L17.7928145,14.183004 C18.1126283,14.2710467 18.4324421,14.3352201 18.7323242,14.4215732 C19.6279392,14.6419214 20.4753069,15.0297887 21.2310699,15.565329 C23.0116529,17.1820257 23.8855701,19.5912745 23.5632849,21.9948698 L29.9485515,21.9948698 C29.9485515,21.9948698 30.418261,18.7632189 28.5191889,17.3537991" id="形状"></path>
                            </g>
                        </g>
                    </g>
                </g>
            </g>
        </g>
    </g>
</svg>