<?xml version="1.0" encoding="UTF-8"?>
<svg width="40px" height="40px" viewBox="0 0 40 40" version="1.1" xmlns="http://www.w3.org/2000/svg" xmlns:xlink="http://www.w3.org/1999/xlink">
    <title>编组 9@2x</title>
    <g id="web-" stroke="none" stroke-width="1" fill="none" fill-rule="evenodd">
        <g id="4.2-自主选屏模式" transform="translate(-1100.000000, -40.000000)" fill-rule="nonzero">
            <g id="编组-9" transform="translate(1100.000000, 40.000000)">
                <path d="M0,0 L40,0 L40,40 L2,40 C0.8954305,40 1.3527075e-16,39.1045695 0,38 L0,0 L0,0 Z" id="矩形" fill="#2E3538" opacity="0.5"></path>
                <path d="M15.5549615,22.6232412 C16.081502,22.095953 16.9328944,22.095953 17.4586213,22.6232412 C17.9835334,23.1505388 17.9835334,24.0042788 17.4586012,24.5307677 L17.4586012,24.5307677 L12.6222533,29.3211558 L16.3407609,29.3331578 C16.8832919,29.3211558 17.3874144,29.6556128 17.4698281,30.2973184 L17.4698281,30.2973184 L17.4698281,30.9910335 C17.456217,31.5359238 17.0065162,31.9855976 16.4631904,32 L16.4631904,32 L9.44308859,31.9575943 C9.43189821,31.9575943 9.42549051,31.9615937 9.41588819,31.9615937 L9.41588819,31.9615937 L8.9229746,31.9743971 C8.65329853,31.9807966 8.40843869,31.8743795 8.23480292,31.6975496 C8.05795473,31.5239216 7.99474562,31.2782816 8.00034082,31.0046363 L8.00034082,31.0046363 L8.05315357,30.5125547 C8.05315357,30.5013521 8.01635086,30.4941509 8.01635086,30.4853488 L8.01635086,30.4853488 L8.04515782,23.4849771 C8.05716071,22.9400867 8.50606914,22.6168327 9.05100076,22.6032316 L9.05100076,22.6032316 L9.78317761,22.6032316 C10.3257086,22.5896286 10.7570183,23.0641081 10.7450154,23.6089984 L10.7450154,23.6089984 L10.7138079,27.3872343 Z M23.5232915,8 L30.5545992,8.04160635 C30.5649955,8.04000732 30.5721972,8.03600604 30.5825936,8.03600604 L30.5825936,8.03600604 L31.0739177,8.02560493 C31.3451832,8.01760204 31.5908371,8.12402102 31.7636789,8.30004966 C31.9413227,8.47607807 32.0045503,8.72011932 31.9997492,8.9937647 L31.9997492,8.9937647 L31.9453298,9.48744734 C31.9453298,9.49704893 31.9821326,9.50344876 31.9821326,9.51385172 L31.9821326,9.51385172 L31.9541381,16.572616 C31.940527,17.1159076 31.4908262,17.4407609 30.9474817,17.4543638 L30.9474817,17.4543638 L30.2561147,17.4543638 C29.7135837,17.4663658 29.2806853,16.9918863 29.2934822,16.4477953 L29.2934822,16.4477953 L29.3246898,12.5815604 L24.4843331,17.37516 C23.9578138,17.9016465 23.107195,17.9016465 22.5814681,17.37516 C22.0557314,16.8470585 22.0557314,15.9949172 22.5830643,15.4708287 L22.5830643,15.4708287 L27.3762298,10.721252 L23.6457194,10.7068496 C23.1031884,10.7188516 22.5990673,10.3435878 22.515841,9.70028117 L22.515841,9.70028117 L22.5166351,9.00736783 C22.5302462,8.46247747 22.979947,8.01200199 23.5232915,8 L23.5232915,8 Z" id="合并形状" fill="#FFFFFF"></path>
            </g>
        </g>
    </g>
</svg>