<?xml version="1.0" encoding="UTF-8"?>
<svg width="40px" height="40px" viewBox="0 0 40 40" version="1.1" xmlns="http://www.w3.org/2000/svg" xmlns:xlink="http://www.w3.org/1999/xlink">
    <title>编组 8@2x</title>
    <g id="web-" stroke="none" stroke-width="1" fill="none" fill-rule="evenodd">
        <g id="4.视频全屏-hover" transform="translate(-1400.000000, -40.000000)" fill-rule="nonzero">
            <g id="编组-8" transform="translate(1400.000000, 40.000000)">
                <path d="M0,0 L40,0 L40,40 L2,40 C0.8954305,40 1.3527075e-16,39.1045695 0,38 L0,0 L0,0 Z" id="矩形" fill="#2E3538" opacity="0.5"></path>
                <path d="M9.38911245,22.227775 L16.4092143,22.2701807 C16.4204047,22.2701807 16.4268124,22.2661813 16.4364147,22.2661813 L16.4364147,22.2661813 L16.9293283,22.253378 C17.1990044,22.2469785 17.4438642,22.3533956 17.6175,22.5302254 C17.7943482,22.7038534 17.8575573,22.9494934 17.8519621,23.2231388 L17.8519621,23.2231388 L17.7991493,23.7152204 C17.7991493,23.7264229 17.835952,23.7336241 17.835952,23.7424262 L17.835952,23.7424262 L17.8071451,30.742798 C17.7951422,31.2876883 17.3462338,31.6109424 16.8013021,31.6245434 L16.8013021,31.6245434 L16.0691253,31.6245434 C15.5265942,31.6381464 15.0952846,31.163667 15.1072875,30.6187766 L15.1072875,30.6187766 L15.138495,26.8405407 L10.2973414,31.6045338 C9.77080089,32.1318221 8.91940853,32.1318221 8.39368155,31.6045338 C7.86876946,31.0772362 7.86876946,30.2234962 8.39370171,29.6970074 L8.39370171,29.6970074 L13.2300495,24.9066193 L9.51154202,24.8946173 C8.96901098,24.9066193 8.46488852,24.5721622 8.38247478,23.9304566 L8.38247478,23.9304566 L8.38247478,23.2367416 C8.39608588,22.6918512 8.84578669,22.2421774 9.38911245,22.227775 L9.38911245,22.227775 Z M29.7030318,8.39486489 C30.2295511,7.86837837 31.0801699,7.86837837 31.6058968,8.39486489 C32.1316335,8.92296643 32.1316335,9.77510774 31.6043006,10.2991962 L31.6043006,10.2991962 L26.8111351,15.0487729 L30.5416455,15.0631753 C31.0841766,15.0511733 31.5882976,15.4264371 31.6715239,16.0697437 L31.6715239,16.0697437 L31.6707298,16.7626571 C31.6571187,17.3075474 31.2074179,17.7580229 30.6640734,17.7700249 L30.6640734,17.7700249 L23.6327657,17.7284185 L23.6327657,17.7284185 L23.6047713,17.7340189 L23.1134472,17.74442 C22.8421817,17.7524229 22.5965278,17.6460039 22.423686,17.4699752 C22.2460422,17.2939468 22.1828146,17.0499056 22.1876157,16.7762602 L22.1876157,16.7762602 L22.2420351,16.2825776 C22.2420351,16.272976 22.2052323,16.2665761 22.2052323,16.2561732 L22.2052323,16.2561732 L22.2332268,9.19740891 C22.2468379,8.65411726 22.6965387,8.32926401 23.2398832,8.31566113 L23.2398832,8.31566113 L23.9312502,8.31566113 C24.4737812,8.30365914 24.9066796,8.7781386 24.8938827,9.32222961 L24.8938827,9.32222961 L24.8626751,13.1884645 Z" id="合并形状" fill="#FFFFFF"></path>
            </g>
        </g>
    </g>
</svg>