<?xml version="1.0" encoding="UTF-8" standalone="no"?>
<svg width="221px" height="243px" viewBox="0 0 221 243" version="1.1" xmlns="http://www.w3.org/2000/svg" xmlns:xlink="http://www.w3.org/1999/xlink">
    <!-- Generator: Sketch 47.1 (45422) - http://www.bohemiancoding.com/sketch -->
    <title>工作栏</title>
    <desc>Created with Sketch.</desc>
    <defs></defs>
    <g id="公众号" stroke="none" stroke-width="1" fill="none" fill-rule="evenodd">
        <g id="工作栏">
            <path d="M27,43 L36,43 L36,52 L27,52 L27,43 Z M28,44 L28,51 L35,51 L35,44 L28,44 Z" id="Combined-Shape" fill="#222222"></path>
            <path d="M35,74 L35,67 L28,67 L28,66 L36,66 L36,74 L35,74 Z M27,68 L34,68 L34,75 L27,75 L27,68 Z M28,69 L28,74 L33,74 L33,69 L28,69 Z" id="Combined-Shape" fill="#222222"></path>
            <path d="M70,74 L70,67 L63,67 L63,66 L71,66 L71,74 L70,74 Z M62,68 L69,68 L69,75 L62,75 L62,68 Z M63,69 L63,74 L68,74 L68,69 L63,69 Z" id="Combined-Shape-Copy-15" fill="#000000"></path>
            <path d="M62,43 L71,43 L71,52 L62,52 L62,43 Z M63,44 L63,51 L70,51 L70,44 L63,44 Z" id="Combined-Shape-Copy-14" fill="#000000"></path>
            <path d="M30.7407102,24.5 L27.1429904,28.0977198 C26.9581573,28.282553 26.9510263,28.6057446 27.1459666,28.8006849 L27.1993151,28.8540334 C27.3912599,29.0459782 27.7089836,29.0503062 27.9022802,28.8570096 L31.5,25.2592898 L35.0977198,28.8570096 C35.282553,29.0418427 35.6057446,29.0489737 35.8006849,28.8540334 L35.8540334,28.8006849 C36.0459782,28.6087401 36.0503062,28.2910164 35.8570096,28.0977198 L32.2592898,24.5 L35.8570096,20.9022802 C36.0418427,20.717447 36.0489737,20.3942554 35.8540334,20.1993151 L35.8006849,20.1459666 C35.6087401,19.9540218 35.2910164,19.9496938 35.0977198,20.1429904 L31.5,23.7407102 L27.9022802,20.1429904 C27.717447,19.9581573 27.3942554,19.9510263 27.1993151,20.1459666 L27.1459666,20.1993151 C26.9540218,20.3912599 26.9496938,20.7089836 27.1429904,20.9022802 L30.7407102,24.5 Z" id="Combined-Shape-Copy-16" fill="#222222"></path>
            <path d="M65.7407102,24.5 L62.1429904,28.0977198 C61.9581573,28.282553 61.9510263,28.6057446 62.1459666,28.8006849 L62.1993151,28.8540334 C62.3912599,29.0459782 62.7089836,29.0503062 62.9022802,28.8570096 L66.5,25.2592898 L70.0977198,28.8570096 C70.282553,29.0418427 70.6057446,29.0489737 70.8006849,28.8540334 L70.8540334,28.8006849 C71.0459782,28.6087401 71.0503062,28.2910164 70.8570096,28.0977198 L67.2592898,24.5 L70.8570096,20.9022802 C71.0418427,20.717447 71.0489737,20.3942554 70.8540334,20.1993151 L70.8006849,20.1459666 C70.6087401,19.9540218 70.2910164,19.9496938 70.0977198,20.1429904 L66.5,23.7407102 L62.9022802,20.1429904 C62.717447,19.9581573 62.3942554,19.9510263 62.1993151,20.1459666 L62.1459666,20.1993151 C61.9540218,20.3912599 61.9496938,20.7089836 62.1429904,20.9022802 L65.7407102,24.5 Z" id="Combined-Shape-Copy-17" fill="#000000"></path>
            <rect id="Rectangle-15-Copy-2" fill="#222222" x="26" y="92" width="11" height="1"></rect>
            <rect id="Rectangle-15-Copy-3" fill="#000000" x="61" y="92" width="11" height="1"></rect>
            <g id="Group" transform="translate(26.000000, 118.000000)">
                <g id="Group-27"></g>
            </g>
            <path d="M36,121.5 L35.9739615,121.137853 C35.9667996,121.109814 35.9620076,121.080827 35.9598116,121.051118 C35.9567114,121.034017 35.9534372,121.016977 35.95862,121 C35.9658952,120.730207 36.186885,120.513733 36.4584351,120.513733 C36.7299851,120.513733 36.9509749,120.730207 36.9645556,121 C36.987914,121.163301 37,121.330239 37,121.5 C37,123.432997 35.4329966,125 33.5,125 L29.5,125 C27.5670034,125 26,123.432997 26,121.5 C26,119.567003 27.5670034,118 29.5,118 L32,118 C32.2761424,118 32.5,118.223858 32.5,118.5 C32.5,118.776142 32.2761424,119 32,119 L29.5,119 C28.1192881,119 27,120.119288 27,121.5 C27,122.880712 28.1192881,124 29.5,124 L33.5,124 C34.8807119,124 36,122.880712 36,121.5 Z M40.5,125 L37,124.989998 C36.7717762,124.943671 36.6000004,124.741896 36.6000004,124.5 C36.6000004,124.258104 36.7717762,124.056329 37,124 L40.5,124 C41.8807119,124 43,122.880712 43,121.5 C43,120.119288 41.8807119,119 40.5,119 L36.5,119 C35.1192881,119 34,120.119288 34,121.5 C34,121.625859 34.0093005,121.749546 34.0272516,121.87041 C34.0385828,121.908083 34.0455901,121.947628 34.0476968,121.988469 C34.0484587,121.992316 34.0492295,121.99616 34.0483704,122.014648 C34.0483704,122.290791 33.8245127,122.514648 33.5483704,122.514648 C33.272228,122.514648 33.0483704,122.290791 33.0354444,122 C33.012086,121.836699 33,121.669761 33,121.5 C33,119.567003 34.5670034,118 36.5,118 L40.5,118 C42.4329966,118 44,119.567003 44,121.5 C44,123.432997 42.4329966,125 40.5,125 Z" id="Combined-Shape" fill="#222222"></path>
            <path d="M69.9739615,121.137853 L69.9739615,121.137853 C69.9667996,121.109814 69.9620076,121.080827 69.9598116,121.051118 C69.9567114,121.034017 69.9534372,121.016977 69.9499909,121 L69.95862,121 C69.9658952,120.730207 70.186885,120.513733 70.4584351,120.513733 C70.7299851,120.513733 70.9509749,120.730207 70.9582501,121 L70.9645556,121 C70.987914,121.163301 71,121.330239 71,121.5 C71,123.432997 69.4329966,125 67.5,125 L63.5,125 C61.5670034,125 60,123.432997 60,121.5 C60,119.567003 61.5670034,118 63.5,118 L66,118 C66.2761424,118 66.5,118.223858 66.5,118.5 C66.5,118.776142 66.2761424,119 66,119 L63.5,119 C62.1192881,119 61,120.119288 61,121.5 C61,122.880712 62.1192881,124 63.5,124 L67.5,124 C68.8807119,124 70,122.880712 70,121.5 C70,121.377008 69.9911184,121.25609 69.9739615,121.137853 Z M71,124.989998 L71,124.989998 C70.7717762,124.943671 70.6000004,124.741896 70.6000004,124.5 C70.6000004,124.258104 70.7717762,124.056329 71,124.010002 L71,124 L74.5,124 C75.8807119,124 77,122.880712 77,121.5 C77,120.119288 75.8807119,119 74.5,119 L70.5,119 C69.1192881,119 68,120.119288 68,121.5 C68,121.625859 68.0093005,121.749546 68.0272516,121.87041 C68.0385828,121.908083 68.0455901,121.947628 68.0476968,121.988469 C68.0484587,121.992316 68.0492295,121.99616 68.0500091,122 L68.0481599,122 C68.0482999,122.004866 68.0483704,122.009749 68.0483704,122.014648 C68.0483704,122.290791 67.8245127,122.514648 67.5483704,122.514648 C67.272228,122.514648 67.0483704,122.290791 67.0483704,122.014648 C67.0483704,122.009749 67.0484408,122.004866 67.0485808,122 L67.0354444,122 C67.012086,121.836699 67,121.669761 67,121.5 C67,119.567003 68.5670034,118 70.5,118 L74.5,118 C76.4329966,118 78,119.567003 78,121.5 C78,123.432997 76.4329966,125 74.5,125 L71,125 L71,124.989998 Z" id="Combined-Shape" fill="#000000"></path>
            <g id="Group-26" transform="translate(24.000000, 146.000000)">
                <path d="M0.5,0.5 L0.5,13.5 L15.5,13.5 L15.5,0.5 L0.5,0.5 Z" id="Combined-Shape" stroke="#222222"></path>
                <path d="M1,4 L15,4 L15,5 L1,5 L1,4 Z M9.5,3 C9.22385763,3 9,2.77614237 9,2.5 C9,2.22385763 9.22385763,2 9.5,2 C9.77614237,2 10,2.22385763 10,2.5 C10,2.77614237 9.77614237,3 9.5,3 Z M11.5,3 C11.2238576,3 11,2.77614237 11,2.5 C11,2.22385763 11.2238576,2 11.5,2 C11.7761424,2 12,2.22385763 12,2.5 C12,2.77614237 11.7761424,3 11.5,3 Z M13.5,3 C13.2238576,3 13,2.77614237 13,2.5 C13,2.22385763 13.2238576,2 13.5,2 C13.7761424,2 14,2.22385763 14,2.5 C14,2.77614237 13.7761424,3 13.5,3 Z" id="Combined-Shape" fill="#222222"></path>
            </g>
            <g id="Group-26-Copy" transform="translate(60.000000, 146.000000)">
                <path d="M0.5,0.5 L0.5,13.5 L15.5,13.5 L15.5,0.5 L0.5,0.5 Z" id="Combined-Shape" stroke="#000000"></path>
                <path d="M1,4 L15,4 L15,5 L1,5 L1,4 Z M9.5,3 C9.22385763,3 9,2.77614237 9,2.5 C9,2.22385763 9.22385763,2 9.5,2 C9.77614237,2 10,2.22385763 10,2.5 C10,2.77614237 9.77614237,3 9.5,3 Z M11.5,3 C11.2238576,3 11,2.77614237 11,2.5 C11,2.22385763 11.2238576,2 11.5,2 C11.7761424,2 12,2.22385763 12,2.5 C12,2.77614237 11.7761424,3 11.5,3 Z M13.5,3 C13.2238576,3 13,2.77614237 13,2.5 C13,2.22385763 13.2238576,2 13.5,2 C13.7761424,2 14,2.22385763 14,2.5 C14,2.77614237 13.7761424,3 13.5,3 Z" id="Combined-Shape" fill="#000000"></path>
            </g>
            <path d="M37.363961,187.863961 C37.363961,187.736 37.3151455,187.608039 37.2175144,187.510408 L30.8535534,181.146447 C30.6582912,180.951184 30.3417088,180.951184 30.1464466,181.146447 C29.9511845,181.341709 29.9511845,181.658291 30.1464466,181.853553 L36.1568542,187.863961 L30.1464466,193.874369 C29.9511845,194.069631 29.9511845,194.386213 30.1464466,194.581475 C30.3417088,194.776738 30.6582912,194.776738 30.8535534,194.581475 L37.2175144,188.217514 C37.3151455,188.119883 37.363961,187.991922 37.363961,187.863961 Z" id="Combined-Shape" fill="#777777"></path>
        </g>
    </g>
</svg>