<?xml version="1.0" encoding="UTF-8" standalone="no"?>
<svg width="150px" height="692px" viewBox="0 0 150 692" version="1.1" xmlns="http://www.w3.org/2000/svg" xmlns:xlink="http://www.w3.org/1999/xlink">
    <!-- Generator: Sketch 49.2 (51160) - http://www.bohemiancoding.com/sketch -->
    <title>icon</title>
    <desc>Created with Sketch.</desc>
    <defs></defs>
    <g id="icon" stroke="none" stroke-width="1" fill="none" fill-rule="evenodd">
        <g id="Group" transform="translate(16.000000, 11.000000)">
            <circle id="Oval" stroke="#777777" cx="9.5" cy="9.5" r="9"></circle>
            <rect id="Rectangle" fill="#777777" transform="translate(18.477029, 19.676777) rotate(45.000000) translate(-18.477029, -19.676777) " x="13.9770292" y="19.1767767" width="9" height="1" rx="0.5"></rect>
            <path d="M9,9 L9,5.5 C9,5.22385763 9.22385763,5 9.5,5 C9.77614237,5 10,5.22385763 10,5.5 L10,9 L13.5,9 C13.7761424,9 14,9.22385763 14,9.5 C14,9.77614237 13.7761424,10 13.5,10 L10,10 L10,13.5 C10,13.7761424 9.77614237,14 9.5,14 C9.22385763,14 9,13.7761424 9,13.5 L9,10 L5.5,10 C5.22385763,10 5,9.77614237 5,9.5 C5,9.22385763 5.22385763,9 5.5,9 L9,9 Z" id="Combined-Shape" fill="#777777"></path>
        </g>
        <g id="Group-Copy-4" opacity="0.4" transform="translate(112.000000, 11.000000)">
            <circle id="Oval" stroke="#777777" cx="9.5" cy="9.5" r="9"></circle>
            <rect id="Rectangle" fill="#777777" transform="translate(18.477029, 19.676777) rotate(45.000000) translate(-18.477029, -19.676777) " x="13.9770292" y="19.1767767" width="9" height="1" rx="0.5"></rect>
            <path d="M9,9 L9,5.5 C9,5.22385763 9.22385763,5 9.5,5 C9.77614237,5 10,5.22385763 10,5.5 L10,9 L13.5,9 C13.7761424,9 14,9.22385763 14,9.5 C14,9.77614237 13.7761424,10 13.5,10 L10,10 L10,13.5 C10,13.7761424 9.77614237,14 9.5,14 C9.22385763,14 9,13.7761424 9,13.5 L9,10 L5.5,10 C5.22385763,10 5,9.77614237 5,9.5 C5,9.22385763 5.22385763,9 5.5,9 L9,9 Z" id="Combined-Shape" fill="#777777"></path>
        </g>
        <g id="Group-Copy" transform="translate(64.000000, 11.000000)">
            <circle id="Oval" stroke="#222222" cx="9.5" cy="9.5" r="9"></circle>
            <rect id="Rectangle" fill="#222222" transform="translate(18.477029, 19.676777) rotate(45.000000) translate(-18.477029, -19.676777) " x="13.9770292" y="19.1767767" width="9" height="1" rx="0.5"></rect>
            <path d="M9,9 L9,5.5 C9,5.22385763 9.22385763,5 9.5,5 C9.77614237,5 10,5.22385763 10,5.5 L10,9 L13.5,9 C13.7761424,9 14,9.22385763 14,9.5 C14,9.77614237 13.7761424,10 13.5,10 L10,10 L10,13.5 C10,13.7761424 9.77614237,14 9.5,14 C9.22385763,14 9,13.7761424 9,13.5 L9,10 L5.5,10 C5.22385763,10 5,9.77614237 5,9.5 C5,9.22385763 5.22385763,9 5.5,9 L9,9 Z" id="Combined-Shape" fill="#222222"></path>
        </g>
        <g id="Group" transform="translate(16.000000, 52.000000)">
            <circle id="Oval" stroke="#777777" cx="9.5" cy="9.5" r="9"></circle>
            <rect id="Rectangle" fill="#777777" transform="translate(18.477029, 19.676777) rotate(45.000000) translate(-18.477029, -19.676777) " x="13.9770292" y="19.1767767" width="9" height="1" rx="0.5"></rect>
            <rect id="Combined-Shape" fill="#777777" x="5" y="9" width="9" height="1" rx="0.5"></rect>
        </g>
        <g id="Group-Copy-5" opacity="0.4" transform="translate(112.000000, 52.000000)">
            <circle id="Oval" stroke="#777777" cx="9.5" cy="9.5" r="9"></circle>
            <rect id="Rectangle" fill="#777777" transform="translate(18.477029, 19.676777) rotate(45.000000) translate(-18.477029, -19.676777) " x="13.9770292" y="19.1767767" width="9" height="1" rx="0.5"></rect>
            <rect id="Combined-Shape" fill="#777777" x="5" y="9" width="9" height="1" rx="0.5"></rect>
        </g>
        <g id="Group-Copy-2" transform="translate(64.000000, 52.000000)">
            <circle id="Oval" stroke="#222222" cx="9.5" cy="9.5" r="9"></circle>
            <rect id="Rectangle" fill="#222222" transform="translate(18.477029, 19.676777) rotate(45.000000) translate(-18.477029, -19.676777) " x="13.9770292" y="19.1767767" width="9" height="1" rx="0.5"></rect>
            <rect id="Combined-Shape" fill="#222222" x="5" y="9" width="9" height="1" rx="0.5"></rect>
        </g>
        <g id="Group" transform="translate(17.000000, 141.000000)" fill="#777777">
            <path d="M20,19 L20,14.5 C20,14.2238576 20.2238576,14 20.5,14 C20.7761424,14 21,14.2238576 21,14.5 L21,19.5 C21,19.7761424 20.7761424,20 20.5,20 L0.5,20 C0.223857625,20 -6.62071603e-16,19.7761424 1.46475412e-30,19.5 L0,14.5 C-3.38176876e-17,14.2238576 0.223857625,14 0.5,14 C0.776142375,14 1,14.2238576 1,14.5 L1,19 L20,19 Z" id="Combined-Shape"></path>
            <path d="M10,14.9497475 L10,0.5 C10,0.223857625 10.2238576,5.07265313e-17 10.5,0 C10.7761424,-5.07265313e-17 11,0.223857625 11,0.5 L11,14.9497475 L15.8033009,10.1464466 C15.998563,9.95118446 16.3151455,9.95118446 16.5104076,10.1464466 C16.7056698,10.3417088 16.7056698,10.6582912 16.5104076,10.8535534 L10.8535534,16.5104076 C10.7559223,16.6080387 10.6279612,16.6568542 10.5,16.6568542 C10.3720388,16.6568542 10.2440777,16.6080387 10.1464466,16.5104076 L4.48959236,10.8535534 C4.29433021,10.6582912 4.29433021,10.3417088 4.48959236,10.1464466 C4.68485451,9.95118446 5.001437,9.95118446 5.19669914,10.1464466 L10,14.9497475 Z" id="Combined-Shape"></path>
        </g>
        <g id="Group-Copy-3" transform="translate(65.000000, 141.000000)" fill="#000000">
            <path d="M20,19 L20,14.5 C20,14.2238576 20.2238576,14 20.5,14 C20.7761424,14 21,14.2238576 21,14.5 L21,19.5 C21,19.7761424 20.7761424,20 20.5,20 L0.5,20 C0.223857625,20 -6.62071603e-16,19.7761424 1.46475412e-30,19.5 L0,14.5 C-3.38176876e-17,14.2238576 0.223857625,14 0.5,14 C0.776142375,14 1,14.2238576 1,14.5 L1,19 L20,19 Z" id="Combined-Shape"></path>
            <path d="M10,14.9497475 L10,0.5 C10,0.223857625 10.2238576,5.07265313e-17 10.5,0 C10.7761424,-5.07265313e-17 11,0.223857625 11,0.5 L11,14.9497475 L15.8033009,10.1464466 C15.998563,9.95118446 16.3151455,9.95118446 16.5104076,10.1464466 C16.7056698,10.3417088 16.7056698,10.6582912 16.5104076,10.8535534 L10.8535534,16.5104076 C10.7559223,16.6080387 10.6279612,16.6568542 10.5,16.6568542 C10.3720388,16.6568542 10.2440777,16.6080387 10.1464466,16.5104076 L4.48959236,10.8535534 C4.29433021,10.6582912 4.29433021,10.3417088 4.48959236,10.1464466 C4.68485451,9.95118446 5.001437,9.95118446 5.19669914,10.1464466 L10,14.9497475 Z" id="Combined-Shape"></path>
        </g>
        <path d="M18.5,189.5 L18.5,203.5 L37.5,203.5 L37.5,189.5 L18.5,189.5 Z M18.5,205.5 L18.5,210.5 L26.5,210.5 L26.5,205.5 L18.5,205.5 Z M29.5,205.5 L29.5,210.5 L37.5,210.5 L37.5,205.5 L29.5,205.5 Z" id="Combined-Shape" stroke="#777777"></path>
        <path d="M65.5,189.5 L65.5,203.5 L84.5,203.5 L84.5,189.5 L65.5,189.5 Z M65.5,205.5 L65.5,210.5 L73.5,210.5 L73.5,205.5 L65.5,205.5 Z M76.5,205.5 L76.5,210.5 L84.5,210.5 L84.5,205.5 L76.5,205.5 Z" id="Combined-Shape-Copy" stroke="#000000"></path>
        <circle id="Oval-4-Copy-3" fill-opacity="0.3" fill="#000000" cx="28" cy="302" r="20"></circle>
        <circle id="Oval-4-Copy-4" fill-opacity="0.3" fill="#000000" cx="76" cy="302" r="20"></circle>
        <circle id="Oval-4-Copy-5" fill-opacity="0.4" fill="#000000" cx="124" cy="302" r="20"></circle>
        <g id="Group-5" transform="translate(8.000000, 228.000000)">
            <circle id="Oval-4" fill-opacity="0.3" fill="#000000" cx="20" cy="20" r="20"></circle>
            <path d="M26,20.5 C26,20.3745788 25.9521059,20.2491576 25.8563177,20.1534644 L16.837442,11.1435397 C16.6458656,10.9521534 16.3352588,10.9521534 16.1436823,11.1435397 C15.9521059,11.334926 15.9521059,11.6452246 16.1436823,11.8366109 L24.8156782,20.5 L16.1436823,29.1633891 C15.9521059,29.3547754 15.9521059,29.665074 16.1436823,29.8564603 C16.3352588,30.0478466 16.6458656,30.0478466 16.837442,29.8564603 L25.8563177,20.8465356 C25.9521059,20.7508424 26,20.6254212 26,20.5 Z" id="Combined-Shape" fill="#FFFFFF"></path>
        </g>
        <g id="Group-3" transform="translate(8.000000, 519.000000)">
            <circle id="Oval-4-Copy-6" fill-opacity="0.1" fill="#000000" cx="20" cy="20" r="20"></circle>
            <path d="M26,20.5 C26,20.3745788 25.9521059,20.2491576 25.8563177,20.1534644 L16.837442,11.1435397 C16.6458656,10.9521534 16.3352588,10.9521534 16.1436823,11.1435397 C15.9521059,11.334926 15.9521059,11.6452246 16.1436823,11.8366109 L24.8156782,20.5 L16.1436823,29.1633891 C15.9521059,29.3547754 15.9521059,29.665074 16.1436823,29.8564603 C16.3352588,30.0478466 16.6458656,30.0478466 16.837442,29.8564603 L25.8563177,20.8465356 C25.9521059,20.7508424 26,20.6254212 26,20.5 Z" id="Combined-Shape-Copy-18" fill="#FFFFFF"></path>
        </g>
        <path d="M70,350.5 C70,350.374579 69.9521059,350.249158 69.8563177,350.153464 L60.837442,341.14354 C60.6458656,340.952153 60.3352588,340.952153 60.1436823,341.14354 C59.9521059,341.334926 59.9521059,341.645225 60.1436823,341.836611 L68.8156782,350.5 L60.1436823,359.163389 C59.9521059,359.354775 59.9521059,359.665074 60.1436823,359.85646 C60.3352588,360.047847 60.6458656,360.047847 60.837442,359.85646 L69.8563177,350.846536 C69.9521059,350.750842 70,350.625421 70,350.5 Z" id="Combined-Shape-Copy-8" fill="#777777"></path>
        <path d="M70,386.5 C70,386.374579 69.9521059,386.249158 69.8563177,386.153464 L60.837442,377.14354 C60.6458656,376.952153 60.3352588,376.952153 60.1436823,377.14354 C59.9521059,377.334926 59.9521059,377.645225 60.1436823,377.836611 L68.8156782,386.5 L60.1436823,395.163389 C59.9521059,395.354775 59.9521059,395.665074 60.1436823,395.85646 C60.3352588,396.047847 60.6458656,396.047847 60.837442,395.85646 L69.8563177,386.846536 C69.9521059,386.750842 70,386.625421 70,386.5 Z" id="Combined-Shape-Copy-11" fill="#777777" transform="translate(65.000000, 386.500000) scale(-1, 1) translate(-65.000000, -386.500000) "></path>
        <path d="M30,350.5 C30,350.374579 29.9521059,350.249158 29.8563177,350.153464 L20.837442,341.14354 C20.6458656,340.952153 20.3352588,340.952153 20.1436823,341.14354 C19.9521059,341.334926 19.9521059,341.645225 20.1436823,341.836611 L28.8156782,350.5 L20.1436823,359.163389 C19.9521059,359.354775 19.9521059,359.665074 20.1436823,359.85646 C20.3352588,360.047847 20.6458656,360.047847 20.837442,359.85646 L29.8563177,350.846536 C29.9521059,350.750842 30,350.625421 30,350.5 Z" id="Combined-Shape-Copy-10" fill-opacity="0.3" fill="#777777"></path>
        <path d="M30,386.5 C30,386.374579 29.9521059,386.249158 29.8563177,386.153464 L20.837442,377.14354 C20.6458656,376.952153 20.3352588,376.952153 20.1436823,377.14354 C19.9521059,377.334926 19.9521059,377.645225 20.1436823,377.836611 L28.8156782,386.5 L20.1436823,395.163389 C19.9521059,395.354775 19.9521059,395.665074 20.1436823,395.85646 C20.3352588,396.047847 20.6458656,396.047847 20.837442,395.85646 L29.8563177,386.846536 C29.9521059,386.750842 30,386.625421 30,386.5 Z" id="Combined-Shape-Copy-12" fill-opacity="0.3" fill="#777777" transform="translate(25.000000, 386.500000) scale(-1, 1) translate(-25.000000, -386.500000) "></path>
        <path d="M110,350.5 C110,350.374579 109.952106,350.249158 109.856318,350.153464 L100.837442,341.14354 C100.645866,340.952153 100.335259,340.952153 100.143682,341.14354 C99.9521059,341.334926 99.9521059,341.645225 100.143682,341.836611 L108.815678,350.5 L100.143682,359.163389 C99.9521059,359.354775 99.9521059,359.665074 100.143682,359.85646 C100.335259,360.047847 100.645866,360.047847 100.837442,359.85646 L109.856318,350.846536 C109.952106,350.750842 110,350.625421 110,350.5 Z" id="Combined-Shape-Copy-9" fill="#000000"></path>
        <path d="M110,386.5 C110,386.374579 109.952106,386.249158 109.856318,386.153464 L100.837442,377.14354 C100.645866,376.952153 100.335259,376.952153 100.143682,377.14354 C99.9521059,377.334926 99.9521059,377.645225 100.143682,377.836611 L108.815678,386.5 L100.143682,395.163389 C99.9521059,395.354775 99.9521059,395.665074 100.143682,395.85646 C100.335259,396.047847 100.645866,396.047847 100.837442,395.85646 L109.856318,386.846536 C109.952106,386.750842 110,386.625421 110,386.5 Z" id="Combined-Shape-Copy-13" fill="#000000" transform="translate(105.000000, 386.500000) scale(-1, 1) translate(-105.000000, -386.500000) "></path>
        <path d="M31,302.5 C31,302.374579 30.9521059,302.249158 30.8563177,302.153464 L21.837442,293.14354 C21.6458656,292.952153 21.3352588,292.952153 21.1436823,293.14354 C20.9521059,293.334926 20.9521059,293.645225 21.1436823,293.836611 L29.8156782,302.5 L21.1436823,311.163389 C20.9521059,311.354775 20.9521059,311.665074 21.1436823,311.85646 C21.3352588,312.047847 21.6458656,312.047847 21.837442,311.85646 L30.8563177,302.846536 C30.9521059,302.750842 31,302.625421 31,302.5 Z" id="Combined-Shape-Copy-5" fill="#FFFFFF" transform="translate(26.000000, 302.500000) scale(-1, 1) translate(-26.000000, -302.500000) "></path>
        <g id="Group-4" transform="translate(8.000000, 573.000000)">
            <circle id="Oval-4-Copy-7" fill-opacity="0.1" fill="#000000" cx="20" cy="20" r="20"></circle>
            <path d="M23,20.5 C23,20.3745788 22.9521059,20.2491576 22.8563177,20.1534644 L13.837442,11.1435397 C13.6458656,10.9521534 13.3352588,10.9521534 13.1436823,11.1435397 C12.9521059,11.334926 12.9521059,11.6452246 13.1436823,11.8366109 L21.8156782,20.5 L13.1436823,29.1633891 C12.9521059,29.3547754 12.9521059,29.665074 13.1436823,29.8564603 C13.3352588,30.0478466 13.6458656,30.0478466 13.837442,29.8564603 L22.8563177,20.8465356 C22.9521059,20.7508424 23,20.6254212 23,20.5 Z" id="Combined-Shape-Copy-19" fill="#FFFFFF" transform="translate(18.000000, 20.500000) scale(-1, 1) translate(-18.000000, -20.500000) "></path>
        </g>
        <g id="Group-6" transform="translate(56.000000, 228.000000)">
            <circle id="Oval-4-Copy" fill-opacity="0.3" fill="#000000" cx="20" cy="20" r="20"></circle>
            <path d="M26,20.5 C26,20.3745788 25.9521059,20.2491576 25.8563177,20.1534644 L16.837442,11.1435397 C16.6458656,10.9521534 16.3352588,10.9521534 16.1436823,11.1435397 C15.9521059,11.334926 15.9521059,11.6452246 16.1436823,11.8366109 L24.8156782,20.5 L16.1436823,29.1633891 C15.9521059,29.3547754 15.9521059,29.665074 16.1436823,29.8564603 C16.3352588,30.0478466 16.6458656,30.0478466 16.837442,29.8564603 L25.8563177,20.8465356 C25.9521059,20.7508424 26,20.6254212 26,20.5 Z" id="Combined-Shape-Copy-3" fill="#3A91F3"></path>
        </g>
        <path d="M79,302.5 C79,302.374579 78.9521059,302.249158 78.8563177,302.153464 L69.837442,293.14354 C69.6458656,292.952153 69.3352588,292.952153 69.1436823,293.14354 C68.9521059,293.334926 68.9521059,293.645225 69.1436823,293.836611 L77.8156782,302.5 L69.1436823,311.163389 C68.9521059,311.354775 68.9521059,311.665074 69.1436823,311.85646 C69.3352588,312.047847 69.6458656,312.047847 69.837442,311.85646 L78.8563177,302.846536 C78.9521059,302.750842 79,302.625421 79,302.5 Z" id="Combined-Shape-Copy-6" fill="#3A91F3" transform="translate(74.000000, 302.500000) scale(-1, 1) translate(-74.000000, -302.500000) "></path>
        <g id="Group-7" transform="translate(104.000000, 228.000000)">
            <circle id="Oval-4-Copy-2" fill-opacity="0.4" fill="#000000" cx="20" cy="20" r="20"></circle>
            <path d="M26,20.5 C26,20.3745788 25.9521059,20.2491576 25.8563177,20.1534644 L16.837442,11.1435397 C16.6458656,10.9521534 16.3352588,10.9521534 16.1436823,11.1435397 C15.9521059,11.334926 15.9521059,11.6452246 16.1436823,11.8366109 L24.8156782,20.5 L16.1436823,29.1633891 C15.9521059,29.3547754 15.9521059,29.665074 16.1436823,29.8564603 C16.3352588,30.0478466 16.6458656,30.0478466 16.837442,29.8564603 L25.8563177,20.8465356 C25.9521059,20.7508424 26,20.6254212 26,20.5 Z" id="Combined-Shape-Copy-4" fill="#3A91F3"></path>
        </g>
        <path d="M127,302.5 C127,302.374579 126.952106,302.249158 126.856318,302.153464 L117.837442,293.14354 C117.645866,292.952153 117.335259,292.952153 117.143682,293.14354 C116.952106,293.334926 116.952106,293.645225 117.143682,293.836611 L125.815678,302.5 L117.143682,311.163389 C116.952106,311.354775 116.952106,311.665074 117.143682,311.85646 C117.335259,312.047847 117.645866,312.047847 117.837442,311.85646 L126.856318,302.846536 C126.952106,302.750842 127,302.625421 127,302.5 Z" id="Combined-Shape-Copy-7" fill="#3A91F3" transform="translate(122.000000, 302.500000) scale(-1, 1) translate(-122.000000, -302.500000) "></path>
        <path d="M20,441 L29,441 L29,450 L20,450 L20,441 Z M21,442 L21,449 L28,449 L28,442 L21,442 Z" id="Combined-Shape" fill="#222222"></path>
        <path d="M28,472 L28,465 L21,465 L21,464 L29,464 L29,472 L28,472 Z M20,466 L27,466 L27,473 L20,473 L20,466 Z M21,467 L21,472 L26,472 L26,467 L21,467 Z" id="Combined-Shape" fill="#222222"></path>
        <path d="M63,472 L63,465 L56,465 L56,464 L64,464 L64,472 L63,472 Z M55,466 L62,466 L62,473 L55,473 L55,466 Z M56,467 L56,472 L61,472 L61,467 L56,467 Z" id="Combined-Shape-Copy-15" fill="#000000"></path>
        <path d="M55,441 L64,441 L64,450 L55,450 L55,441 Z M56,442 L56,449 L63,449 L63,442 L56,442 Z" id="Combined-Shape-Copy-14" fill="#000000"></path>
        <path d="M23.7407102,422.5 L20.1429904,418.90228 C19.9496938,418.708984 19.9540218,418.39126 20.1459666,418.199315 L20.1993151,418.145967 C20.3942554,417.951026 20.717447,417.958157 20.9022802,418.14299 L24.5,421.74071 L28.0977198,418.14299 C28.2910164,417.949694 28.6087401,417.954022 28.8006849,418.145967 L28.8540334,418.199315 C29.0489737,418.394255 29.0418427,418.717447 28.8570096,418.90228 L25.2592898,422.5 L28.8570096,426.09772 C29.0503062,426.291016 29.0459782,426.60874 28.8540334,426.800685 L28.8006849,426.854033 C28.6057446,427.048974 28.282553,427.041843 28.0977198,426.85701 L24.5,423.25929 L20.9022802,426.85701 C20.7089836,427.050306 20.3912599,427.045978 20.1993151,426.854033 L20.1459666,426.800685 C19.9510263,426.605745 19.9581573,426.282553 20.1429904,426.09772 L23.7407102,422.5 Z" id="Combined-Shape-Copy-16" fill="#222222"></path>
        <path d="M58.7407102,422.5 L55.1429904,418.90228 C54.9496938,418.708984 54.9540218,418.39126 55.1459666,418.199315 L55.1993151,418.145967 C55.3942554,417.951026 55.717447,417.958157 55.9022802,418.14299 L59.5,421.74071 L63.0977198,418.14299 C63.2910164,417.949694 63.6087401,417.954022 63.8006849,418.145967 L63.8540334,418.199315 C64.0489737,418.394255 64.0418427,418.717447 63.8570096,418.90228 L60.2592898,422.5 L63.8570096,426.09772 C64.0503062,426.291016 64.0459782,426.60874 63.8540334,426.800685 L63.8006849,426.854033 C63.6057446,427.048974 63.282553,427.041843 63.0977198,426.85701 L59.5,423.25929 L55.9022802,426.85701 C55.7089836,427.050306 55.3912599,427.045978 55.1993151,426.854033 L55.1459666,426.800685 C54.9510263,426.605745 54.9581573,426.282553 55.1429904,426.09772 L58.7407102,422.5 Z" id="Combined-Shape-Copy-17" fill="#000000"></path>
        <rect id="Rectangle-15-Copy-2" fill="#222222" x="19" y="490" width="11" height="1"></rect>
        <rect id="Rectangle-15-Copy-3" fill="#000000" x="54" y="490" width="11" height="1"></rect>
        <g id="Group-2" transform="translate(19.000000, 96.000000)" fill="#777777">
            <path d="M19,10.2941895 C19,6.98048095 16.3137085,4.29418945 13,4.29418945 C12.2457381,4.29418945 11.5239828,4.43336691 10.8590144,4.68744155 L13.5961941,7.4246212 C13.7914562,7.61988335 13.7914562,7.93646584 13.5961941,8.13172798 C13.4009319,8.32699013 13.0843494,8.32699013 12.8890873,8.13172798 L9.35355339,4.59619408 C9.15829124,4.40093193 9.15829124,4.08434944 9.35355339,3.8890873 L12.8890873,0.353553391 C13.0843494,0.158291245 13.4009319,0.158291245 13.5961941,0.353553391 C13.7914562,0.548815536 13.7914562,0.865398026 13.5961941,1.06066017 L11.1024115,3.55444273 C11.7058756,3.38488206 12.3423466,3.29418945 13,3.29418945 C16.8659932,3.29418945 20,6.4281962 20,10.2941895 C19.9999889,10.2961247 20,10.2980626 20,10.3000031 C20,10.5761454 19.7761424,10.8000031 19.5,10.8000031 C19.2238576,10.8000031 19,10.5761454 19,10.3000031 C19,10.2980626 19.0000111,10.2961247 19.0000331,10.2941895 Z" id="Combined-Shape"></path>
            <path d="M0,10 L13,10 L13,23 L0,23 L0,10 Z M1,11 L1,22 L12,22 L12,11 L1,11 Z" id="Combined-Shape"></path>
        </g>
        <g id="Group-2-Copy" transform="translate(64.000000, 96.000000)" fill="#222222">
            <path d="M19,10.2941895 C19,6.98048095 16.3137085,4.29418945 13,4.29418945 C12.2457381,4.29418945 11.5239828,4.43336691 10.8590144,4.68744155 L13.5961941,7.4246212 C13.7914562,7.61988335 13.7914562,7.93646584 13.5961941,8.13172798 C13.4009319,8.32699013 13.0843494,8.32699013 12.8890873,8.13172798 L9.35355339,4.59619408 C9.15829124,4.40093193 9.15829124,4.08434944 9.35355339,3.8890873 L12.8890873,0.353553391 C13.0843494,0.158291245 13.4009319,0.158291245 13.5961941,0.353553391 C13.7914562,0.548815536 13.7914562,0.865398026 13.5961941,1.06066017 L11.1024115,3.55444273 C11.7058756,3.38488206 12.3423466,3.29418945 13,3.29418945 C16.8659932,3.29418945 20,6.4281962 20,10.2941895 C19.9999889,10.2961247 20,10.2980626 20,10.3000031 C20,10.5761454 19.7761424,10.8000031 19.5,10.8000031 C19.2238576,10.8000031 19,10.5761454 19,10.3000031 C19,10.2980626 19.0000111,10.2961247 19.0000331,10.2941895 Z" id="Combined-Shape"></path>
            <path d="M0,10 L13,10 L13,23 L0,23 L0,10 Z M1,11 L1,22 L12,22 L12,11 L1,11 Z" id="Combined-Shape"></path>
        </g>
        <g id="Group-2-Copy-2" transform="translate(109.000000, 96.000000)" fill="#C9C9C9">
            <path d="M19,10.2941895 C19,6.98048095 16.3137085,4.29418945 13,4.29418945 C12.2457381,4.29418945 11.5239828,4.43336691 10.8590144,4.68744155 L13.5961941,7.4246212 C13.7914562,7.61988335 13.7914562,7.93646584 13.5961941,8.13172798 C13.4009319,8.32699013 13.0843494,8.32699013 12.8890873,8.13172798 L9.35355339,4.59619408 C9.15829124,4.40093193 9.15829124,4.08434944 9.35355339,3.8890873 L12.8890873,0.353553391 C13.0843494,0.158291245 13.4009319,0.158291245 13.5961941,0.353553391 C13.7914562,0.548815536 13.7914562,0.865398026 13.5961941,1.06066017 L11.1024115,3.55444273 C11.7058756,3.38488206 12.3423466,3.29418945 13,3.29418945 C16.8659932,3.29418945 20,6.4281962 20,10.2941895 C19.9999889,10.2961247 20,10.2980626 20,10.3000031 C20,10.5761454 19.7761424,10.8000031 19.5,10.8000031 C19.2238576,10.8000031 19,10.5761454 19,10.3000031 C19,10.2980626 19.0000111,10.2961247 19.0000331,10.2941895 Z" id="Combined-Shape"></path>
            <path d="M0,10 L13,10 L13,23 L0,23 L0,10 Z M1,11 L1,22 L12,22 L12,11 L1,11 Z" id="Combined-Shape"></path>
        </g>
    </g>
</svg>