<?xml version="1.0" encoding="UTF-8" standalone="no"?>
<svg width="220px" height="318px" viewBox="0 0 220 318" version="1.1" xmlns="http://www.w3.org/2000/svg" xmlns:xlink="http://www.w3.org/1999/xlink">
    <!-- Generator: Sketch 49.2 (51160) - http://www.bohemiancoding.com/sketch -->
    <title>1.5.0</title>
    <desc>Created with Sketch.</desc>
    <defs></defs>
    <g id="1.5.0" stroke="none" stroke-width="1" fill="none" fill-rule="evenodd">
        <g id="Group" transform="translate(20.000000, 51.000000)">
            <circle id="Oval-2" stroke="#B1B1B1" cx="8" cy="7" r="2.5"></circle>
            <path d="M12,13 L13,13 C12.9998995,13.2755867 12.7760804,13.4993439 12.5,13.4993439 C12.223967,13.4993439 12.0001773,13.2756635 12.0000001,12.999672 C11.9997636,11.3429685 10.2089932,10 8,10 C5.790861,10 4,11.3431458 4,13 L3.99823834,13 C3.99824294,13.0008845 3.99824524,13.0017695 3.99824524,13.002655 C3.99824524,13.2787974 3.77438761,13.502655 3.49824524,13.502655 C3.22210286,13.502655 2.99824524,13.2787974 2.99824524,13.002655 C2.99824524,12.9873472 2.99893315,12.9722 3.00027976,12.9572427 C3.02894213,10.7677995 5.25641376,9 8,9 C10.7609716,9 12.999267,10.7902747 12.9999998,12.998915 Z" id="Combined-Shape" fill="#B1B1B1"></path>
            <rect id="Rectangle-2" stroke="#B1B1B1" x="0.5" y="0.5" width="15" height="17" rx="2"></rect>
        </g>
        <g id="Group-Copy" transform="translate(56.000000, 51.000000)">
            <circle id="Oval-2" stroke="#3A91F3" cx="8" cy="7" r="2.5"></circle>
            <path d="M12,13 L13,13 C12.9998995,13.2755867 12.7760804,13.4993439 12.5,13.4993439 C12.223967,13.4993439 12.0001773,13.2756635 12.0000001,12.999672 C11.9997636,11.3429685 10.2089932,10 8,10 C5.790861,10 4,11.3431458 4,13 L3.99823834,13 C3.99824294,13.0008845 3.99824524,13.0017695 3.99824524,13.002655 C3.99824524,13.2787974 3.77438761,13.502655 3.49824524,13.502655 C3.22210286,13.502655 2.99824524,13.2787974 2.99824524,13.002655 C2.99824524,12.9873472 2.99893315,12.9722 3.00027976,12.9572427 C3.02894213,10.7677995 5.25641376,9 8,9 C10.7609716,9 12.999267,10.7902747 12.9999998,12.998915 Z" id="Combined-Shape" fill="#3A91F3"></path>
            <rect id="Rectangle-2" stroke="#3A91F3" x="0.5" y="0.5" width="15" height="17" rx="2"></rect>
        </g>
        <g id="Group-Copy-2" transform="translate(92.000000, 51.000000)">
            <rect id="Rectangle-2" fill="#3A91F3" x="0" y="0" width="16" height="18" rx="2"></rect>
            <circle id="Oval-2" fill="#FFFFFF" cx="8" cy="7" r="3"></circle>
            <path d="M3.03051599,13 C3.30687393,10.7500248 5.42635908,9 8,9 C10.5736409,9 12.6931261,10.7500248 12.969484,13 L3.03051599,13 Z" id="Combined-Shape" fill="#FFFFFF"></path>
            <path d="M12.9999998,13.4406189 C12.9999999,13.4407776 13,13.4409364 13,13.4410951 C13,13.7477391 12.7761816,13.9963231 12.5000877,13.9963231 C12.2241031,13.9963231 12.0003527,13.747936 12.0001756,13.4414595 C11.9999391,11.6017632 10.2094829,10.1104559 8.00087723,10.1104559 C5.79212581,10.1104559 4.00157901,11.6019601 4.00157901,13.4418237 L3.99981766,13.4418237 C3.99982225,13.4428059 3.99982455,13.4437887 3.99982455,13.444772 C3.99982455,13.751416 3.7760062,14 3.49991228,14 C3.22381835,14 3,13.751416 3,13.444772 C3,13.4277733 3.00068779,13.4109531 3.00203416,13.3943436 C3.03069151,10.9630634 5.25777234,9 8.00087723,9 C10.7613645,9 12.9992671,10.9880211 12.9999998,13.4406189 Z" id="Combined-Shape" fill="#FFFFFF"></path>
            <rect id="Rectangle-10" fill="#FFFFFF" x="3" y="13" width="9.99824555" height="1" rx="0.5"></rect>
        </g>
        <g id="Group-2" transform="translate(20.000000, 12.000000)">
            <circle id="Oval" stroke="#B1B1B1" cx="7" cy="7" r="6.5"></circle>
            <path d="M7,7 L9.5,7 C9.77614237,7 10,7.22385763 10,7.5 C10,7.77614237 9.77614237,8 9.5,8 L6.5,8 C6.22385763,8 6,7.77614237 6,7.5 L6,4.5 C6,4.22385763 6.22385763,4 6.5,4 C6.77614237,4 7,4.22385763 7,4.5 L7,7 Z" id="Combined-Shape" fill="#B1B1B1"></path>
        </g>
        <rect id="Rectangle-9" fill="#1FCF7C" x="20" y="220" width="36" height="36" rx="4"></rect>
        <path d="M42.9238937,242.175535 L40.3422528,233.537211 C40.1143511,232.776206 39.3633962,232.226799 38.5526638,232.226799 L37.4505161,232.226799 C36.6397837,232.226799 35.8850928,232.779919 35.6609271,233.537211 L33.0755501,242.175535 C32.8775371,242.832597 33.0792862,243.64186 33.5575062,244.139296 L36.7892275,247.487714 C37.1030594,247.814389 37.5439185,248 37.9997219,248 C38.4555254,248 38.8963845,247.814389 39.2102164,247.487714 L42.4419376,244.139296 C42.9238937,243.64186 43.1219067,242.832597 42.9238937,242.175535 Z M37.0395458,231.770196 L38.7357324,231.770196 C39.3484518,231.770196 40.0172126,231.42496 40.3646694,230.934948 L41.6723023,229.07884 C41.9823981,228.640799 42.0234951,228.121089 41.7881212,227.68676 C41.5564834,227.256143 41.0969438,227 40.5589463,227 L35.2163319,227 C34.6820705,227 34.2225309,227.256143 33.987157,227.683048 C33.7517831,228.117377 33.7928801,228.640799 34.1029759,229.075128 L35.4106088,230.934948 C35.7580656,231.42496 36.4268264,231.770196 37.0395458,231.770196 Z" id="Shape" fill="#FFFFFF" fill-rule="nonzero"></path>
        <g id="Group-6" transform="translate(86.000000, 220.000000)">
            <g id="Group-13" fill="#3A91F3">
                <g id="Group-14">
                    <path d="M4,0 L32.0358887,0 C34.2252069,-4.02171235e-16 36,1.77479309 36,3.96411133 L36,32 C36,34.209139 34.209139,36 32,36 L4,36 C1.790861,36 2.705415e-16,34.209139 0,32 L0,4 C-2.705415e-16,1.790861 1.790861,4.05812251e-16 4,0 Z" id="Rectangle-11"></path>
                </g>
            </g>
            <g id="Group-15" transform="translate(5.000000, 6.000000)" fill="#FFFFFF">
                <rect id="Rectangle-62" x="2" y="10" width="22" height="2" rx="1"></rect>
                <rect id="Rectangle-63" x="2" y="10" width="2" height="10" rx="1"></rect>
                <rect id="Rectangle-63-Copy" x="22" y="10" width="2" height="10" rx="1"></rect>
                <rect id="Rectangle-63-Copy-2" x="12" y="4" width="2" height="16" rx="1"></rect>
                <rect id="Rectangle-64" x="10" y="0" width="6" height="6" rx="1"></rect>
                <rect id="Rectangle-64-Copy" x="0" y="16" width="6" height="6" rx="1"></rect>
                <rect id="Rectangle-64-Copy-2" x="10" y="16" width="6" height="6" rx="1"></rect>
                <rect id="Rectangle-64-Copy-3" x="20" y="16" width="6" height="6" rx="1"></rect>
            </g>
        </g>
        <g id="Group-5-Copy" transform="translate(20.000000, 140.000000)" fill="#A0A0A0">
            <path d="M7,0 L19,0 C19.5522847,-1.01453063e-16 20,0.44771525 20,1 C20,1.55228475 19.5522847,2 19,2 L7,2 C6.44771525,2 6,1.55228475 6,1 C6,0.44771525 6.44771525,1.01453063e-16 7,0 Z M7,6 L19,6 C19.5522847,6 20,6.44771525 20,7 C20,7.55228475 19.5522847,8 19,8 L7,8 C6.44771525,8 6,7.55228475 6,7 C6,6.44771525 6.44771525,6 7,6 Z M7,12 L19,12 C19.5522847,12 20,12.4477153 20,13 C20,13.5522847 19.5522847,14 19,14 L7,14 C6.44771525,14 6,13.5522847 6,13 C6,12.4477153 6.44771525,12 7,12 Z M1,0 L3,0 C3.55228475,-1.01453063e-16 4,0.44771525 4,1 C4,1.55228475 3.55228475,2 3,2 L1,2 C0.44771525,2 6.76353751e-17,1.55228475 0,1 C-6.76353751e-17,0.44771525 0.44771525,1.01453063e-16 1,0 Z M1,6 L3,6 C3.55228475,6 4,6.44771525 4,7 C4,7.55228475 3.55228475,8 3,8 L1,8 C0.44771525,8 6.76353751e-17,7.55228475 0,7 C-6.76353751e-17,6.44771525 0.44771525,6 1,6 Z M1,12 L3,12 C3.55228475,12 4,12.4477153 4,13 C4,13.5522847 3.55228475,14 3,14 L1,14 C0.44771525,14 6.76353751e-17,13.5522847 0,13 C-6.76353751e-17,12.4477153 0.44771525,12 1,12 Z" id="Combined-Shape"></path>
        </g>
        <g id="Group-5-Copy-3" transform="translate(58.000000, 140.000000)" fill="#3A91F3">
            <path d="M7,0 L19,0 C19.5522847,-1.01453063e-16 20,0.44771525 20,1 C20,1.55228475 19.5522847,2 19,2 L7,2 C6.44771525,2 6,1.55228475 6,1 C6,0.44771525 6.44771525,1.01453063e-16 7,0 Z M7,6 L19,6 C19.5522847,6 20,6.44771525 20,7 C20,7.55228475 19.5522847,8 19,8 L7,8 C6.44771525,8 6,7.55228475 6,7 C6,6.44771525 6.44771525,6 7,6 Z M7,12 L19,12 C19.5522847,12 20,12.4477153 20,13 C20,13.5522847 19.5522847,14 19,14 L7,14 C6.44771525,14 6,13.5522847 6,13 C6,12.4477153 6.44771525,12 7,12 Z M1,0 L3,0 C3.55228475,-1.01453063e-16 4,0.44771525 4,1 C4,1.55228475 3.55228475,2 3,2 L1,2 C0.44771525,2 6.76353751e-17,1.55228475 0,1 C-6.76353751e-17,0.44771525 0.44771525,1.01453063e-16 1,0 Z M1,6 L3,6 C3.55228475,6 4,6.44771525 4,7 C4,7.55228475 3.55228475,8 3,8 L1,8 C0.44771525,8 6.76353751e-17,7.55228475 0,7 C-6.76353751e-17,6.44771525 0.44771525,6 1,6 Z M1,12 L3,12 C3.55228475,12 4,12.4477153 4,13 C4,13.5522847 3.55228475,14 3,14 L1,14 C0.44771525,14 6.76353751e-17,13.5522847 0,13 C-6.76353751e-17,12.4477153 0.44771525,12 1,12 Z" id="Combined-Shape"></path>
        </g>
        <g id="Group-5-Copy-4" transform="translate(96.000000, 140.000000)" fill="#3A91F3">
            <path d="M7,0 L19,0 C19.5522847,-1.01453063e-16 20,0.44771525 20,1 C20,1.55228475 19.5522847,2 19,2 L7,2 C6.44771525,2 6,1.55228475 6,1 C6,0.44771525 6.44771525,1.01453063e-16 7,0 Z M7,6 L19,6 C19.5522847,6 20,6.44771525 20,7 C20,7.55228475 19.5522847,8 19,8 L7,8 C6.44771525,8 6,7.55228475 6,7 C6,6.44771525 6.44771525,6 7,6 Z M7,12 L19,12 C19.5522847,12 20,12.4477153 20,13 C20,13.5522847 19.5522847,14 19,14 L7,14 C6.44771525,14 6,13.5522847 6,13 C6,12.4477153 6.44771525,12 7,12 Z M1,0 L3,0 C3.55228475,-1.01453063e-16 4,0.44771525 4,1 C4,1.55228475 3.55228475,2 3,2 L1,2 C0.44771525,2 6.76353751e-17,1.55228475 0,1 C-6.76353751e-17,0.44771525 0.44771525,1.01453063e-16 1,0 Z M1,6 L3,6 C3.55228475,6 4,6.44771525 4,7 C4,7.55228475 3.55228475,8 3,8 L1,8 C0.44771525,8 6.76353751e-17,7.55228475 0,7 C-6.76353751e-17,6.44771525 0.44771525,6 1,6 Z M1,12 L3,12 C3.55228475,12 4,12.4477153 4,13 C4,13.5522847 3.55228475,14 3,14 L1,14 C0.44771525,14 6.76353751e-17,13.5522847 0,13 C-6.76353751e-17,12.4477153 0.44771525,12 1,12 Z" id="Combined-Shape"></path>
        </g>
        <g id="Group-7" transform="translate(152.000000, 220.000000)">
            <g id="Group-4-Copy" fill="#F56B2F">
                <rect id="Rectangle-12-Copy" x="0" y="0" width="36" height="36" rx="4"></rect>
            </g>
            <g id="Group-Copy" transform="translate(5.000000, 10.000000)" fill="#FFFFFF">
                <g id="Group-Copy-13" transform="translate(4.910714, 0.000000)">
                    <path d="M5.05191063,8.375405 C3.88766203,7.54620689 3.125,6.1620651 3.125,4.59459459 C3.125,2.05707007 5.1237288,0 7.58928571,0 C10.0548426,0 12.0535714,2.05707007 12.0535714,4.59459459 C12.0535714,6.18190552 11.2714803,7.58121736 10.0822587,8.4066245 C12.7056525,8.95602147 14.7153991,11.1052811 14.972355,13.7503013 L14.9756494,13.7862272 L14.9756494,14.3284564 C14.9756494,15.6648397 13.8622764,16.7481923 12.4859146,16.7481923 L2.48973478,16.7481923 C1.11469223,16.7481923 0,15.6602804 0,14.3284564 L0.00346184167,13.7503013 C0.265334478,11.0525232 2.34928211,8.86976558 5.05191063,8.375405 Z" id="Combined-Shape"></path>
                </g>
                <g id="Group-Copy-14" opacity="0.9" transform="translate(0.000000, 2.297297)">
                    <path d="M4.53054974,13.792629 L2.05036982,13.792629 C0.917981838,13.792629 0,12.8967015 0,11.7999053 L0.00285092843,11.3237775 C0.218510747,9.10207797 1.93470291,7.30451283 4.16039699,6.89739235 C3.20160403,6.21452332 2.57352941,5.07464185 2.57352941,3.78378378 C2.57352941,1.6940577 4.21954136,0 6.25,0 C6.70012643,0 7.13135917,0.0832547333 7.52995365,0.235618448 C7.28029445,0.872506593 7.14285714,1.56838335 7.14285714,2.2972973 C7.14285714,3.70633865 7.65642709,4.99192805 8.50142563,5.96660758 C6.06323257,6.83465613 4.27422742,9.00212577 4.02167549,11.6038831 L4.01785714,12.2415772 C4.01785714,12.8190116 4.20783307,13.3548763 4.53054974,13.792629 Z" id="Combined-Shape"></path>
                </g>
                <g id="Group-Copy-15" opacity="0.9" transform="translate(16.517857, 2.297297)">
                    <path d="M3.80621654,13.792629 C4.06924236,13.368505 4.22075835,12.8698348 4.22075835,12.3362386 L4.22075835,11.7099558 L4.21700691,11.6684608 C3.97422575,9.13366297 2.35736083,6.99306191 0.107361168,5.97506945 C0.956731352,4.99937463 1.4732808,3.71042005 1.4732808,2.2972973 C1.4732808,1.56838335 1.33584349,0.872506593 1.08618429,0.235618449 C1.48477878,0.0832547333 1.91601151,0 2.36613794,0 C4.39659658,0 6.04260853,1.6940577 6.04260853,3.78378378 C6.04260853,5.09098102 5.39853345,6.24335547 4.41917454,6.92310253 C6.57961648,7.37554709 8.23470193,9.14552558 8.44631266,11.3237775 L8.44902564,11.3533636 L8.44902564,11.7999053 C8.44902564,12.9004562 7.53213028,13.792629 6.39865582,13.792629 L3.80621654,13.792629 Z" id="Combined-Shape"></path>
                </g>
            </g>
        </g>
        <g id="Group-16" transform="translate(24.000000, 281.000000)">
            <rect id="Rectangle-65" stroke="#FFFFFF" x="0.5" y="0.5" width="13" height="11" rx="2"></rect>
            <path d="M13.5,3.60025344 L13.5,8.17061533 L17.4706169,10.3192136 C18.1148719,10.6678357 18.5,10.4409814 18.5,9.71769565 L18.5,2.31953461 C18.5,1.59029208 18.0834297,1.33311373 17.4298605,1.65639403 L13.5,3.60025344 Z" id="Combined-Shape" stroke="#FFFFFF"></path>
            <circle id="Oval-21" fill="#FFFFFF" cx="4" cy="4" r="1"></circle>
        </g>
        <path d="M23.5,183 L32.5,183 C32.7761424,183 33,183.223858 33,183.5 C33,183.776142 32.7761424,184 32.5,184 L23.5,184 C23.2238576,184 23,183.776142 23,183.5 C23,183.223858 23.2238576,183 23.5,183 Z M23.5,187 L32.5,187 C32.7761424,187 33,187.223858 33,187.5 C33,187.776142 32.7761424,188 32.5,188 L23.5,188 C23.2238576,188 23,187.776142 23,187.5 C23,187.223858 23.2238576,187 23.5,187 Z M23.5,191 L32.5,191 C32.7761424,191 33,191.223858 33,191.5 C33,191.776142 32.7761424,192 32.5,192 L23.5,192 C23.2238576,192 23,191.776142 23,191.5 C23,191.223858 23.2238576,191 23.5,191 Z" id="Combined-Shape" fill="#D8D8D8"></path>
        <path d="M51.5,183 L60.5,183 C60.7761424,183 61,183.223858 61,183.5 C61,183.776142 60.7761424,184 60.5,184 L51.5,184 C51.2238576,184 51,183.776142 51,183.5 C51,183.223858 51.2238576,183 51.5,183 Z M51.5,187 L60.5,187 C60.7761424,187 61,187.223858 61,187.5 C61,187.776142 60.7761424,188 60.5,188 L51.5,188 C51.2238576,188 51,187.776142 51,187.5 C51,187.223858 51.2238576,187 51.5,187 Z M51.5,191 L60.5,191 C60.7761424,191 61,191.223858 61,191.5 C61,191.776142 60.7761424,192 60.5,192 L51.5,192 C51.2238576,192 51,191.776142 51,191.5 C51,191.223858 51.2238576,191 51.5,191 Z" id="Combined-Shape-Copy" fill="#B1B1B1"></path>
        <g id="Group-3" transform="translate(20.000000, 94.000000)" fill="#989898">
            <path d="M2,0 L22,0 C23.1045695,-2.02906125e-16 24,0.8954305 24,2 L24,16 C24,17.1045695 23.1045695,18 22,18 L2,18 C0.8954305,18 1.3527075e-16,17.1045695 0,16 L0,2 C-1.3527075e-16,0.8954305 0.8954305,2.02906125e-16 2,0 Z M2,1 C1.44771525,1 1,1.44771525 1,2 L1,16 C1,16.5522847 1.44771525,17 2,17 L22,17 C22.5522847,17 23,16.5522847 23,16 L23,2 C23,1.44771525 22.5522847,1 22,1 L2,1 Z" id="Combined-Shape"></path>
            <path d="M5,4 L7,4 L7,6 L5,6 L5,4 Z M5,8 L7,8 L7,10 L5,10 L5,8 Z M9,4 L11,4 L11,6 L9,6 L9,4 Z M9,8 L11,8 L11,10 L9,10 L9,8 Z M13,4 L15,4 L15,6 L13,6 L13,4 Z M13,8 L15,8 L15,10 L13,10 L13,8 Z M17,4 L19,4 L19,6 L17,6 L17,4 Z M17,8 L19,8 L19,10 L17,10 L17,8 Z M6,12 L18,12 C18.5522847,12 19,12.4477153 19,13 C19,13.5522847 18.5522847,14 18,14 L6,14 C5.44771525,14 5,13.5522847 5,13 C5,12.4477153 5.44771525,12 6,12 Z" id="Combined-Shape"></path>
        </g>
        <g id="Group-3-Copy-3" transform="translate(62.000000, 94.000000)" fill="#3A91F3">
            <path d="M2,0 L22,0 C23.1045695,-2.02906125e-16 24,0.8954305 24,2 L24,16 C24,17.1045695 23.1045695,18 22,18 L2,18 C0.8954305,18 1.3527075e-16,17.1045695 0,16 L0,2 C-1.3527075e-16,0.8954305 0.8954305,2.02906125e-16 2,0 Z M2,1 C1.44771525,1 1,1.44771525 1,2 L1,16 C1,16.5522847 1.44771525,17 2,17 L22,17 C22.5522847,17 23,16.5522847 23,16 L23,2 C23,1.44771525 22.5522847,1 22,1 L2,1 Z" id="Combined-Shape"></path>
            <path d="M5,4 L7,4 L7,6 L5,6 L5,4 Z M5,8 L7,8 L7,10 L5,10 L5,8 Z M9,4 L11,4 L11,6 L9,6 L9,4 Z M9,8 L11,8 L11,10 L9,10 L9,8 Z M13,4 L15,4 L15,6 L13,6 L13,4 Z M13,8 L15,8 L15,10 L13,10 L13,8 Z M17,4 L19,4 L19,6 L17,6 L17,4 Z M17,8 L19,8 L19,10 L17,10 L17,8 Z M6,12 L18,12 C18.5522847,12 19,12.4477153 19,13 C19,13.5522847 18.5522847,14 18,14 L6,14 C5.44771525,14 5,13.5522847 5,13 C5,12.4477153 5.44771525,12 6,12 Z" id="Combined-Shape"></path>
        </g>
        <g id="Group-3-Copy-4" transform="translate(104.000000, 94.000000)" fill="#3A91F3">
            <path d="M2,0 L22,0 C23.1045695,-2.02906125e-16 24,0.8954305 24,2 L24,16 C24,17.1045695 23.1045695,18 22,18 L2,18 C0.8954305,18 1.3527075e-16,17.1045695 0,16 L0,2 C-1.3527075e-16,0.8954305 0.8954305,2.02906125e-16 2,0 Z M2,1 C1.44771525,1 1,1.44771525 1,2 L1,16 C1,16.5522847 1.44771525,17 2,17 L22,17 C22.5522847,17 23,16.5522847 23,16 L23,2 C23,1.44771525 22.5522847,1 22,1 L2,1 Z" id="Combined-Shape"></path>
            <path d="M5,4 L7,4 L7,6 L5,6 L5,4 Z M5,8 L7,8 L7,10 L5,10 L5,8 Z M9,4 L11,4 L11,6 L9,6 L9,4 Z M9,8 L11,8 L11,10 L9,10 L9,8 Z M13,4 L15,4 L15,6 L13,6 L13,4 Z M13,8 L15,8 L15,10 L13,10 L13,8 Z M17,4 L19,4 L19,6 L17,6 L17,4 Z M17,8 L19,8 L19,10 L17,10 L17,8 Z M6,12 L18,12 C18.5522847,12 19,12.4477153 19,13 C19,13.5522847 18.5522847,14 18,14 L6,14 C5.44771525,14 5,13.5522847 5,13 C5,12.4477153 5.44771525,12 6,12 Z" id="Combined-Shape"></path>
        </g>
        <path d="M82.3890873,287.389087 L78.8535534,290.924621 C78.6582912,291.119883 78.3417088,291.119883 78.1464466,290.924621 C77.9511845,290.729359 77.9511845,290.412777 78.1464466,290.217514 L81.3284271,287.035534 L78.1464466,283.853553 C77.9511845,283.658291 77.9511845,283.341709 78.1464466,283.146447 C78.3417088,282.951184 78.6582912,282.951184 78.8535534,283.146447 L82.3890873,286.681981 C82.5843494,286.877243 82.5843494,287.193825 82.3890873,287.389087 Z" id="Combined-Shape" fill="#3A91F3"></path>
    </g>
</svg>