<?xml version="1.0" encoding="UTF-8" standalone="no"?>
<svg width="221px" height="338px" viewBox="0 0 221 338" version="1.1" xmlns="http://www.w3.org/2000/svg" xmlns:xlink="http://www.w3.org/1999/xlink">
    <!-- Generator: Sketch 47.1 (45422) - http://www.bohemiancoding.com/sketch -->
    <title>工作栏</title>
    <desc>Created with Sketch.</desc>
    <defs>
        <linearGradient x1="50%" y1="0%" x2="50%" y2="100%" id="linearGradient-1">
            <stop stop-color="#FFDD75" offset="0%"></stop>
            <stop stop-color="#FAC119" offset="100%"></stop>
        </linearGradient>
        <rect id="path-2" x="0" y="8" width="107" height="80" rx="6"></rect>
    </defs>
    <g id="Page-6" stroke="none" stroke-width="1" fill="none" fill-rule="evenodd">
        <g id="工作栏">
            <g id="Group-4-Copy" transform="translate(12.000000, 14.000000)">
                <path d="M8,16 C12.418278,16 16,12.418278 16,8 C16,3.581722 12.418278,0 8,0 C3.581722,0 0,3.581722 0,8 C0,12.418278 3.581722,16 8,16 Z" id="Combined-Shape"></path>
                <path d="M8.68010857,7.97300179 L10.8011207,5.85198962 C10.9917843,5.66132605 10.9966911,5.33983681 10.8014289,5.14457466 C10.6118773,4.95502309 10.2894463,4.94945049 10.094014,5.14488284 L7.97300179,7.26589501 L5.85198962,5.14488284 C5.66132605,4.95421926 5.33983681,4.94931252 5.14457466,5.14457466 C4.95502309,5.33412624 4.94945049,5.65655727 5.14488284,5.85198962 L7.26589501,7.97300179 L5.14488284,10.094014 C4.95421926,10.2846775 4.94931252,10.6061668 5.14457466,10.8014289 C5.33412624,10.9909805 5.65655727,10.9965531 5.85198962,10.8011207 L7.97300179,8.68010857 L10.094014,10.8011207 C10.2846775,10.9917843 10.6061668,10.9966911 10.8014289,10.8014289 C10.9909805,10.6118773 10.9965531,10.2894463 10.8011207,10.094014 L8.68010857,7.97300179 Z" id="Combined-Shape" fill="#9f9f9f"></path>
            </g>
            <g id="Group-4-Copy-3" transform="translate(58.000000, 14.000000)">
                <path d="M8,16 C12.418278,16 16,12.418278 16,8 C16,3.581722 12.418278,0 8,0 C3.581722,0 0,3.581722 0,8 C0,12.418278 3.581722,16 8,16 Z" id="Combined-Shape" fill="#777777"></path>
                <path d="M8.68010857,7.97300179 L10.8011207,5.85198962 C10.9917843,5.66132605 10.9966911,5.33983681 10.8014289,5.14457466 C10.6118773,4.95502309 10.2894463,4.94945049 10.094014,5.14488284 L7.97300179,7.26589501 L5.85198962,5.14488284 C5.66132605,4.95421926 5.33983681,4.94931252 5.14457466,5.14457466 C4.95502309,5.33412624 4.94945049,5.65655727 5.14488284,5.85198962 L7.26589501,7.97300179 L5.14488284,10.094014 C4.95421926,10.2846775 4.94931252,10.6061668 5.14457466,10.8014289 C5.33412624,10.9909805 5.65655727,10.9965531 5.85198962,10.8011207 L7.97300179,8.68010857 L10.094014,10.8011207 C10.2846775,10.9917843 10.6061668,10.9966911 10.8014289,10.8014289 C10.9909805,10.6118773 10.9965531,10.2894463 10.8011207,10.094014 L8.68010857,7.97300179 Z" id="Combined-Shape" fill="#FFFFFF"></path>
            </g>
            <g id="Group-4-Copy-2" transform="translate(104.000000, 56.000000)">
                <path d="M8,16 C12.418278,16 16,12.418278 16,8 C16,3.581722 12.418278,0 8,0 C3.581722,0 0,3.581722 0,8 C0,12.418278 3.581722,16 8,16 Z" id="Combined-Shape" fill="#0ACD00"></path>
                <path d="M5,8 L11.4995642,8 C11.7759472,8 12,8.23193359 12,8.5 C12,8.77614237 11.7692032,9 11.4995642,9 L4.50043583,9 C4.36217165,9 4.23700381,8.94195563 4.14643148,8.8503806 C4.05596439,8.76307115 4,8.63807117 4,8.5 L4,5.5 L4,5.5 C4,5.22385763 4.22385763,5 4.5,5 L4.5,5 L4.5,5 C4.77614237,5 5,5.22385763 5,5.5 L5,8 Z" id="Combined-Shape" fill="#FFFFFF" transform="translate(8.000000, 7.000000) rotate(-45.000000) translate(-8.000000, -7.000000) "></path>
            </g>
            <g id="Group-8" transform="translate(12.000000, 54.000000)">
                <circle id="Oval-2" fill="url(#linearGradient-1)" cx="10" cy="10" r="10"></circle>
                <path d="M4.00816762,11.5 C4.00274496,11.5910693 4,11.6827555 4,11.775 C4,14.6606878 6.6862915,17 10,17 C13.3137085,17 16,14.6606878 16,11.775 C16,11.6827555 15.997255,11.5910693 15.9918324,11.5 L4.00816762,11.5 Z" id="Combined-Shape" fill="#B67600"></path>
                <circle id="Oval-11" fill="#7B4E00" cx="5.75" cy="7.75" r="1.75"></circle>
                <circle id="Oval-11-Copy" fill="#7B4E00" cx="14.25" cy="7.75" r="1.75"></circle>
            </g>
            <g id="心" transform="translate(58.000000, 55.000000)" fill-rule="nonzero" fill="#FF5500">
                <path d="M14.4696383,0 C17.5237806,0 20,2.57928761 20,5.75997696 C20,11.0173457 9.99972348,18 9.99972348,18 C9.99972348,18 0,11.2690818 0,5.75997696 C0,1.79988479 2.47621944,7.99437324e-16 5.52980865,7.99437324e-16 C7.36920695,7.99437324e-16 8.99402721,0.939546196 9.99972348,2.37824431 C11.0056963,0.939546196 12.6305165,0 14.4696383,0 Z" id="Shape"></path>
            </g>
            <g id="Group-28" transform="translate(13.000000, 98.000000)">
                <g id="Group" stroke="#777777">
                    <rect id="Rectangle-Copy" x="0.5" y="0.5" width="20" height="14" rx="2"></rect>
                </g>
                <path d="M6.20808029,5.12034683 L11.1725929,5.12034683 C11.4487353,5.12034683 11.6725929,5.34420446 11.6725929,5.62034683 C11.6725929,5.89648921 11.4487353,6.12034683 11.1725929,6.12034683 L6.20613327,6.12034683 L7.47487373,7.3890873 C7.67013588,7.58434944 7.67013588,7.90093193 7.47487373,8.09619408 C7.27961159,8.29145622 6.9630291,8.29145622 6.76776695,8.09619408 L4.64644661,5.97487373 C4.54881554,5.87724266 4.5,5.7492815 4.5,5.62132034 C4.5,5.49335918 4.54881554,5.36539803 4.64644661,5.26776695 L6.76776695,3.14644661 C6.9630291,2.95118446 7.27961159,2.95118446 7.47487373,3.14644661 C7.67013588,3.34170876 7.67013588,3.65829124 7.47487373,3.85355339 L6.20808029,5.12034683 Z" id="Combined-Shape" fill="#777777"></path>
                <path d="M14.4645126,9.12034683 L9.5,9.12034683 C9.22385763,9.12034683 9,9.34420446 9,9.62034683 C9,9.89648921 9.22385763,10.1203468 9.5,10.1203468 L14.4664597,10.1203468 L13.1977192,11.3890873 C13.002457,11.5843494 13.002457,11.9009319 13.1977192,12.0961941 C13.3929813,12.2914562 13.7095638,12.2914562 13.904826,12.0961941 L16.0261463,9.97487373 C16.1237774,9.87724266 16.1725929,9.7492815 16.1725929,9.62132034 C16.1725929,9.49335918 16.1237774,9.36539803 16.0261463,9.26776695 L13.904826,7.14644661 C13.7095638,6.95118446 13.3929813,6.95118446 13.1977192,7.14644661 C13.002457,7.34170876 13.002457,7.65829124 13.1977192,7.85355339 L14.4645126,9.12034683 Z" id="Combined-Shape-Copy-46" fill="#777777"></path>
                <path d="M10,14 L11,14 L11,17 L10,17 L10,14 Z M6.5,17 L14.5,17 C14.7761424,17 15,17.2238576 15,17.5 C15,17.7761424 14.7761424,18 14.5,18 L6.5,18 C6.22385763,18 6,17.7761424 6,17.5 C6,17.2238576 6.22385763,17 6.5,17 L6.5,17 Z" id="Combined-Shape" fill="#777777"></path>
            </g>
            <g id="Group-28-Copy-2" transform="translate(13.000000, 137.000000)">
                <g id="Group" fill="#A3A3A3">
                    <rect id="Rectangle-Copy" x="0" y="0" width="21" height="15" rx="2"></rect>
                </g>
                <path d="M6.20808029,5.12034683 L11.1725929,5.12034683 C11.4487353,5.12034683 11.6725929,5.34420446 11.6725929,5.62034683 C11.6725929,5.89648921 11.4487353,6.12034683 11.1725929,6.12034683 L6.20613327,6.12034683 L7.47487373,7.3890873 C7.67013588,7.58434944 7.67013588,7.90093193 7.47487373,8.09619408 C7.27961159,8.29145622 6.9630291,8.29145622 6.76776695,8.09619408 L4.64644661,5.97487373 C4.54881554,5.87724266 4.5,5.7492815 4.5,5.62132034 C4.5,5.49335918 4.54881554,5.36539803 4.64644661,5.26776695 L6.76776695,3.14644661 C6.9630291,2.95118446 7.27961159,2.95118446 7.47487373,3.14644661 C7.67013588,3.34170876 7.67013588,3.65829124 7.47487373,3.85355339 L6.20808029,5.12034683 Z" id="Combined-Shape" fill="#FFFFFF"></path>
                <path d="M14.4645126,9.12034683 L9.5,9.12034683 C9.22385763,9.12034683 9,9.34420446 9,9.62034683 C9,9.89648921 9.22385763,10.1203468 9.5,10.1203468 L14.4664597,10.1203468 L13.1977192,11.3890873 C13.002457,11.5843494 13.002457,11.9009319 13.1977192,12.0961941 C13.3929813,12.2914562 13.7095638,12.2914562 13.904826,12.0961941 L16.0261463,9.97487373 C16.1237774,9.87724266 16.1725929,9.7492815 16.1725929,9.62132034 C16.1725929,9.49335918 16.1237774,9.36539803 16.0261463,9.26776695 L13.904826,7.14644661 C13.7095638,6.95118446 13.3929813,6.95118446 13.1977192,7.14644661 C13.002457,7.34170876 13.002457,7.65829124 13.1977192,7.85355339 L14.4645126,9.12034683 Z" id="Combined-Shape-Copy-46" fill="#FFFFFF"></path>
                <path d="M10,14 L11,14 L11,17 L10,17 L10,14 Z M6.5,17 L14.5,17 C14.7761424,17 15,17.2238576 15,17.5 C15,17.7761424 14.7761424,18 14.5,18 L6.5,18 C6.22385763,18 6,17.7761424 6,17.5 C6,17.2238576 6.22385763,17 6.5,17 L6.5,17 Z" id="Combined-Shape" fill="#A3A3A3"></path>
            </g>
            <g id="Group-28-Copy-3" transform="translate(58.000000, 137.000000)">
                <g id="Group" fill="#3F81BC">
                    <rect id="Rectangle-Copy" x="0" y="0" width="21" height="15" rx="2"></rect>
                </g>
                <path d="M6.20808029,5.12034683 L11.1725929,5.12034683 C11.4487353,5.12034683 11.6725929,5.34420446 11.6725929,5.62034683 C11.6725929,5.89648921 11.4487353,6.12034683 11.1725929,6.12034683 L6.20613327,6.12034683 L7.47487373,7.3890873 C7.67013588,7.58434944 7.67013588,7.90093193 7.47487373,8.09619408 C7.27961159,8.29145622 6.9630291,8.29145622 6.76776695,8.09619408 L4.64644661,5.97487373 C4.54881554,5.87724266 4.5,5.7492815 4.5,5.62132034 C4.5,5.49335918 4.54881554,5.36539803 4.64644661,5.26776695 L6.76776695,3.14644661 C6.9630291,2.95118446 7.27961159,2.95118446 7.47487373,3.14644661 C7.67013588,3.34170876 7.67013588,3.65829124 7.47487373,3.85355339 L6.20808029,5.12034683 Z" id="Combined-Shape" fill="#FFFFFF"></path>
                <path d="M14.4645126,9.12034683 L9.5,9.12034683 C9.22385763,9.12034683 9,9.34420446 9,9.62034683 C9,9.89648921 9.22385763,10.1203468 9.5,10.1203468 L14.4664597,10.1203468 L13.1977192,11.3890873 C13.002457,11.5843494 13.002457,11.9009319 13.1977192,12.0961941 C13.3929813,12.2914562 13.7095638,12.2914562 13.904826,12.0961941 L16.0261463,9.97487373 C16.1237774,9.87724266 16.1725929,9.7492815 16.1725929,9.62132034 C16.1725929,9.49335918 16.1237774,9.36539803 16.0261463,9.26776695 L13.904826,7.14644661 C13.7095638,6.95118446 13.3929813,6.95118446 13.1977192,7.14644661 C13.002457,7.34170876 13.002457,7.65829124 13.1977192,7.85355339 L14.4645126,9.12034683 Z" id="Combined-Shape-Copy-46" fill="#FFFFFF"></path>
                <path d="M10,14 L11,14 L11,17 L10,17 L10,14 Z M6.5,17 L14.5,17 C14.7761424,17 15,17.2238576 15,17.5 C15,17.7761424 14.7761424,18 14.5,18 L6.5,18 C6.22385763,18 6,17.7761424 6,17.5 C6,17.2238576 6.22385763,17 6.5,17 L6.5,17 Z" id="Combined-Shape" fill="#3F81BC"></path>
            </g>
            <g id="Group-28-Copy" transform="translate(58.000000, 98.000000)">
                <g id="Group" stroke="#0099FF">
                    <rect id="Rectangle-Copy" x="0.5" y="0.5" width="20" height="14" rx="2"></rect>
                </g>
                <path d="M6.20808029,5.12034683 L11.1725929,5.12034683 C11.4487353,5.12034683 11.6725929,5.34420446 11.6725929,5.62034683 C11.6725929,5.89648921 11.4487353,6.12034683 11.1725929,6.12034683 L6.20613327,6.12034683 L7.47487373,7.3890873 C7.67013588,7.58434944 7.67013588,7.90093193 7.47487373,8.09619408 C7.27961159,8.29145622 6.9630291,8.29145622 6.76776695,8.09619408 L4.64644661,5.97487373 C4.54881554,5.87724266 4.5,5.7492815 4.5,5.62132034 C4.5,5.49335918 4.54881554,5.36539803 4.64644661,5.26776695 L6.76776695,3.14644661 C6.9630291,2.95118446 7.27961159,2.95118446 7.47487373,3.14644661 C7.67013588,3.34170876 7.67013588,3.65829124 7.47487373,3.85355339 L6.20808029,5.12034683 Z" id="Combined-Shape" fill="#0099FF"></path>
                <path d="M14.4645126,9.12034683 L9.5,9.12034683 C9.22385763,9.12034683 9,9.34420446 9,9.62034683 C9,9.89648921 9.22385763,10.1203468 9.5,10.1203468 L14.4664597,10.1203468 L13.1977192,11.3890873 C13.002457,11.5843494 13.002457,11.9009319 13.1977192,12.0961941 C13.3929813,12.2914562 13.7095638,12.2914562 13.904826,12.0961941 L16.0261463,9.97487373 C16.1237774,9.87724266 16.1725929,9.7492815 16.1725929,9.62132034 C16.1725929,9.49335918 16.1237774,9.36539803 16.0261463,9.26776695 L13.904826,7.14644661 C13.7095638,6.95118446 13.3929813,6.95118446 13.1977192,7.14644661 C13.002457,7.34170876 13.002457,7.65829124 13.1977192,7.85355339 L14.4645126,9.12034683 Z" id="Combined-Shape-Copy-46" fill="#0099FF"></path>
                <path d="M10,14 L11,14 L11,17 L10,17 L10,14 Z M6.5,17 L14.5,17 C14.7761424,17 15,17.2238576 15,17.5 C15,17.7761424 14.7761424,18 14.5,18 L6.5,18 C6.22385763,18 6,17.7761424 6,17.5 C6,17.2238576 6.22385763,17 6.5,17 L6.5,17 Z" id="Combined-Shape" fill="#0099FF"></path>
            </g>
            <g id="Group-2" transform="translate(18.000000, 198.000000)">
                <g id="Group-Copy" transform="translate(46.353075, 0.000000)" stroke="#333333">
                    <rect id="Rectangle-Copy" x="0.5" y="0.5" width="105.646925" height="78" rx="6"></rect>
                    <path d="M69.3629831,89.3041002 L73.7950464,89.3041002 C75.0738242,89.3041002 76.1104784,90.3407544 76.1104784,91.6195321 C76.1104784,92.8983099 75.0738242,93.9349641 73.7950464,93.9349641 L32.8154319,93.9349641 C31.5366542,93.9349641 30.5,92.8983099 30.5,91.6195321 C30.5,90.3407544 31.5366542,89.3041002 32.8154319,89.3041002 L37.1531895,89.3041002 L39.1211756,78.5 L68.1976236,78.5 L69.3629831,89.3041002 Z" id="Combined-Shape-Copy"></path>
                </g>
                <rect id="Rectangle-4-Copy-4" stroke="#333333" x="54.5205011" y="6.5" width="90.9794989" height="66" rx="3"></rect>
                <g id="Rectangle-Copy-2">
                    <use fill="#FFFFFF" fill-rule="evenodd" xlink:href="#path-2"></use>
                    <rect stroke="#333333" stroke-width="1" x="0.5" y="8.5" width="106" height="79" rx="6"></rect>
                </g>
                <path d="M69.3629831,98.3041002 L73.7950464,98.3041002 C75.0738242,98.3041002 76.1104784,99.3407544 76.1104784,100.619532 C76.1104784,101.89831 75.0738242,102.934964 73.7950464,102.934964 L32.8154319,102.934964 C31.5366542,102.934964 30.5,101.89831 30.5,100.619532 C30.5,99.3407544 31.5366542,98.3041002 32.8154319,98.3041002 L37.1531895,98.3041002 L39.1211756,87.5 L68.1976236,87.5 L69.3629831,98.3041002 Z" id="Combined-Shape-Copy-4" stroke="#333333"></path>
                <rect id="Rectangle-4-Copy-5" stroke="#333333" x="6.5" y="15.4863326" width="93.0250569" height="65.0136674" rx="3"></rect>
                <path d="M38.2007263,41.9419164 L58.2312103,41.9419164 L58.2312103,41.9419164 C59.001138,41.9419164 59.6252877,42.5660661 59.6252877,43.3359938 C59.6252877,44.1059216 59.001138,44.7300713 58.2312103,44.7300713 L38.0521152,44.7300713 L41.1682706,47.8462267 C41.7126917,48.3906478 41.7126917,49.2733288 41.1682706,49.8177499 C40.6238495,50.362171 39.7411684,50.362171 39.1967473,49.8177499 L33.7750584,44.396061 L33.7750584,44.396061 C33.5028479,44.1238504 33.3667426,43.7670749 33.3667426,43.4102994 C33.3667426,43.0535238 33.5028479,42.6967483 33.7750584,42.4245378 L39.1967473,37.0028489 L39.1967473,37.0028489 C39.7411684,36.4584278 40.6238495,36.4584278 41.1682706,37.0028489 L41.1682706,37.0028489 L41.1682706,37.0028489 C41.7126917,37.54727 41.7126917,38.429951 41.1682706,38.9743721 L38.2007263,41.9419164 Z" id="Combined-Shape-Copy-5" fill="#0099FF"></path>
                <path d="M49.7018652,53.7915747 L69.7323492,53.7915747 L69.7323492,53.7915747 C70.5022769,53.7915747 71.1264267,54.4157244 71.1264267,55.1856522 L71.1264267,55.1856522 C71.1264267,55.9555799 70.5022769,56.5797296 69.7323492,56.5797296 L49.5532542,56.5797296 L52.6694095,59.695885 C53.2138306,60.2403061 53.2138306,61.1229871 52.6694095,61.6674082 L52.6694095,61.6674082 L52.6694095,61.6674082 C52.1249884,62.2118293 51.2423074,62.2118293 50.6978863,61.6674082 L45.2761974,56.2457193 L45.2761974,56.2457193 C45.0039868,55.9735088 44.8678815,55.6167332 44.8678815,55.2599577 C44.8678815,54.9031822 45.0039868,54.5464066 45.2761974,54.2741961 L50.6978863,48.8525072 L50.6978863,48.8525072 C51.2423074,48.3080861 52.1249884,48.3080861 52.6694095,48.8525072 L52.6694095,48.8525072 L52.6694095,48.8525072 C53.2138306,49.3969283 53.2138306,50.2796093 52.6694095,50.8240304 L49.7018652,53.7915747 Z" id="Combined-Shape-Copy-6" fill="#0099FF" transform="translate(57.997154, 55.259958) rotate(180.000000) translate(-57.997154, -55.259958) "></path>
            </g>
        </g>
    </g>
</svg>