<?xml version="1.0" encoding="UTF-8"?>
<svg width="22px" height="22px" viewBox="0 0 22 22" version="1.1" xmlns="http://www.w3.org/2000/svg" xmlns:xlink="http://www.w3.org/1999/xlink">
    <title>语音通话 icon</title>
    <g id="页面-1" stroke="none" stroke-width="1" fill="none" fill-rule="evenodd">
        <g id="01_PC_替换语音通话-icon" transform="translate(-502.000000, -479.000000)">
            <g id="语音通话-icon" transform="translate(502.000000, 479.000000)">
                <rect id="矩形" fill="#FBFBFD" x="0" y="0" width="22" height="22"></rect>
                <path d="M10.6566802,10.8833267 C8.47880739,10.8465739 6.17393056,11.0237519 6.15453342,12.0049323 C6.12955962,13.4107233 6.29252428,14.4593949 3.4497403,14.7139277 C0.607076523,14.9685559 1.00804957,12.9562247 1.03281357,11.594357 C1.05998183,10.022751 4.82937747,7.90307662 10.7070939,8.00343526 C16.5860194,8.10510822 20.2760186,10.3536471 20.2488174,11.9240523 C20.2247199,13.2865183 20.554037,15.3126951 17.7220296,14.9592912 C14.8900929,14.6057152 15.0908574,13.5640021 15.1150337,12.1588908 C15.1331956,11.1763423 12.8346063,10.9201339 10.6566802,10.8833267 Z" id="Fill-1" stroke="#777777" transform="translate(10.625000, 11.500000) rotate(-135.000000) translate(-10.625000, -11.500000) "></path>
            </g>
        </g>
    </g>
</svg>