<?xml version="1.0" encoding="utf-8"?>
<!-- Generator: Adobe Illustrator 22.0.0, SVG Export Plug-In . SVG Version: 6.00 Build 0)  -->
<svg version="1.1" id="图层_1" xmlns="http://www.w3.org/2000/svg" xmlns:xlink="http://www.w3.org/1999/xlink" x="0px" y="0px"
	 viewBox="0 0 500 800" width="800" height="1000" style="enable-background:new 0 0 500 3443;" xml:space="preserve">
<style type="text/css">
	.st4{fill:none;stroke:#777777;}
	.st5{fill:none;stroke:#3A91F3;}
	.st6{fill:#777777;}
	.st7{fill:#3A91F3;}
</style>
<path id="Stroke-1" transform="translate(-90.000000, -402.000000)" class="st4" d="M41.7,707c-0.3,0-0.6,0.2-0.6,0.6v4.7c0,0.3,0.2,0.6,0.6,0.6h4.7c0.4,0,0.6-0.2,0.6-0.6v-4.7
	c0-0.3-0.2-0.6-0.6-0.6H41.7z M41.7,698.9c-0.3,0-0.6,0.2-0.6,0.6v4.7c0,0.3,0.2,0.6,0.6,0.6h4.7c0.4,0,0.6-0.2,0.6-0.6v-4.7
	c0-0.3-0.2-0.6-0.6-0.6H41.7z M33.6,707c-0.4,0-0.6,0.2-0.6,0.6v4.7c0,0.3,0.2,0.6,0.6,0.6h4.7c0.3,0,0.6-0.2,0.6-0.6v-4.7
	c0-0.3-0.2-0.6-0.6-0.6H33.6z M33.6,698.9c-0.4,0-0.6,0.2-0.6,0.6v4.7c0,0.3,0.2,0.6,0.6,0.6h4.7c0.3,0,0.6-0.2,0.6-0.6v-4.7
	c0-0.3-0.2-0.6-0.6-0.6H33.6z"/>
<path id="Stroke-3" transform="translate(-90.000000, -402.000000)" class="st5" d="M81.7,707c-0.4,0-0.6,0.2-0.6,0.6v4.7c0,0.3,0.2,0.6,0.6,0.6h4.7c0.3,0,0.6-0.2,0.6-0.6v-4.7
	c0-0.3-0.2-0.6-0.6-0.6H81.7z M81.7,698.9c-0.4,0-0.6,0.2-0.6,0.6v4.7c0,0.3,0.2,0.6,0.6,0.6h4.7c0.3,0,0.6-0.2,0.6-0.6v-4.7
	c0-0.3-0.2-0.6-0.6-0.6H81.7z M73.6,707c-0.3,0-0.6,0.2-0.6,0.6v4.7c0,0.3,0.2,0.6,0.6,0.6h4.7c0.4,0,0.6-0.2,0.6-0.6v-4.7
	c0-0.3-0.2-0.6-0.6-0.6H73.6z M73.6,698.9c-0.3,0-0.6,0.2-0.6,0.6v4.7c0,0.3,0.2,0.6,0.6,0.6h4.7c0.4,0,0.6-0.2,0.6-0.6v-4.7
	c0-0.3-0.2-0.6-0.6-0.6H73.6z"/>
<g id="Group-32" transform="translate(-16.400000, -288.000000)">
	<path id="Stroke-5" class="st4" d="M37.1,585h9.8c0.7,0,1.1,0.4,1.1,1.1v11.8c0,0.6-0.4,1.1-1.1,1.1h-9.8c-0.7,0-1.1-0.4-1.1-1.1
		v-11.8C36,585.5,36.4,585,37.1,585z"/>
	<path id="Fill-9_1_" class="st6" d="M39.4,594.1h4.1c0.3,0,0.4,0.2,0.4,0.5s-0.2,0.5-0.4,0.5h-4.1c-0.3,0-0.4-0.2-0.4-0.5
		C39.1,594.4,39.3,594.1,39.4,594.1 M39.4,591.5h4.1c0.3,0,0.4,0.2,0.4,0.5s-0.2,0.5-0.4,0.5h-4.1c-0.2,0-0.4-0.2-0.4-0.5
		C39.1,591.8,39.3,591.5,39.4,591.5 M39.4,589h4.1c0.3,0,0.4,0.2,0.4,0.5s-0.2,0.5-0.4,0.5h-4.1c-0.2,0-0.4-0.2-0.4-0.5
		C39.1,589.3,39.3,589,39.4,589"/>
</g>
<g id="Group-31" transform="translate(16.000000, -288.000000)">
	<path id="Stroke-7_1_" class="st5" d="M36.1,585h9.8c0.7,0,1.1,0.4,1.1,1.1v11.8c0,0.6-0.4,1.1-1.1,1.1h-9.8
		c-0.7,0-1.1-0.4-1.1-1.1v-11.8C35,585.5,35.4,585,36.1,585z"/>
	<path id="Fill-11_1_" class="st7" d="M38.4,594.1h4.1c0.3,0,0.4,0.2,0.4,0.5s-0.2,0.5-0.4,0.5h-4.1c-0.3,0-0.4-0.2-0.4-0.5
		C38.1,594.4,38.3,594.1,38.4,594.1 M38.4,591.5h4.1c0.3,0,0.4,0.2,0.4,0.5s-0.2,0.5-0.4,0.5h-4.1c-0.2,0-0.4-0.2-0.4-0.5
		C38.1,591.8,38.3,591.5,38.4,591.5 M38.4,589h4.1c0.3,0,0.4,0.2,0.4,0.5s-0.2,0.5-0.4,0.5h-4.1c-0.2,0-0.4-0.2-0.4-0.5
		C38.1,589.3,38.3,589,38.4,589"/>
</g>
<g id="Group-24" transform="translate(100.000000, -290.000000)">
	<path id="Stroke-13" class="st4" d="M40,588c1.1,0,2,0.9,2,2c0,1.2-0.9,2-2,2s-2-0.9-2-2C38,588.8,38.9,588,40,588z"/>
	<path id="Stroke-15_1_" class="st4" d="M40.5,598.9c4-3.2,6-6,6-8c0-3.2-2.9-5.9-6.5-5.9s-6.5,2.6-6.5,5.8c0,2,2,4.8,6,8
		C39.9,599,40.3,599,40.5,598.9z"/>
</g>
<g id="Group-21" transform="translate(128.400000, -290.000000)">
	<path id="Stroke-17" class="st5" d="M42,588c1.1,0,2,0.9,2,2c0,1.2-0.9,2-2,2s-2-0.9-2-2C40,588.8,40.9,588,42,588z"/>
	<path id="Stroke-19" class="st5" d="M42.5,598.9c4-3.2,6-6,6-8c0-3.2-2.9-5.9-6.5-5.9s-6.5,2.6-6.5,5.8c0,2,2,4.8,6,8
		C41.9,599,42.3,599,42.5,598.9z"/>
</g>
<g id="Group-20" transform="translate(49.000000, -290.000000)">
	<path id="Fill-29" class="st6" d="M40,593.1c0-0.4,0.3-0.7,0.6-1c0.4-0.2,0.8-0.2,1.2,0s0.6,0.5,0.6,1c0,0.6-0.6,1.1-1.2,1.1
		C40.5,594.2,40,593.7,40,593.1"/>
	<path id="Fill-31_1_" class="st6" d="M45.3,597.2c-0.4,0.3-0.8,0.3-1.2,0s-0.4-0.7,0-1.1c1.9-1.7,1.9-4.5,0-6.2
		c-0.4-0.3-0.4-0.7,0-1.1c0.5-0.2,0.9-0.2,1.2,0.2C47.8,591.3,47.8,595,45.3,597.2"/>
	<path id="Fill-33_1_" class="st6" d="M48.7,600.3c-0.4,0.3-0.8,0.3-1.2,0s-0.4-0.7,0-1.1c3.8-3.4,3.8-8.9,0-12.4
		c-0.4-0.3-0.4-0.7,0-1.1c0.4-0.3,0.8-0.3,1.2,0C53.1,589.9,53.1,596.4,48.7,600.3"/>
</g>
<g id="Group-19" transform="translate(74.000000, -290.000000)">
	<path id="Fill-35_1_" class="st7" d="M35,593.1c0-0.4,0.3-0.7,0.6-1c0.4-0.2,0.8-0.2,1.2,0s0.6,0.5,0.6,1c0,0.6-0.6,1.1-1.2,1.1
		C35.5,594.2,35,593.7,35,593.1"/>
	<path id="Fill-37" class="st7" d="M40.3,597.2c-0.4,0.3-0.8,0.3-1.2,0s-0.4-0.7,0-1.1c1.9-1.7,1.9-4.5,0-6.2
		c-0.4-0.3-0.4-0.7,0-1.1c0.5-0.2,0.9-0.2,1.2,0.2C42.8,591.3,42.8,595,40.3,597.2"/>
	<path id="Fill-39" class="st7" d="M43.7,600.3c-0.4,0.3-0.8,0.3-1.2,0s-0.4-0.7,0-1.1c3.8-3.4,3.8-8.9,0-12.4
		c-0.4-0.3-0.4-0.7,0-1.1c0.4-0.3,0.8-0.3,1.2,0C48.1,589.9,48.1,596.4,43.7,600.3"/>
</g>
<g id="Group-30" transform="translate(295.000000, -288.000000)">
	<path id="Fill-41_1_" class="st6" d="M48.3,594.5C48.2,594.5,48.2,594.5,48.3,594.5c-0.4,0-0.7-0.3-0.7-0.6c0-0.4,0.2-0.6,0.6-0.6
		h0.6c1.7,0,3-1.4,3-3.2s-1.3-3.2-3-3.2h-3.6c-1.7,0-3,1.4-3,3.2v0.4v0.1c0,0.4-0.2,0.6-0.6,0.6c-0.4,0-0.6-0.2-0.6-0.6V590
		c0-2.4,1.9-4.5,4.2-4.5h3.6c2.3,0,4.2,2.1,4.2,4.5s-1.9,4.5-4.2,4.5H48.3z"/>
	<path id="Fill-43_1_" class="st6" d="M39.8,585.5c0.4,0,0.6,0.3,0.6,0.6s-0.2,0.7-0.6,0.7h-0.1h-0.5c-1.7,0-3,1.4-3,3.2
		s1.3,3.2,3,3.2h3.6c1.7,0,3-1.4,3-3.2v-0.5v-0.1c0-0.4,0.2-0.6,0.6-0.6c0.4,0,0.6,0.3,0.6,0.6v0.6c0,2.4-1.9,4.5-4.2,4.5h-3.6
		c-2.3,0-4.2-2.1-4.2-4.5s1.9-4.5,4.2-4.5H39.8z"/>
</g>
<g id="Group-29" transform="translate(332.600000, -288.000000)">
	<path id="Fill-45_1_" class="st7" d="M48.3,594.5C48.2,594.5,48.2,594.5,48.3,594.5c-0.4,0-0.7-0.3-0.7-0.6c0-0.4,0.2-0.6,0.6-0.6
		h0.6c1.7,0,3-1.4,3-3.2s-1.3-3.2-3-3.2h-3.6c-1.7,0-3,1.4-3,3.2v0.4v0.1c0,0.4-0.2,0.6-0.6,0.6c-0.4,0-0.6-0.2-0.6-0.6V590
		c0-2.4,1.9-4.5,4.2-4.5h3.6c2.3,0,4.2,2.1,4.2,4.5s-1.9,4.5-4.2,4.5H48.3z"/>
	<path id="Fill-47_1_" class="st7" d="M39.8,585.5c0.4,0,0.6,0.3,0.6,0.6s-0.2,0.7-0.6,0.7h-0.1h-0.5c-1.7,0-3,1.4-3,3.2
		s1.3,3.2,3,3.2h3.6c1.7,0,3-1.4,3-3.2v-0.5v-0.1c0-0.4,0.2-0.6,0.6-0.6c0.4,0,0.6,0.3,0.6,0.6v0.6c0,2.4-1.9,4.5-4.2,4.5h-3.6
		c-2.3,0-4.2-2.1-4.2-4.5s1.9-4.5,4.2-4.5H39.8z"/>
</g>
<g id="Group-34" transform="translate(233.000000, -290.000000)">
	<path id="Stroke-49_1_" class="st4" d="M42.6,588.1h-7.5l-1.3-2.3c-0.1-0.1-0.3-0.3-0.5-0.3h-4.1c-0.1,0-0.2,0.1-0.2,0.2v12.6
		c0,0.1,0.1,0.2,0.2,0.2h13.4c0.1,0,0.2-0.1,0.2-0.2v-10C42.8,588.2,42.7,588.1,42.6,588.1z"/>
	<path id="Fill-51_1_" class="st6" d="M30.1,591.8c0-0.3,0.2-0.6,0.5-0.6h11.9c0.3,0,0.5,0.2,0.5,0.6c0,0.4-0.2,0.6-0.5,0.6h-3.3
		h-8.6C30.3,592.4,30.1,592.2,30.1,591.8"/>
</g>
<g id="Group-33" transform="translate(267.000000, -290.000000)">
	<path id="Stroke-53_1_" class="st5" d="M48.6,588.1h-7.5l-1.3-2.3c-0.1-0.1-0.3-0.3-0.5-0.3h-4.1c-0.1,0-0.2,0.1-0.2,0.2v12.6
		c0,0.1,0.1,0.2,0.2,0.2h13.4c0.1,0,0.2-0.1,0.2-0.2v-10C48.8,588.2,48.7,588.1,48.6,588.1z"/>
	<path id="Fill-55_1_" class="st7" d="M36.1,591.8c0-0.3,0.2-0.6,0.5-0.6h11.9c0.3,0,0.5,0.2,0.5,0.6c0,0.4-0.2,0.6-0.5,0.6h-3.3
		h-8.6C36.3,592.4,36.1,592.2,36.1,591.8"/>
</g>
<g id="Group" transform="translate(156.000000, -290.000000)">
	<g id="Group-27">
		<path id="Stroke-21" class="st4" d="M39.1,585.5h13.8c0.3,0,0.6,0.2,0.6,0.6v11.8c0,0.4-0.2,0.6-0.6,0.6H39.1
			c-0.3,0-0.6-0.2-0.6-0.6v-11.8C38.6,585.8,38.8,585.5,39.1,585.5z"/>
	</g>
	<path id="Shape" class="st4" d="M44.4,590.1v3.7c0,0.4,0.5,0.7,0.9,0.5l3-2c0.3-0.2,0.3-0.7,0-0.9l-3-1.7
		C44.9,589.4,44.4,589.6,44.4,590.1z"/>
</g>
<g id="Group_1_" transform="translate(189.400000, -290.000000)">
	<g id="Group-27_1_">
		<path id="Stroke-21_1_" class="st5" d="M36.1,585.5h13.8c0.3,0,0.6,0.2,0.6,0.6v11.8c0,0.4-0.2,0.6-0.6,0.6H36.1
			c-0.3,0-0.6-0.2-0.6-0.6v-11.8C35.5,585.9,35.8,585.5,36.1,585.5z"/>
	</g>
	<path id="Shape_1_" class="st5" d="M41.4,590.1v3.7c0,0.4,0.5,0.7,0.9,0.5l3-2c0.3-0.2,0.3-0.7,0-0.9l-3-1.7
		C41.8,589.4,41.4,589.7,41.4,590.1z"/>
</g>
</svg>
