<?xml version="1.0" encoding="utf-8"?>
<!-- Generator: Adobe Illustrator 22.0.0, SVG Export Plug-In . SVG Version: 6.00 Build 0)  -->
<svg version="1.1" id="图层_1" xmlns="http://www.w3.org/2000/svg" xmlns:xlink="http://www.w3.org/1999/xlink" x="0px" y="0px"
	 viewBox="0 0 500 3443" style="enable-background:new 0 0 500 3443;" xml:space="preserve">
<style type="text/css">
	.st0{fill:#494949;}
	.st1{font-family:'PingFangSC-Regular-GBpc-EUC-H';}
	.st2{font-size:30px;}
	.st3{font-family:'Helvetica';}
	.st4{fill:none;stroke:#777777;}
	.st5{fill:none;stroke:#3A91F3;}
	.st6{fill:#777777;}
	.st7{fill:#3A91F3;}
	.st8{fill:none;stroke:#3A91F3;stroke-miterlimit:10;}
	.st9{fill:#FFFFFF;}
	.st10{fill:none;stroke:#777777;stroke-linecap:round;stroke-linejoin:round;}
	.st11{fill:none;stroke:#3A91F3;stroke-linecap:round;stroke-linejoin:round;}
</style>
<text transform="matrix(1 0 0 1 35 617.9199)" class="st0 st1 st2">搜索类别</text>
<text transform="matrix(1 0 0 1 155 617.9199)" class="st0 st3 st2">ICON</text>
<path id="Stroke-1" class="st4" d="M41.7,707c-0.3,0-0.6,0.2-0.6,0.6v4.7c0,0.3,0.2,0.6,0.6,0.6h4.7c0.4,0,0.6-0.2,0.6-0.6v-4.7
	c0-0.3-0.2-0.6-0.6-0.6H41.7z M41.7,698.9c-0.3,0-0.6,0.2-0.6,0.6v4.7c0,0.3,0.2,0.6,0.6,0.6h4.7c0.4,0,0.6-0.2,0.6-0.6v-4.7
	c0-0.3-0.2-0.6-0.6-0.6H41.7z M33.6,707c-0.4,0-0.6,0.2-0.6,0.6v4.7c0,0.3,0.2,0.6,0.6,0.6h4.7c0.3,0,0.6-0.2,0.6-0.6v-4.7
	c0-0.3-0.2-0.6-0.6-0.6H33.6z M33.6,698.9c-0.4,0-0.6,0.2-0.6,0.6v4.7c0,0.3,0.2,0.6,0.6,0.6h4.7c0.3,0,0.6-0.2,0.6-0.6v-4.7
	c0-0.3-0.2-0.6-0.6-0.6H33.6z"/>
<path id="Stroke-3" class="st5" d="M81.7,707c-0.4,0-0.6,0.2-0.6,0.6v4.7c0,0.3,0.2,0.6,0.6,0.6h4.7c0.3,0,0.6-0.2,0.6-0.6v-4.7
	c0-0.3-0.2-0.6-0.6-0.6H81.7z M81.7,698.9c-0.4,0-0.6,0.2-0.6,0.6v4.7c0,0.3,0.2,0.6,0.6,0.6h4.7c0.3,0,0.6-0.2,0.6-0.6v-4.7
	c0-0.3-0.2-0.6-0.6-0.6H81.7z M73.6,707c-0.3,0-0.6,0.2-0.6,0.6v4.7c0,0.3,0.2,0.6,0.6,0.6h4.7c0.4,0,0.6-0.2,0.6-0.6v-4.7
	c0-0.3-0.2-0.6-0.6-0.6H73.6z M73.6,698.9c-0.3,0-0.6,0.2-0.6,0.6v4.7c0,0.3,0.2,0.6,0.6,0.6h4.7c0.4,0,0.6-0.2,0.6-0.6v-4.7
	c0-0.3-0.2-0.6-0.6-0.6H73.6z"/>
<g id="Group-32" transform="translate(75.000000, 113.000000)">
	<path id="Stroke-5" class="st4" d="M37.1,585h9.8c0.7,0,1.1,0.4,1.1,1.1v11.8c0,0.6-0.4,1.1-1.1,1.1h-9.8c-0.7,0-1.1-0.4-1.1-1.1
		v-11.8C36,585.5,36.4,585,37.1,585z"/>
	<path id="Fill-9_1_" class="st6" d="M39.4,594.1h4.1c0.3,0,0.4,0.2,0.4,0.5s-0.2,0.5-0.4,0.5h-4.1c-0.3,0-0.4-0.2-0.4-0.5
		C39.1,594.4,39.3,594.1,39.4,594.1 M39.4,591.5h4.1c0.3,0,0.4,0.2,0.4,0.5s-0.2,0.5-0.4,0.5h-4.1c-0.2,0-0.4-0.2-0.4-0.5
		C39.1,591.8,39.3,591.5,39.4,591.5 M39.4,589h4.1c0.3,0,0.4,0.2,0.4,0.5s-0.2,0.5-0.4,0.5h-4.1c-0.2,0-0.4-0.2-0.4-0.5
		C39.1,589.3,39.3,589,39.4,589"/>
</g>
<g id="Group-31" transform="translate(106.000000, 113.000000)">
	<path id="Stroke-7_1_" class="st5" d="M36.1,585h9.8c0.7,0,1.1,0.4,1.1,1.1v11.8c0,0.6-0.4,1.1-1.1,1.1h-9.8
		c-0.7,0-1.1-0.4-1.1-1.1v-11.8C35,585.5,35.4,585,36.1,585z"/>
	<path id="Fill-11_1_" class="st7" d="M38.4,594.1h4.1c0.3,0,0.4,0.2,0.4,0.5s-0.2,0.5-0.4,0.5h-4.1c-0.3,0-0.4-0.2-0.4-0.5
		C38.1,594.4,38.3,594.1,38.4,594.1 M38.4,591.5h4.1c0.3,0,0.4,0.2,0.4,0.5s-0.2,0.5-0.4,0.5h-4.1c-0.2,0-0.4-0.2-0.4-0.5
		C38.1,591.8,38.3,591.5,38.4,591.5 M38.4,589h4.1c0.3,0,0.4,0.2,0.4,0.5s-0.2,0.5-0.4,0.5h-4.1c-0.2,0-0.4-0.2-0.4-0.5
		C38.1,589.3,38.3,589,38.4,589"/>
</g>
<g id="Group-24" transform="translate(190.000000, 113.000000)">
	<path id="Stroke-13" class="st4" d="M40,588c1.1,0,2,0.9,2,2c0,1.2-0.9,2-2,2s-2-0.9-2-2C38,588.8,38.9,588,40,588z"/>
	<path id="Stroke-15_1_" class="st4" d="M40.5,598.9c4-3.2,6-6,6-8c0-3.2-2.9-5.9-6.5-5.9s-6.5,2.6-6.5,5.8c0,2,2,4.8,6,8
		C39.9,599,40.3,599,40.5,598.9z"/>
</g>
<g id="Group-21" transform="translate(218.000000, 113.000000)">
	<path id="Stroke-17" class="st5" d="M42,588c1.1,0,2,0.9,2,2c0,1.2-0.9,2-2,2s-2-0.9-2-2C40,588.8,40.9,588,42,588z"/>
	<path id="Stroke-19" class="st5" d="M42.5,598.9c4-3.2,6-6,6-8c0-3.2-2.9-5.9-6.5-5.9s-6.5,2.6-6.5,5.8c0,2,2,4.8,6,8
		C41.9,599,42.3,599,42.5,598.9z"/>
</g>
<g id="Group-20" transform="translate(139.000000, 112.000000)">
	<path id="Fill-29" class="st6" d="M40,593.1c0-0.4,0.3-0.7,0.6-1c0.4-0.2,0.8-0.2,1.2,0s0.6,0.5,0.6,1c0,0.6-0.6,1.1-1.2,1.1
		C40.5,594.2,40,593.7,40,593.1"/>
	<path id="Fill-31_1_" class="st6" d="M45.3,597.2c-0.4,0.3-0.8,0.3-1.2,0s-0.4-0.7,0-1.1c1.9-1.7,1.9-4.5,0-6.2
		c-0.4-0.3-0.4-0.7,0-1.1c0.5-0.2,0.9-0.2,1.2,0.2C47.8,591.3,47.8,595,45.3,597.2"/>
	<path id="Fill-33_1_" class="st6" d="M48.7,600.3c-0.4,0.3-0.8,0.3-1.2,0s-0.4-0.7,0-1.1c3.8-3.4,3.8-8.9,0-12.4
		c-0.4-0.3-0.4-0.7,0-1.1c0.4-0.3,0.8-0.3,1.2,0C53.1,589.9,53.1,596.4,48.7,600.3"/>
</g>
<g id="Group-19" transform="translate(164.000000, 112.000000)">
	<path id="Fill-35_1_" class="st7" d="M35,593.1c0-0.4,0.3-0.7,0.6-1c0.4-0.2,0.8-0.2,1.2,0s0.6,0.5,0.6,1c0,0.6-0.6,1.1-1.2,1.1
		C35.5,594.2,35,593.7,35,593.1"/>
	<path id="Fill-37" class="st7" d="M40.3,597.2c-0.4,0.3-0.8,0.3-1.2,0s-0.4-0.7,0-1.1c1.9-1.7,1.9-4.5,0-6.2
		c-0.4-0.3-0.4-0.7,0-1.1c0.5-0.2,0.9-0.2,1.2,0.2C42.8,591.3,42.8,595,40.3,597.2"/>
	<path id="Fill-39" class="st7" d="M43.7,600.3c-0.4,0.3-0.8,0.3-1.2,0s-0.4-0.7,0-1.1c3.8-3.4,3.8-8.9,0-12.4
		c-0.4-0.3-0.4-0.7,0-1.1c0.4-0.3,0.8-0.3,1.2,0C48.1,589.9,48.1,596.4,43.7,600.3"/>
</g>
<g id="Group-30" transform="translate(385.000000, 116.000000)">
	<path id="Fill-41_1_" class="st6" d="M48.3,594.5C48.2,594.5,48.2,594.5,48.3,594.5c-0.4,0-0.7-0.3-0.7-0.6c0-0.4,0.2-0.6,0.6-0.6
		h0.6c1.7,0,3-1.4,3-3.2s-1.3-3.2-3-3.2h-3.6c-1.7,0-3,1.4-3,3.2v0.4v0.1c0,0.4-0.2,0.6-0.6,0.6c-0.4,0-0.6-0.2-0.6-0.6V590
		c0-2.4,1.9-4.5,4.2-4.5h3.6c2.3,0,4.2,2.1,4.2,4.5s-1.9,4.5-4.2,4.5H48.3z"/>
	<path id="Fill-43_1_" class="st6" d="M39.8,585.5c0.4,0,0.6,0.3,0.6,0.6s-0.2,0.7-0.6,0.7h-0.1h-0.5c-1.7,0-3,1.4-3,3.2
		s1.3,3.2,3,3.2h3.6c1.7,0,3-1.4,3-3.2v-0.5v-0.1c0-0.4,0.2-0.6,0.6-0.6c0.4,0,0.6,0.3,0.6,0.6v0.6c0,2.4-1.9,4.5-4.2,4.5h-3.6
		c-2.3,0-4.2-2.1-4.2-4.5s1.9-4.5,4.2-4.5H39.8z"/>
</g>
<g id="Group-29" transform="translate(423.000000, 116.000000)">
	<path id="Fill-45_1_" class="st7" d="M48.3,594.5C48.2,594.5,48.2,594.5,48.3,594.5c-0.4,0-0.7-0.3-0.7-0.6c0-0.4,0.2-0.6,0.6-0.6
		h0.6c1.7,0,3-1.4,3-3.2s-1.3-3.2-3-3.2h-3.6c-1.7,0-3,1.4-3,3.2v0.4v0.1c0,0.4-0.2,0.6-0.6,0.6c-0.4,0-0.6-0.2-0.6-0.6V590
		c0-2.4,1.9-4.5,4.2-4.5h3.6c2.3,0,4.2,2.1,4.2,4.5s-1.9,4.5-4.2,4.5H48.3z"/>
	<path id="Fill-47_1_" class="st7" d="M39.8,585.5c0.4,0,0.6,0.3,0.6,0.6s-0.2,0.7-0.6,0.7h-0.1h-0.5c-1.7,0-3,1.4-3,3.2
		s1.3,3.2,3,3.2h3.6c1.7,0,3-1.4,3-3.2v-0.5v-0.1c0-0.4,0.2-0.6,0.6-0.6c0.4,0,0.6,0.3,0.6,0.6v0.6c0,2.4-1.9,4.5-4.2,4.5h-3.6
		c-2.3,0-4.2-2.1-4.2-4.5s1.9-4.5,4.2-4.5H39.8z"/>
</g>
<g id="Group-34" transform="translate(323.000000, 113.000000)">
	<path id="Stroke-49_1_" class="st4" d="M42.6,588.1h-7.5l-1.3-2.3c-0.1-0.1-0.3-0.3-0.5-0.3h-4.1c-0.1,0-0.2,0.1-0.2,0.2v12.6
		c0,0.1,0.1,0.2,0.2,0.2h13.4c0.1,0,0.2-0.1,0.2-0.2v-10C42.8,588.2,42.7,588.1,42.6,588.1z"/>
	<path id="Fill-51_1_" class="st6" d="M30.1,591.8c0-0.3,0.2-0.6,0.5-0.6h11.9c0.3,0,0.5,0.2,0.5,0.6c0,0.4-0.2,0.6-0.5,0.6h-3.3
		h-8.6C30.3,592.4,30.1,592.2,30.1,591.8"/>
</g>
<g id="Group-33" transform="translate(357.000000, 113.000000)">
	<path id="Stroke-53_1_" class="st5" d="M48.6,588.1h-7.5l-1.3-2.3c-0.1-0.1-0.3-0.3-0.5-0.3h-4.1c-0.1,0-0.2,0.1-0.2,0.2v12.6
		c0,0.1,0.1,0.2,0.2,0.2h13.4c0.1,0,0.2-0.1,0.2-0.2v-10C48.8,588.2,48.7,588.1,48.6,588.1z"/>
	<path id="Fill-55_1_" class="st7" d="M36.1,591.8c0-0.3,0.2-0.6,0.5-0.6h11.9c0.3,0,0.5,0.2,0.5,0.6c0,0.4-0.2,0.6-0.5,0.6h-3.3
		h-8.6C36.3,592.4,36.1,592.2,36.1,591.8"/>
</g>
<g id="Group" transform="translate(246.000000, 113.000000)">
	<g id="Group-27">
		<path id="Stroke-21" class="st4" d="M39.1,585.5h13.8c0.3,0,0.6,0.2,0.6,0.6v11.8c0,0.4-0.2,0.6-0.6,0.6H39.1
			c-0.3,0-0.6-0.2-0.6-0.6v-11.8C38.6,585.8,38.8,585.5,39.1,585.5z"/>
	</g>
	<path id="Shape" class="st4" d="M44.4,590.1v3.7c0,0.4,0.5,0.7,0.9,0.5l3-2c0.3-0.2,0.3-0.7,0-0.9l-3-1.7
		C44.9,589.4,44.4,589.6,44.4,590.1z"/>
</g>
<g id="Group_1_" transform="translate(279.000000, 113.000000)">
	<g id="Group-27_1_">
		<path id="Stroke-21_1_" class="st5" d="M36.1,585.5h13.8c0.3,0,0.6,0.2,0.6,0.6v11.8c0,0.4-0.2,0.6-0.6,0.6H36.1
			c-0.3,0-0.6-0.2-0.6-0.6v-11.8C35.5,585.9,35.8,585.5,36.1,585.5z"/>
	</g>
	<path id="Shape_1_" class="st5" d="M41.4,590.1v3.7c0,0.4,0.5,0.7,0.9,0.5l3-2c0.3-0.2,0.3-0.7,0-0.9l-3-1.7
		C41.8,589.4,41.4,589.7,41.4,590.1z"/>
</g>
<path class="st6" d="M57.2,361.8L57.2,361.8l-11.8-5c-0.2,0-0.3-0.1-0.4-0.1c-0.1,0-0.2,0-0.4,0.1l-12.4,5.1
	c-0.5,0.3-0.6,0.6-0.6,1.5v14.2c0,0.8,0.3,1.2,1.1,1.5l11.9,4.4c0.4,0.1,0.9,0.1,1.1,0l11.5-4.1c0.8-0.3,1.1-0.7,1.1-1.5v-14.5
	C58.3,362.9,58.3,362.3,57.2,361.8z M44.4,382.1L44.4,382.1L32.7,378v-14.2l11.7,4.5V382.1z M44.9,367.3L44.9,367.3L33,362.8
	l11.9-5.1l0,0l11.8,5.1l-0.2,0.1L44.9,367.3z M57.2,377.8l-0.4,0.1l-11.3,4v-13.8h0.1l11.6-4.4C57.2,363.7,57.2,377.8,57.2,377.8z"
	/>
<path class="st7" d="M107.3,361.8L107.3,361.8l-11.8-5c-0.2,0-0.3-0.1-0.4-0.1s-0.2,0-0.4,0.1l-12.4,5.1c-0.5,0.3-0.6,0.6-0.6,1.5
	v14.2c0,0.8,0.3,1.2,1.1,1.5l11.9,4.4c0.4,0.1,0.9,0.1,1.1,0l11.5-4.1c0.8-0.3,1.1-0.7,1.1-1.5v-14.5
	C108.5,362.9,108.5,362.3,107.3,361.8z M94.6,382.1L94.6,382.1L82.9,378v-14.2l11.7,4.5V382.1z M95.1,367.3L95.1,367.3l-11.9-4.5
	l11.9-5.1l0,0l11.8,5.1l-0.2,0.1L95.1,367.3z M107.4,377.8L107,378l-11.3,4v-13.8h0.1l11.6-4.4C107.4,363.8,107.4,377.8,107.4,377.8
	z"/>
<g id="Group_2_" transform="translate(8.000000, 126.000000)">
	<path id="Stroke-7" class="st4" d="M26,110.6l8.1-6.1h0.2H48c1.9,0,3.5-1.6,3.5-3.4V88.4c0-1.9-1.6-3.4-3.5-3.4H28
		c-1.9,0-3.5,1.6-3.5,3.4v21.4C24.4,111,25,111.3,26,110.6z"/>
	<path id="Fill-9" class="st6" d="M32.5,93.9c0.8,0,1.5,0.7,1.5,1.5s-0.7,1.5-1.5,1.5S31,96.2,31,95.4C31,94.6,31.7,93.9,32.5,93.9"
		/>
	<path id="Fill-11" class="st6" d="M38.5,93.9c0.8,0,1.5,0.7,1.5,1.5s-0.7,1.5-1.5,1.5S37,96.2,37,95.4C37,94.6,37.7,93.9,38.5,93.9
		"/>
	<path id="Fill-13" class="st6" d="M44.5,93.9c0.8,0,1.5,0.7,1.5,1.5s-0.7,1.5-1.5,1.5S43,96.2,43,95.4C43,94.6,43.7,93.9,44.5,93.9
		"/>
</g>
<g id="Group_9_" transform="translate(8.000000, 126.000000)">
	<path id="Stroke-7_4_" class="st4" d="M127,110.6l8.1-6.1h0.2H149c1.9,0,3.5-1.6,3.5-3.4V88.4c0-1.9-1.6-3.4-3.5-3.4h-20
		c-1.9,0-3.5,1.6-3.5,3.4v21.4C125.4,111,126,111.3,127,110.6z"/>
	<path id="Fill-9_4_" class="st6" d="M133.5,93.9c0.8,0,1.5,0.7,1.5,1.5s-0.7,1.5-1.5,1.5s-1.5-0.7-1.5-1.5S132.7,93.9,133.5,93.9"
		/>
	<path id="Fill-11_4_" class="st6" d="M139.5,93.9c0.8,0,1.5,0.7,1.5,1.5s-0.7,1.5-1.5,1.5s-1.5-0.7-1.5-1.5S138.7,93.9,139.5,93.9"
		/>
	<path id="Fill-13_3_" class="st6" d="M145.5,93.9c0.8,0,1.5,0.7,1.5,1.5s-0.7,1.5-1.5,1.5s-1.5-0.7-1.5-1.5S144.7,93.9,145.5,93.9"
		/>
</g>
<g id="Group_3_" transform="translate(8.000000, 126.000000)">
	<path id="Stroke-7_2_" class="st8" d="M81,110.4l8.1-6.1h0.2H103c1.9,0,3.5-1.6,3.5-3.4V88.2c0-1.9-1.6-3.4-3.5-3.4H83
		c-1.9,0-3.5,1.6-3.5,3.4v21.4C79.4,110.8,80,111.1,81,110.4z"/>
	<path id="Fill-9_2_" class="st7" d="M87.5,93.7c0.8,0,1.5,0.7,1.5,1.5s-0.7,1.5-1.5,1.5S86,96,86,95.2C86,94.4,86.7,93.7,87.5,93.7
		"/>
	<path id="Fill-11_2_" class="st7" d="M93.5,93.7c0.8,0,1.5,0.7,1.5,1.5s-0.7,1.5-1.5,1.5S92,96,92,95.2
		C92,94.4,92.7,93.7,93.5,93.7"/>
	<path id="Fill-13_1_" class="st7" d="M99.5,93.7c0.8,0,1.5,0.7,1.5,1.5s-0.7,1.5-1.5,1.5S98,96,98,95.2
		C98,94.4,98.7,93.7,99.5,93.7"/>
</g>
<g id="Group_4_" transform="translate(7.000000, 169.000000)">
	<path id="Fill-25" class="st6" d="M46,95.3h8c0.3,0,0.5,0.2,0.5,0.5s-0.2,0.5-0.5,0.5h-8c-0.3,0-0.5-0.2-0.5-0.5S45.7,95.3,46,95.3
		"/>
	<path id="Stroke-27" class="st4" d="M41,98.2h-4c-4.9,0-9,3.8-9.5,8.7v1c0,2,1.6,3.5,3.5,3.5h15.9c1.9,0,3.5-1.6,3.5-3.5V107
		C50,102.1,45.9,98.2,41,98.2z"/>
	<path id="Stroke-29" class="st4" d="M39.1,84.5c3.6,0,6.5,2.9,6.5,6.6c0,3.6-2.9,6.6-6.5,6.6s-6.5-2.9-6.5-6.6S35.5,84.5,39.1,84.5
		z"/>
	<path id="Fill-31" class="st6" d="M48,99.2h6c0.3,0,0.5,0.2,0.5,0.5s-0.2,0.5-0.5,0.5h-6c-0.3,0-0.5-0.2-0.5-0.5
		C47.5,99.4,47.7,99.2,48,99.2"/>
	<path id="Fill-33" class="st6" d="M51,102.2h3c0.3,0,0.5,0.2,0.5,0.5s-0.2,0.5-0.5,0.5h-3c-0.3,0-0.5-0.2-0.5-0.5
		C50.5,102.4,50.7,102.2,51,102.2"/>
</g>
<g id="Group_5_" transform="translate(59.000000, 169.000000)">
	<path id="Fill-25_1_" class="st7" d="M44,95.3h8c0.3,0,0.5,0.2,0.5,0.5s-0.2,0.5-0.5,0.5h-8c-0.3,0-0.5-0.2-0.5-0.5
		S43.7,95.3,44,95.3"/>
	<path id="Stroke-27_1_" class="st5" d="M39,98.2h-4c-4.9,0-9,3.8-9.5,8.7v1c0,2,1.6,3.5,3.5,3.5h15.9c1.9,0,3.5-1.6,3.5-3.5V107
		C48,102.1,43.9,98.2,39,98.2z"/>
	<path id="Stroke-29_1_" class="st5" d="M37.1,84.5c3.6,0,6.5,2.9,6.5,6.6c0,3.6-2.9,6.6-6.5,6.6s-6.5-2.9-6.5-6.6
		C30.6,87.4,33.5,84.5,37.1,84.5z"/>
	<path id="Fill-31_2_" class="st7" d="M46,99.2h6c0.3,0,0.5,0.2,0.5,0.5s-0.2,0.5-0.5,0.5h-6c-0.3,0-0.5-0.2-0.5-0.5
		C45.5,99.4,45.7,99.2,46,99.2"/>
	<path id="Fill-33_2_" class="st7" d="M49,102.2h3c0.3,0,0.5,0.2,0.5,0.5s-0.2,0.5-0.5,0.5h-3c-0.3,0-0.5-0.2-0.5-0.5
		C48.5,102.4,48.7,102.2,49,102.2"/>
</g>
<g id="Group_6_" transform="translate(109.000000, 169.000000)">
	<path id="Fill-25_2_" class="st7" d="M44,95.3h8c0.3,0,0.5,0.2,0.5,0.5s-0.2,0.5-0.5,0.5h-8c-0.3,0-0.5-0.2-0.5-0.5
		S43.7,95.3,44,95.3"/>
	<path id="Stroke-27_2_" class="st7" d="M39,98.2h-4c-4.9,0-9,3.8-9.5,8.7v1c0,2,1.6,3.5,3.5,3.5h15.9c1.9,0,3.5-1.6,3.5-3.5V107
		C48,102.1,43.9,98.2,39,98.2z"/>
	<path id="Stroke-29_2_" class="st7" d="M37.1,84.5c3.6,0,6.5,2.9,6.5,6.6c0,3.6-2.9,6.6-6.5,6.6s-6.5-2.9-6.5-6.6
		C30.6,87.4,33.5,84.5,37.1,84.5z"/>
	<path id="Fill-31_3_" class="st7" d="M46,99.2h6c0.3,0,0.5,0.2,0.5,0.5s-0.2,0.5-0.5,0.5h-6c-0.3,0-0.5-0.2-0.5-0.5
		C45.5,99.4,45.7,99.2,46,99.2"/>
	<path id="Fill-33_3_" class="st7" d="M49,102.2h3c0.3,0,0.5,0.2,0.5,0.5s-0.2,0.5-0.5,0.5h-3c-0.3,0-0.5-0.2-0.5-0.5
		C48.5,102.4,48.7,102.2,49,102.2"/>
</g>
<path id="Fill-71" class="st7" d="M151.3,428.6c-5.5-0.6-10.4-2.9-10.4-5.5c0.1-3.3,6.2-3.9,6.6-6.7c0.5-2.8-2.4-2.4-2.5-5.4
	c0-2,2.8-3,8.4-3.2c5.5,0.2,8.3,1.2,8.4,3.2c0,3-3,2.6-2.5,5.4s6.6,3.4,6.6,6.7c0,2.6-5,4.9-10.4,5.5l-1.6,6.7
	c-0.1,0.2-0.2,0.4-0.4,0.4c-0.3,0.1-0.6-0.1-0.7-0.4L151.3,428.6z"/>
<path id="Stroke-73" class="st5" d="M98.2,428.6h0.4l1.7,7.4l1.8-7.4h0.4c5.6-0.6,10.5-3.1,10.5-5.1c0-1.2-0.9-2-3.2-3.3
	c-0.2-0.1-0.2-0.1-0.3-0.2c-2.2-1.3-3.2-2.1-3.4-3.5c-0.3-1.5,0.2-2.3,1.3-3.3c0.1-0.1,0.2-0.2,0.2-0.2c0.9-0.8,1.2-1.3,1.2-2.3
	c0-1.6-2.7-2.7-8.3-2.8c-5.5,0.2-8.3,1.2-8.3,2.8c0,1,0.3,1.6,1.2,2.3c0,0,0.1,0.1,0.2,0.2c1.1,1,1.6,1.8,1.3,3.3
	c-0.2,1.4-1.2,2.2-3.4,3.5c-0.2,0.1-0.2,0.1-0.3,0.2c-2.3,1.4-3.2,2.1-3.2,3.3C87.7,425.6,92.5,428,98.2,428.6z"/>
<path id="Stroke-75" class="st4" d="M38.2,428.6h0.4l1.7,7.4l1.8-7.4h0.4c5.6-0.6,10.5-3.1,10.5-5.1c0-1.2-0.9-2-3.2-3.3
	c-0.2-0.1-0.2-0.1-0.3-0.2c-2.2-1.3-3.2-2.1-3.4-3.5c-0.3-1.5,0.2-2.3,1.3-3.3c0.1-0.1,0.2-0.2,0.2-0.2c0.9-0.8,1.2-1.3,1.2-2.3
	c0-1.6-2.7-2.7-8.3-2.8c-5.5,0.2-8.3,1.2-8.3,2.8c0,1,0.3,1.6,1.2,2.3c0,0,0.1,0.1,0.2,0.2c1.1,1,1.6,1.8,1.3,3.3
	c-0.2,1.4-1.2,2.2-3.4,3.5l-0.3,0.2c-2.3,1.4-3.2,2.1-3.2,3.3C27.7,425.6,32.5,428,38.2,428.6z"/>
<text transform="matrix(1 0 0 1 25 116.9199)" class="st0 st1 st2">侧边栏</text>
<text transform="matrix(1 0 0 1 115 116.9199)" class="st0 st3 st2">ICON</text>
<path id="Shape_4_" class="st4" d="M58.5,324c0,2.9-2.2,5.2-5.1,5.2c-0.3,0-0.7,0-1-0.1c-8.9-1.8-16.8-9.2-18.8-19.6
	c-0.2-0.9-0.2-2,0.3-3.1c0.8-1.9,2.7-3.2,4.7-3.2c0.8,0,1.5,0.2,2.1,0.5c1.7,0.8,2.9,2.6,2.9,4.7c0,1.5-0.6,2.8-1.6,3.8
	c-0.3,0.3-0.4,0.7-0.2,1.1c1.5,3.1,3.9,5.7,6.9,7.2c0.4,0.2,0.8,0.1,1.1-0.2c0.9-0.9,2.1-1.5,3.5-1.5c2,0,3.8,1.2,4.6,3
	C58.3,322.4,58.5,323.2,58.5,324z"/>
<path id="Shape_5_" class="st5" d="M108.5,323.8c0,2.9-2.2,5.2-5.1,5.2c-0.3,0-0.7,0-1-0.1c-8.9-1.8-16.8-9.2-18.8-19.6
	c-0.2-0.9-0.2-2,0.3-3.1c0.8-1.9,2.7-3.2,4.7-3.2c0.8,0,1.5,0.2,2.1,0.5c1.7,0.8,2.9,2.6,2.9,4.7c0,1.5-0.6,2.8-1.6,3.8
	c-0.3,0.3-0.4,0.7-0.2,1.1c1.5,3.1,3.9,5.7,6.9,7.2c0.4,0.2,0.8,0.1,1.1-0.2c0.9-0.9,2.1-1.5,3.5-1.5c2,0,3.8,1.2,4.6,3
	C108.3,322.2,108.5,323,108.5,323.8z"/>
<path id="Shape_6_" class="st7" d="M160.8,323.1c0,2.9-2.2,5.2-5.1,5.2c-0.3,0-0.7,0-1-0.1c-8.9-1.8-16.8-9.2-18.8-19.6
	c-0.2-0.9-0.2-2,0.3-3.1c0.8-1.9,2.7-3.2,4.7-3.2c0.8,0,1.5,0.2,2.1,0.5c1.7,0.8,2.9,2.6,2.9,4.7c0,1.5-0.6,2.8-1.6,3.8
	c-0.3,0.3-0.4,0.7-0.2,1.1c1.5,3.1,3.9,5.7,6.9,7.2c0.4,0.2,0.8,0.1,1.1-0.2c0.9-0.9,2.1-1.5,3.5-1.5c2,0,3.8,1.2,4.6,3
	C160.6,321.5,160.8,322.3,160.8,323.1z"/>
<g id="Group_7_" transform="translate(110.775049, 273.000000)">
	<g id="Shape_7_">
		<path class="st7" d="M25.6,89.7c0,0.1,0,0.2,0,0.3v13.2c0,0.8,0.4,1.2,1.1,1.5l10.8,4V94.6L25.6,89.7z"/>
		<path class="st7" d="M38.6,94.5v14.2c0.1,0,0.2,0,0.2,0l10.7-3.8c0.8-0.3,1.1-0.8,1.1-1.5V89.9c0-0.1,0-0.2,0-0.3L38.6,94.5z"/>
		<path class="st7" d="M50,88.6c-0.1-0.1-0.3-0.2-0.4-0.2l-11-4.7c-0.4-0.1-0.6-0.1-0.8,0l-11.5,4.7l-0.1,0.1L38,93.2L50,88.6z"/>
		<path class="st9" d="M50.4,89.2l-0.3-0.7L50,88.6C50.1,88.8,50.3,89,50.4,89.2z"/>
		<path class="st9" d="M50.6,89.7l-0.3-0.6c0.1,0.2,0.1,0.4,0.1,0.6H50.6z"/>
		<path class="st9" d="M25.6,89.7c0.1-0.6,0.3-0.9,0.7-1.1"/>
		<path class="st9" d="M38.6,108.7c-0.3,0.1-0.6,0.1-0.9,0l-0.4-0.1"/>
		<path class="st9" d="M50.6,89.8c0-0.2,0-0.4-0.1-0.6s-0.3-0.4-0.6-0.6l-12,4.7l-11.8-4.7c-0.4,0.3-0.6,0.6-0.6,1.1l11.8,4.8v14.1
			l0.4,0.1c0.3,0.1,0.7,0.1,0.9,0V94.5L50.6,89.8z"/>
	</g>
</g>
<path id="Shape_8_" class="st7" d="M282.1,976.1l-8.3-3.5c-0.3-0.1-0.4-0.1-0.6,0l-8.7,3.6c-0.4,0.2-0.5,0.5-0.5,1.1v10
	c0,0.6,0.3,0.9,0.8,1.1l8.4,3.1c0.3,0.1,0.6,0.1,0.8,0l8.1-2.9c0.6-0.2,0.8-0.6,0.8-1.1v-10.2C282.9,976.9,282.9,976.4,282.1,976.1z
	 M282,977.7v9.8l-0.2,0.1l-7.9,2.8v-9.6L282,977.7z M281.6,976.9l-8.2,3.1l-8.2-3.1l8.2-3.5L281.6,976.9z M264.8,977.7l8.1,3.1v9.6
	l-8.1-2.9V977.7z"/>
<path id="Shape_9_" class="st6" d="M282.1,935.6l-8.3-3.5c-0.3-0.1-0.4-0.1-0.6,0l-8.7,3.6c-0.4,0.2-0.5,0.5-0.5,1.1v10
	c0,0.6,0.3,0.9,0.8,1.1l8.4,3.1c0.3,0.1,0.6,0.1,0.8,0l8.1-2.9c0.6-0.2,0.8-0.6,0.8-1.1v-10.2C282.9,936.5,282.9,935.9,282.1,935.6z
	 M282,937.2v9.8l-0.2,0.1l-7.9,2.8v-9.6L282,937.2z M281.6,936.4l-8.2,3.1l-8.2-3.1l8.2-3.5L281.6,936.4z M264.8,937.2l8.1,3.1v9.6
	l-8.1-2.9V937.2z"/>
<text transform="matrix(1 0 0 1 34 826.9199)" class="st0 st1 st2">聊天功能</text>
<text transform="matrix(1 0 0 1 154 826.9199)" class="st0 st3 st2">ICON</text>
<g transform="translate(8.000000, 134.000000)">
	<circle id="Oval-5" class="st4" cx="43" cy="801.9" r="8.5"/>
	<path id="Combined-Shape" class="st10" d="M48,802.9c-0.5,2.3-2.5,4-5,4s-4.5-1.7-5-4"/>
	<circle id="Oval-6" class="st6" cx="40" cy="799.9" r="1"/>
	<circle id="Oval-6-Copy" class="st6" cx="46" cy="799.9" r="1"/>
</g>
<g id="Group-4-Copy" transform="translate(8.000000, 179.000000)">
	<circle id="Oval-5_1_" class="st5" cx="43" cy="802.9" r="8.5"/>
	<path id="Combined-Shape_1_" class="st11" d="M48,803.9c-0.5,2.3-2.5,4-5,4s-4.5-1.7-5-4"/>
	<circle id="Oval-6_1_" class="st7" cx="40" cy="800.9" r="1"/>
	<circle id="Oval-6-Copy_1_" class="st7" cx="46" cy="800.9" r="1"/>
</g>
<path id="Combined-Shape_2_" class="st6" d="M88.1,937.1l2.4,2.4c0.7-0.6,1.6-1,2.6-1c2.1,0,3.8,1.6,3.8,3.6s-1.7,3.6-3.8,3.6
	s-3.8-1.6-3.8-3.6c0-0.7,0.2-1.4,0.6-2l-2.5-2.5l-2.5,2.5c0.4,0.6,0.6,1.2,0.6,2c0,2-1.7,3.6-3.8,3.6s-3.8-1.6-3.8-3.6
	s1.7-3.6,3.8-3.6c1,0,1.9,0.4,2.6,1l2.4-2.4l-6.6-6.5c-0.2-0.2-0.2-0.5,0-0.7s0.5-0.2,0.7,0l6.6,6.5l6.6-6.5c0.2-0.2,0.5-0.2,0.7,0
	s0.2,0.5,0,0.7L88.1,937.1z M83.9,940.4c-0.5-0.6-1.3-0.9-2.1-0.9c-1.6,0-2.8,1.2-2.8,2.8c0,1.5,1.3,2.8,2.8,2.8s2.8-1.2,2.8-2.8
	c0-0.6-0.2-1.1-0.5-1.6c0,0-0.1,0-0.1-0.1C83.9,940.5,83.9,940.5,83.9,940.4z M90.7,940.6c-0.3,0.4-0.5,1-0.5,1.6
	c0,1.5,1.3,2.8,2.8,2.8s2.8-1.2,2.8-2.8c0-1.5-1.3-2.8-2.8-2.8c-0.8,0-1.6,0.3-2.1,0.9c0,0.1-0.1,0.1-0.1,0.2S90.8,940.6,90.7,940.6
	z"/>
<path id="Combined-Shape-Copy" class="st7" d="M88.1,981.1l2.4,2.4c0.7-0.6,1.6-1,2.6-1c2.1,0,3.8,1.6,3.8,3.6s-1.7,3.6-3.8,3.6
	s-3.8-1.6-3.8-3.6c0-0.7,0.2-1.4,0.6-2l-2.5-2.5l-2.5,2.5c0.4,0.6,0.6,1.2,0.6,2c0,2-1.7,3.6-3.8,3.6s-3.8-1.6-3.8-3.6
	s1.7-3.6,3.8-3.6c1,0,1.9,0.4,2.6,1l2.4-2.4l-6.6-6.5c-0.2-0.2-0.2-0.5,0-0.7s0.5-0.2,0.7,0l6.6,6.5l6.6-6.5c0.2-0.2,0.5-0.2,0.7,0
	s0.2,0.5,0,0.7L88.1,981.1z M83.9,984.4c-0.5-0.6-1.3-0.9-2.1-0.9c-1.6,0-2.8,1.2-2.8,2.8s1.3,2.8,2.8,2.8s2.8-1.2,2.8-2.8
	c0-0.6-0.2-1.1-0.5-1.6c0,0-0.1,0-0.1-0.1C83.9,984.5,83.9,984.5,83.9,984.4z M90.7,984.6c-0.3,0.4-0.5,1-0.5,1.6
	c0,1.5,1.3,2.8,2.8,2.8s2.8-1.2,2.8-2.8s-1.3-2.8-2.8-2.8c-0.8,0-1.6,0.3-2.1,0.9c0,0.1-0.1,0.1-0.1,0.2S90.8,984.6,90.7,984.6z"/>
<g id="Group-16" transform="translate(160.000000, 136.000000)">
	<path id="Rectangle-65" class="st4" d="M36.7,796.4h10.7c1.1,0,1.9,0.9,1.9,2v9c0,1.1-0.9,2-1.9,2H36.7c-1.1,0-1.9-0.9-1.9-2v-9
		C34.8,797.3,35.6,796.4,36.7,796.4z"/>
	<path id="Combined-Shape_3_" class="st4" d="M49.4,800.1v5.2l3.5,2.2c0.6,0.4,0.9,0.2,0.9-0.5v-8.3c0-0.7-0.4-0.9-1-0.6L49.4,800.1
		z"/>
	<ellipse id="Oval-21" class="st6" cx="38.6" cy="800.1" rx="1.5" ry="1.4"/>
</g>
<g id="Group-16-Copy" transform="translate(160.000000, 181.000000)">
	<path id="Rectangle-65_1_" class="st5" d="M36.7,794.4h10.7c1.1,0,1.9,0.9,1.9,2v9c0,1.1-0.9,2-1.9,2H36.7c-1.1,0-1.9-0.9-1.9-2v-9
		C34.8,795.3,35.6,794.4,36.7,794.4z"/>
	<path id="Combined-Shape_4_" class="st5" d="M49.4,798.1v5.2l3.5,2.2c0.6,0.4,0.9,0.2,0.9-0.5v-8.3c0-0.7-0.4-0.9-1-0.6L49.4,798.1
		z"/>
	<ellipse id="Oval-21_1_" class="st7" cx="38.6" cy="798.1" rx="1.5" ry="1.4"/>
</g>
<g id="Group-12" transform="translate(82.000000, 135.000000)">
	<path id="Combined-Shape_5_" class="st4" d="M51.1,797.2h-9l-1.5-2.4c-0.1-0.2-0.5-0.4-0.7-0.4H35c-0.3,0-0.5,0.2-0.5,0.4V809
		c0,0.2,0.2,0.4,0.4,0.4H51c0.2,0,0.4-0.2,0.4-0.4v-11.3C51.5,797.4,51.3,797.2,51.1,797.2z"/>
	<path id="Rectangle-57" class="st6" d="M36.2,800.4c0-0.3,0.2-0.5,0.5-0.5h14c0.3,0,0.5,0.2,0.5,0.5s-0.2,0.5-0.5,0.5h-3.9H36.7
		C36.4,800.9,36.2,800.7,36.2,800.4z"/>
</g>
<g id="Group-12_1_" transform="translate(82.000000, 180.000000)">
	<path id="Combined-Shape_6_" class="st5" d="M50.8,797.1h-8.9l-1.5-2.4c-0.1-0.2-0.5-0.4-0.7-0.4h-5c-0.3,0-0.5,0.2-0.5,0.4v14.2
		c0,0.2,0.2,0.4,0.4,0.4h16.2c0.2,0,0.4-0.2,0.4-0.4v-11.3C51.2,797.3,51.1,797.1,50.8,797.1z"/>
	<path id="Rectangle-57_1_" class="st7" d="M36,800.3c0-0.3,0.2-0.5,0.5-0.5h14c0.3,0,0.5,0.2,0.5,0.5s-0.2,0.5-0.5,0.5h-3.9H36.3
		C36.1,800.8,36,800.6,36,800.3z"/>
</g>
<path id="Combined-Shape_7_" class="st6" d="M238.5,945.9V944c-3.1-0.3-5.5-2.8-5.5-6v-1.6c0-0.3,0.2-0.5,0.5-0.5s0.5,0.2,0.5,0.5
	v1.6c0,2.8,2.2,5,5,5s5-2.2,5-5v-1.6c0-0.3,0.2-0.5,0.5-0.5s0.5,0.2,0.5,0.5v1.6c0,3.1-2.4,5.7-5.5,6v1.9h2c0.3,0,0.5,0.2,0.5,0.5
	s-0.2,0.5-0.5,0.5h-5.1c-0.3,0-0.5-0.2-0.5-0.5s0.2-0.5,0.5-0.5H238.5z M235,932.9c0-2.2,1.8-4,4-4s4,1.8,4,4v5.3c0,2.2-1.8,4-4,4
	s-4-1.8-4-4V932.9z M236,932.8v5.4c0,1.7,1.3,3,3,3s3-1.3,3-3v-5.4c0-1.7-1.3-3-3-3S236,931.2,236,932.8z"/>
<path id="Combined-Shape-Copy-2" class="st7" d="M238.5,989.9V988c-3.1-0.3-5.5-2.8-5.5-6v-1.6c0-0.3,0.2-0.5,0.5-0.5
	s0.5,0.2,0.5,0.5v1.6c0,2.8,2.2,5,5,5s5-2.2,5-5v-1.6c0-0.3,0.2-0.5,0.5-0.5s0.5,0.2,0.5,0.5v1.6c0,3.1-2.4,5.7-5.5,6v1.9h2
	c0.3,0,0.5,0.2,0.5,0.5s-0.2,0.5-0.5,0.5h-5.1c-0.3,0-0.5-0.2-0.5-0.5s0.2-0.5,0.5-0.5H238.5z M235,976.9c0-2.2,1.8-4,4-4s4,1.8,4,4
	v5.3c0,2.2-1.8,4-4,4s-4-1.8-4-4V976.9z M236,976.8v5.4c0,1.7,1.3,3,3,3s3-1.3,3-3v-5.4c0-1.7-1.3-3-3-3S236,975.2,236,976.8z"/>
<g id="Group-18" transform="translate(121.000000, 136.000000)">
	<path id="Rectangle-26" class="st4" d="M35.5,795.4h16c0.6,0,1,0.4,1,1v12c0,0.6-0.4,1-1,1h-16c-0.6,0-1-0.4-1-1v-12
		C34.5,795.8,34.9,795.4,35.5,795.4z"/>
	<path id="Rectangle-27" class="st4" d="M48.5,797.4h1c0.6,0,1,0.4,1,1v1c0,0.6-0.4,1-1,1h-1c-0.6,0-1-0.4-1-1v-1
		C47.5,797.8,47.9,797.4,48.5,797.4z"/>
	<path id="Rectangle-28" class="st6" d="M36.5,802.9h10c0.3,0,0.5,0.2,0.5,0.5s-0.2,0.5-0.5,0.5h-10c-0.3,0-0.5-0.2-0.5-0.5
		C36,803.1,36.2,802.9,36.5,802.9z"/>
	<path id="Rectangle-28-Copy" class="st6" d="M36.5,805.9h10c0.3,0,0.5,0.2,0.5,0.5s-0.2,0.5-0.5,0.5h-10c-0.3,0-0.5-0.2-0.5-0.5
		C36,806.1,36.2,805.9,36.5,805.9z"/>
</g>
<g id="Group-18-Copy" transform="translate(121.000000, 181.000000)">
	<path id="Rectangle-26_1_" class="st5" d="M35.5,794.4h16c0.6,0,1,0.4,1,1v12c0,0.6-0.4,1-1,1h-16c-0.6,0-1-0.4-1-1v-12
		C34.5,794.8,34.9,794.4,35.5,794.4z"/>
	<path id="Rectangle-27_1_" class="st5" d="M48.5,796.4h1c0.6,0,1,0.4,1,1v1c0,0.6-0.4,1-1,1h-1c-0.6,0-1-0.4-1-1v-1
		C47.5,796.8,47.9,796.4,48.5,796.4z"/>
	<path id="Rectangle-28_1_" class="st7" d="M37,802.4h9c0.3,0,0.5,0.2,0.5,0.5s-0.2,0.5-0.5,0.5h-9c-0.3,0-0.5-0.2-0.5-0.5
		C36.5,802.6,36.7,802.4,37,802.4z"/>
	<path id="Rectangle-28-Copy_1_" class="st7" d="M37,805.4h9c0.3,0,0.5,0.2,0.5,0.5s-0.2,0.5-0.5,0.5h-9c-0.3,0-0.5-0.2-0.5-0.5
		C36.5,805.6,36.7,805.4,37,805.4z"/>
</g>
</svg>
