<svg height="22" viewBox="0 0 22 22" width="22" xmlns="http://www.w3.org/2000/svg"><g fill="none" fill-rule="nonzero"><path d="m0 0h22v22h-22z"/><path d="m20.1534392 4.75328084-8.7830688-3.67454068c-.3174603-.10498688-.4232805-.10498688-.6349207 0l-9.20634917 3.77952756c-.42328042.20997375-.52910053.52493438-.52910053 1.15485564v10.49868764c0 .6299213.31746032.9448819.84656085 1.1548557l8.88888885 3.2545931c.3174604.1049869.6349207.1049869.8465609 0l8.5714286-3.0446194c.6349206-.2099737.8465608-.6299212.8465608-1.1548556v-10.70866144c0-.41994751 0-.94488189-.8465608-1.25984252zm-.1058202 1.67979003v10.28871393l-.2116402.1049869-8.3597883 2.9396325v-10.07874016zm-.4232804-.83989502-8.6772487 3.25459318-8.67724863-3.25459318 8.67724863-3.67454068zm-17.77777775.83989502 8.57142855 3.25459317v10.07874016l-8.57142855-3.0446194z" fill="#777"/></g></svg>