<?xml version="1.0" encoding="UTF-8" standalone="no"?>
<svg width="150px" height="230px" viewBox="0 0 150 230" version="1.1" xmlns="http://www.w3.org/2000/svg" xmlns:xlink="http://www.w3.org/1999/xlink">
    <!-- Generator: Sketch 49.2 (51160) - http://www.bohemiancoding.com/sketch -->
    <title>icon</title>
    <desc>Created with Sketch.</desc>
    <defs>
        <path d="M11.6213203,14.7984283 L9.85355339,13.0306614 C9.65829124,12.8353992 9.34170876,12.8353992 9.14644661,13.0306614 C8.95118446,13.2259235 8.95118446,13.542506 9.14644661,13.7377682 L11.267767,15.8590885 C11.365398,15.9567196 11.4933592,16.0055351 11.6213203,16.0055351 C11.7492815,16.0055351 11.8772427,15.9567196 11.9748737,15.8590885 L15.5104076,12.3235546 C15.7056698,12.1282925 15.7056698,11.81171 15.5104076,11.6164478 C15.3151455,11.4211857 14.998563,11.4211857 14.8033009,11.6164478 L11.6213203,14.7984283 Z" id="path-1"></path>
    </defs>
    <g id="icon" stroke="none" stroke-width="1" fill="none" fill-rule="evenodd">
        <g id="Group-3" transform="translate(93.000000, 79.000000)">
            <path d="M1,0 L13,0 C13.5522847,-1.01453063e-16 14,0.44771525 14,1 L14,14 C14,15.1045695 13.1045695,16 12,16 L1,16 C0.44771525,16 6.76353751e-17,15.5522847 0,15 L0,1 C-6.76353751e-17,0.44771525 0.44771525,1.01453063e-16 1,0 Z M3.5,4 C3.22385763,4 3,4.22385763 3,4.5 C3,4.77614237 3.22385763,5 3.5,5 L9.5,5 C9.77614237,5 10,4.77614237 10,4.5 C10,4.22385763 9.77614237,4 9.5,4 L3.5,4 Z M3.5,7 C3.22385763,7 3,7.22385763 3,7.5 C3,7.77614237 3.22385763,8 3.5,8 L9.5,8 C9.77614237,8 10,7.77614237 10,7.5 C10,7.22385763 9.77614237,7 9.5,7 L3.5,7 Z M3.5,10 C3.22385763,10 3,10.2238576 3,10.5 C3,10.7761424 3.22385763,11 3.5,11 L6.5,11 C6.77614237,11 7,10.7761424 7,10.5 C7,10.2238576 6.77614237,10 6.5,10 L3.5,10 Z" id="Combined-Shape" fill="#3A91F3"></path>
            <g id="Combined-Shape">
                <use fill="#3A91F3" fill-rule="evenodd" xlink:href="#path-1"></use>
                <path stroke="#FFFFFF" stroke-width="1" d="M11.6213203,14.0913216 L14.4497475,11.2628944 C14.8402718,10.8723701 15.4734367,10.8723701 15.863961,11.2628944 C16.2544853,11.6534187 16.2544853,12.2865837 15.863961,12.677108 L12.3284271,16.2126419 C12.1386502,16.4024188 11.8843664,16.5055351 11.6213203,16.5055351 C11.3582743,16.5055351 11.1039905,16.4024188 10.9142136,16.2126419 L8.79289322,14.0913216 C8.40236893,13.7007973 8.40236893,13.0676323 8.79289322,12.677108 C9.18341751,12.2865837 9.81658249,12.2865837 10.2071068,12.677108 L11.6213203,14.0913216 Z"></path>
            </g>
        </g>
        <g id="Group-3-Copy" transform="translate(51.000000, 79.000000)" fill="#3A91F3">
            <path d="M14,11 L13,11 L13,1 L1,1 L1,15 L9,15 L9,16 L1,16 C0.44771525,16 6.76353751e-17,15.5522847 0,15 L0,1 C-6.76353751e-17,0.44771525 0.44771525,1.01453063e-16 1,0 L13,0 C13.5522847,-1.01453063e-16 14,0.44771525 14,1 L14,11 Z" id="Combined-Shape"></path>
            <path d="M11.6213203,14.7984283 L9.85355339,13.0306614 C9.65829124,12.8353992 9.34170876,12.8353992 9.14644661,13.0306614 C8.95118446,13.2259235 8.95118446,13.542506 9.14644661,13.7377682 L11.267767,15.8590885 C11.365398,15.9567196 11.4933592,16.0055351 11.6213203,16.0055351 C11.7492815,16.0055351 11.8772427,15.9567196 11.9748737,15.8590885 L15.5104076,12.3235546 C15.7056698,12.1282925 15.7056698,11.81171 15.5104076,11.6164478 C15.3151455,11.4211857 14.998563,11.4211857 14.8033009,11.6164478 L11.6213203,14.7984283 Z" id="Combined-Shape"></path>
            <path d="M3.5,4 L9.5,4 C9.77614237,4 10,4.22385763 10,4.5 C10,4.77614237 9.77614237,5 9.5,5 L3.5,5 C3.22385763,5 3,4.77614237 3,4.5 C3,4.22385763 3.22385763,4 3.5,4 Z" id="Combined-Shape"></path>
            <path d="M3.5,7 L9.5,7 C9.77614237,7 10,7.22385763 10,7.5 C10,7.77614237 9.77614237,8 9.5,8 L3.5,8 C3.22385763,8 3,7.77614237 3,7.5 C3,7.22385763 3.22385763,7 3.5,7 Z" id="Combined-Shape"></path>
            <path d="M3.5,10 L6.5,10 C6.77614237,10 7,10.2238576 7,10.5 C7,10.7761424 6.77614237,11 6.5,11 L3.5,11 C3.22385763,11 3,10.7761424 3,10.5 C3,10.2238576 3.22385763,10 3.5,10 Z" id="Combined-Shape"></path>
        </g>
        <g id="Group-3-Copy-2" transform="translate(11.000000, 79.000000)" fill="#777777">
            <path d="M14,11 L13,11 L13,1 L1,1 L1,15 L9,15 L9,16 L1,16 C0.44771525,16 6.76353751e-17,15.5522847 0,15 L0,1 C-6.76353751e-17,0.44771525 0.44771525,1.01453063e-16 1,0 L13,0 C13.5522847,-1.01453063e-16 14,0.44771525 14,1 L14,11 Z" id="Combined-Shape"></path>
            <path d="M11.6213203,14.7984283 L9.85355339,13.0306614 C9.65829124,12.8353992 9.34170876,12.8353992 9.14644661,13.0306614 C8.95118446,13.2259235 8.95118446,13.542506 9.14644661,13.7377682 L11.267767,15.8590885 C11.365398,15.9567196 11.4933592,16.0055351 11.6213203,16.0055351 C11.7492815,16.0055351 11.8772427,15.9567196 11.9748737,15.8590885 L15.5104076,12.3235546 C15.7056698,12.1282925 15.7056698,11.81171 15.5104076,11.6164478 C15.3151455,11.4211857 14.998563,11.4211857 14.8033009,11.6164478 L11.6213203,14.7984283 Z" id="Combined-Shape"></path>
            <path d="M3.5,4 L9.5,4 C9.77614237,4 10,4.22385763 10,4.5 C10,4.77614237 9.77614237,5 9.5,5 L3.5,5 C3.22385763,5 3,4.77614237 3,4.5 C3,4.22385763 3.22385763,4 3.5,4 Z" id="Combined-Shape"></path>
            <path d="M3.5,7 L9.5,7 C9.77614237,7 10,7.22385763 10,7.5 C10,7.77614237 9.77614237,8 9.5,8 L3.5,8 C3.22385763,8 3,7.77614237 3,7.5 C3,7.22385763 3.22385763,7 3.5,7 Z" id="Combined-Shape"></path>
            <path d="M3.5,10 L6.5,10 C6.77614237,10 7,10.2238576 7,10.5 C7,10.7761424 6.77614237,11 6.5,11 L3.5,11 C3.22385763,11 3,10.7761424 3,10.5 C3,10.2238576 3.22385763,10 3.5,10 Z" id="Combined-Shape"></path>
        </g>
        <g id="Group" transform="translate(9.000000, 9.000000)">
            <path d="M11.673224,1.54925123 L4.62303304,7.5 L2,7.5 C1.17157288,7.5 0.5,8.17157288 0.5,9 L0.5,14 C0.5,14.8284271 1.17157288,15.5 2,15.5 L5.14519507,15.5 L11.6732757,21.0085466 C11.8843213,21.1866318 12.1997742,21.1599121 12.3778595,20.9488664 C12.4539753,20.858663 12.4957275,20.7444412 12.4957275,20.6264146 L12.4957275,1.93133953 C12.4957275,1.65519716 12.2718699,1.43133953 11.9957275,1.43133953 C11.8776777,1.43133953 11.763435,1.47310822 11.673224,1.54925123 Z" id="Combined-Shape" stroke="#777777"></path>
            <path d="M15.0634971,15.0548752 L15.0608003,15.0521783 C16.0117679,14.0635226 16.5964249,12.7199664 16.5964249,11.2398562 C16.5964249,9.66550645 15.9349467,8.24565321 14.8747555,7.24306162 C14.8515242,7.22496625 14.8299325,7.2048648 14.8102403,7.18301753 C14.8099133,7.18271797 14.8095862,7.18241844 14.8092591,7.18211896 L14.8093504,7.1820276 C14.7300062,7.09352989 14.6817474,6.97658737 14.6817474,6.84837341 C14.6817474,6.57223104 14.9056051,6.34837341 15.1817474,6.34837341 C15.3099614,6.34837341 15.4269039,6.3966322 15.5154016,6.47597641 L15.5169512,6.47442683 C16.796027,7.66148036 17.5964249,9.35719681 17.5964249,11.2398562 C17.5964249,12.9658091 16.9237266,14.5346449 15.8262147,15.698479 C15.7351241,15.821435 15.5889671,15.9011383 15.4241943,15.9011383 C15.148052,15.9011383 14.9241943,15.6772807 14.9241943,15.4011383 C14.9241943,15.2667383 14.9772223,15.1447236 15.0634971,15.0548752 Z" id="Combined-Shape" fill="#777777"></path>
            <path d="M17.5742027,18.5655807 L17.5725921,18.5639701 C19.3330471,16.6862222 20.4111183,14.1609898 20.4111183,11.3839603 C20.4111183,8.43676039 19.1968751,5.77316217 17.2413653,3.86614225 C17.1278789,3.7744839 17.0552979,3.63419767 17.0552979,3.47695923 C17.0552979,3.20081685 17.2791555,2.97695923 17.5552979,2.97695923 C17.6829678,2.97695923 17.7994618,3.02480938 17.8878241,3.10355397 L17.8895869,3.10179112 C20.0605583,5.1936415 21.4111183,8.1310808 21.4111183,11.3839603 C21.4111183,14.4128754 20.2401311,17.1682918 18.3261678,19.2221984 C18.2347014,19.3401111 18.0916444,19.4160004 17.9308624,19.4160004 C17.6547201,19.4160004 17.4308624,19.1921427 17.4308624,18.9160004 C17.4308624,18.7795162 17.4855477,18.6558045 17.5742027,18.5655807 Z" id="Combined-Shape" fill="#777777"></path>
        </g>
        <g id="Group-Copy" transform="translate(54.000000, 9.000000)">
            <path d="M11.673224,1.54925123 L4.62303304,7.5 L2,7.5 C1.17157288,7.5 0.5,8.17157288 0.5,9 L0.5,14 C0.5,14.8284271 1.17157288,15.5 2,15.5 L5.14519507,15.5 L11.6732757,21.0085466 C11.8843213,21.1866318 12.1997742,21.1599121 12.3778595,20.9488664 C12.4539753,20.858663 12.4957275,20.7444412 12.4957275,20.6264146 L12.4957275,1.93133953 C12.4957275,1.65519716 12.2718699,1.43133953 11.9957275,1.43133953 C11.8776777,1.43133953 11.763435,1.47310822 11.673224,1.54925123 Z" id="Combined-Shape" stroke="#3A91F3"></path>
            <path d="M15.0634971,15.0548752 L15.0608003,15.0521783 C16.0117679,14.0635226 16.5964249,12.7199664 16.5964249,11.2398562 C16.5964249,9.66550645 15.9349467,8.24565321 14.8747555,7.24306162 C14.8515242,7.22496625 14.8299325,7.2048648 14.8102403,7.18301753 C14.8099133,7.18271797 14.8095862,7.18241844 14.8092591,7.18211896 L14.8093504,7.1820276 C14.7300062,7.09352989 14.6817474,6.97658737 14.6817474,6.84837341 C14.6817474,6.57223104 14.9056051,6.34837341 15.1817474,6.34837341 C15.3099614,6.34837341 15.4269039,6.3966322 15.5154016,6.47597641 L15.5169512,6.47442683 C16.796027,7.66148036 17.5964249,9.35719681 17.5964249,11.2398562 C17.5964249,12.9658091 16.9237266,14.5346449 15.8262147,15.698479 C15.7351241,15.821435 15.5889671,15.9011383 15.4241943,15.9011383 C15.148052,15.9011383 14.9241943,15.6772807 14.9241943,15.4011383 C14.9241943,15.2667383 14.9772223,15.1447236 15.0634971,15.0548752 Z" id="Combined-Shape" fill="#3A91F3"></path>
            <path d="M17.5742027,18.5655807 L17.5725921,18.5639701 C19.3330471,16.6862222 20.4111183,14.1609898 20.4111183,11.3839603 C20.4111183,8.43676039 19.1968751,5.77316217 17.2413653,3.86614225 C17.1278789,3.7744839 17.0552979,3.63419767 17.0552979,3.47695923 C17.0552979,3.20081685 17.2791555,2.97695923 17.5552979,2.97695923 C17.6829678,2.97695923 17.7994618,3.02480938 17.8878241,3.10355397 L17.8895869,3.10179112 C20.0605583,5.1936415 21.4111183,8.1310808 21.4111183,11.3839603 C21.4111183,14.4128754 20.2401311,17.1682918 18.3261678,19.2221984 C18.2347014,19.3401111 18.0916444,19.4160004 17.9308624,19.4160004 C17.6547201,19.4160004 17.4308624,19.1921427 17.4308624,18.9160004 C17.4308624,18.7795162 17.4855477,18.6558045 17.5742027,18.5655807 Z" id="Combined-Shape" fill="#3A91F3"></path>
        </g>
        <g id="Group-Copy-2" transform="translate(99.000000, 9.000000)" fill="#3A91F3">
            <path d="M4.44022621,7 L11.3507205,1.16716293 C11.5311424,1.0148769 11.7596278,0.93133953 11.9957275,0.93133953 C12.5480123,0.93133953 12.9957275,1.37905478 12.9957275,1.93133953 L12.9957275,20.6264146 C12.9957275,20.8624679 12.912223,21.0909113 12.7599914,21.2713183 C12.403821,21.6934096 11.7729152,21.7468489 11.3508239,21.3906785 L4.96242659,16 L2,16 C0.8954305,16 3.68798443e-15,15.1045695 3.55271368e-15,14 L3.55271368e-15,9 C3.41744293e-15,7.8954305 0.8954305,7 2,7 L4.44022621,7 Z" id="Combined-Shape"></path>
            <path d="M15.0634971,15.0548752 L15.0608003,15.0521783 C16.0117679,14.0635226 16.5964249,12.7199664 16.5964249,11.2398562 C16.5964249,9.66550645 15.9349467,8.24565321 14.8747555,7.24306162 C14.8515242,7.22496625 14.8299325,7.2048648 14.8102403,7.18301753 C14.8099133,7.18271797 14.8095862,7.18241844 14.8092591,7.18211896 L14.8093504,7.1820276 C14.7300062,7.09352989 14.6817474,6.97658737 14.6817474,6.84837341 C14.6817474,6.57223104 14.9056051,6.34837341 15.1817474,6.34837341 C15.3099614,6.34837341 15.4269039,6.3966322 15.5154016,6.47597641 L15.5169512,6.47442683 C16.796027,7.66148036 17.5964249,9.35719681 17.5964249,11.2398562 C17.5964249,12.9658091 16.9237266,14.5346449 15.8262147,15.698479 C15.7351241,15.821435 15.5889671,15.9011383 15.4241943,15.9011383 C15.148052,15.9011383 14.9241943,15.6772807 14.9241943,15.4011383 C14.9241943,15.2667383 14.9772223,15.1447236 15.0634971,15.0548752 Z" id="Combined-Shape"></path>
            <path d="M17.5742027,18.5655807 L17.5725921,18.5639701 C19.3330471,16.6862222 20.4111183,14.1609898 20.4111183,11.3839603 C20.4111183,8.43676039 19.1968751,5.77316217 17.2413653,3.86614225 C17.1278789,3.7744839 17.0552979,3.63419767 17.0552979,3.47695923 C17.0552979,3.20081685 17.2791555,2.97695923 17.5552979,2.97695923 C17.6829678,2.97695923 17.7994618,3.02480938 17.8878241,3.10355397 L17.8895869,3.10179112 C20.0605583,5.1936415 21.4111183,8.1310808 21.4111183,11.3839603 C21.4111183,14.4128754 20.2401311,17.1682918 18.3261678,19.2221984 C18.2347014,19.3401111 18.0916444,19.4160004 17.9308624,19.4160004 C17.6547201,19.4160004 17.4308624,19.1921427 17.4308624,18.9160004 C17.4308624,18.7795162 17.4855477,18.6558045 17.5742027,18.5655807 Z" id="Combined-Shape"></path>
        </g>
        <g id="禁止" transform="translate(11.000000, 48.000000)" fill="#FF7676" fill-rule="nonzero">
            <path d="M5.99935714,0.00717857143 C6.82221429,0.00717857143 7.59935714,0.164892857 8.33078571,0.480321429 C9.06221429,0.79575 9.69764286,1.22546429 10.2370714,1.76946429 C10.7765,2.31346429 11.2039286,2.94889286 11.5193571,3.67575 C11.8347857,4.40260714 11.9925,5.17746429 11.9925,6.00032143 C11.9925,6.83232143 11.8347857,7.61175 11.5193571,8.33860714 C11.2039286,9.06546429 10.7765,9.70089286 10.2370714,10.2448929 C9.69764286,10.7888929 9.06221429,11.2163214 8.33078571,11.5271786 C7.59935714,11.8380357 6.82221429,11.9934643 5.99935714,11.9934643 C5.16735714,11.9934643 4.38792857,11.8380357 3.66107143,11.5271786 C2.93421429,11.2163214 2.29878571,10.7888929 1.75478571,10.2448929 C1.21078571,9.70089286 0.783357143,9.06546429 0.4725,8.33860714 C0.161642857,7.61175 0.00621428571,6.83232143 0.00621428571,6.00032143 C0.00621428571,5.17746429 0.161642857,4.40260714 0.4725,3.67575 C0.783357143,2.94889286 1.21078571,2.31346429 1.75478571,1.76946429 C2.29878571,1.22546429 2.93421429,0.79575 3.66107143,0.480321429 C4.38792857,0.164892857 5.16735714,0.00717857143 5.99935714,0.00717857143 Z M5.95821429,1.65289286 C5.36392857,1.65289286 4.80621429,1.76489286 4.28507143,1.98889286 C3.76392857,2.21289286 3.30907143,2.51917857 2.9205,2.90775 C2.53192857,3.29632143 2.22564286,3.75117857 2.00164286,4.27232143 C1.77764286,4.79346429 1.66564286,5.35117857 1.66564286,5.94546429 C1.66564286,6.40260714 1.72964286,6.83003571 1.85764286,7.22775 C1.98564286,7.62546429 2.1685,7.99803571 2.40621429,8.34546429 L8.35821429,2.40717857 C8.01078571,2.16946429 7.63592857,1.98432143 7.23364286,1.85175 C6.83135714,1.71917857 6.40621429,1.65289286 5.95821429,1.65289286 Z M5.95821429,10.2380357 C6.54335714,10.2380357 7.0965,10.1260357 7.61764286,9.90203571 C8.13878571,9.67803571 8.59364286,9.37175 8.98221429,8.98317857 C9.37078571,8.59460714 9.67707143,8.13975 9.90107143,7.61860714 C10.1250714,7.09746429 10.2370714,6.53975 10.2370714,5.94546429 C10.2370714,5.09517857 10.0130714,4.31803571 9.56507143,3.61403571 L3.62678571,9.55232143 C3.97421429,9.77175 4.33992857,9.94089286 4.72392857,10.05975 C5.10792857,10.1786071 5.51935714,10.2380357 5.95821429,10.2380357 Z" id="Shape"></path>
        </g>
        <g id="Group-2" transform="translate(11.000000, 111.000000)">
            <rect id="Rectangle-83" fill="#1FCF7C" x="0" y="0" width="40" height="40"></rect>
            <path d="M19.7018413,11 L15,11 C13.8954305,11 13,11.8954305 13,13 L13,27 C13,28.1045695 13.8954305,29 15,29 L29,29 C30.1045695,29 31,28.1045695 31,27 L31,15.9837082 C31,14.8791387 30.1045695,13.9837082 29,13.9837082 L23.4892009,13.9837082 C23.1805441,13.9837082 22.8891836,13.8411743 22.6997327,13.5974996 L21.2807778,11.7724172 C20.901876,11.2850677 20.319155,11 19.7018413,11 Z" id="Combined-Shape" fill="#BDDDBE"></path>
            <path d="M15.7018413,11 L11,11 C9.8954305,11 9,11.8954305 9,13 L9,27 C9,28.1045695 9.8954305,29 11,29 L29,29 C30.1045695,29 31,28.1045695 31,27 L31,15.9837082 C31,14.8791387 30.1045695,13.9837082 29,13.9837082 L19.4892009,13.9837082 C19.1805441,13.9837082 18.8891836,13.8411743 18.6997327,13.5974996 L17.2807778,11.7724172 C16.901876,11.2850677 16.319155,11 15.7018413,11 Z" id="Combined-Shape" fill="#FFFFFF"></path>
            <path d="M21,21 L15.5,21 C15.2238576,21 15,21.2238576 15,21.5 C15,21.7761424 15.2238576,22 15.5,22 L21,22 L21,23.9679629 C21,24.0839118 21.0402977,24.1962565 21.1139965,24.2857699 C21.2895165,24.4989537 21.6046232,24.5294863 21.817807,24.3539664 L24.5311662,22.1199849 C24.5560427,22.0995034 24.5788811,22.076665 24.5993626,22.0517885 C24.7748826,21.8386046 24.74435,21.5234979 24.5311662,21.347978 L21.817807,19.1139965 C21.7282936,19.0402977 21.615949,19 21.5,19 C21.2238576,19 21,19.2238576 21,19.5 L21,21 Z" id="Combined-Shape" fill="#1FCF7C"></path>
        </g>
        <g id="Group-4" transform="translate(11.000000, 167.000000)">
            <path d="M2.5,2.5 L2.5,17 C2.5,17.8284271 3.17157288,18.5 4,18.5 L13,18.5 C13.8284271,18.5 14.5,17.8284271 14.5,17 L14.5,2.5 L2.5,2.5 Z" id="Rectangle-11" stroke="#979797"></path>
            <rect id="Rectangle-12" fill="#979797" x="0" y="2" width="17" height="1" rx="0.5"></rect>
            <rect id="Rectangle-13" fill="#979797" x="5" y="5" width="1" height="11" rx="0.5"></rect>
            <rect id="Rectangle-13-Copy" fill="#979797" x="8" y="5" width="1" height="11" rx="0.5"></rect>
            <rect id="Rectangle-13-Copy-2" fill="#979797" x="11" y="5" width="1" height="11" rx="0.5"></rect>
            <rect id="Rectangle-14" stroke="#979797" x="4.5" y="0.5" width="8" height="2" rx="1"></rect>
        </g>
        <g id="Group-4-Copy" transform="translate(52.000000, 167.000000)">
            <path d="M2.5,2.5 L2.5,17 C2.5,17.8284271 3.17157288,18.5 4,18.5 L13,18.5 C13.8284271,18.5 14.5,17.8284271 14.5,17 L14.5,2.5 L2.5,2.5 Z" id="Rectangle-11" stroke="#3A91F3"></path>
            <rect id="Rectangle-12" fill="#3A91F3" x="0" y="2" width="17" height="1" rx="0.5"></rect>
            <rect id="Rectangle-13" fill="#3A91F3" x="5" y="5" width="1" height="11" rx="0.5"></rect>
            <rect id="Rectangle-13-Copy" fill="#3A91F3" x="8" y="5" width="1" height="11" rx="0.5"></rect>
            <rect id="Rectangle-13-Copy-2" fill="#3A91F3" x="11" y="5" width="1" height="11" rx="0.5"></rect>
            <rect id="Rectangle-14" stroke="#3A91F3" x="4.5" y="0.5" width="8" height="2" rx="1"></rect>
        </g>
        <g id="Group-7" transform="translate(56.000000, 46.000000)" fill="#B3B3B3">
            <g id="Group-6">
                <path d="M8.33681558,14 L9.17471271,14 C9.66145749,14.7731292 10.5225345,15.2868652 11.5036011,15.2868652 C12.4846676,15.2868652 13.3457447,14.7731292 13.8324894,14 L14.6631844,14 C14.1014525,15.1824737 12.896198,16 11.5,16 C10.103802,16 8.89854755,15.1824737 8.33681558,14 Z M8.33681558,11 C8.89854755,9.81752633 10.103802,9 11.5,9 C12.896198,9 14.1014525,9.81752633 14.6631844,11 L13.7844075,11 C13.2902725,10.26811 12.4531371,9.78686523 11.5036011,9.78686523 C10.554065,9.78686523 9.71692966,10.26811 9.22279464,11 L8.33681558,11 Z" id="Combined-Shape"></path>
                <path d="M7,8 C4.790861,8 3,6.209139 3,4 C3,1.790861 4.790861,0 7,0 C9.209139,0 11,1.790861 11,4 C11,6.209139 9.209139,8 7,8 Z M7,7 C8.65685425,7 10,5.65685425 10,4 C10,2.34314575 8.65685425,1 7,1 C5.34314575,1 4,2.34314575 4,4 C4,5.65685425 5.34314575,7 7,7 Z" id="Combined-Shape"></path>
                <path d="M7,7 L7,8 L6,8 C3.23857625,8 1,10.2385763 1,13 L1,14 L7,14 L7,15 L1,15 C0.44771525,15 0,14.5522847 0,14 L0,13 C-4.05812251e-16,9.6862915 2.6862915,7 6,7 L7,7 Z" id="Combined-Shape"></path>
            </g>
            <polygon id="Triangle-2" points="8.66135406 13 6.93086243 10.9848022 10.3918457 10.9848022"></polygon>
            <polygon id="Triangle-2" points="14.2624402 11.9970093 15.9924402 14.0565186 12.5324402 14.0565186"></polygon>
        </g>
        <g id="Group-7-Copy" transform="translate(102.000000, 46.000000)" fill="#3A91F3">
            <g id="Group-6">
                <path d="M8.33681558,14 L9.17471271,14 C9.66145749,14.7731292 10.5225345,15.2868652 11.5036011,15.2868652 C12.4846676,15.2868652 13.3457447,14.7731292 13.8324894,14 L14.6631844,14 C14.1014525,15.1824737 12.896198,16 11.5,16 C10.103802,16 8.89854755,15.1824737 8.33681558,14 Z M8.33681558,11 C8.89854755,9.81752633 10.103802,9 11.5,9 C12.896198,9 14.1014525,9.81752633 14.6631844,11 L13.7844075,11 C13.2902725,10.26811 12.4531371,9.78686523 11.5036011,9.78686523 C10.554065,9.78686523 9.71692966,10.26811 9.22279464,11 L8.33681558,11 Z" id="Combined-Shape"></path>
                <path d="M7,8 C4.790861,8 3,6.209139 3,4 C3,1.790861 4.790861,0 7,0 C9.209139,0 11,1.790861 11,4 C11,6.209139 9.209139,8 7,8 Z M7,7 C8.65685425,7 10,5.65685425 10,4 C10,2.34314575 8.65685425,1 7,1 C5.34314575,1 4,2.34314575 4,4 C4,5.65685425 5.34314575,7 7,7 Z" id="Combined-Shape"></path>
                <path d="M7,7 L7,8 L6,8 C3.23857625,8 1,10.2385763 1,13 L1,14 L7,14 L7,15 L1,15 C0.44771525,15 0,14.5522847 0,14 L0,13 C-4.05812251e-16,9.6862915 2.6862915,7 6,7 L7,7 Z" id="Combined-Shape"></path>
            </g>
            <polygon id="Triangle-2" points="8.66135406 13 6.93086243 10.9848022 10.3918457 10.9848022"></polygon>
            <polygon id="Triangle-2" points="14.2624402 11.9970093 15.9924402 14.0565186 12.5324402 14.0565186"></polygon>
        </g>
    </g>
</svg>