<?xml version="1.0" encoding="utf-8"?>
<!-- Generator: Adobe Illustrator 21.0.0, SVG Export Plug-In . SVG Version: 6.00 Build 0)  -->
<svg version="1.1" id="图层_1" xmlns="http://www.w3.org/2000/svg" xmlns:xlink="http://www.w3.org/1999/xlink" x="0px" y="0px"
	 width="150px" height="2596.7px" viewBox="0 0 150 2596.7" style="enable-background:new 0 0 150 2596.7;" xml:space="preserve">
<style type="text/css">
	.st0{fill:none;stroke:#979797;}
	.st1{fill:none;stroke:#777777;}
	.st2{fill:#777777;}
	.st3{fill:none;}
	.st4{fill:#3A91F3;}
	.st5{fill:none;stroke:#3A91F3;}
	.st6{fill:#60A7FE;}
	.st7{fill:#FF8654;}
	.st8{fill:#FFFFFF;}
	.st9{font-family:'DevanagariSangamMN-Bold';}
	.st10{font-size:30px;}
	.st11{fill:#3A91F3;stroke:#3A91F3;}
	.st12{fill:none;stroke:#777777;stroke-linecap:round;stroke-linejoin:round;}
	.st13{fill:none;stroke:#3A91F3;stroke-linecap:round;stroke-linejoin:round;}
	.st14{fill:#F45349;}
	.st15{fill:#B1B1B1;}
	.st16{fill:none;stroke:#B3B3B3;}
	.st17{opacity:0.5;fill:none;stroke:#B3B3B3;enable-background:new    ;}
	.st18{fill:#B3B3B3;}
	.st19{fill:#EEEEEE;}
	.st20{fill:#4E4E4E;}
	.st21{fill:#C9C9C9;}
	.st22{fill:#74B0DE;}
	.st23{fill:#6194BC;}
	.st24{fill:#A5A5A5;}
	.st25{fill:#D8D8D8;}
	.st26{fill:none;stroke:#B7B7B7;}
	.st27{fill:none;stroke:#FFB400;}
	.st28{fill:none;stroke:#B0B0B0;}
	.st29{fill:#FFB400;}
	.st30{fill:none;stroke:#999999;}
	.st31{fill:#999999;}
	.st32{fill:#F58A23;}
	.st33{fill:url(#Rectangle-25_1_);}
	.st34{fill:none;stroke:#BDBDBD;}
	.st35{fill:#BDBDBD;}
	.st36{fill:none;stroke:#939393;}
	.st37{fill:#939393;}
	.st38{fill:none;stroke:#444444;}
	.st39{fill:#444444;}
	.st40{fill:#01D1A4;}
	.st41{fill:#89D142;}
	.st42{fill:#F36666;}
	.st43{fill:#CCCED0;}
	.st44{fill:#E3E3E3;}
	.st45{fill:none;stroke:#43DC00;}
	.st46{fill:#43DC00;}
	.st47{fill-opacity:0.3;}
	.st48{fill-opacity:0.35;}
	.st49{fill:none;stroke:#FFFFFF;}
	.st50{fill:#0ACD00;}
	.st51{fill:#C6C6C6;}
	.st52{fill:#FC6467;}
	.st53{fill:#3F81BC;}
	.st54{fill:#A3A3A3;}
	.st55{fill:#A396E8;}
	.st56{fill:#BFBFBF;}
	.st57{fill:none;stroke:#FF5500;}
	.st58{fill:#FF5500;}
	.st59{fill:#5F5F5F;}
	.st60{fill:#979797;}
	.st61{fill:#FF9133;}
	.st62{opacity:0.8;}
	.st63{fill:#AFAFAF;}
	.st64{fill:#A9A9A9;}
	.st65{fill:#B5B5B5;}
	.st66{fill:#A4A4A4;}
	.st67{fill:#ACACAC;}
	.st68{fill:#CDCDCD;}
	.st69{fill:#FFBD4C;}
	.st70{fill:#858585;}
	.st71{fill:#FFA124;}
	.st72{fill:#9E9E9E;}
	.st73{fill:#6BDA70;}
	.st74{fill:#A2A2A2;}
	.st75{fill:#3EA9FF;}
	.st76{fill:#678FFF;}
</style>
<g id="icon">
	<g id="Group-19" transform="translate(49.000000, 2002.000000)">
		<path id="Triangle-6" class="st0" d="M4.2,11.7l1.8,1l3.7,2.1l1.4-11.2l-10.4,6L4.2,11.7z"/>
		<path id="Path-5" class="st0" d="M11.2,3.7l-6,8.4c-0.2,0.3-0.4,0.7-0.4,1.2v2.1"/>
	</g>
	<g id="Group-2" transform="translate(10.000000, 11.000000)">
		<path id="Combined-Shape" class="st1" d="M2.1,26.8l8.1-6.3h0.2H24c1.9,0,3.5-1.6,3.5-3.5V4c0-1.9-1.6-3.5-3.5-3.5H4
			C2.1,0.5,0.5,2.1,0.5,4v22C0.5,27.2,1.1,27.5,2.1,26.8z"/>
		<circle id="Oval" class="st2" cx="8.5" cy="10.5" r="1.5"/>
		<circle id="Oval-Copy" class="st2" cx="14.5" cy="10.5" r="1.5"/>
		<circle id="Oval-Copy-2" class="st2" cx="20.5" cy="10.5" r="1.5"/>
	</g>
	<g id="Group-25" transform="translate(14.000000, 1861.000000)">
		<rect id="Rectangle-82" y="0" class="st3" width="26" height="26"/>
		<path id="Combined-Shape_1_" class="st2" d="M2.3,2.2c-3,3-0.6,10.1,5.3,16s13,8.2,16,5.3c1.2-1.2,1.6-4.3,1.1-5.1
			c-0.4-0.8-5.3-1.4-5.3-1.4c-0.5-0.1-1.3,0.2-1.7,0.6L16,19.1c0,0-3.6-1.1-5.9-3.5S6.6,9.7,6.6,9.7l0.6-0.6C7.6,8.7,7.8,8,7.7,7.4
			L6.4,1.9C6.2,1.4,5.7,1,5.1,1C5.1,1,3.2,1.3,2.3,2.2z M8,10.6c0.4,0.9,0.8,1.8,1.4,2.6c0.4,0.7,0.9,1.3,1.4,1.8s1.1,1,1.8,1.4
			c0.8,0.5,1.7,1,2.6,1.4c0.2,0.1,0.4,0.2,0.6,0.2l1.1-1.1c0.6-0.6,1.7-1,2.5-0.9c0.2,0,0.5,0.1,0.9,0.1c0.6,0.1,1.3,0.2,1.9,0.3
			c1.9,0.4,2.9,0.7,3.3,1.5c0.7,1.3,0,4.9-1.3,6.3c-3.5,3.5-11.2,0.9-17.4-5.3S-1.9,5,1.6,1.5c0.4-0.4,0.9-0.7,1.5-1
			C3.8,0.3,4.5,0.1,5,0h0.1c1-0.1,2,0.7,2.3,1.7l1.3,5.5c0.2,0.9-0.1,2-0.7,2.6L7.8,10C7.8,10.2,7.9,10.4,8,10.6z"/>
	</g>
	<g id="Group-24" transform="translate(62.000000, 1861.000000)">
		<rect id="Rectangle-81" y="0" class="st3" width="26" height="26"/>
		<path id="Combined-Shape-Copy-40" class="st4" d="M2.3,2.2c-3,3-0.6,10.1,5.3,16s13,8.2,16,5.3c1.2-1.2,1.6-4.3,1.1-5.1
			c-0.4-0.8-5.3-1.4-5.3-1.4c-0.5-0.1-1.3,0.2-1.7,0.6L16,19.1c0,0-3.6-1.1-5.9-3.5S6.6,9.7,6.6,9.7l0.6-0.6C7.6,8.7,7.8,8,7.7,7.4
			L6.4,1.9C6.2,1.4,5.7,1,5.1,1C5.1,1,3.2,1.3,2.3,2.2z M8.4,11.4c0.7,1.4,1.5,2.6,2.4,3.5c1,1,2.2,1.8,3.6,2.5
			c0.5,0.2,1,0.4,1.4,0.6l1.1-1.1c0.6-0.6,1.7-1,2.5-0.9c0.1,0,0.4,0,0.7,0.1c0.6,0.1,1.1,0.2,1.7,0.3c0.2,0,0.5,0.1,0.7,0.1
			c1.7,0.4,2.6,0.7,3,1.4c0.7,1.3,0,4.9-1.3,6.3c-3.5,3.5-11.2,0.9-17.4-5.3S-1.9,5,1.6,1.5C1.8,1.4,2,1.2,2.2,1
			c0.5-0.3,1-0.5,1.6-0.7C4.3,0.2,4.7,0.1,5,0h0.1c1-0.1,2,0.7,2.3,1.7l1.3,5.5c0.2,0.9-0.1,2-0.7,2.6L7.8,10
			C7.9,10.4,8.1,10.9,8.4,11.4z"/>
	</g>
	<g id="Group-23" transform="translate(110.000000, 1861.000000)">
		<rect id="Rectangle-80" y="0" class="st3" width="26" height="26"/>
		<path id="Combined-Shape-Copy-41" class="st4" d="M8,10.6c0.4,0.9,0.8,1.8,1.4,2.6c0.4,0.7,0.9,1.3,1.4,1.8s1.1,1,1.8,1.4
			c0.8,0.5,1.7,1,2.6,1.4c0.2,0.1,0.4,0.2,0.6,0.2l1.1-1.1c0.6-0.6,1.7-1,2.5-0.9c0.2,0,0.5,0.1,0.9,0.1c0.6,0.1,1.3,0.2,1.9,0.3
			c1.9,0.4,2.9,0.7,3.3,1.5c0.7,1.3,0,4.9-1.3,6.3c-3.5,3.5-11.2,0.9-17.4-5.3S-1.9,5,1.6,1.5c0.4-0.4,0.9-0.7,1.5-1
			C3.8,0.3,4.5,0.1,5,0h0.1c1-0.1,2,0.7,2.3,1.7l1.3,5.5c0.2,0.9-0.1,2-0.7,2.6L7.8,10C7.8,10.2,7.9,10.4,8,10.6z"/>
	</g>
	<g id="Group-2-Copy" transform="translate(61.000000, 11.000000)">
		<path id="Combined-Shape_2_" class="st5" d="M2.1,26.8l8.1-6.3h0.2H24c1.9,0,3.5-1.6,3.5-3.5V4c0-1.9-1.6-3.5-3.5-3.5H4
			C2.1,0.5,0.5,2.1,0.5,4v22C0.5,27.2,1.1,27.5,2.1,26.8z"/>
		<path id="Oval_1_" class="st4" d="M8.5,12c0.8,0,1.5-0.7,1.5-1.5S9.3,9,8.5,9S7,9.7,7,10.5S7.7,12,8.5,12z"/>
		<circle id="Oval-Copy_1_" class="st4" cx="14.5" cy="10.5" r="1.5"/>
		<circle id="Oval-Copy-2_1_" class="st4" cx="20.5" cy="10.5" r="1.5"/>
	</g>
	<path id="Rectangle-38" class="st6" d="M15,990h28c2.2,0,4,1.8,4,4v28c0,2.2-1.8,4-4,4H15c-2.2,0-4-1.8-4-4v-28
		C11,991.8,12.8,990,15,990z"/>
	<g id="Group-32" transform="translate(99.000000, 1037.000000)">
		<path id="Rectangle-38-Copy-5" class="st7" d="M4,0h28c2.2,0,4,1.8,4,4v28c0,2.2-1.8,4-4,4H4c-2.2,0-4-1.8-4-4V4C0,1.8,1.8,0,4,0z
			"/>
		<text transform="matrix(1 0 0 1 10 30)" class="st8 st9 st10">P</text>
	</g>
	<g id="Group-2-Copy-2" transform="translate(113.000000, 11.000000)">
		<path id="Combined-Shape_3_" class="st4" d="M10.4,21l-8,6.2C1.1,28.2,0,27.7,0,26v-9V4c0-2.2,1.8-4,4-4h20c2.2,0,4,1.8,4,4v13
			c0,2.2-1.8,4-4,4H10.4z M8.5,12c0.8,0,1.5-0.7,1.5-1.5S9.3,9,8.5,9S7,9.7,7,10.5S7.7,12,8.5,12z M14.5,12c0.8,0,1.5-0.7,1.5-1.5
			S15.3,9,14.5,9S13,9.7,13,10.5S13.7,12,14.5,12z M20.5,12c0.8,0,1.5-0.7,1.5-1.5S21.3,9,20.5,9S19,9.7,19,10.5S19.7,12,20.5,12z"
			/>
	</g>
	<g id="Group" transform="translate(10.000000, 55.000000)">
		<path id="Rectangle-3" class="st2" d="M19.5,11h8c0.3,0,0.5,0.2,0.5,0.5l0,0c0,0.3-0.2,0.5-0.5,0.5h-8c-0.3,0-0.5-0.2-0.5-0.5l0,0
			C19,11.2,19.2,11,19.5,11z"/>
		<path id="Combined-Shape_4_" class="st1" d="M14,13.5h-4c-4.9,0-9,3.7-9.5,8.6v1c0,1.9,1.6,3.5,3.5,3.5h16c1.9,0,3.5-1.6,3.5-3.5
			v-0.9v-0.1C23,17.2,18.9,13.5,14,13.5z"/>
		<circle id="Oval-2" class="st1" cx="12" cy="7" r="6.5"/>
		<path id="Rectangle-4" class="st2" d="M21.5,14h6c0.3,0,0.5,0.2,0.5,0.5l0,0c0,0.3-0.2,0.5-0.5,0.5h-6c-0.3,0-0.5-0.2-0.5-0.5l0,0
			C21,14.2,21.2,14,21.5,14z"/>
		<path id="Rectangle-5" class="st2" d="M24.5,17h3c0.3,0,0.5,0.2,0.5,0.5l0,0c0,0.3-0.2,0.5-0.5,0.5h-3c-0.3,0-0.5-0.2-0.5-0.5l0,0
			C24,17.2,24.2,17,24.5,17z"/>
	</g>
	<g id="Group-Copy" transform="translate(61.000000, 55.000000)">
		<path id="Rectangle-3_1_" class="st4" d="M19.5,11h8c0.3,0,0.5,0.2,0.5,0.5l0,0c0,0.3-0.2,0.5-0.5,0.5h-8c-0.3,0-0.5-0.2-0.5-0.5
			l0,0C19,11.2,19.2,11,19.5,11z"/>
		<path id="Combined-Shape_5_" class="st5" d="M14,13.5h-4c-4.9,0-9,3.7-9.5,8.6v1c0,1.9,1.6,3.5,3.5,3.5h16c1.9,0,3.5-1.6,3.5-3.5
			v-0.9v-0.1C23,17.2,18.9,13.5,14,13.5z"/>
		<circle id="Oval-2_1_" class="st5" cx="12" cy="7" r="6.5"/>
		<path id="Rectangle-4_1_" class="st4" d="M21.5,14h6c0.3,0,0.5,0.2,0.5,0.5l0,0c0,0.3-0.2,0.5-0.5,0.5h-6c-0.3,0-0.5-0.2-0.5-0.5
			l0,0C21,14.2,21.2,14,21.5,14z"/>
		<path id="Rectangle-5_1_" class="st4" d="M24.5,17h3c0.3,0,0.5,0.2,0.5,0.5l0,0c0,0.3-0.2,0.5-0.5,0.5h-3c-0.3,0-0.5-0.2-0.5-0.5
			l0,0C24,17.2,24.2,17,24.5,17z"/>
	</g>
	<g id="Group-Copy-4" transform="translate(113.000000, 55.000000)">
		<path id="Rectangle-3_2_" class="st4" d="M19.5,11h8c0.3,0,0.5,0.2,0.5,0.5l0,0c0,0.3-0.2,0.5-0.5,0.5h-8c-0.3,0-0.5-0.2-0.5-0.5
			l0,0C19,11.2,19.2,11,19.5,11z"/>
		<path id="Combined-Shape_6_" class="st11" d="M14,13.5h-4c-4.9,0-9,3.7-9.5,8.6v1c0,1.9,1.6,3.5,3.5,3.5h16c1.9,0,3.5-1.6,3.5-3.5
			v-0.9v-0.1C23,17.2,18.9,13.5,14,13.5z"/>
		<circle id="Oval-2_2_" class="st11" cx="12" cy="7" r="6.5"/>
		<path id="Rectangle-4_2_" class="st4" d="M21.5,14h6c0.3,0,0.5,0.2,0.5,0.5l0,0c0,0.3-0.2,0.5-0.5,0.5h-6c-0.3,0-0.5-0.2-0.5-0.5
			l0,0C21,14.2,21.2,14,21.5,14z"/>
		<path id="Rectangle-5_2_" class="st4" d="M24.5,17h3c0.3,0,0.5,0.2,0.5,0.5l0,0c0,0.3-0.2,0.5-0.5,0.5h-3c-0.3,0-0.5-0.2-0.5-0.5
			l0,0C24,17.2,24.2,17,24.5,17z"/>
	</g>
	<g id="Group-3" transform="translate(11.000000, 102.000000)">
		<path id="Combined-Shape_7_" class="st1" d="M2.7,13c0,0.3,0,0.5,0,0.8V14l-1.6,2.1c-0.2,0.3-0.2,0.8-0.1,1.1l2.3,4.1
			c0.2,0.3,0.6,0.5,1,0.5L7,21.4l0.2,0.1c0.4,0.3,0.9,0.6,1.4,0.8l0.2,0.1l1,2.5c0.1,0.3,0.6,0.6,0.9,0.6h4.7c0.4,0,0.8-0.3,0.9-0.6
			l1-2.5l0.2-0.1c0.5-0.2,1-0.5,1.4-0.8l0.2-0.1l2.6,0.4c0.3,0,0.8-0.2,1-0.5l2.3-4.1c0.2-0.3,0.1-0.8-0.1-1.1L23.3,14v-0.2
			c0-0.3,0-0.5,0-0.8s0-0.5,0-0.8V12l1.6-2.1c0.2-0.3,0.2-0.8,0.1-1.1l-2.3-4.1c-0.2-0.3-0.6-0.5-1-0.5L19,4.6l-0.2-0.1
			c-0.4-0.3-0.9-0.6-1.4-0.8l-0.2-0.1l-1-2.5c-0.1-0.3-0.6-0.6-0.9-0.6h-4.7c-0.4,0-0.8,0.3-0.9,0.6l-1,2.5L8.5,3.7
			C8.4,3.7,8.2,3.8,8,4c0,0,0,0-0.1,0C7.7,4.1,7.5,4.2,7.4,4.3C7.3,4.4,7.2,4.5,7.1,4.5L7,4.6L4.3,4.2c-0.3,0-0.8,0.2-1,0.5L1,8.8
			C0.8,9.1,0.9,9.6,1.1,9.9L2.7,12v0.2C2.7,12.5,2.7,12.7,2.7,13z"/>
	</g>
	<g id="Group-3-Copy" transform="translate(62.000000, 102.000000)">
		<path id="Combined-Shape_8_" class="st5" d="M2.7,13c0,0.3,0,0.5,0,0.8V14l-1.6,2.1c-0.2,0.3-0.2,0.8-0.1,1.1l2.3,4.1
			c0.2,0.3,0.6,0.5,1,0.5L7,21.4l0.2,0.1c0.4,0.3,0.9,0.6,1.4,0.8l0.2,0.1l1,2.5c0.1,0.3,0.6,0.6,0.9,0.6h4.7c0.4,0,0.8-0.3,0.9-0.6
			l1-2.5l0.2-0.1c0.5-0.2,1-0.5,1.4-0.8l0.2-0.1l2.6,0.4c0.3,0,0.8-0.2,1-0.5l2.3-4.1c0.2-0.3,0.1-0.8-0.1-1.1L23.3,14v-0.2
			c0-0.3,0-0.5,0-0.8s0-0.5,0-0.8V12l1.6-2.1c0.2-0.3,0.2-0.8,0.1-1.1l-2.3-4.1c-0.2-0.3-0.6-0.5-1-0.5L19,4.6l-0.2-0.1
			c-0.4-0.3-0.9-0.6-1.4-0.8l-0.2-0.1l-1-2.5c-0.1-0.3-0.6-0.6-0.9-0.6h-4.7c-0.4,0-0.8,0.3-0.9,0.6l-1,2.5L8.5,3.7
			C8,3.9,7.5,4.2,7.1,4.5L7,4.6L4.3,4.2c-0.3,0-0.8,0.2-1,0.5L1,8.8C0.8,9.1,0.9,9.6,1.1,9.9L2.7,12v0.2C2.7,12.5,2.7,12.7,2.7,13z"
			/>
	</g>
	<g id="Group-3-Copy-2" transform="translate(114.000000, 102.000000)">
		<path id="Combined-Shape_9_" class="st11" d="M2.7,13c0,0.3,0,0.5,0,0.8V14l-1.6,2.1c-0.2,0.3-0.2,0.8-0.1,1.1l2.3,4.1
			c0.2,0.3,0.6,0.5,1,0.5L7,21.4l0.2,0.1c0.4,0.3,0.9,0.6,1.4,0.8l0.2,0.1l1,2.5c0.1,0.3,0.6,0.6,0.9,0.6h4.7c0.4,0,0.8-0.3,0.9-0.6
			l1-2.5l0.2-0.1c0.5-0.2,1-0.5,1.4-0.8l0.2-0.1l2.6,0.4c0.3,0,0.8-0.2,1-0.5l2.3-4.1c0.2-0.3,0.1-0.8-0.1-1.1L23.3,14v-0.2
			c0-0.3,0-0.5,0-0.8s0-0.5,0-0.8V12l1.6-2.1c0.2-0.3,0.2-0.8,0.1-1.1l-2.3-4.1c-0.2-0.3-0.6-0.5-1-0.5L19,4.6l-0.2-0.1
			c-0.4-0.3-0.9-0.6-1.4-0.8l-0.2-0.1l-1-2.5c-0.1-0.3-0.6-0.6-0.9-0.6h-4.7c-0.4,0-0.8,0.3-0.9,0.6l-1,2.5L8.5,3.7
			C8,3.9,7.5,4.2,7.1,4.5L7,4.6L4.3,4.2c-0.3,0-0.8,0.2-1,0.5L1,8.8C0.8,9.1,0.9,9.6,1.1,9.9L2.7,12v0.2C2.7,12.5,2.7,12.7,2.7,13z
			 M13,18.5c-3,0-5.5-2.5-5.5-5.5S10,7.5,13,7.5s5.5,2.5,5.5,5.5S16,18.5,13,18.5z"/>
	</g>
	<circle id="Oval-3" class="st1" cx="24" cy="115" r="4.5"/>
	<path id="Oval-3-Copy" class="st5" d="M75,119.5c2.5,0,4.5-2,4.5-4.5s-2-4.5-4.5-4.5s-4.5,2-4.5,4.5S72.5,119.5,75,119.5z"/>
	<g id="Group-Copy-2" transform="translate(12.000000, 156.000000)">
		<path id="Combined-Shape_10_" class="st1" d="M10.5,0.5h-3c-3.6,0-6.6,2.6-7,6v0.7c0,1.3,1.1,2.4,2.5,2.4h12
			c1.4,0,2.5-1.1,2.5-2.4V6.6l0,0C17.2,3.1,14.2,0.5,10.5,0.5z"/>
	</g>
	<g id="Group-Copy-3" transform="translate(63.000000, 156.000000)">
		<path id="Combined-Shape_11_" class="st5" d="M10.5,0.5h-3c-3.6,0-6.6,2.6-7,6v0.7c0,1.3,1.1,2.4,2.5,2.4h12
			c1.4,0,2.5-1.1,2.5-2.4V6.6l0,0C17.2,3.1,14.2,0.5,10.5,0.5z"/>
	</g>
	<g id="Group-Copy-5" transform="translate(115.000000, 156.000000)">
		<path id="Combined-Shape_12_" class="st11" d="M10.5,0.5h-3c-3.6,0-6.6,2.6-7,6v0.7c0,1.3,1.1,2.4,2.5,2.4h12
			c1.4,0,2.5-1.1,2.5-2.4V6.6l0,0C17.2,3.1,14.2,0.5,10.5,0.5z"/>
	</g>
	<circle id="Oval-4" class="st1" cx="21" cy="152" r="4.5"/>
	<circle id="Oval-4-Copy" class="st5" cx="72" cy="152" r="4.5"/>
	<circle id="Oval-4-Copy-2" class="st11" cx="124" cy="152" r="4.5"/>
	<circle id="Oval-5" class="st1" cx="19" cy="193" r="8.5"/>
	<circle id="Oval-5-Copy" class="st5" cx="71" cy="193" r="8.5"/>
	<path id="Combined-Shape_13_" class="st12" d="M24,194L24,194c-0.5,2.3-2.5,4-5,4s-4.5-1.7-5-4"/>
	<path id="Combined-Shape-Copy" class="st13" d="M76,194L76,194c-0.5,2.3-2.5,4-5,4s-4.5-1.7-5-4"/>
	<circle id="Oval-6" class="st2" cx="16" cy="191" r="1"/>
	<circle id="Oval-6-Copy-2" class="st4" cx="68" cy="191" r="1"/>
	<circle id="Oval-6-Copy" class="st2" cx="22" cy="191" r="1"/>
	<circle id="Oval-6-Copy-3" class="st4" cx="74" cy="191" r="1"/>
	<path id="Oval-7" class="st14" d="M18,236c4.4,0,8-3.6,8-8s-3.6-8-8-8s-8,3.6-8,8S13.6,236,18,236z"/>
	<path id="Combined-Shape_14_" class="st8" d="M17,231h2v2h-2V231z M17,223h2v7h-2V223z"/>
	<path id="Combined-Shape_15_" class="st15" d="M22.1,252c0.5,0.7,0.8,1.7,0.8,2.6v3.4l0,0c0.6,0,1,0.4,1,1s-0.4,1-1,1h-3.1v0.5
		c0,0.8-0.7,1.5-1.5,1.5h-0.1c-0.8,0-1.5-0.7-1.5-1.5V260H14l-1.5,1.5l-0.7-0.7l10.9-10.9l0.7,0.7L22.1,252z M20.4,250.5l-6.7,6.7
		v-2.5c0-2,1.3-3.7,3.1-4.4c0.1-0.7,0.8-1.3,1.5-1.3c0.8,0,1.4,0.5,1.5,1.3C20,250.3,20.2,250.4,20.4,250.5z"/>
	<path id="Rectangle-14" class="st16" d="M12.5,278.5h11c1.1,0,2,0.9,2,2v11c0,1.1-0.9,2-2,2h-11c-1.1,0-2-0.9-2-2v-11
		C10.5,279.4,11.4,278.5,12.5,278.5z"/>
	<path id="Rectangle-14-Copy-2" class="st17" d="M72.5,307.5h11c1.1,0,2,0.9,2,2v11c0,1.1-0.9,2-2,2h-11c-1.1,0-2-0.9-2-2v-11
		C70.5,308.4,71.4,307.5,72.5,307.5z"/>
	<path id="Combined-Shape_16_" class="st4" d="M46.5,288.2l-2.5-2.5c-0.2-0.2-0.5-0.2-0.7,0s-0.2,0.5,0,0.7l2.8,2.8
		c0.2,0.2,0.5,0.2,0.7,0l0,0l0,0l6.4-6.4c0.2-0.2,0.2-0.5,0-0.7s-0.5-0.2-0.7,0L46.5,288.2z M40,280c0-1.1,0.9-2,2-2h12
		c1.1,0,2,0.9,2,2v12c0,1.1-0.9,2-2,2H42c-1.1,0-2-0.9-2-2V280z"/>
	<path id="Combined-Shape-Copy-33" class="st18" d="M102.5,288.2l-2.5-2.5c-0.2-0.2-0.5-0.2-0.7,0s-0.2,0.5,0,0.7l2.8,2.8
		c0.2,0.2,0.5,0.2,0.7,0l0,0l0,0l6.4-6.4c0.2-0.2,0.2-0.5,0-0.7s-0.5-0.2-0.7,0L102.5,288.2z M96,280c0-1.1,0.9-2,2-2h12
		c1.1,0,2,0.9,2,2v12c0,1.1-0.9,2-2,2H98c-1.1,0-2-0.9-2-2V280z"/>
	<path id="Combined-Shape-Copy-32" class="st5" d="M72.5,278.5h11c1.1,0,2,0.9,2,2v11c0,1.1-0.9,2-2,2h-11c-1.1,0-2-0.9-2-2v-11
		C70.5,279.4,71.4,278.5,72.5,278.5z"/>
	<path id="Combined-Shape-Copy-34" class="st16" d="M128.5,278.5h11c1.1,0,2,0.9,2,2v11c0,1.1-0.9,2-2,2h-11c-1.1,0-2-0.9-2-2v-11
		C126.5,279.4,127.4,278.5,128.5,278.5z"/>
	<path id="Rectangle-54" class="st4" d="M75,282h6c0.6,0,1,0.4,1,1v6c0,0.6-0.4,1-1,1h-6c-0.6,0-1-0.4-1-1v-6
		C74,282.4,74.4,282,75,282z"/>
	<path id="Rectangle-54-Copy" class="st18" d="M131,282h6c0.6,0,1,0.4,1,1v6c0,0.6-0.4,1-1,1h-6c-0.6,0-1-0.4-1-1v-6
		C130,282.4,130.4,282,131,282z"/>
	<g id="Group-4" transform="translate(10.000000, 307.000000)">
		<circle id="Oval-8" class="st16" cx="8" cy="8" r="7.5"/>
		<path id="Combined-Shape_17_" class="st18" d="M8.7,8l2.1,2.1c0.2,0.2,0.2,0.5,0,0.7s-0.5,0.2-0.7,0L8,8.7l-2.1,2.1
			c-0.2,0.2-0.5,0.2-0.7,0s-0.2-0.5,0-0.7L7.3,8L5.2,5.9C5,5.7,5,5.4,5.2,5.2C5.4,5,5.7,5,5.9,5.2L8,7.3l2.1-2.1
			c0.2-0.2,0.5-0.2,0.7,0s0.2,0.5,0,0.7L8.7,8z"/>
	</g>
	<g id="Group-4-Copy" transform="translate(40.000000, 307.000000)">
		<path id="Combined-Shape_18_" class="st4" d="M8.7,8l2.1-2.1c0.2-0.2,0.2-0.5,0-0.7s-0.5-0.2-0.7,0L8,7.3L5.9,5.2
			C5.7,5,5.4,5,5.2,5.2C5,5.4,5,5.7,5.2,5.9L7.3,8l-2.1,2.1c-0.2,0.2-0.2,0.5,0,0.7s0.5,0.2,0.7,0L8,8.7l2.1,2.1
			c0.2,0.2,0.5,0.2,0.7,0s0.2-0.5,0-0.7L8.7,8z M8,16c-4.4,0-8-3.6-8-8s3.6-8,8-8s8,3.6,8,8S12.4,16,8,16z"/>
	</g>
	<path id="Rectangle-7" class="st16" d="M14.5,338.5h27c2.2,0,4,1.8,4,4v27c0,2.2-1.8,4-4,4h-27c-2.2,0-4-1.8-4-4v-27
		C10.5,340.3,12.3,338.5,14.5,338.5z"/>
	<path id="Rectangle-7-Copy-2" class="st16" d="M14.5,392.5h27c2.2,0,4,1.8,4,4v27c0,2.2-1.8,4-4,4h-27c-2.2,0-4-1.8-4-4v-27
		C10.5,394.3,12.3,392.5,14.5,392.5z"/>
	<path id="Rectangle-7-Copy-3" class="st1" d="M66.5,392.5h27c2.2,0,4,1.8,4,4v27c0,2.2-1.8,4-4,4h-27c-2.2,0-4-1.8-4-4v-27
		C62.5,394.3,64.3,392.5,66.5,392.5z"/>
	<path id="Rectangle-7-Copy" class="st1" d="M66.5,338.5h27c2.2,0,4,1.8,4,4v27c0,2.2-1.8,4-4,4h-27c-2.2,0-4-1.8-4-4v-27
		C62.5,340.3,64.3,338.5,66.5,338.5z"/>
	<path id="Combined-Shape_19_" class="st18" d="M28,356v-8.5c0-0.3,0.2-0.5,0.5-0.5s0.5,0.2,0.5,0.5v8.5h8.5c0.3,0,0.5,0.2,0.5,0.5
		s-0.2,0.5-0.5,0.5H29v8.5c0,0.3-0.2,0.5-0.5,0.5s-0.5-0.2-0.5-0.5V357h-8.5c-0.3,0-0.5-0.2-0.5-0.5s0.2-0.5,0.5-0.5H28z"/>
	<path id="Combined-Shape-Copy-3" class="st18" d="M20.5,410h17c0.3,0,0.5,0.2,0.5,0.5l0,0c0,0.3-0.2,0.5-0.5,0.5h-17
		c-0.3,0-0.5-0.2-0.5-0.5l0,0C20,410.2,20.2,410,20.5,410z"/>
	<path id="Combined-Shape-Copy-4" class="st2" d="M72.5,410h17c0.3,0,0.5,0.2,0.5,0.5l0,0c0,0.3-0.2,0.5-0.5,0.5h-17
		c-0.3,0-0.5-0.2-0.5-0.5l0,0C72,410.2,72.2,410,72.5,410z"/>
	<path id="Combined-Shape-Copy-2" class="st2" d="M80,356v-8.5c0-0.3,0.2-0.5,0.5-0.5s0.5,0.2,0.5,0.5v8.5h8.5
		c0.3,0,0.5,0.2,0.5,0.5s-0.2,0.5-0.5,0.5H81v8.5c0,0.3-0.2,0.5-0.5,0.5s-0.5-0.2-0.5-0.5V357h-8.5c-0.3,0-0.5-0.2-0.5-0.5
		s0.2-0.5,0.5-0.5H80z"/>
	<path id="Combined-Shape_20_" class="st18" d="M17,447v1h-4c-0.5,0-1,0.4-1,1v8c0,0.5,0.4,1,1,1h8c0.5,0,1-0.4,1-1v-4h1v4
		c0,1.1-0.9,2-2,2h-8c-1.1,0-2-0.9-2-2v-8c0-1.1,0.9-2,2-2H17z"/>
	<path id="Combined-Shape-Copy-5" class="st4" d="M59,447v1h-4c-0.5,0-1,0.4-1,1v8c0,0.5,0.4,1,1,1h8c0.5,0,1-0.4,1-1v-4h1v4
		c0,1.1-0.9,2-2,2h-8c-1.1,0-2-0.9-2-2v-8c0-1.1,0.9-2,2-2H59z"/>
	<path id="Combined-Shape_21_" class="st18" d="M16.2,453.8c-0.2-0.2-0.2-0.5,0-0.7l7-7c0.2-0.2,0.5-0.2,0.7,0s0.2,0.5,0,0.7l-7,7
		C16.7,454,16.4,454,16.2,453.8z M15.6,455c-0.5,0.2-0.7-0.1-0.6-0.6l0.1-0.2c0.2-0.5,0.6-0.6,0.9-0.2c0.4,0.4,0.3,0.8-0.2,0.9
		L15.6,455z"/>
	<path id="Combined-Shape-Copy-6" class="st4" d="M58.2,453.8c-0.2-0.2-0.2-0.5,0-0.7l7-7c0.2-0.2,0.5-0.2,0.7,0s0.2,0.5,0,0.7l-7,7
		C58.7,454,58.4,454,58.2,453.8z M57.6,455c-0.5,0.2-0.7-0.1-0.6-0.6l0.1-0.2c0.2-0.5,0.6-0.6,0.9-0.2c0.4,0.4,0.3,0.8-0.2,0.9
		L57.6,455z"/>
	<path id="Combined-Shape_22_" class="st8" d="M15.7,485.5l-3.6-3.6c-0.2-0.2-0.2-0.5,0-0.7l0.1-0.1c0.2-0.2,0.5-0.2,0.7,0l3.6,3.6
		l3.6-3.6c0.2-0.2,0.5-0.2,0.7,0l0.1,0.1c0.2,0.2,0.2,0.5,0,0.7l-3.6,3.6l3.6,3.6c0.2,0.2,0.2,0.5,0,0.7l-0.1,0.1
		c-0.2,0.2-0.5,0.2-0.7,0l-3.6-3.6l-3.6,3.6c-0.2,0.2-0.5,0.2-0.7,0l-0.1-0.1c-0.2-0.2-0.2-0.5,0-0.7L15.7,485.5z"/>
	<path id="Combined-Shape-Copy-7" class="st19" d="M46.7,485.5l-3.6-3.6c-0.2-0.2-0.2-0.5,0-0.7l0.1-0.1c0.2-0.2,0.5-0.2,0.7,0
		l3.6,3.6l3.6-3.6c0.2-0.2,0.5-0.2,0.7,0l0.1,0.1c0.2,0.2,0.2,0.5,0,0.7l-3.6,3.6l3.6,3.6c0.2,0.2,0.2,0.5,0,0.7l-0.1,0.1
		c-0.2,0.2-0.5,0.2-0.7,0l-3.6-3.6l-3.6,3.6c-0.2,0.2-0.5,0.2-0.7,0l-0.1-0.1c-0.2-0.2-0.2-0.5,0-0.7L46.7,485.5z"/>
	<path id="Combined-Shape-Copy-15" class="st2" d="M71.7,485.5l-3.6-3.6c-0.2-0.2-0.2-0.5,0-0.7l0.1-0.1c0.2-0.2,0.5-0.2,0.7,0
		l3.6,3.6l3.6-3.6c0.2-0.2,0.5-0.2,0.7,0l0.1,0.1c0.2,0.2,0.2,0.5,0,0.7l-3.6,3.6l3.6,3.6c0.2,0.2,0.2,0.5,0,0.7l-0.1,0.1
		c-0.2,0.2-0.5,0.2-0.7,0l-3.6-3.6l-3.6,3.6c-0.2,0.2-0.5,0.2-0.7,0l-0.1-0.1c-0.2-0.2-0.2-0.5,0-0.7L71.7,485.5z"/>
	<path id="Combined-Shape-Copy-16" class="st20" d="M96.7,485.5l-3.6-3.6c-0.2-0.2-0.2-0.5,0-0.7l0.1-0.1c0.2-0.2,0.5-0.2,0.7,0
		l3.6,3.6l3.6-3.6c0.2-0.2,0.5-0.2,0.7,0l0.1,0.1c0.2,0.2,0.2,0.5,0,0.7l-3.6,3.6l3.6,3.6c0.2,0.2,0.2,0.5,0,0.7l-0.1,0.1
		c-0.2,0.2-0.5,0.2-0.7,0l-3.6-3.6l-3.6,3.6c-0.2,0.2-0.5,0.2-0.7,0l-0.1-0.1c-0.2-0.2-0.2-0.5,0-0.7L96.7,485.5z"/>
	<path id="Combined-Shape_23_" class="st21" d="M25,517c0-4-2-7.5-5.1-9.7c0,0-1.2-0.8-1.8,0.1c-0.6,0.9,0.4,1.3,0.4,1.3
		c2.8,1.7,4.6,4.8,4.6,8.3s-1.8,6.5-4.6,8.3c0,0-0.8,0.6-0.3,1.4s1.7,0,1.7,0C23,524.5,25,521,25,517z M20,517c0,2.7-1.5,5-3.8,6.1
		c0,0-1.3,0.7-1.8-0.1s0.3-1.4,0.3-1.4c1.9-0.7,3.3-2.5,3.3-4.6s-1.4-3.9-3.3-4.6c0,0-0.7-0.5-0.3-1.3s1.8-0.2,1.8-0.2
		C18.5,512,20,514.3,20,517z M13,518.9c-1.1,0-2-0.9-2-2s0.9-2,2-2s2,0.9,2,2C15,518.1,14.1,518.9,13,518.9z"/>
	<path id="Combined-Shape-Copy-9" class="st22" d="M11,561c0-4,2-7.5,5.1-9.7c0,0,1.2-0.8,1.8,0.1s-0.4,1.3-0.4,1.3
		c-2.8,1.7-4.6,4.8-4.6,8.3s1.8,6.5,4.6,8.3c0,0,0.8,0.6,0.3,1.4s-1.7,0-1.7,0C13,568.5,11,565,11,561z M16,561c0,2.7,1.5,5,3.8,6.1
		c0,0,1.3,0.7,1.8-0.1s-0.3-1.4-0.3-1.4c-1.9-0.7-3.3-2.5-3.3-4.6s1.4-3.9,3.3-4.6c0,0,0.7-0.5,0.3-1.3c-0.4-0.8-1.8-0.2-1.8-0.2
		C17.5,556,16,558.3,16,561z M23,562.9c1.1,0,2-0.9,2-2s-0.9-2-2-2s-2,0.9-2,2C21,562.1,21.9,562.9,23,562.9z"/>
	<path id="Combined-Shape-Copy-10" class="st23" d="M39,561c0-4,2-7.5,5.1-9.7c0,0,1.2-0.8,1.8,0.1s-0.4,1.3-0.4,1.3
		c-2.8,1.7-4.6,4.8-4.6,8.3s1.8,6.5,4.6,8.3c0,0,0.8,0.6,0.3,1.4s-1.7,0-1.7,0C41,568.5,39,565,39,561z M44,561c0,2.7,1.5,5,3.8,6.1
		c0,0,1.3,0.7,1.8-0.1s-0.3-1.4-0.3-1.4c-1.9-0.7-3.3-2.5-3.3-4.6s1.4-3.9,3.3-4.6c0,0,0.7-0.5,0.3-1.3s-1.8-0.2-1.8-0.2
		C45.5,556,44,558.3,44,561z M51,562.9c1.1,0,2-0.9,2-2s-0.9-2-2-2s-2,0.9-2,2C49,562.1,49.9,562.9,51,562.9z"/>
	<path id="Combined-Shape-Copy-13" class="st23" d="M68,561.4c0,2.7,1.5,5.1,3.8,6.2c0,0,1.3,0.8,1.8-0.1c0.6-0.9-0.3-1.4-0.3-1.4
		c-1.9-0.7-3.3-2.5-3.3-4.7s1.4-4,3.3-4.7c0,0,0.7-0.5,0.3-1.3s-1.8-0.2-1.8-0.2C69.5,556.4,68,558.7,68,561.4z M75,563.5
		c1.1,0,2-0.9,2-2s-0.9-2-2-2s-2,0.9-2,2S73.9,563.5,75,563.5z"/>
	<circle id="Combined-Shape-Copy-14" class="st23" cx="99" cy="561" r="2"/>
	<path id="Combined-Shape-Copy-8" class="st24" d="M53,517c0-4-2-7.5-5.1-9.7c0,0-1.2-0.8-1.8,0.1s0.4,1.3,0.4,1.3
		c2.8,1.7,4.6,4.8,4.6,8.3s-1.8,6.5-4.6,8.3c0,0-0.8,0.6-0.3,1.4s1.7,0,1.7,0C51,524.5,53,521,53,517z M48,517c0,2.7-1.5,5-3.8,6.1
		c0,0-1.3,0.7-1.8-0.1s0.3-1.4,0.3-1.4c1.9-0.7,3.3-2.5,3.3-4.6s-1.4-3.9-3.3-4.6c0,0-0.7-0.5-0.3-1.3s1.8-0.2,1.8-0.2
		C46.5,512,48,514.3,48,517z M41,518.9c-1.1,0-2-0.9-2-2s0.9-2,2-2s2,0.9,2,2C43,518.1,42.1,518.9,41,518.9z"/>
	<path id="Combined-Shape-Copy-11" class="st24" d="M77,517.4c0,2.7-1.5,5.1-3.8,6.2c0,0-1.3,0.8-1.8-0.1c-0.6-0.9,0.3-1.4,0.3-1.4
		c1.9-0.7,3.3-2.5,3.3-4.7s-1.4-4-3.3-4.7c0,0-0.7-0.5-0.3-1.3c0.4-0.8,1.8-0.2,1.8-0.2C75.5,512.4,77,514.7,77,517.4z M70,519.5
		c-1.1,0-2-0.9-2-2s0.9-2,2-2s2,0.9,2,2S71.1,519.5,70,519.5z"/>
	<circle id="Combined-Shape-Copy-12" class="st24" cx="99" cy="517" r="2"/>
	<g id="Group-Copy-9" transform="translate(58.000000, 590.000000)">
		<path id="Path" class="st4" d="M7.1,9.5c-1.9,0-3.4-1.7-3.4-3.7s1.5-3.7,3.4-3.7c0.3,0,0.5-0.2,0.5-0.5S7.4,1.1,7.1,1.1
			c-2.5,0-4.5,2.1-4.5,4.7c0,1.7,0.9,3.3,2.2,4.1C2,10.9,0,13.8,0,17.1c0,0.3,0.2,0.5,0.5,0.5S1,17.4,1,17.1c0-3.6,2.7-6.5,6.1-6.5
			c0.3,0,0.5-0.2,0.5-0.5C7.7,9.8,7.4,9.5,7.1,9.5L7.1,9.5L7.1,9.5z"/>
		<path id="Combined-Shape_24_" class="st4" d="M10.6,10.3C8.9,9.4,7.7,7.6,7.7,5.5c0-3,2.5-5.5,5.5-5.5s5.5,2.5,5.5,5.5
			s-2.4,5.4-5.4,5.5c-0.1,0-0.1,0-0.2,0c-4.2,0-4.4-0.2-8,3.2C4.9,14.3,7,11.4,10.6,10.3z M8.8,5.5c0,2.4,2,4.4,4.4,4.4
			s4.4-2,4.4-4.4s-2-4.4-4.4-4.4C10.7,1,8.8,3,8.8,5.5z"/>
		<path id="Combined-Shape_25_" class="st5" d="M14.5,10.5h-3.1c-3.6,0-6.6,2.6-7,6v0.7c0,1.3,1.1,2.4,2.5,2.4h12
			c1.4,0,2.5-1.1,2.5-2.4v-0.6l0,0C21.2,13.1,18.2,10.5,14.5,10.5z"/>
	</g>
	<g id="Group-Copy-12" transform="translate(10.000000, 590.000000)">
		<path id="Path_2_" class="st2" d="M7.1,9.5c-1.9,0-3.4-1.7-3.4-3.7s1.5-3.7,3.4-3.7c0.3,0,0.5-0.2,0.5-0.5S7.4,1.1,7.1,1.1
			c-2.5,0-4.5,2.1-4.5,4.7c0,1.7,0.9,3.3,2.2,4.1C2,10.9,0,13.8,0,17.1c0,0.3,0.2,0.5,0.5,0.5S1,17.4,1,17.1c0-3.6,2.7-6.5,6.1-6.5
			c0.3,0,0.5-0.2,0.5-0.5C7.7,9.8,7.4,9.5,7.1,9.5L7.1,9.5L7.1,9.5z"/>
		<path id="Combined-Shape_26_" class="st2" d="M10.6,10.3C8.9,9.4,7.7,7.6,7.7,5.5c0-3,2.5-5.5,5.5-5.5s5.5,2.5,5.5,5.5
			s-2.4,5.4-5.4,5.5c-0.1,0-0.1,0-0.2,0c-4.2,0-4.4-0.2-8,3.2C4.9,14.3,7,11.4,10.6,10.3z M8.8,5.5c0,2.4,2,4.4,4.4,4.4
			s4.4-2,4.4-4.4s-2-4.4-4.4-4.4C10.7,1,8.8,3,8.8,5.5z"/>
		<path id="Combined-Shape_27_" class="st1" d="M14.5,10.5h-3.1c-3.6,0-6.6,2.6-7,6v0.7c0,1.3,1.1,2.4,2.5,2.4h12
			c1.4,0,2.5-1.1,2.5-2.4v-0.6l0,0C21.2,13.1,18.2,10.5,14.5,10.5z"/>
	</g>
	<g id="Group-Copy-10" transform="translate(113.000000, 590.000000)">
		<path id="Combined-Shape_28_" class="st4" d="M16.1,10.2c3.2,0.6,5.6,3.2,5.9,6.3l0,0v0.6c0,1.6-1.3,2.9-3,2.9H7
			c-1.7,0-3-1.3-3-2.9v-0.7c0.3-3.2,2.9-5.8,6.2-6.4C8.7,9,7.7,7.3,7.7,5.4c0-3,2.5-5.5,5.5-5.5s5.5,2.5,5.5,5.5
			C18.7,7.5,17.6,9.2,16.1,10.2z M7.1,9.5c0.3,0,0.5,0.2,0.5,0.5s-0.2,0.5-0.5,0.5C3.7,10.5,1,13.4,1,17c0,0.3-0.2,0.5-0.5,0.5
			S0,17.3,0,17c0-3.3,2-6.1,4.9-7.1c-1.4-0.8-2.3-2.3-2.3-4c0-2.6,2-4.7,4.5-4.7c0.3,0,0.5,0.2,0.5,0.5S7.4,2.2,7.1,2.2
			c-1.9,0-3.4,1.7-3.4,3.7C3.7,7.9,5.2,9.5,7.1,9.5z"/>
	</g>
	<path id="Star" class="st1" d="M23.6,638.3l-0.1-4.3l2.7-3.4l-4.2-1.2l-2.5-3.5l-2.5,3.5l-4.2,1.2l2.7,3.4l-0.1,4.3l4.1-1.4
		L23.6,638.3z"/>
	<path id="Star-Copy" class="st5" d="M52.6,638.3l-0.1-4.3l2.7-3.4l-4.2-1.2l-2.5-3.5l-2.5,3.5l-4.2,1.2l2.7,3.4l-0.1,4.3l4.1-1.4
		L52.6,638.3z"/>
	<polygon id="Star-Copy-2" class="st4" points="77.5,637.4 72.9,639 73,634.2 70,630.3 74.7,629 77.5,625 80.3,629 85,630.3 
		82,634.2 82.1,639 	"/>
	<g id="Group-5" transform="translate(12.000000, 656.000000)">
		<path id="Combined-Shape_29_" class="st2" d="M6.2,8.3c-2.8,0-5.1,2-5.4,4.6v0.6c0,0.8,0.7,1.5,1.7,1.5h10c0.9,0,1.7-0.7,1.7-1.5
			V13l0,0c-0.3-2.6-2.6-4.6-5.4-4.6L6.2,8.3L6.2,8.3z M9.9,7.6c2.7,0.5,4.9,2.6,5.1,5.3l0,0v0.5c0,1.3-1.1,2.4-2.5,2.4h-10
			c-1.4,0-2.5-1.1-2.5-2.4v-0.6C0.3,10.1,2.4,8,5.1,7.5C4,6.8,3.3,5.6,3.3,4.2C3.3,1.9,5.2,0,7.5,0s4.2,1.9,4.2,4.2
			C11.7,5.6,11,6.8,9.9,7.6z M7.5,7.5c1.8,0,3.3-1.5,3.3-3.3S9.3,0.8,7.5,0.8S4.2,2.3,4.2,4.2S5.7,7.5,7.5,7.5z"/>
		<polygon id="Path-2" class="st2" points="7,8 6,11 7.5,13 9,11 8,8 		"/>
	</g>
	<g id="Group-5-Copy" transform="translate(41.000000, 656.000000)">
		<path id="Combined-Shape_30_" class="st4" d="M6.2,8.3c-2.8,0-5.1,2-5.4,4.6v0.6c0,0.8,0.7,1.5,1.7,1.5h10c0.9,0,1.7-0.7,1.7-1.5
			V13l0,0c-0.3-2.6-2.6-4.6-5.4-4.6L6.2,8.3L6.2,8.3z M9.9,7.6c2.7,0.5,4.9,2.6,5.1,5.3l0,0v0.5c0,1.3-1.1,2.4-2.5,2.4h-10
			c-1.4,0-2.5-1.1-2.5-2.4v-0.6C0.3,10.1,2.4,8,5.1,7.5C4,6.8,3.3,5.6,3.3,4.2C3.3,1.9,5.2,0,7.5,0s4.2,1.9,4.2,4.2
			C11.7,5.6,11,6.8,9.9,7.6z M7.5,7.5c1.8,0,3.3-1.5,3.3-3.3S9.3,0.8,7.5,0.8S4.2,2.3,4.2,4.2S5.7,7.5,7.5,7.5z"/>
		<polygon id="Path-2_1_" class="st4" points="7,8 6,11 7.5,13 9,11 8,8 		"/>
	</g>
	<g id="Group-5-Copy-2" transform="translate(70.000000, 656.000000)">
		<path id="Combined-Shape_31_" class="st4" d="M3.3,4.2C3.3,1.9,5.2,0,7.5,0s4.2,1.9,4.2,4.2S9.8,8.3,7.5,8.3S3.3,6.5,3.3,4.2z"/>
		<path id="Combined-Shape_32_" class="st4" d="M8.8,7.5c3.3,0,5.9,2.4,6.2,5.4l0,0v0.5c0,1.3-1.1,2.4-2.5,2.4h-10
			c-1.4,0-2.5-1.1-2.5-2.4v-0.6c0.3-3,3-5.4,6.2-5.4h2.6V7.5z M7,8l-1,3l1.5,2L9,11L8,8H7z"/>
	</g>
	<g id="Group-Copy-13" transform="translate(11.000000, 687.000000)">
		<path id="Path_4_" class="st2" d="M5.2,6.9c-1.4,0-2.5-1.2-2.5-2.7s1.1-2.7,2.5-2.7c0.2,0,0.4-0.2,0.4-0.4S5.4,0.7,5.2,0.7
			c-1.8,0-3.3,1.5-3.3,3.4c0,1.3,0.6,2.4,1.6,3C1.5,8,0,10,0,12.4c0,0.2,0.2,0.4,0.4,0.4s0.4-0.2,0.4-0.4c0-2.6,2-4.7,4.4-4.7
			c0.2,0,0.4-0.2,0.4-0.4C5.6,7.1,5.4,6.9,5.2,6.9L5.2,6.9L5.2,6.9z"/>
		<path id="Combined-Shape_33_" class="st2" d="M7.7,7.5C6.5,6.8,5.6,5.5,5.6,4c0-2.2,1.8-4,4-4s4,1.8,4,4s-1.7,3.7-3.9,3.8H9.6
			c-3.1,0-1.4-0.1-1.5-0.1C7.9,7.7,7.4,7.5,7.7,7.5z M6.4,3.9C6.4,5.6,7.8,7,9.6,7s3.2-1.4,3.2-3.1s-1.4-3.1-3.2-3.1
			C7.8,0.8,6.4,2.2,6.4,3.9z"/>
		<path id="Combined-Shape_34_" class="st2" d="M10.6,7c2.8,0,5.1,2.3,5.4,5.2l0,0v0.5c0,1.3-1,2.3-2.2,2.3H5.2C4,15,3,14,3,12.7
			v-0.5C3.3,9.3,5.6,7,8.4,7H10.6z M8.4,7.8c-2.4,0-4.5,1.9-4.7,4.4v0.5c0,0.8,0.6,1.5,1.4,1.5h8.7c0.8,0,1.4-0.7,1.4-1.5v-0.4l0,0
			C15,9.8,13,7.9,10.5,7.9H8.4V7.8z"/>
	</g>
	<g id="Group-Copy-16" transform="translate(41.000000, 687.000000)">
		<path id="Path_6_" class="st4" d="M5.2,6.9c-1.4,0-2.5-1.2-2.5-2.7s1.1-2.7,2.5-2.7c0.2,0,0.4-0.2,0.4-0.4S5.4,0.7,5.2,0.7
			c-1.8,0-3.3,1.5-3.3,3.4c0,1.3,0.6,2.4,1.6,3C1.5,8,0,10,0,12.4c0,0.2,0.2,0.4,0.4,0.4s0.4-0.2,0.4-0.4c0-2.6,2-4.7,4.4-4.7
			c0.2,0,0.4-0.2,0.4-0.4C5.6,7.1,5.4,6.9,5.2,6.9L5.2,6.9L5.2,6.9z"/>
		<path id="Combined-Shape_35_" class="st4" d="M7.7,7.5C6.5,6.8,5.6,5.5,5.6,4c0-2.2,1.8-4,4-4s4,1.8,4,4s-1.7,3.7-3.9,3.8H9.6
			c-3.1,0-1.4-0.1-1.5-0.1C7.9,7.7,7.4,7.5,7.7,7.5z M6.4,3.9C6.4,5.6,7.8,7,9.6,7s3.2-1.4,3.2-3.1s-1.4-3.1-3.2-3.1
			C7.8,0.8,6.4,2.2,6.4,3.9z"/>
		<path id="Combined-Shape_36_" class="st4" d="M10.6,7c2.8,0,5.1,2.3,5.4,5.2l0,0v0.5c0,1.3-1,2.3-2.2,2.3H5.2C4,15,3,14,3,12.7
			v-0.5C3.3,9.3,5.6,7,8.4,7H10.6z M8.4,7.8c-2.4,0-4.5,1.9-4.7,4.4v0.5c0,0.8,0.6,1.5,1.4,1.5h8.7c0.8,0,1.4-0.7,1.4-1.5v-0.4l0,0
			C15,9.8,13,7.9,10.5,7.9H8.4V7.8z"/>
	</g>
	<g id="Group-Copy-17" transform="translate(70.000000, 687.000000)">
		<path id="Path_8_" class="st4" d="M5.2,6.9c-1.4,0-2.5-1.2-2.5-2.7s1.1-2.7,2.5-2.7c0.2,0,0.4-0.2,0.4-0.4S5.4,0.7,5.2,0.7
			c-1.8,0-3.3,1.5-3.3,3.4c0,1.3,0.6,2.4,1.6,3C1.5,8,0,10,0,12.4c0,0.2,0.2,0.4,0.4,0.4s0.4-0.2,0.4-0.4c0-2.6,2-4.7,4.4-4.7
			c0.2,0,0.4-0.2,0.4-0.4C5.6,7.1,5.4,6.9,5.2,6.9L5.2,6.9L5.2,6.9z"/>
		<path id="Combined-Shape_37_" class="st4" d="M7.7,7.5c-0.3,0,0.2,0.2,0.4,0.2c0.1,0-1.6,0.1,1.5,0.1h0.1c2.2,0,3.9-1.6,3.9-3.8
			s-1.8-4-4-4s-4,1.8-4,4C5.6,5.5,6.5,6.8,7.7,7.5z"/>
		<path id="Combined-Shape_38_" class="st4" d="M10.6,7c2.8,0,5.1,2.3,5.4,5.2l0,0v0.5c0,1.3-1,2.3-2.2,2.3H5.2C4,15,3,14,3,12.7
			v-0.5C3.3,9.3,5.6,7,8.4,7H10.6z"/>
	</g>
	<path id="Rectangle-18" class="st26" d="M18.5,720.5h9c4.4,0,8,3.6,8,8v9c0,4.4-3.6,8-8,8h-9c-4.4,0-8-3.6-8-8v-9
		C10.5,724.1,14.1,720.5,18.5,720.5z"/>
	<path id="Rectangle-18-Copy" class="st27" d="M63.5,720.5h9c4.4,0,8,3.6,8,8v9c0,4.4-3.6,8-8,8h-9c-4.4,0-8-3.6-8-8v-9
		C55.5,724.1,59.1,720.5,63.5,720.5z"/>
	<path id="Star-2" class="st28" d="M27.2,740.2l-0.5-5l3.4-3.8l-5-1.1l-2.6-4.4l-2.6,4.4l-5,1.1l3.4,3.8l-0.5,5l4.7-2L27.2,740.2z"
		/>
	<polygon id="Star-2-Copy" class="st29" points="67.5,738.7 62.2,741 62.8,735.3 59,731.1 64.6,729.9 67.5,725 70.4,729.9 76,731.1 
		72.2,735.3 72.8,741 	"/>
	<g id="Group-6" transform="translate(12.000000, 762.000000)">
		<circle id="Oval-11" class="st5" cx="6" cy="6" r="5.5"/>
		<path id="Rectangle-24" class="st4" d="M10.1,10.4l4.9,4.9c0.2,0.2,0.2,0.5,0,0.7l0,0c-0.2,0.2-0.5,0.2-0.7,0l-4.9-4.9
			c-0.2-0.2-0.2-0.5,0-0.7l0,0C9.5,10.2,9.9,10.2,10.1,10.4z"/>
	</g>
	<g id="Group-6-Copy" transform="translate(38.000000, 762.000000)">
		<circle id="Oval-11_1_" class="st30" cx="6" cy="6" r="5.5"/>
		<path id="Rectangle-24_1_" class="st31" d="M10.1,10.4l4.9,4.9c0.2,0.2,0.2,0.5,0,0.7l0,0c-0.2,0.2-0.5,0.2-0.7,0l-4.9-4.9
			c-0.2-0.2-0.2-0.5,0-0.7l0,0C9.5,10.2,9.9,10.2,10.1,10.4z"/>
	</g>
	<path id="Rectangle-26-Copy" class="st5" d="M52.5,807.5h16c0.6,0,1,0.4,1,1v12c0,0.6-0.4,1-1,1h-16c-0.6,0-1-0.4-1-1v-12
		C51.5,807.9,51.9,807.5,52.5,807.5z"/>
	<path id="Rectangle-27-Copy" class="st5" d="M65.5,809.5h1c0.6,0,1,0.4,1,1v1c0,0.6-0.4,1-1,1h-1c-0.6,0-1-0.4-1-1v-1
		C64.5,809.9,64.9,809.5,65.5,809.5z"/>
	<path id="Rectangle-28-Copy-2" class="st4" d="M53.5,815h10c0.3,0,0.5,0.2,0.5,0.5l0,0c0,0.3-0.2,0.5-0.5,0.5h-10
		c-0.3,0-0.5-0.2-0.5-0.5l0,0C53,815.2,53.2,815,53.5,815z"/>
	<g id="Group-18" transform="translate(14.000000, 807.000000)">
		<path id="Rectangle-26" class="st1" d="M1.5,0.5h16c0.6,0,1,0.4,1,1v12c0,0.6-0.4,1-1,1h-16c-0.6,0-1-0.4-1-1v-12
			C0.5,0.9,0.9,0.5,1.5,0.5z"/>
		<path id="Rectangle-27" class="st1" d="M14.5,2.5h1c0.6,0,1,0.4,1,1v1c0,0.6-0.4,1-1,1h-1c-0.6,0-1-0.4-1-1v-1
			C13.5,2.9,13.9,2.5,14.5,2.5z"/>
		<path id="Rectangle-28" class="st2" d="M2.5,8h10C12.8,8,13,8.2,13,8.5l0,0C13,8.8,12.8,9,12.5,9h-10C2.2,9,2,8.8,2,8.5l0,0
			C2,8.2,2.2,8,2.5,8z"/>
		<path id="Rectangle-28-Copy" class="st2" d="M2.5,11h10c0.3,0,0.5,0.2,0.5,0.5l0,0c0,0.3-0.2,0.5-0.5,0.5h-10
			C2.2,12,2,11.8,2,11.5l0,0C2,11.2,2.2,11,2.5,11z"/>
	</g>
	<path id="Rectangle-28-Copy-3" class="st4" d="M53.5,818h10c0.3,0,0.5,0.2,0.5,0.5l0,0c0,0.3-0.2,0.5-0.5,0.5h-10
		c-0.3,0-0.5-0.2-0.5-0.5l0,0C53,818.2,53.2,818,53.5,818z"/>
	<g id="Rectangle-29">
		<g>
			<path id="path-1_2_" d="M16,841h8c0.6,0,1,0.4,1,1v11c0,0.6-0.4,1-1,1h-8c-0.6,0-1-0.4-1-1v-11C15,841.4,15.4,841,16,841z"/>
		</g>
		<g>
			<path id="path-1_1_" class="st32" d="M16,841h8c0.6,0,1,0.4,1,1v11c0,0.6-0.4,1-1,1h-8c-0.6,0-1-0.4-1-1v-11
				C15,841.4,15.4,841,16,841z"/>
		</g>
	</g>
	<circle id="Oval-12" class="st8" cx="20" cy="852" r="1"/>
	
		<linearGradient id="Rectangle-25_1_" gradientUnits="userSpaceOnUse" x1="-564.75" y1="-206.13" x2="-564.75" y2="-205.13" gradientTransform="matrix(8 0 0 8 4538 2491.04)">
		<stop  offset="0" style="stop-color:#FFFFFF"/>
		<stop  offset="1" style="stop-color:#FAE0B6"/>
	</linearGradient>
	<path id="Rectangle-25" class="st33" d="M17,842h6c0.6,0,1,0.4,1,1v6c0,0.6-0.4,1-1,1h-6c-0.6,0-1-0.4-1-1v-6
		C16,842.4,16.4,842,17,842z"/>
	<g id="Group-7" transform="translate(14.000000, 866.000000)">
		<g id="Group-6-Copy-2" transform="translate(7.000000, 7.000000)">
			<circle id="Oval-11_2_" class="st34" cx="4" cy="4" r="3.5"/>
		</g>
		<circle id="Oval-13" class="st34" cx="12" cy="12" r="11.5"/>
		<path id="Rectangle-30" class="st35" d="M14.1,13.4l2.9,2.9c0.2,0.2,0.2,0.5,0,0.7l0,0c-0.2,0.2-0.5,0.2-0.7,0l-2.9-2.9
			c-0.2-0.2-0.2-0.5,0-0.7l0,0C13.5,13.2,13.9,13.2,14.1,13.4z"/>
	</g>
	<g id="Group-7-Copy-3" transform="translate(58.000000, 866.000000)">
		<g id="Group-6-Copy-2_1_" transform="translate(7.000000, 7.000000)">
			<circle id="Oval-11_3_" class="st36" cx="4" cy="4" r="3.5"/>
		</g>
		<circle id="Oval-13_1_" class="st36" cx="12" cy="12" r="11.5"/>
		<path id="Rectangle-30_1_" class="st37" d="M14.1,13.4l2.9,2.9c0.2,0.2,0.2,0.5,0,0.7l0,0c-0.2,0.2-0.5,0.2-0.7,0l-2.9-2.9
			c-0.2-0.2-0.2-0.5,0-0.7l0,0C13.5,13.2,13.9,13.2,14.1,13.4z"/>
	</g>
	<g id="Group-7-Copy-6" transform="translate(107.000000, 866.000000)">
		<g id="Group-6-Copy-2_2_" transform="translate(7.000000, 7.000000)">
			<circle id="Oval-11_4_" class="st38" cx="4" cy="4" r="3.5"/>
		</g>
		<circle id="Oval-13_2_" class="st38" cx="12" cy="12" r="11.5"/>
		<path id="Rectangle-30_2_" class="st39" d="M14.1,13.4l2.9,2.9c0.2,0.2,0.2,0.5,0,0.7l0,0c-0.2,0.2-0.5,0.2-0.7,0l-2.9-2.9
			c-0.2-0.2-0.2-0.5,0-0.7l0,0C13.5,13.2,13.9,13.2,14.1,13.4z"/>
	</g>
	<g id="Group-7-Copy" transform="translate(14.000000, 904.000000)">
		<circle id="Oval-13_3_" class="st34" cx="12" cy="12" r="11.5"/>
	</g>
	<g id="Group-7-Copy-4" transform="translate(58.000000, 904.000000)">
		<circle id="Oval-13_4_" class="st36" cx="12" cy="12" r="11.5"/>
	</g>
	<g id="Group-7-Copy-7" transform="translate(107.000000, 904.000000)">
		<circle id="Oval-13_5_" class="st38" cx="12" cy="12" r="11.5"/>
	</g>
	<g id="Group-7-Copy-2" transform="translate(14.000000, 943.000000)">
		<circle id="Oval-13_6_" class="st34" cx="12" cy="12" r="11.5"/>
	</g>
	<g id="Group-7-Copy-5" transform="translate(58.000000, 943.000000)">
		<circle id="Oval-13_7_" class="st36" cx="12" cy="12" r="11.5"/>
	</g>
	<g id="Group-7-Copy-8" transform="translate(107.000000, 943.000000)">
		<circle id="Oval-13_8_" class="st38" cx="12" cy="12" r="11.5"/>
	</g>
	<path id="Combined-Shape_39_" class="st35" d="M26.3,920c-0.1,0-0.1-0.1-0.2-0.1l-2.8-2.8c-0.2-0.2-0.2-0.5,0-0.7s0.5-0.2,0.7,0
		l1.9,1.9v-7.8c0-0.3,0.2-0.5,0.5-0.5s0.5,0.2,0.5,0.5v8l2.2-2.2c0.2-0.2,0.5-0.2,0.7,0s0.2,0.5,0,0.7l-2.8,2.8c0,0-0.1,0.1-0.2,0.1
		h3.6c0.3,0,0.5,0.2,0.5,0.5s-0.2,0.5-0.5,0.5h-8c-0.3,0-0.5-0.2-0.5-0.5s0.2-0.5,0.5-0.5L26.3,920L26.3,920z"/>
	<path id="Combined-Shape-Copy-17" class="st37" d="M70.3,920c-0.1,0-0.1-0.1-0.2-0.1l-2.8-2.8c-0.2-0.2-0.2-0.5,0-0.7
		s0.5-0.2,0.7,0l1.9,1.9v-7.8c0-0.3,0.2-0.5,0.5-0.5s0.5,0.2,0.5,0.5v8l2.2-2.2c0.2-0.2,0.5-0.2,0.7,0s0.2,0.5,0,0.7l-2.8,2.8
		c0,0-0.1,0.1-0.2,0.1h3.6c0.3,0,0.5,0.2,0.5,0.5s-0.2,0.5-0.5,0.5h-8c-0.3,0-0.5-0.2-0.5-0.5s0.2-0.5,0.5-0.5L70.3,920L70.3,920z"
		/>
	<path id="Combined-Shape-Copy-19" class="st39" d="M119.3,920c-0.1,0-0.1-0.1-0.2-0.1l-2.8-2.8c-0.2-0.2-0.2-0.5,0-0.7
		s0.5-0.2,0.7,0l1.9,1.9v-7.8c0-0.3,0.2-0.5,0.5-0.5s0.5,0.2,0.5,0.5v8l2.2-2.2c0.2-0.2,0.5-0.2,0.7,0s0.2,0.5,0,0.7l-2.8,2.8
		c0,0-0.1,0.1-0.2,0.1h3.6c0.3,0,0.5,0.2,0.5,0.5s-0.2,0.5-0.5,0.5h-8c-0.3,0-0.5-0.2-0.5-0.5s0.2-0.5,0.5-0.5L119.3,920L119.3,920z
		"/>
	<path id="Combined-Shape_40_" class="st35" d="M26,954.3l4.2-4.2c0.2-0.2,0.5-0.2,0.7,0s0.2,0.5,0,0.7l-4.2,4.2l4.2,4.2
		c0.2,0.2,0.2,0.5,0,0.7s-0.5,0.2-0.7,0l-4.2-4.2l-4.2,4.2c-0.2,0.2-0.5,0.2-0.7,0s-0.2-0.5,0-0.7l4.2-4.2l-4.2-4.2
		c-0.2-0.2-0.2-0.5,0-0.7s0.5-0.2,0.7,0L26,954.3z"/>
	<path id="Combined-Shape-Copy-18" class="st37" d="M70,954.3l4.2-4.2c0.2-0.2,0.5-0.2,0.7,0s0.2,0.5,0,0.7l-4.2,4.2l4.2,4.2
		c0.2,0.2,0.2,0.5,0,0.7s-0.5,0.2-0.7,0l-4.2-4.2l-4.2,4.2c-0.2,0.2-0.5,0.2-0.7,0s-0.2-0.5,0-0.7l4.2-4.2l-4.2-4.2
		c-0.2-0.2-0.2-0.5,0-0.7s0.5-0.2,0.7,0L70,954.3z"/>
	<path id="Combined-Shape-Copy-20" class="st39" d="M119,954.3l4.2-4.2c0.2-0.2,0.5-0.2,0.7,0s0.2,0.5,0,0.7l-4.2,4.2l4.2,4.2
		c0.2,0.2,0.2,0.5,0,0.7s-0.5,0.2-0.7,0l-4.2-4.2l-4.2,4.2c-0.2,0.2-0.5,0.2-0.7,0s-0.2-0.5,0-0.7l4.2-4.2l-4.2-4.2
		c-0.2-0.2-0.2-0.5,0-0.7s0.5-0.2,0.7,0L119,954.3z"/>
	<g id="Group-29" transform="translate(99.000000, 990.000000)">
		<path id="Rectangle-38-Copy-2" class="st40" d="M4,0h28c2.2,0,4,1.8,4,4v28c0,2.2-1.8,4-4,4H4c-2.2,0-4-1.8-4-4V4C0,1.8,1.8,0,4,0
			z"/>
		<path id="Combined-Shape_41_" class="st8" d="M18,20.8l-4.7,6.1H9l6.8-8.9L9,9.1h4.3l4.7,6.1l4.7-6.1H27L20.2,18l6.8,8.9h-4.3
			L18,20.8z"/>
	</g>
	<g id="Group-28" transform="translate(55.000000, 990.000000)">
		<path id="Rectangle-38-Copy" class="st41" d="M4,0h28c2.2,0,4,1.8,4,4v28c0,2.2-1.8,4-4,4H4c-2.2,0-4-1.8-4-4V4C0,1.8,1.8,0,4,0z"
			/>
		<path id="Combined-Shape_42_" class="st8" d="M16,12.5l6,10.3c1.1,1.9,0.3,4.4-1.8,5.6s-4.7,0.7-5.8-1.2c-1.1-1.9-0.3-4.4,1.8-5.6
			c1.2-0.7,2.5-0.8,3.7-0.4L13.3,9.8l0.1-0.1l0,0c0,0,0.1,0,0.2-0.1l0.5-0.3l0,0c1.4-0.8,4.5-2.8,5-4.3c0.6-2,3,3.3,0.6,5.3
			C18.1,11.7,16.7,12.2,16,12.5z"/>
	</g>
	<g id="Group-30" transform="translate(11.000000, 1037.000000)">
		<path id="Rectangle-38-Copy-3" class="st42" d="M4,0h28c2.2,0,4,1.8,4,4v28c0,2.2-1.8,4-4,4H4c-2.2,0-4-1.8-4-4V4C0,1.8,1.8,0,4,0
			z"/>
		<g id="pdf" transform="translate(8.000000, 8.000000)">
			<path id="Shape" class="st8" d="M13.1,13.3c-2.3,0.5-4.4,1.2-6.6,2.1c-1.7,3-3.3,4.6-4.7,4.6c-0.3,0-0.6-0.1-0.8-0.2
				c-0.6-0.3-1-0.9-1-1.5c0-0.5,0.1-1.9,5.4-4.2c1.2-2.2,2.2-4.5,2.9-6.9C7.7,5.9,6.2,2.6,7.2,0.9C7.5,0.3,8.2,0,8.9,0
				c0.6,0,1.1,0.3,1.4,0.7C11,1.7,11,3.8,10,6.9c0.9,1.7,2.1,3.2,3.4,4.5c1.2-0.2,2.3-0.4,3.5-0.4c2.6,0.1,3,1.3,2.9,2
				c0,1.9-1.8,1.9-2.8,1.9C15.7,14.8,14.2,14.2,13.1,13.3z M1.7,18.4l0.2-0.1c0.8-0.3,1.4-0.8,1.8-1.6C2.8,17.1,2.2,17.7,1.7,18.4
				L1.7,18.4z M9,1.7H8.9c-0.1,0-0.2,0-0.2,0.1C8.4,2.7,8.6,3.7,9,4.6C9.3,3.6,9.3,2.6,9,1.7L9,1.7z M9.4,9.8L9.4,9.8L9.4,9.8
				c-0.6,1.3-1.2,2.6-1.8,3.8l0.1-0.1v0.1c1.2-0.4,2.5-0.8,3.8-1.1l-0.1-0.1h0.2C10.8,11.7,10.1,10.7,9.4,9.8L9.4,9.8z M17,12.7
				c-0.5,0-0.9,0-1.4,0.1c0.6,0.3,1.1,0.4,1.7,0.4c0.4,0.1,0.8,0,1.1-0.1C18.3,13,18.1,12.7,17,12.7L17,12.7z"/>
		</g>
	</g>
	<path id="Combined-Shape_43_" class="st8" d="M31,1008l6,5.9V999h3v19h-2.9l0,0l-8-8l-8,8l0,0h-3v-19h3v14.9l8-8L31,1008L31,1008z"
		/>
	<g id="Group-31" transform="translate(55.000000, 1037.000000)">
		<path id="Rectangle-38-Copy-4" class="st43" d="M4,0h28c2.2,0,4,1.8,4,4v28c0,2.2-1.8,4-4,4H4c-2.2,0-4-1.8-4-4V4C0,1.8,1.8,0,4,0
			z"/>
		<g id="Group-8" transform="translate(9.000000, 6.000000)">
			<path id="Combined-Shape_44_" class="st8" d="M11,0l7,7v15c0,1.1-0.9,2-2,2H2c-1.1,0-2-0.9-2-2V2c0-1.1,0.9-2,2-2H11z"/>
			<path id="Triangle-3" class="st44" d="M11,0l7,7h-6c-0.6,0-1-0.4-1-1V0z"/>
		</g>
	</g>
	<circle id="Oval-15" class="st45" cx="32" cy="1110" r="20"/>
	<path id="Combined-Shape_45_" class="st46" d="M29,1118l12.7-12.7c0.4-0.4,1-0.4,1.4,0s0.4,1,0,1.4l-13.4,13.4
		c-0.4,0.4-1,0.4-1.4,0l-6.4-6.4c-0.4-0.4-0.4-1,0-1.4s1-0.4,1.4,0L29,1118z"/>
	<circle id="Oval-16" class="st47" cx="35" cy="1166" r="28"/>
	<circle id="Oval-16-Copy-2" class="st47" cx="35" cy="1227" r="28"/>
	<circle id="Oval-16-Copy-4" class="st48" cx="35" cy="1290" r="28"/>
	<circle id="Oval-16-Copy" class="st47" cx="110" cy="1166" r="28"/>
	<circle id="Oval-16-Copy-3" class="st47" cx="110" cy="1227" r="28"/>
	<circle id="Oval-16-Copy-5" class="st48" cx="110" cy="1290" r="28"/>
	<path id="Combined-Shape_46_" class="st8" d="M26.7,1167c0-0.3,0.1-0.5,0.3-0.7l11.3-11.3c0.4-0.4,1-0.4,1.4,0s0.4,1,0,1.4
		L29.1,1167l10.6,10.6c0.4,0.4,0.4,1,0,1.4s-1,0.4-1.4,0L27,1167.7C26.8,1167.5,26.7,1167.3,26.7,1167L26.7,1167z"/>
	<path id="Combined-Shape-Copy-22" class="st4" d="M26.7,1228c0-0.3,0.1-0.5,0.3-0.7l11.3-11.3c0.4-0.4,1-0.4,1.4,0s0.4,1,0,1.4
		L29.1,1228l10.6,10.6c0.4,0.4,0.4,1,0,1.4s-1,0.4-1.4,0L27,1228.7C26.8,1228.5,26.7,1228.3,26.7,1228L26.7,1228z"/>
	<path id="Combined-Shape-Copy-24" class="st4" d="M26.7,1291c0-0.3,0.1-0.5,0.3-0.7l11.3-11.3c0.4-0.4,1-0.4,1.4,0s0.4,1,0,1.4
		L29.1,1291l10.6,10.6c0.4,0.4,0.4,1,0,1.4s-1,0.4-1.4,0L27,1291.7C26.8,1291.5,26.7,1291.3,26.7,1291L26.7,1291z"/>
	<path id="Combined-Shape-Copy-21" class="st8" d="M120.3,1167c0-0.3-0.1-0.5-0.3-0.7l-11.3-11.3c-0.4-0.4-1-0.4-1.4,0s-0.4,1,0,1.4
		l10.6,10.6l-10.6,10.6c-0.4,0.4-0.4,1,0,1.4s1,0.4,1.4,0l11.3-11.3C120.2,1167.5,120.3,1167.3,120.3,1167L120.3,1167z"/>
	<path id="Combined-Shape-Copy-23" class="st4" d="M120.3,1228c0-0.3-0.1-0.5-0.3-0.7l-11.3-11.3c-0.4-0.4-1-0.4-1.4,0s-0.4,1,0,1.4
		l10.6,10.6l-10.6,10.6c-0.4,0.4-0.4,1,0,1.4s1,0.4,1.4,0l11.3-11.3C120.2,1228.5,120.3,1228.3,120.3,1228L120.3,1228z"/>
	<path id="Combined-Shape-Copy-25" class="st4" d="M120.3,1291c0-0.3-0.1-0.5-0.3-0.7l-11.3-11.3c-0.4-0.4-1-0.4-1.4,0s-0.4,1,0,1.4
		l10.6,10.6l-10.6,10.6c-0.4,0.4-0.4,1,0,1.4s1,0.4,1.4,0l11.3-11.3C120.2,1291.5,120.3,1291.3,120.3,1291L120.3,1291z"/>
	<g id="Group-9" transform="translate(20.000000, 1339.000000)">
		<path id="Rectangle-45" class="st49" d="M4.5,0.5h14c2.2,0,4,1.8,4,4v17c0,2.2-1.8,4-4,4h-14c-2.2,0-4-1.8-4-4v-17
			C0.5,2.3,2.3,0.5,4.5,0.5z"/>
		<path id="Rectangle-46" class="st49" d="M18.5,0.5h-14V7c0,1.4,1.1,2.5,2.5,2.5h9c1.4,0,2.5-1.1,2.5-2.5V0.5z"/>
		<path id="Rectangle-46-Copy" class="st49" d="M4.5,24.5h14V23c0-1.4-1.1-2.5-2.5-2.5H7c-1.4,0-2.5,1.1-2.5,2.5V24.5z"/>
		<path id="Rectangle-47" class="st8" d="M14.5,3L14.5,3C14.8,3,15,3.2,15,3.5v3C15,6.8,14.8,7,14.5,7l0,0C14.2,7,14,6.8,14,6.5v-3
			C14,3.2,14.2,3,14.5,3z"/>
	</g>
	<g id="Group-9-Copy" transform="translate(64.000000, 1339.000000)">
		<path id="Rectangle-45_1_" class="st5" d="M4.5,0.5h14c2.2,0,4,1.8,4,4v17c0,2.2-1.8,4-4,4h-14c-2.2,0-4-1.8-4-4v-17
			C0.5,2.3,2.3,0.5,4.5,0.5z"/>
		<path id="Rectangle-46_1_" class="st5" d="M18.5,0.5h-14V7c0,1.4,1.1,2.5,2.5,2.5h9c1.4,0,2.5-1.1,2.5-2.5V0.5z"/>
		<path id="Rectangle-46-Copy_1_" class="st5" d="M4.5,24.5h14V23c0-1.4-1.1-2.5-2.5-2.5H7c-1.4,0-2.5,1.1-2.5,2.5V24.5z"/>
		<path id="Rectangle-47_1_" class="st4" d="M14.5,3L14.5,3C14.8,3,15,3.2,15,3.5v3C15,6.8,14.8,7,14.5,7l0,0C14.2,7,14,6.8,14,6.5
			v-3C14,3.2,14.2,3,14.5,3z"/>
	</g>
	<g id="Group-10" transform="translate(21.000000, 1379.000000)">
		<path id="Rectangle-49" class="st49" d="M6.5,4.5h9c1.1,0,2,0.9,2,2v9c0,1.1-0.9,2-2,2h-9c-1.1,0-2-0.9-2-2v-9
			C4.5,5.4,5.4,4.5,6.5,4.5z"/>
		<path id="Combined-Shape_47_" class="st8" d="M0.5,0h5C5.8,0,6,0.2,6,0.5S5.8,1,5.5,1H1v4.5C1,5.8,0.8,6,0.5,6S0,5.8,0,5.5v-5
			C0,0.2,0.2,0,0.5,0L0.5,0z"/>
		<path id="Combined-Shape-Copy-26" class="st8" d="M0.5,22h5C5.8,22,6,21.8,6,21.5S5.8,21,5.5,21H1v-4.5C1,16.2,0.8,16,0.5,16
			S0,16.2,0,16.5v5C0,21.8,0.2,22,0.5,22L0.5,22z"/>
		<path id="Combined-Shape-Copy-27" class="st8" d="M21.5,22h-5c-0.3,0-0.5-0.2-0.5-0.5s0.2-0.5,0.5-0.5H21v-4.5
			c0-0.3,0.2-0.5,0.5-0.5s0.5,0.2,0.5,0.5v5C22,21.8,21.8,22,21.5,22L21.5,22z"/>
		<path id="Combined-Shape-Copy-28" class="st8" d="M21.5,0h-5C16.2,0,16,0.2,16,0.5S16.2,1,16.5,1H21v4.5C21,5.8,21.2,6,21.5,6
			S22,5.8,22,5.5v-5C22,0.2,21.8,0,21.5,0L21.5,0z"/>
	</g>
	<g id="Group-10-Copy" transform="translate(65.000000, 1379.000000)">
		<path id="Rectangle-49_1_" class="st5" d="M6.5,4.5h9c1.1,0,2,0.9,2,2v9c0,1.1-0.9,2-2,2h-9c-1.1,0-2-0.9-2-2v-9
			C4.5,5.4,5.4,4.5,6.5,4.5z"/>
		<path id="Combined-Shape_48_" class="st4" d="M0.5,0h5C5.8,0,6,0.2,6,0.5S5.8,1,5.5,1H1v4.5C1,5.8,0.8,6,0.5,6S0,5.8,0,5.5v-5
			C0,0.2,0.2,0,0.5,0L0.5,0z"/>
		<path id="Combined-Shape-Copy-26_1_" class="st4" d="M0.5,22h5C5.8,22,6,21.8,6,21.5S5.8,21,5.5,21H1v-4.5C1,16.2,0.8,16,0.5,16
			S0,16.2,0,16.5v5C0,21.8,0.2,22,0.5,22L0.5,22z"/>
		<path id="Combined-Shape-Copy-27_1_" class="st4" d="M21.5,22h-5c-0.3,0-0.5-0.2-0.5-0.5s0.2-0.5,0.5-0.5H21v-4.5
			c0-0.3,0.2-0.5,0.5-0.5s0.5,0.2,0.5,0.5v5C22,21.8,21.8,22,21.5,22L21.5,22z"/>
		<path id="Combined-Shape-Copy-28_1_" class="st4" d="M21.5,0h-5C16.2,0,16,0.2,16,0.5S16.2,1,16.5,1H21v4.5C21,5.8,21.2,6,21.5,6
			S22,5.8,22,5.5v-5C22,0.2,21.8,0,21.5,0L21.5,0z"/>
	</g>
	<g id="Group-11" transform="translate(22.000000, 1414.000000)">
		<path id="Rectangle-51" class="st8" d="M1.1,0.4l6.4,6.4c0.2,0.2,0.2,0.5,0,0.7l0,0C7.3,7.7,7,7.7,6.8,7.5L0.4,1.1
			c-0.2-0.2-0.2-0.5,0-0.7l0,0C0.5,0.2,0.9,0.2,1.1,0.4z"/>
		<path id="Rectangle-51-Copy-2" class="st8" d="M1.1,19.4L7.5,13c0.2-0.2,0.2-0.5,0-0.7l0,0c-0.2-0.2-0.5-0.2-0.7,0l-6.4,6.4
			c-0.2,0.2-0.2,0.5,0,0.7l0,0C0.5,19.6,0.9,19.6,1.1,19.4z"/>
		<path id="Rectangle-51-Copy" class="st8" d="M19.7,0.4l-6.4,6.4c-0.2,0.2-0.2,0.5,0,0.7l0,0c0.2,0.2,0.5,0.2,0.7,0l6.4-6.4
			c0.2-0.2,0.2-0.5,0-0.7l0,0C20.2,0.2,19.9,0.2,19.7,0.4z"/>
		<path id="Rectangle-51-Copy-3" class="st8" d="M19.7,19.4L13.3,13c-0.2-0.2-0.2-0.5,0-0.7l0,0c0.2-0.2,0.5-0.2,0.7,0l6.4,6.4
			c0.2,0.2,0.2,0.5,0,0.7l0,0C20.2,19.6,19.9,19.6,19.7,19.4z"/>
		<path id="Combined-Shape_49_" class="st8" d="M7.5,8h-5C2.2,8,2,7.8,2,7.5S2.2,7,2.5,7H7V2.5C7,2.2,7.2,2,7.5,2S8,2.2,8,2.5v5
			C8,7.8,7.8,8,7.5,8L7.5,8z"/>
		<path id="Combined-Shape-Copy-30" class="st8" d="M7.5,12h-5C2.2,12,2,12.2,2,12.5S2.2,13,2.5,13H7v4.5C7,17.8,7.2,18,7.5,18
			S8,17.8,8,17.5v-5C8,12.2,7.8,12,7.5,12L7.5,12z"/>
		<path id="Combined-Shape-Copy-29" class="st8" d="M13.5,8h5C18.8,8,19,7.8,19,7.5S18.8,7,18.5,7H14V2.5C14,2.2,13.8,2,13.5,2
			S13,2.2,13,2.5v5C13,7.8,13.2,8,13.5,8L13.5,8z"/>
		<path id="Combined-Shape-Copy-31" class="st8" d="M13.5,12h5c0.3,0,0.5,0.2,0.5,0.5S18.8,13,18.5,13H14v4.5c0,0.3-0.2,0.5-0.5,0.5
			S13,17.8,13,17.5v-5C13,12.2,13.2,12,13.5,12L13.5,12z"/>
	</g>
	<g id="Group-11-Copy" transform="translate(65.000000, 1414.000000)">
		<path id="Rectangle-51_1_" class="st4" d="M1.1,0.4l6.4,6.4c0.2,0.2,0.2,0.5,0,0.7l0,0C7.3,7.7,7,7.7,6.8,7.5L0.4,1.1
			c-0.2-0.2-0.2-0.5,0-0.7l0,0C0.5,0.2,0.9,0.2,1.1,0.4z"/>
		<path id="Rectangle-51-Copy-2_1_" class="st4" d="M1.1,19.4L7.5,13c0.2-0.2,0.2-0.5,0-0.7l0,0c-0.2-0.2-0.5-0.2-0.7,0l-6.4,6.4
			c-0.2,0.2-0.2,0.5,0,0.7l0,0C0.5,19.6,0.9,19.6,1.1,19.4z"/>
		<path id="Rectangle-51-Copy_1_" class="st4" d="M19.7,0.4l-6.4,6.4c-0.2,0.2-0.2,0.5,0,0.7l0,0c0.2,0.2,0.5,0.2,0.7,0l6.4-6.4
			c0.2-0.2,0.2-0.5,0-0.7l0,0C20.2,0.2,19.9,0.2,19.7,0.4z"/>
		<path id="Rectangle-51-Copy-3_1_" class="st4" d="M19.7,19.4L13.3,13c-0.2-0.2-0.2-0.5,0-0.7l0,0c0.2-0.2,0.5-0.2,0.7,0l6.4,6.4
			c0.2,0.2,0.2,0.5,0,0.7l0,0C20.2,19.6,19.9,19.6,19.7,19.4z"/>
		<path id="Combined-Shape_50_" class="st4" d="M7.5,8h-5C2.2,8,2,7.8,2,7.5S2.2,7,2.5,7H7V2.5C7,2.2,7.2,2,7.5,2S8,2.2,8,2.5v5
			C8,7.8,7.8,8,7.5,8L7.5,8z"/>
		<path id="Combined-Shape-Copy-30_1_" class="st4" d="M7.5,12h-5C2.2,12,2,12.2,2,12.5S2.2,13,2.5,13H7v4.5C7,17.8,7.2,18,7.5,18
			S8,17.8,8,17.5v-5C8,12.2,7.8,12,7.5,12L7.5,12z"/>
		<path id="Combined-Shape-Copy-29_1_" class="st4" d="M13.5,8h5C18.8,8,19,7.8,19,7.5S18.8,7,18.5,7H14V2.5C14,2.2,13.8,2,13.5,2
			S13,2.2,13,2.5v5C13,7.8,13.2,8,13.5,8L13.5,8z"/>
		<path id="Combined-Shape-Copy-31_1_" class="st4" d="M13.5,12h5c0.3,0,0.5,0.2,0.5,0.5S18.8,13,18.5,13H14v4.5
			c0,0.3-0.2,0.5-0.5,0.5S13,17.8,13,17.5v-5C13,12.2,13.2,12,13.5,12L13.5,12z"/>
	</g>
	<path id="Combined-Shape_51_" class="st2" d="M124,1352h6.5c0.3,0,0.5,0.2,0.5,0.5s-0.2,0.5-0.5,0.5H124v6.5c0,0.3-0.2,0.5-0.5,0.5
		s-0.5-0.2-0.5-0.5v-6.5h-6.5c-0.3,0-0.5-0.2-0.5-0.5s0.2-0.5,0.5-0.5h6.5v-6.5c0-0.3,0.2-0.5,0.5-0.5s0.5,0.2,0.5,0.5V1352z"/>
	<g id="Group-12" transform="translate(9.000000, 1485.000000)">
		<path id="Combined-Shape_52_" class="st1" d="M18,3.5H8.6L7,0.9C6.9,0.7,6.5,0.5,6.2,0.5H1C0.7,0.5,0.5,0.7,0.5,1v15
			c0,0.3,0.2,0.5,0.5,0.5h17c0.3,0,0.5-0.2,0.5-0.5V4C18.5,3.7,18.3,3.5,18,3.5z"/>
		<path id="Rectangle-57" class="st2" d="M3,6.5C3,6.2,3.2,6,3.5,6h15C18.8,6,19,6.2,19,6.5l0,0C19,6.8,18.8,7,18.5,7h-4.2H3.5
			C3.2,7,3,6.8,3,6.5L3,6.5z"/>
	</g>
	<g id="Group-12-Copy" transform="translate(47.000000, 1485.000000)">
		<path id="Combined-Shape_53_" class="st5" d="M18,3.5H8.6L7,0.9C6.9,0.7,6.5,0.5,6.2,0.5H1C0.7,0.5,0.5,0.7,0.5,1v15
			c0,0.3,0.2,0.5,0.5,0.5h17c0.3,0,0.5-0.2,0.5-0.5V4C18.5,3.7,18.3,3.5,18,3.5z"/>
		<path id="Rectangle-57_1_" class="st4" d="M3.5,6h15C18.8,6,19,6.2,19,6.5l0,0C19,6.8,18.8,7,18.5,7h-15C3.2,7,3,6.8,3,6.5l0,0
			C3,6.2,3.2,6,3.5,6z"/>
	</g>
	<path id="Combined-Shape_54_" class="st2" d="M22,1533h4.5c0.3,0,0.5,0.2,0.5,0.5s-0.2,0.5-0.5,0.5h-5c-0.1,0-0.3-0.1-0.3-0.1
		c-0.1-0.1-0.1-0.2-0.1-0.3v-4c0-0.3,0.2-0.5,0.5-0.5s0.5,0.2,0.5,0.5v3.4H22z M22,1543c-5.5,0-10-4.5-10-10s4.5-10,10-10
		s10,4.5,10,10S27.5,1543,22,1543z M22,1542c5,0,9-4,9-9s-4-9-9-9s-9,4-9,9S17,1542,22,1542z"/>
	<path id="Combined-Shape-Copy-35" class="st4" d="M72,1533h4.5c0.3,0,0.5,0.2,0.5,0.5s-0.2,0.5-0.5,0.5h-5c-0.1,0-0.3-0.1-0.3-0.1
		c-0.1-0.1-0.1-0.2-0.1-0.3v-4c0-0.3,0.2-0.5,0.5-0.5s0.5,0.2,0.5,0.5L72,1533L72,1533z M72,1543c-5.5,0-10-4.5-10-10s4.5-10,10-10
		s10,4.5,10,10S77.5,1543,72,1543z M72,1542c5,0,9-4,9-9s-4-9-9-9s-9,4-9,9S67,1542,72,1542z"/>
	<path id="Combined-Shape-Copy-36" class="st4" d="M124,1533v-3.5c0-0.3-0.2-0.5-0.5-0.5s-0.5,0.2-0.5,0.5v4c0,0.1,0.1,0.3,0.1,0.4
		c0.1,0.1,0.2,0.1,0.3,0.1h5c0.3,0,0.5-0.2,0.5-0.5s-0.2-0.5-0.5-0.5H124z M124,1543c-5.5,0-10-4.5-10-10s4.5-10,10-10s10,4.5,10,10
		S129.5,1543,124,1543z"/>
	<path id="Combined-Shape_55_" class="st2" d="M21.7,1570.7l2.6,2.6c0.7-0.7,1.7-1.1,2.7-1.1c2.2,0,4,1.7,4,3.9s-1.8,3.9-4,3.9
		s-4-1.7-4-3.9c0-0.8,0.2-1.5,0.6-2.1l-2.6-2.6l-2.6,2.6c0.4,0.6,0.6,1.3,0.6,2.1c0,2.2-1.8,3.9-4,3.9s-4-1.7-4-3.9s1.8-3.9,4-3.9
		c1.1,0,2,0.4,2.7,1.1l2.6-2.6l-7-7c-0.2-0.2-0.2-0.5,0-0.7s0.5-0.2,0.7,0l7,7l7-7c0.2-0.2,0.5-0.2,0.7,0s0.2,0.5,0,0.7L21.7,1570.7
		z M17.2,1574.1c-0.5-0.6-1.4-1-2.2-1c-1.7,0-3,1.3-3,2.9s1.3,2.9,3,2.9s3-1.3,3-2.9c0-0.6-0.2-1.2-0.6-1.7c0,0-0.1,0-0.1-0.1
		C17.3,1574.3,17.3,1574.2,17.2,1574.1z M24.5,1574.4c-0.3,0.5-0.5,1.1-0.5,1.7c0,1.6,1.3,2.9,3,2.9s3-1.3,3-2.9s-1.3-2.9-3-2.9
		c-0.9,0-1.7,0.4-2.2,0.9c0,0.1-0.1,0.2-0.1,0.2C24.6,1574.4,24.6,1574.4,24.5,1574.4z"/>
	<path id="Combined-Shape-Copy-39" class="st4" d="M73.7,1570.7l2.6,2.6c0.7-0.7,1.7-1.1,2.7-1.1c2.2,0,4,1.7,4,3.9s-1.8,3.9-4,3.9
		s-4-1.7-4-3.9c0-0.8,0.2-1.5,0.6-2.1l-2.6-2.6l-2.6,2.6c0.4,0.6,0.6,1.3,0.6,2.1c0,2.2-1.8,3.9-4,3.9s-4-1.7-4-3.9s1.8-3.9,4-3.9
		c1.1,0,2,0.4,2.7,1.1l2.6-2.6l-7-7c-0.2-0.2-0.2-0.5,0-0.7s0.5-0.2,0.7,0l7,7l7-7c0.2-0.2,0.5-0.2,0.7,0s0.2,0.5,0,0.7L73.7,1570.7
		z M69.2,1574.1c-0.5-0.6-1.4-1-2.2-1c-1.7,0-3,1.3-3,2.9s1.3,2.9,3,2.9s3-1.3,3-2.9c0-0.6-0.2-1.2-0.6-1.7c0,0-0.1,0-0.1-0.1
		C69.3,1574.3,69.3,1574.2,69.2,1574.1z M76.5,1574.4c-0.3,0.5-0.5,1.1-0.5,1.7c0,1.6,1.3,2.9,3,2.9s3-1.3,3-2.9s-1.3-2.9-3-2.9
		c-0.9,0-1.7,0.4-2.2,0.9c0,0.1-0.1,0.2-0.1,0.2C76.6,1574.4,76.6,1574.4,76.5,1574.4z"/>
	<circle id="Oval-20" class="st50" cx="16" cy="1606" r="5"/>
	<circle id="Oval-20-Copy-3" class="st51" cx="79" cy="1606" r="5"/>
	<g id="Group-26" transform="translate(53.000000, 1601.000000)">
		<circle id="Combined-Shape_56_" class="st52" cx="5" cy="5" r="5"/>
		<path id="Rectangle-61" class="st8" d="M2.7,4.3h4.6C7.7,4.3,8,4.6,8,5l0,0c0,0.4-0.3,0.7-0.7,0.7H2.7C2.3,5.7,2,5.4,2,5l0,0
			C2,4.6,2.3,4.3,2.7,4.3z"/>
	</g>
	<circle id="Combined-Shape_57_" class="st51" cx="37" cy="1606" r="5"/>
	<path id="Combined-Shape_58_" class="st8" d="M37,1607h2.5c0.3,0,0.5,0.2,0.5,0.5s-0.2,0.5-0.5,0.5h-3c-0.3,0-0.5-0.2-0.5-0.5v-3
		c0-0.3,0.2-0.5,0.5-0.5s0.5,0.2,0.5,0.5V1607z"/>
	<g id="勾" transform="translate(95.000000, 1602.000000)">
		<path id="Shape_1_" class="st4" d="M1,3.7l2.3,1.9l5.8-5.4c0,0,0.4-0.4,0.7-0.1c0.1,0.1,0.2,0.3,0,0.7l-6,7.1c0,0-0.5,0.6-1,0
			L0.1,4.4c0,0-0.3-0.5,0.1-0.8C0.3,3.5,0.6,3.4,1,3.7L1,3.7L1,3.7z"/>
	</g>
	<g id="Group-13" transform="translate(9.000000, 1636.000000)">
		<g id="Group-14">
			<rect id="Rectangle-11" y="0" class="st4" width="18" height="18"/>
		</g>
	</g>
	<g id="Group-15" transform="translate(12.000000, 1639.000000)">
		<path id="Rectangle-62" class="st8" d="M1.5,5h10C11.8,5,12,5.2,12,5.5l0,0C12,5.8,11.8,6,11.5,6h-10C1.2,6,1,5.8,1,5.5l0,0
			C1,5.2,1.2,5,1.5,5z"/>
		<path id="Rectangle-63" class="st8" d="M1.5,5L1.5,5C1.8,5,2,5.2,2,5.5v4C2,9.8,1.8,10,1.5,10l0,0C1.2,10,1,9.8,1,9.5v-4
			C1,5.2,1.2,5,1.5,5z"/>
		<path id="Rectangle-63-Copy" class="st8" d="M11.5,5L11.5,5C11.8,5,12,5.2,12,5.5v4c0,0.3-0.2,0.5-0.5,0.5l0,0
			C11.2,10,11,9.8,11,9.5v-4C11,5.2,11.2,5,11.5,5z"/>
		<path id="Rectangle-63-Copy-2" class="st8" d="M6.5,2L6.5,2C6.8,2,7,2.2,7,2.5v7C7,9.8,6.8,10,6.5,10l0,0C6.2,10,6,9.8,6,9.5v-7
			C6,2.2,6.2,2,6.5,2z"/>
		<path id="Rectangle-64" class="st8" d="M6,0h1c0.6,0,1,0.4,1,1v1c0,0.6-0.4,1-1,1H6C5.4,3,5,2.6,5,2V1C5,0.4,5.4,0,6,0z"/>
		<path id="Rectangle-64-Copy" class="st8" d="M1,8h1c0.6,0,1,0.4,1,1v1c0,0.6-0.4,1-1,1H1c-0.6,0-1-0.4-1-1V9C0,8.4,0.4,8,1,8z"/>
		<path id="Rectangle-64-Copy-2" class="st8" d="M6,8h1c0.6,0,1,0.4,1,1v1c0,0.6-0.4,1-1,1H6c-0.6,0-1-0.4-1-1V9C5,8.4,5.4,8,6,8z"
			/>
		<path id="Rectangle-64-Copy-3" class="st8" d="M11,8h1c0.6,0,1,0.4,1,1v1c0,0.6-0.4,1-1,1h-1c-0.6,0-1-0.4-1-1V9
			C10,8.4,10.4,8,11,8z"/>
	</g>
	<g id="Group-16" transform="translate(9.000000, 1670.000000)">
		<path id="Rectangle-65" class="st1" d="M2.5,0.5h11c1.1,0,2,0.9,2,2v10c0,1.1-0.9,2-2,2h-11c-1.1,0-2-0.9-2-2v-10
			C0.5,1.4,1.4,0.5,2.5,0.5z"/>
		<path id="Combined-Shape_59_" class="st1" d="M15.5,4.7v5.2l3.9,2.2c0.6,0.4,1,0.1,1-0.6V3.3c0-0.7-0.4-1-1-0.6L15.5,4.7z"/>
		<circle id="Oval-21" class="st2" cx="4.5" cy="4.5" r="1.5"/>
	</g>
	<g id="Group-17" transform="translate(47.000000, 1670.000000)">
		<g id="Group-16-Copy">
			<path id="Rectangle-65_1_" class="st5" d="M2.5,0.5h11c1.1,0,2,0.9,2,2v10c0,1.1-0.9,2-2,2h-11c-1.1,0-2-0.9-2-2v-10
				C0.5,1.4,1.4,0.5,2.5,0.5z"/>
			<path id="Combined-Shape_60_" class="st5" d="M15.5,4.7v5.2l3.9,2.2c0.6,0.4,1,0.1,1-0.6V3.3c0-0.7-0.4-1-1-0.6L15.5,4.7z"/>
			<circle id="Oval-21_1_" class="st4" cx="4.5" cy="4.5" r="1.5"/>
		</g>
	</g>
	<path id="Combined-Shape_61_" class="st2" d="M16.5,1719v-2c-3.1-0.3-5.5-2.8-5.5-6v-2c0-0.3,0.2-0.5,0.5-0.5s0.5,0.2,0.5,0.5v2
		c0,2.8,2.2,5,5,5s5-2.2,5-5v-2c0-0.3,0.2-0.5,0.5-0.5s0.5,0.2,0.5,0.5v2c0,3.1-2.4,5.7-5.5,6v2h2c0.3,0,0.5,0.2,0.5,0.5
		s-0.2,0.5-0.5,0.5h-5c-0.3,0-0.5-0.2-0.5-0.5s0.2-0.5,0.5-0.5H16.5z M13,1705c0-2.2,1.8-4,4-4s4,1.8,4,4v6c0,2.2-1.8,4-4,4
		s-4-1.8-4-4V1705z M14,1705v6c0,1.7,1.3,3,3,3s3-1.3,3-3v-6c0-1.7-1.3-3-3-3S14,1703.3,14,1705z"/>
	<path id="Combined-Shape-Copy-37" class="st4" d="M55.5,1719v-2c-3.1-0.3-5.5-2.8-5.5-6v-2c0-0.3,0.2-0.5,0.5-0.5s0.5,0.2,0.5,0.5
		v2c0,2.8,2.2,5,5,5s5-2.2,5-5v-2c0-0.3,0.2-0.5,0.5-0.5s0.5,0.2,0.5,0.5v2c0,3.1-2.4,5.7-5.5,6v2h2c0.3,0,0.5,0.2,0.5,0.5
		s-0.2,0.5-0.5,0.5h-5c-0.3,0-0.5-0.2-0.5-0.5s0.2-0.5,0.5-0.5H55.5z M52,1705c0-2.2,1.8-4,4-4s4,1.8,4,4v6c0,2.2-1.8,4-4,4
		s-4-1.8-4-4V1705z M53,1705v6c0,1.7,1.3,3,3,3s3-1.3,3-3v-6c0-1.7-1.3-3-3-3S53,1703.3,53,1705z"/>
	<path id="Combined-Shape_62_" class="st53" d="M14.8,1746.3l-4.8,2.1c-0.5,0.2-0.9,0-0.9-0.6v-8.1c0-0.6,0.4-0.8,0.9-0.6l4.8,2.1
		v-3.2c0-0.6,0.4-1,1-1H31c0.6,0,1,0.4,1,1v12c0,0.6-0.4,1-1,1H15.8c-0.6,0-1-0.4-1-1V1746.3z"/>
	<path id="Combined-Shape-Copy-38" class="st54" d="M26.2,1779.3l4.8,2.1c0.5,0.2,0.9,0,0.9-0.6v-8.1c0-0.6-0.4-0.8-0.9-0.6
		l-4.8,2.1v-3.2c0-0.6-0.4-1-1-1H10c-0.6,0-1,0.4-1,1v12c0,0.6,0.4,1,1,1h15.2c0.6,0,1-0.4,1-1V1779.3z"/>
	<g id="电话" transform="translate(51.000000, 1734.000000)">
		<path id="Shape_2_" class="st54" d="M14.2,53L14.2,53h-0.1c-2.4-0.1-5.6-2.4-8.7-6l-1.1-1.4c-3-3.7-4.6-7.2-4.2-9.6
			c0.3-1.6,2.7-3,4.1-3c0.7,0,0.9,0.3,1,0.5C6,34.9,7,37.3,7,38.2v0.1v0.1c-0.2,0.5-0.6,0.7-0.9,0.9c-0.5,0.3-0.7,0.4-0.7,0.9
			c0,0.1,0.1,0.8,2.1,3.3l0.9,1c2,2.4,2.6,2.6,2.8,2.6c0.5,0.1,0.7-0.1,1.1-0.5c0.3-0.3,0.6-0.6,1.1-0.7h0.1h0.1
			c0.9,0.2,3.1,1.6,4.4,2.7c0.2,0.1,0.5,0.5,0.2,1.3C17.5,51.1,15.8,53,14.2,53L14.2,53z"/>
		<path id="Shape-Copy" class="st53" d="M3.8,20L3.8,20L3.8,20c2.5-0.1,5.7-2.4,8.8-6l1.1-1.4c3-3.7,4.6-7.2,4.2-9.6
			c-0.3-1.6-2.7-3-4.1-3c-0.7,0-0.9,0.3-1,0.5C12,1.9,11,4.4,11,5.3v0.1v0.1c0.2,0.5,0.6,0.7,0.9,0.9c0.5,0.3,0.7,0.4,0.7,0.9
			c0,0.1-0.1,0.8-2.1,3.3l-0.9,1c-2,2.4-2.6,2.6-2.8,2.6c-0.5,0.1-0.7-0.1-1.1-0.5c-0.3-0.3-0.6-0.6-1.1-0.7H4.5H4.4
			c-0.9,0.2-3.1,1.6-4.4,2.7c-0.2,0.1-0.5,0.5-0.2,1.3C0.5,18.1,2.2,20,3.8,20L3.8,20z"/>
		<path id="Shape-Copy-2" class="st54" d="M59.7,41.8L59.7,41.8L59.7,41.8C58,40,54.2,39,49.4,39h-1.8c-4.7,0-8.5,1.1-10.1,2.9
			c-1.1,1.3-0.6,4,0.3,5.1c0.4,0.5,0.9,0.5,1.1,0.4c1.6-0.3,4.1-1.1,4.8-1.7l0,0v-0.1c0.2-0.4,0.2-0.9,0.1-1.3
			c-0.1-0.5-0.1-0.8,0.2-1.2c0.1-0.1,0.7-0.4,3.9-0.5h1.3c3.1,0,3.7,0.3,3.8,0.4c0.4,0.3,0.3,0.6,0.3,1.1c-0.1,0.4-0.1,0.8,0.2,1.3
			v0.1l0,0c0.7,0.5,3.2,1.3,4.9,1.6c0.2,0.1,0.7,0.1,1.1-0.6C60.4,45.6,60.7,43,59.7,41.8z"/>
		<path id="Shape-Copy-3" class="st53" d="M59.7,8.8L59.7,8.8L59.7,8.8C58,7,54.2,6,49.4,6h-1.8c-4.7,0-8.5,1.1-10.1,2.9
			c-1.1,1.3-0.6,4,0.3,5.1c0.4,0.5,0.9,0.5,1.1,0.4c1.6-0.3,4.1-1.1,4.8-1.7l0,0v-0.1c0.2-0.4,0.2-0.9,0.1-1.3
			c-0.1-0.5-0.1-0.8,0.2-1.2c0.1-0.1,0.7-0.4,3.9-0.5h1.3c3.1,0,3.7,0.3,3.8,0.4c0.4,0.3,0.3,0.6,0.3,1.1c-0.1,0.4-0.1,0.8,0.2,1.3
			v0.1l0,0c0.7,0.5,3.2,1.3,4.9,1.6c0.2,0.1,0.7,0.1,1.1-0.6C60.4,12.6,60.7,10,59.7,8.8z"/>
	</g>
	<g id="Group_1_" transform="translate(9.000000, 1802.000000)">
		<path id="Rectangle-38-Copy-6" class="st55" d="M4,0h28c2.2,0,4,1.8,4,4v28c0,2.2-1.8,4-4,4H4c-2.2,0-4-1.8-4-4V4C0,1.8,1.8,0,4,0
			z"/>
		<path id="Combined-Shape_63_" class="st8" d="M9,10h18c0.6,0,1,0.4,1,1v14c0,0.6-0.4,1-1,1H9c-0.6,0-1-0.4-1-1V11
			C8,10.4,8.4,10,9,10z"/>
		<path id="Triangle-2" class="st55" d="M21.6,18.6c0.4-0.3,0.5-0.8,0-1.2l-4.7-3.3c-0.4-0.3-0.8-0.1-0.8,0.4v7
			c0,0.6,0.4,0.7,0.8,0.4L21.6,18.6z"/>
	</g>
	<g id="Group-Copy-6" transform="translate(13.000000, 2264.000000)">
		<path id="Rectangle-38-Copy-6_1_" class="st56" d="M4,0h28c2.2,0,4,1.8,4,4v28c0,2.2-1.8,4-4,4H4c-2.2,0-4-1.8-4-4V4
			C0,1.8,1.8,0,4,0z"/>
		<path id="Combined-Shape_64_" class="st8" d="M9,10h18c0.6,0,1,0.4,1,1v14c0,0.6-0.4,1-1,1H9c-0.6,0-1-0.4-1-1V11
			C8,10.4,8.4,10,9,10z"/>
		<path id="Triangle-2_1_" class="st56" d="M21.6,18.6c0.4-0.3,0.5-0.8,0-1.2l-4.7-3.3c-0.4-0.3-0.8-0.1-0.8,0.4v7
			c0,0.6,0.4,0.7,0.8,0.4L21.6,18.6z"/>
	</g>
	<g id="Group-7_1_" transform="translate(17.000000, 1919.000000)">
		<g id="Group-2_1_">
			<path id="Combined-Shape_65_" class="st57" d="M0.5,6c0,3,2.5,5.5,5.5,5.5S11.5,9,11.5,6S9,0.5,6,0.5S0.5,3,0.5,6z"/>
		</g>
		<rect id="Rectangle-9" x="5" y="3.8" class="st58" width="1" height="3"/>
		<rect id="Rectangle-12" x="5" y="5.8" class="st58" width="3" height="1"/>
	</g>
	<g id="附件-_x28_1_x29_" transform="translate(52.000000, 1919.000000)">
		<path id="Shape_3_" class="st59" d="M2.3,7.1L2.3,7.1L2.3,7.1L2.3,7.1C2.4,7.1,2.4,7.1,2.3,7.1l3.9-4.2c0.1-0.1,0.1-0.3,0-0.4
			C6.1,2.4,6,2.4,5.9,2.5L2,6.7l0,0l0,0l0,0c0,0,0,0,0,0.1C1.4,7.4,1.4,8.3,2,8.9c0.6,0.6,1.5,0.6,2,0l0,0l4.5-4.8
			C8.9,3.6,9.2,3,9.2,2.4c0-0.7-0.2-1.3-0.7-1.7c-0.9-0.9-2.3-0.9-3.2,0L3.1,3.1L1.5,4.8L0.9,5.5l0,0c-1.1,1.3-1.1,3.3,0,4.5
			c0.6,0.7,1.3,1,2.1,1c0.7,0,1.5-0.3,2.1-0.9l0,0l0,0l0,0l0,0L9,5.9l0,0l0,0c0.1-0.1,0.1-0.3,0-0.4s-0.3-0.1-0.4,0l0,0L4.8,9.7l0,0
			l0,0c-1,1-2.5,1-3.5,0S0.3,7,1.3,6c0.1-0.1,4.4-4.7,4.4-4.8c0.7-0.7,1.8-0.7,2.5,0C8.5,1.6,8.7,2,8.7,2.5s-0.2,1-0.5,1.3L3.7,8.6
			C3.3,9,2.7,9,2.4,8.6C2,8.1,2,7.5,2.3,7.1L2.3,7.1z"/>
	</g>
	<g id="附件-_x28_1_x29_-copy" transform="translate(86.000000, 1919.000000)">
		<path id="Shape_4_" class="st4" d="M6.3,2.9c0.1-0.1,0.1-0.3,0-0.4C6.2,2.4,6,2.4,5.9,2.5L2,6.7l0,0l0,0c0,0,0,0,0,0.1
			C1.4,7.4,1.5,8.3,2,8.9c0.6,0.6,1.5,0.6,2.1,0c0,0,1.5-1.6,4.5-4.8c0.4-0.4,0.6-1,0.6-1.7S9,1.1,8.5,0.7c-0.9-0.9-2.3-0.9-3.2,0
			L3.1,3.1L1.6,4.8L0.9,5.5c-1.2,1.3-1.1,3.3,0,4.5c0.6,0.7,1.3,1,2.1,1s1.5-0.3,2.1-0.9l0,0l0,0c0,0,1.3-1.4,3.9-4.2l0,0
			c0.1-0.1,0.1-0.3,0-0.4c0-0.2-0.2-0.2-0.3-0.1l0,0L4.8,9.7l0,0c-1,1-2.5,1-3.5,0S0.3,7,1.3,6c0.1-0.1,4.4-4.7,4.5-4.8
			c0.7-0.7,1.8-0.7,2.5,0C8.6,1.6,8.8,2,8.8,2.5s-0.2,1-0.5,1.3L3.7,8.6C3.3,9,2.7,9,2.4,8.6C2,8.1,2,7.5,2.3,7.1
			C2.4,7.1,3.7,5.7,6.3,2.9z"/>
	</g>
	<g id="Group-20" transform="translate(16.000000, 2006.000000)">
		<path id="Rectangle-75" class="st0" d="M0.7,4.1C0.6,4.2,0.5,4.3,0.5,4.5V11c0,0.3,0.2,0.5,0.5,0.5h10.4c0.3,0,0.5-0.2,0.5-0.5
			V4.5c0-0.2-0.1-0.3-0.2-0.4L6.5,0.6c-0.2-0.1-0.4-0.1-0.6,0L0.7,4.1z"/>
		<path id="Triangle-7" class="st0" d="M1.3,10.9l10.2,0.3l-5-3.6c-0.2-0.1-0.4-0.1-0.6,0L1.3,10.9z"/>
		
			<rect id="Rectangle-77" x="2.2" y="3.5" transform="matrix(0.7071 -0.7071 0.7071 0.7071 -3.8016 3.8476)" class="st60" width="1" height="6"/>
		
			<rect id="Rectangle-77-Copy" x="6.9" y="6" transform="matrix(0.7071 -0.7071 0.7071 0.7071 -1.6928 8.9387)" class="st60" width="6" height="1"/>
	</g>
	<g id="Group-21" transform="translate(16.000000, 2041.000000)">
		<g id="Group-5_1_" transform="translate(0.000000, 0.527864)">
			<path id="Combined-Shape_66_" class="st2" d="M9.8,15.8H2.5c-1.4,0-2.5-1.1-2.5-2.4v-0.6c0.3-3,3-5.4,6.2-5.4H7l0.3,0.8h-1
				c-2.8,0-5.1,2-5.4,4.6v0.6c0,0.8,0.7,1.5,1.7,1.5h7L9.8,15.8z"/>
			<path id="Combined-Shape_67_" class="st2" d="M3.3,4.2C3.3,1.9,5.2,0,7.5,0s4.2,1.9,4.2,4.2S9.8,8.3,7.5,8.3S3.3,6.5,3.3,4.2z
				 M7.5,7.5c1.8,0,3.3-1.5,3.3-3.3S9.3,0.8,7.5,0.8S4.2,2.3,4.2,4.2S5.7,7.5,7.5,7.5z"/>
		</g>
		<path id="Combined-Shape_68_" class="st2" d="M13,12V9.5C13,9.2,13.2,9,13.5,9S14,9.2,14,9.5V12h2.5c0.3,0,0.5,0.2,0.5,0.5
			S16.8,13,16.5,13H14v2.5c0,0.3-0.2,0.5-0.5,0.5S13,15.8,13,15.5V13h-2.5c-0.3,0-0.5-0.2-0.5-0.5s0.2-0.5,0.5-0.5H13z"/>
	</g>
	<g id="Group-21-Copy" transform="translate(59.000000, 2041.000000)">
		<g id="Group-5_2_" transform="translate(0.000000, 0.527864)">
			<path id="Combined-Shape_69_" class="st4" d="M9.8,15.8H2.5c-1.4,0-2.5-1.1-2.5-2.4v-0.6c0.3-3,3-5.4,6.2-5.4H7l0.3,0.8h-1
				c-2.8,0-5.1,2-5.4,4.6v0.6c0,0.8,0.7,1.5,1.7,1.5h7L9.8,15.8z"/>
			<path id="Combined-Shape_70_" class="st4" d="M3.3,4.2C3.3,1.9,5.2,0,7.5,0s4.2,1.9,4.2,4.2S9.8,8.3,7.5,8.3S3.3,6.5,3.3,4.2z
				 M7.5,7.5c1.8,0,3.3-1.5,3.3-3.3S9.3,0.8,7.5,0.8S4.2,2.3,4.2,4.2S5.7,7.5,7.5,7.5z"/>
		</g>
		<path id="Combined-Shape_71_" class="st4" d="M13,12V9.5C13,9.2,13.2,9,13.5,9S14,9.2,14,9.5V12h2.5c0.3,0,0.5,0.2,0.5,0.5
			S16.8,13,16.5,13H14v2.5c0,0.3-0.2,0.5-0.5,0.5S13,15.8,13,15.5V13h-2.5c-0.3,0-0.5-0.2-0.5-0.5s0.2-0.5,0.5-0.5H13z"/>
	</g>
	<g id="Group-21-Copy-2" transform="translate(105.000000, 2041.000000)">
		<g id="Group-5_3_" transform="translate(0.000000, 0.527864)">
			<path id="Combined-Shape_72_" class="st4" d="M12,8.4v2.1h-1.5C9.7,10.5,9,11.1,9,12c0,0.8,0.7,1.5,1.5,1.5H12v2.4H2.5
				c-1.4,0-2.5-1.1-2.5-2.4v-0.6c0.3-3,3-5.4,6.2-5.4h2.5C10,7.5,11.1,7.8,12,8.4z"/>
			<path id="Combined-Shape_73_" class="st4" d="M3.3,4.2C3.3,1.9,5.2,0,7.5,0s4.2,1.9,4.2,4.2S9.8,8.3,7.5,8.3S3.3,6.5,3.3,4.2z"/>
		</g>
		<path id="Combined-Shape_74_" class="st4" d="M13,12V9.5C13,9.2,13.2,9,13.5,9S14,9.2,14,9.5V12h2.5c0.3,0,0.5,0.2,0.5,0.5
			S16.8,13,16.5,13H14v2.5c0,0.3-0.2,0.5-0.5,0.5S13,15.8,13,15.5V13h-2.5c-0.3,0-0.5-0.2-0.5-0.5s0.2-0.5,0.5-0.5H13z"/>
	</g>
	<g id="Group-22" transform="translate(16.000000, 2076.000000)">
		<g id="Group-21-Copy-3">
			<g id="Group-5_4_" transform="translate(0.000000, 0.527864)">
				<path id="Combined-Shape_75_" class="st2" d="M9.8,15.8H2.5c-1.4,0-2.5-1.1-2.5-2.4v-0.6c0.3-3,3-5.4,6.2-5.4H7l0.3,0.8h-1
					c-2.8,0-5.1,2-5.4,4.6v0.6c0,0.8,0.7,1.5,1.7,1.5h7L9.8,15.8z"/>
				<path id="Combined-Shape_76_" class="st2" d="M3.3,4.2C3.3,1.9,5.2,0,7.5,0s4.2,1.9,4.2,4.2S9.8,8.3,7.5,8.3S3.3,6.5,3.3,4.2z
					 M7.5,7.5c1.8,0,3.3-1.5,3.3-3.3S9.3,0.8,7.5,0.8S4.2,2.3,4.2,4.2S5.7,7.5,7.5,7.5z"/>
			</g>
		</g>
		<g id="爱心" transform="translate(9.000000, 10.000000)">
			<path id="Shape_5_" class="st2" d="M7.2,2.3c0,1.3-2.1,3.1-3.2,3.8C2.9,5.4,0.8,3.7,0.8,2.3c0-0.9,0.7-1.6,1.6-1.6
				c0.5,0,0.9,0.2,1.2,0.6L4,1.8l0.4-0.4C4.7,1,5.1,0.8,5.6,0.8C6.5,0.8,7.2,1.5,7.2,2.3z M5.8,0C5.1,0,4.4,0.3,4,0.8
				C3.6,0.3,2.9,0,2.2,0C1,0,0,1,0,2.2C0,4.5,4,7,4,7s4-2.5,4-4.8C8,1,7,0,5.8,0z"/>
		</g>
	</g>
	<g id="Group-22-Copy" transform="translate(60.000000, 2076.000000)">
		<g id="Group-21-Copy-3_1_">
			<g id="Group-5_5_" transform="translate(0.000000, 0.527864)">
				<path id="Combined-Shape_77_" class="st4" d="M9.8,15.8H2.5c-1.4,0-2.5-1.1-2.5-2.4v-0.6c0.3-3,3-5.4,6.2-5.4H7l0.3,0.8h-1
					c-2.8,0-5.1,2-5.4,4.6v0.6c0,0.8,0.7,1.5,1.7,1.5h7L9.8,15.8z"/>
				<path id="Combined-Shape_78_" class="st4" d="M3.3,4.2C3.3,1.9,5.2,0,7.5,0s4.2,1.9,4.2,4.2S9.8,8.3,7.5,8.3S3.3,6.5,3.3,4.2z
					 M7.5,7.5c1.8,0,3.3-1.5,3.3-3.3S9.3,0.8,7.5,0.8S4.2,2.3,4.2,4.2S5.7,7.5,7.5,7.5z"/>
			</g>
		</g>
		<g id="爱心_1_" transform="translate(9.000000, 10.000000)">
			<path id="Shape_6_" class="st4" d="M7.2,2.3c0,1.3-2.1,3.1-3.2,3.8C2.9,5.4,0.8,3.7,0.8,2.3c0-0.9,0.7-1.6,1.6-1.6
				c0.5,0,0.9,0.2,1.2,0.6L4,1.8l0.4-0.4C4.7,1,5.1,0.8,5.6,0.8C6.5,0.8,7.2,1.5,7.2,2.3z M5.8,0C5.1,0,4.4,0.3,4,0.8
				C3.6,0.3,2.9,0,2.2,0C1,0,0,1,0,2.2C0,4.5,4,7,4,7s4-2.5,4-4.8C8,1,7,0,5.8,0z"/>
		</g>
	</g>
	<g id="Group-22-Copy-2" transform="translate(105.000000, 2076.000000)">
		<g id="Group-21-Copy-3_2_">
			<g id="Group-5_6_" transform="translate(0.000000, 0.527864)">
				<path id="Combined-Shape_79_" class="st4" d="M13.7,9.7c-0.3,0.1-0.5,0.3-0.7,0.6c-0.4-0.5-1.1-0.8-1.8-0.8
					c-1.2,0-2.2,1-2.2,2.2c0,1.5,1.9,3.2,3.1,4.1H2.5c-1.4,0-2.5-1.1-2.5-2.4v-0.6c0.3-3,3-5.4,6.2-5.4h2.5
					C10.8,7.5,12.5,8.4,13.7,9.7z"/>
				<path id="Combined-Shape_80_" class="st4" d="M3.3,4.2C3.3,1.9,5.2,0,7.5,0s4.2,1.9,4.2,4.2S9.8,8.3,7.5,8.3S3.3,6.5,3.3,4.2z"
					/>
			</g>
		</g>
		<g id="爱心_2_" transform="translate(9.000000, 10.000000)">
			<path id="Path_10_" class="st4" d="M7.2,2.3c0,1.3-2.1,3.1-3.2,3.8C2.9,5.4,0.8,3.7,0.8,2.3c0-0.9,0.7-1.6,1.6-1.6
				c0.5,0,0.9,0.2,1.2,0.6L4,1.8l0.4-0.4C4.7,1,5.1,0.8,5.6,0.8C6.5,0.8,7.2,1.5,7.2,2.3z"/>
		</g>
	</g>
	<g id="Group-Copy_1_" transform="translate(14.000000, 2117.000000)">
		<g id="Group-Copy-13_1_" transform="translate(7.267857, 0.000000)">
			<path id="Combined-Shape_81_" class="st61" d="M7.5,12c-1.7-1.2-2.9-3.2-2.9-5.4C4.6,3,7.6,0,11.2,0s6.6,3,6.6,6.6
				c0,2.3-1.2,4.3-2.9,5.5c3.9,0.8,6.9,3.9,7.2,7.7v0.1v0.8c0,1.9-1.6,3.5-3.7,3.5H3.7c-2,0-3.7-1.6-3.7-3.5v-0.8
				C0.4,15.9,3.5,12.8,7.5,12z"/>
		</g>
		<g id="Group-Copy-14" transform="translate(0.000000, 3.303571)" class="st62">
			<path id="Combined-Shape_82_" class="st61" d="M6.7,19.8H3c-1.7,0-3-1.3-3-2.9v-0.7c0.3-3.2,2.9-5.8,6.2-6.4
				c-1.4-1-2.3-2.6-2.3-4.5c0-3,2.4-5.4,5.4-5.4c0.7,0,1.3,0.1,1.9,0.3c-0.4,0.9-0.6,1.9-0.6,3c0,2,0.8,3.9,2,5.3
				C9,9.8,6.3,12.9,6,16.7v0.9C5.9,18.4,6.2,19.2,6.7,19.8z"/>
		</g>
		<g id="Group-Copy-15" transform="translate(24.446429, 3.303571)" class="st62">
			<path id="Combined-Shape_83_" class="st61" d="M5.6,19.8c0.4-0.6,0.6-1.3,0.6-2.1v-0.9v-0.1C5.8,13.1,3.4,10,0.1,8.5
				c1.3-1.4,2-3.3,2-5.3c0-1-0.2-2-0.6-3C2.2,0.1,2.8,0,3.5,0c3,0,5.4,2.4,5.4,5.4C8.9,7.3,8,9,6.5,10c3.2,0.7,5.6,3.2,6,6.3l0,0V17
				c0,1.6-1.4,2.9-3,2.9H5.6V19.8z"/>
		</g>
	</g>
	<path id="Rectangle-38_1_" class="st63" d="M17,2170h28c2.2,0,4,1.8,4,4v28c0,2.2-1.8,4-4,4H17c-2.2,0-4-1.8-4-4v-28
		C13,2171.8,14.8,2170,17,2170z"/>
	<g id="Group-32_1_" transform="translate(101.000000, 2217.000000)">
		<path id="Rectangle-38-Copy-5_1_" class="st64" d="M4,0h28c2.2,0,4,1.8,4,4v28c0,2.2-1.8,4-4,4H4c-2.2,0-4-1.8-4-4V4
			C0,1.8,1.8,0,4,0z"/>
		<text transform="matrix(1 0 0 1 10 30)" class="st8 st9 st10">P</text>
	</g>
	<g id="Group-29_1_" transform="translate(101.000000, 2170.000000)">
		<path id="Rectangle-38-Copy-2_1_" class="st65" d="M4,0h28c2.2,0,4,1.8,4,4v28c0,2.2-1.8,4-4,4H4c-2.2,0-4-1.8-4-4V4
			C0,1.8,1.8,0,4,0z"/>
		<path id="Combined-Shape_84_" class="st8" d="M18,20.8l-4.7,6.1H9l6.8-8.9L9,9.1h4.3l4.7,6.1l4.7-6.1H27L20.2,18l6.8,8.9h-4.3
			L18,20.8z"/>
	</g>
	<g id="Group-28_1_" transform="translate(57.000000, 2170.000000)">
		<path id="Rectangle-38-Copy_1_" class="st66" d="M4,0h28c2.2,0,4,1.8,4,4v28c0,2.2-1.8,4-4,4H4c-2.2,0-4-1.8-4-4V4
			C0,1.8,1.8,0,4,0z"/>
		<path id="Combined-Shape_85_" class="st8" d="M16,12.5l6,10.3c1.1,1.9,0.3,4.4-1.8,5.6s-4.7,0.7-5.8-1.2c-1.1-1.9-0.3-4.4,1.8-5.6
			c1.2-0.7,2.5-0.8,3.7-0.4L13.3,9.8l0.1-0.1l0,0c0,0,0.1,0,0.2-0.1l0.5-0.3l0,0c1.4-0.8,4.5-2.8,5-4.3c0.6-2,3,3.3,0.6,5.3
			C18.1,11.7,16.7,12.2,16,12.5z"/>
	</g>
	<g id="Group-30_1_" transform="translate(13.000000, 2217.000000)">
		<path id="Rectangle-38-Copy-3_1_" class="st67" d="M4,0h28c2.2,0,4,1.8,4,4v28c0,2.2-1.8,4-4,4H4c-2.2,0-4-1.8-4-4V4
			C0,1.8,1.8,0,4,0z"/>
		<g id="pdf_1_" transform="translate(8.000000, 8.000000)">
			<path id="Shape_7_" class="st8" d="M13.1,13.3c-2.3,0.5-4.4,1.2-6.6,2.1c-1.7,3-3.3,4.6-4.7,4.6c-0.3,0-0.6-0.1-0.8-0.2
				c-0.6-0.3-1-0.9-0.9-1.5c0-0.5,0.1-1.9,5.4-4.2c1.2-2.2,2.2-4.5,2.9-6.9C7.7,5.9,6.2,2.6,7.2,0.9C7.6,0.3,8.2,0,8.9,0
				c0.6,0,1.1,0.3,1.4,0.7C11,1.7,11,3.8,10,6.9c0.9,1.7,2.1,3.2,3.4,4.5c1.2-0.2,2.3-0.4,3.5-0.4c2.6,0.1,3,1.3,2.9,2
				c0,1.9-1.8,1.9-2.8,1.9C15.7,14.8,14.3,14.2,13.1,13.3z M1.7,18.4l0.2-0.1c0.8-0.3,1.4-0.8,1.8-1.6C2.8,17.1,2.2,17.7,1.7,18.4
				L1.7,18.4z M9.1,1.7H8.9c-0.1,0-0.2,0-0.2,0.1C8.4,2.7,8.6,3.7,9,4.6C9.3,3.6,9.3,2.6,9.1,1.7L9.1,1.7z M9.4,9.8L9.4,9.8L9.4,9.8
				c-0.6,1.3-1.2,2.6-1.8,3.8l0.1-0.1v0.1c1.2-0.4,2.5-0.8,3.8-1.1l-0.1-0.1h0.2C10.8,11.7,10.1,10.7,9.4,9.8L9.4,9.8z M17,12.7
				c-0.5,0-0.9,0-1.4,0.1c0.6,0.3,1.1,0.4,1.7,0.4c0.4,0.1,0.8,0,1.1-0.1C18.3,13,18.1,12.7,17,12.7L17,12.7z"/>
		</g>
	</g>
	<path id="Combined-Shape_86_" class="st8" d="M33,2188l6,5.9V2179h3v19h-2.9l0,0l-8-8l-8,8l0,0h-3v-19h3v14.9l8-8L33,2188L33,2188z
		"/>
	<g id="Group-31_1_" transform="translate(57.000000, 2217.000000)">
		<path id="Rectangle-38-Copy-4_1_" class="st68" d="M4,0h28c2.2,0,4,1.8,4,4v28c0,2.2-1.8,4-4,4H4c-2.2,0-4-1.8-4-4V4
			C0,1.8,1.8,0,4,0z"/>
		<g id="Group-8_1_" transform="translate(9.000000, 6.000000)">
			<path id="Combined-Shape_87_" class="st8" d="M11,0l7,7v15c0,1.1-0.9,2-2,2H2c-1.1,0-2-0.9-2-2V2c0-1.1,0.9-2,2-2H11z"/>
			<path id="Triangle-3_1_" class="st44" d="M11,0l7,7h-6c-0.6,0-1-0.4-1-1V0z"/>
		</g>
	</g>
	<g id="更新" transform="translate(71.000000, 2124.000000)">
		<path id="Shape_8_" class="st4" d="M11.9,9.6l-0.4-2.1l0,0V7.4c0-0.1-0.1-0.1-0.1-0.2c-0.1,0-0.1,0-0.2,0h-0.1l0,0L8.9,7.9
			c-0.2,0-0.2,0.2-0.2,0.4v0.1c0,0.2,0.2,0.2,0.4,0.2l1.3-0.4c0,0.1-0.1,0.1-0.1,0.2c-0.7,1.2-1.8,2-3.2,2.3c-1.3,0.3-3,0-4.1-0.6
			c-1-0.8-1.7-2-2-3.2c0-0.2-0.3-0.3-0.5-0.3S0.2,6.9,0.2,7.1c0.3,1.5,1.2,2.8,2.4,3.6c1.3,0.8,3.2,1.1,4.7,0.8
			C8.9,11,10.2,10,11,8.7l0,0l0.2,1.1c0,0.2,0.2,0.2,0.3,0.2h0.1C11.9,9.9,12,9.8,11.9,9.6z M0.5,4.3L0.5,4.3c0,0.2,0.1,0.2,0.1,0.3
			c0.1,0,0.1,0,0.2,0h0.1l0,0L3,3.9c0.2,0,0.2-0.2,0.2-0.4V3.4c0-0.2-0.2-0.2-0.4-0.2L1.6,3.7c0.1-0.2,0.1-0.3,0.2-0.5
			c0.7-1.2,1.8-2,3.1-2.3s3,0,4.1,0.6c1.1,0.7,1.8,1.8,2.1,3c0,0.2,0.3,0.3,0.5,0.3c0.1,0,0.3-0.1,0.3-0.3c0-0.1,0-0.1,0-0.2
			C11.6,3,10.7,1.8,9.4,0.9c-1.2-0.8-3.2-1-4.6-0.7C3.2,0.5,1.9,1.5,1.1,2.9C1.1,2.9,1,3,1,3.1L0.7,2c0-0.2-0.2-0.3-0.3-0.2H0.3
			C0.1,1.9,0,2,0.1,2.2L0.5,4.3L0.5,4.3z"/>
	</g>
	<path id="Rectangle-79" class="st4" d="M121,1973.6c-5.2-0.5-10-2.6-10-4.9c0-3,5.9-3.5,6.4-6c0.4-2.5-2.4-2.2-2.4-4.8
		c0-1.8,2.7-2.7,8-2.9l0,0l0,0c5.3,0.1,8,1.1,8,2.9c0,2.7-2.9,2.3-2.4,4.8c0.4,2.5,6.3,3,6.4,6c0,2.3-4.8,4.4-10,4.9l-1.6,6
		c0,0.2-0.2,0.3-0.4,0.4c-0.3,0.1-0.5-0.1-0.6-0.4L121,1973.6z"/>
	<path id="Combined-Shape-Copy-42" class="st5" d="M73.1,1973.1h0.4l1.6,6.3l1.7-6.3h0.3c5.1-0.5,9.5-2.6,9.5-4.4
		c0-1-0.8-1.7-2.9-2.8c-0.1-0.1-0.1-0.1-0.3-0.2c-2.1-1.1-2.9-1.8-3.1-3s0.1-1.9,1.1-2.8c0.1-0.1,0.2-0.1,0.2-0.2
		c0.8-0.7,1-1.1,1.1-2c0-1.4-2.5-2.3-7.5-2.4l0,0l0,0c-5.1,0.1-7.5,1-7.6,2.4c0,0.9,0.3,1.3,1.1,2c0,0,0.1,0.1,0.2,0.2
		c1,0.9,1.4,1.5,1.1,2.8c-0.2,1.2-1,1.8-3.1,3c-0.1,0.1-0.1,0.1-0.3,0.2c-2.2,1.1-2.9,1.8-2.9,2.8
		C63.5,1970.6,68,1972.7,73.1,1973.1z"/>
	<path id="Combined-Shape-Copy-43" class="st1" d="M25.1,1973.1h0.4l1.6,6.3l1.7-6.3h0.3c5.1-0.5,9.5-2.6,9.5-4.4
		c0-1-0.8-1.7-2.9-2.8c-0.1-0.1-0.1-0.1-0.3-0.2c-2.1-1.1-2.9-1.8-3.1-3c-0.2-1.2,0.1-1.9,1.1-2.8c0.1-0.1,0.2-0.1,0.2-0.2
		c0.8-0.7,1-1.1,1.1-2c0-1.4-2.5-2.3-7.5-2.4l0,0l0,0c-5.1,0.1-7.5,1-7.6,2.4c0,0.9,0.3,1.3,1.1,2c0,0,0.1,0.1,0.2,0.2
		c1,0.9,1.4,1.5,1.1,2.8c-0.2,1.2-1,1.8-3.1,3c-0.1,0.1-0.1,0.1-0.3,0.2c-2.2,1.1-2.9,1.8-2.9,2.8
		C15.5,1970.6,20,1972.7,25.1,1973.1z"/>
	<g id="Group-14_1_" transform="translate(53.000000, 1802.000000)">
		<g id="Group-12-Copy_1_">
			<path id="Rectangle-38-Copy-4_2_" class="st69" d="M4,0h28c2.2,0,4,1.8,4,4v28c0,2.2-1.8,4-4,4H4c-2.2,0-4-1.8-4-4V4
				C0,1.8,1.8,0,4,0z"/>
		</g>
		<g id="Group-7_2_" transform="translate(14.000000, 0.000000)">
			<rect id="Rectangle-3_3_" x="4" y="0" class="st8" width="4" height="9"/>
			<rect id="Rectangle-3-Copy" y="9" class="st8" width="4" height="4"/>
			<rect id="Rectangle-3-Copy-2" x="4" y="13" class="st8" width="4" height="4"/>
			<rect id="Rectangle-3-Copy-3" y="17" class="st8" width="4" height="4"/>
			<rect id="Rectangle-3-Copy-4" x="4" y="21" class="st8" width="4" height="4"/>
			<rect id="Rectangle-3-Copy-5" x="4" y="25" class="st8" width="4" height="4"/>
			<rect id="Rectangle-3-Copy-6" y="25" class="st8" width="4" height="4"/>
		</g>
	</g>
	<g id="Group-14-Copy" transform="translate(57.000000, 2264.000000)">
		<g id="Group-12-Copy_2_">
			<path id="Rectangle-38-Copy-4_3_" class="st24" d="M4,0h28c2.2,0,4,1.8,4,4v28c0,2.2-1.8,4-4,4H4c-2.2,0-4-1.8-4-4V4
				C0,1.8,1.8,0,4,0z"/>
		</g>
		<g id="Group-7_3_" transform="translate(14.000000, 0.000000)">
			<rect id="Rectangle-3_4_" x="4" y="0" class="st8" width="4" height="9"/>
			<rect id="Rectangle-3-Copy_1_" y="9" class="st8" width="4" height="4"/>
			<rect id="Rectangle-3-Copy-2_1_" x="4" y="13" class="st8" width="4" height="4"/>
			<rect id="Rectangle-3-Copy-3_1_" y="17" class="st8" width="4" height="4"/>
			<rect id="Rectangle-3-Copy-4_1_" x="4" y="21" class="st8" width="4" height="4"/>
			<rect id="Rectangle-3-Copy-5_1_" x="4" y="25" class="st8" width="4" height="4"/>
			<rect id="Rectangle-3-Copy-6_1_" y="25" class="st8" width="4" height="4"/>
		</g>
	</g>
	<path id="Rectangle-83" class="st70" d="M112.5,2124h1v2h-1V2124z M116.2,2125.1l0.7,0.7l-1.4,1.4l-0.7-0.7L116.2,2125.1z
		 M118,2128.5v1h-2v-1H118z M116.9,2132.2l-0.7,0.7l-1.4-1.4l0.7-0.7L116.9,2132.2z M113.5,2134h-1v-2h1V2134z M109.8,2132.9
		l-0.7-0.7l1.4-1.4l0.7,0.7L109.8,2132.9z M108,2129.5v-1h2v1H108z M109.1,2125.8l0.7-0.7l1.4,1.4l-0.7,0.7L109.1,2125.8z"/>
	<path id="Combined-Shape_88_" class="st2" d="M22.5,2370.7l2.7,2.7c0.2,0.2,0.5,0.2,0.7,0s0.2-0.5,0-0.7l-3.5-3.5
		c-0.1-0.1-0.3-0.2-0.4-0.1c-0.1,0-0.3,0-0.4,0.1l-3.5,3.5c-0.2,0.2-0.2,0.5,0,0.7s0.5,0.2,0.7,0l2.7-2.7v3.9c0,0.3,0.2,0.5,0.5,0.5
		s0.5-0.2,0.5-0.5C22.5,2374.6,22.5,2370.7,22.5,2370.7z M22,2380c0.3,0,0.5-0.2,0.5-0.5v-3c0-0.3-0.2-0.5-0.5-0.5s-0.5,0.2-0.5,0.5
		v3C21.5,2379.8,21.7,2380,22,2380z"/>
	<path id="Combined-Shape-Copy-44" class="st4" d="M54.5,2370.7l2.7,2.7c0.2,0.2,0.5,0.2,0.7,0s0.2-0.5,0-0.7l-3.5-3.5
		c-0.1-0.1-0.3-0.2-0.4-0.1c-0.1,0-0.3,0-0.4,0.1l-3.5,3.5c-0.2,0.2-0.2,0.5,0,0.7s0.5,0.2,0.7,0l2.7-2.7v3.9c0,0.3,0.2,0.5,0.5,0.5
		s0.5-0.2,0.5-0.5V2370.7z M54,2380c0.3,0,0.5-0.2,0.5-0.5v-3c0-0.3-0.2-0.5-0.5-0.5s-0.5,0.2-0.5,0.5v3
		C53.5,2379.8,53.7,2380,54,2380z"/>
	<g id="删除-copy-2" transform="translate(18.000000, 2322.000000)">
		<path id="Shape_9_" class="st2" d="M11,2.1H8.2V0H2.8v2.1H0v0.7h1.4V11h8.2V2.8H11V2.1L11,2.1z M3.4,0.7h4.1v1.4H3.4V0.7z
			 M8.9,10.3H2.1V2.8H9v7.5H8.9z"/>
		<path id="Shape_10_" class="st2" d="M4.1,3.4h0.7v6.2H4.1V3.4z M6.2,3.4h0.7v6.2H6.2V3.4z"/>
	</g>
	<g id="删除-copy-3" transform="translate(53.000000, 2322.000000)">
		<path id="Shape_11_" class="st4" d="M11,2.1H8.2V0H2.8v2.1H0v0.7h1.4V11h8.2V2.8H11V2.1L11,2.1z M3.4,0.7h4.1v1.4H3.4V0.7z
			 M8.9,10.3H2.1V2.8H9v7.5H8.9z"/>
		<path id="Shape_12_" class="st4" d="M4.1,3.4h0.7v6.2H4.1V3.4z M6.2,3.4h0.7v6.2H6.2V3.4z"/>
	</g>
	<g id="取消" transform="translate(18.000000, 2345.000000)">
		<path id="Shape_13_" class="st2" d="M6,12c-3.3,0-6-2.7-6-6s2.7-6,6-6s6,2.7,6,6S9.3,12,6,12z M6,0.6C3,0.6,0.6,3,0.6,6
			S3,11.4,6,11.4S11.4,9,11.4,6S9,0.6,6,0.6z"/>
		<polygon id="Shape_14_" class="st2" points="8.7,3.9 8.1,3.3 6,5.5 3.8,3.3 3.2,3.9 5.4,6 3.2,8.1 3.8,8.8 6,6.6 8.1,8.7 8.6,8.1 
			6.5,6 		"/>
	</g>
	<g id="取消-copy" transform="translate(54.000000, 2345.000000)">
		<path id="Shape_15_" class="st4" d="M6,12c-3.3,0-6-2.7-6-6s2.7-6,6-6s6,2.7,6,6S9.3,12,6,12z M6,0.6C3,0.6,0.6,3,0.6,6
			S3,11.4,6,11.4S11.4,9,11.4,6S9,0.6,6,0.6z"/>
		<polygon id="Shape_16_" class="st4" points="8.7,3.9 8.1,3.3 6,5.5 3.8,3.3 3.2,3.9 5.4,6 3.2,8.1 3.8,8.8 6,6.6 8.1,8.7 8.6,8.1 
			6.5,6 		"/>
	</g>
</g>
<g id="_x2D_">
	<g id="Group-Copy-3_1_" transform="translate(21.000000, 15.000000)">
		<path id="Rectangle-38-Copy-6_3_" class="st71" d="M-2.9,2379.4h28c2.2,0,4,1.8,4,4v28c0,2.2-1.8,4-4,4h-28c-2.2,0-4-1.8-4-4v-28
			C-6.9,2381.2-5.1,2379.4-2.9,2379.4z"/>
		<path id="Shape_18_" class="st8" d="M-0.4,2405.8l-1,0.6c-0.2,0-0.3,0-0.4-0.1c-0.1-0.1-0.1-0.3-0.1-0.4l0.6-1L-0.4,2405.8z
			 M14.7,2388l1.8,1.8l-14.3,14.4c-0.3,0.3-0.7,0.6-1,0.8l-1.3,0.7l-1-1l0.7-1.3c0.2-0.4,0.5-0.7,0.8-1L14.7,2388z M18.7,2387.5
			l-2,2l-1.8-1.8l2-2c0.5-0.5,1.3-0.5,1.8,0S19.2,2387,18.7,2387.5z"/>
		<rect id="Rectangle-9_2_" x="-1.9" y="2407.4" class="st8" width="26" height="1"/>
	</g>
	<g>
		<path id="Rectangle-38-Copy-6_2_" class="st72" d="M69.9,2394.4h28c2.2,0,4,1.8,4,4v28c0,2.2-1.8,4-4,4h-28c-2.2,0-4-1.8-4-4v-28
			C65.9,2396.2,67.7,2394.4,69.9,2394.4z"/>
		<path id="Shape_17_" class="st8" d="M72.4,2420.8l-1,0.6c-0.1,0.1-0.3,0.1-0.4-0.1c-0.1-0.1-0.1-0.3,0-0.4l0.6-1L72.4,2420.8z
			 M87.5,2403l1.8,1.8L75,2419.2c-0.3,0.3-0.7,0.6-1,0.8l-1.3,0.7l-1-1l0.7-1.3c0.2-0.4,0.5-0.7,0.8-1L87.5,2403z M91.5,2402.5l-2,2
			l-1.8-1.8l2-2c0.5-0.5,1.3-0.5,1.8,0S92,2402,91.5,2402.5z"/>
		<rect id="Rectangle-9_1_" x="70.9" y="2422.4" class="st8" width="26" height="1"/>
	</g>
	<g id="Group-14-Copy-3" transform="translate(99.000000, 15.000000)">
		<path id="Rectangle-38-Copy-4_9_" class="st73" d="M-80.9,2424.3h28c2.2,0,4,1.8,4,4v28c0,2.2-1.8,4-4,4h-28c-2.2,0-4-1.8-4-4v-28
			C-84.9,2426.1-83.1,2424.3-80.9,2424.3z"/>
		<g id="Group-11_1_" transform="translate(7.000000, 8.000000)">
			<rect id="Rectangle-13" x="-85.9" y="2444.3" class="st8" width="24" height="1"/>
			<rect id="Rectangle-11_2_" x="-78.9" y="2434.3" class="st8" width="4" height="8"/>
			<rect id="Rectangle-10" x="-84.9" y="2439.3" class="st8" width="4" height="3"/>
			<rect id="Rectangle-12_2_" x="-72.9" y="2424.3" class="st8" width="4" height="18"/>
			<rect id="Rectangle-12-Copy" x="-66.9" y="2429.3" class="st8" width="4" height="13"/>
		</g>
	</g>
	<g>
		<path id="Rectangle-38-Copy-4_8_" class="st74" d="M69.9,2439.3h28c2.2,0,4,1.8,4,4v28c0,2.2-1.8,4-4,4h-28c-2.2,0-4-1.8-4-4v-28
			C65.9,2441.1,67.7,2439.3,69.9,2439.3z"/>
		<rect id="Rectangle-13_1_" x="71.9" y="2467.3" class="st8" width="24" height="1"/>
		<rect id="Rectangle-11_1_" x="78.9" y="2457.3" class="st8" width="4" height="8"/>
		<rect id="Rectangle-10_1_" x="72.9" y="2462.3" class="st8" width="4" height="3"/>
		<rect id="Rectangle-12_1_" x="84.9" y="2447.3" class="st8" width="4" height="18"/>
		<rect id="Rectangle-12-Copy_1_" x="90.9" y="2452.3" class="st8" width="4" height="13"/>
	</g>
	<g id="Group-14-Copy-2" transform="translate(255.000000, 15.000000)">
		<path id="Rectangle-38-Copy-4_7_" class="st75" d="M-236.9,2514.1h28c2.2,0,4,1.8,4,4v28c0,2.2-1.8,4-4,4h-28c-2.2,0-4-1.8-4-4
			v-28C-240.9,2515.9-239.1,2514.1-236.9,2514.1z"/>
		<g id="Group-10_1_" transform="translate(9.000000, 10.000000)">
			<rect id="Rectangle" x="-240.9" y="2514.1" class="st8" width="18" height="3"/>
			<rect id="Rectangle-6" x="-233.4" y="2514.1" class="st8" width="3" height="18"/>
		</g>
	</g>
	<g>
		<path id="Rectangle-38-Copy-4_6_" class="st24" d="M69.9,2529.1h28c2.2,0,4,1.8,4,4v28c0,2.2-1.8,4-4,4h-28c-2.2,0-4-1.8-4-4v-28
			C65.9,2530.9,67.7,2529.1,69.9,2529.1z"/>
		<rect id="Rectangle_1_" x="74.9" y="2539.1" class="st8" width="18" height="3"/>
		<rect id="Rectangle-6_1_" x="82.4" y="2539.1" class="st8" width="3" height="18"/>
	</g>
	<g id="Group-14-Copy-4" transform="translate(177.000000, 15.000000)">
		<path id="Rectangle-38-Copy-4_4_" class="st76" d="M-158.9,2469.2h28c2.2,0,4,1.8,4,4v28c0,2.2-1.8,4-4,4h-28c-2.2,0-4-1.8-4-4
			v-28C-162.9,2471-161.1,2469.2-158.9,2469.2z"/>
		<g id="Group-12_1_" transform="translate(8.000000, 6.000000)">
			<path id="Rectangle-14_2_" class="st8" d="M-160.9,2473.2h16c0.6,0,1,0.4,1,1v7h-18v-7C-161.9,2473.6-161.5,2473.2-160.9,2473.2z
				"/>
			<rect id="Rectangle-15" x="-162.9" y="2482.2" class="st8" width="20" height="1"/>
			<rect id="Rectangle-16" x="-153.4" y="2482.2" class="st8" width="1" height="11"/>
			<rect id="Rectangle-17" x="-159.9" y="2492.2" class="st8" width="14" height="1"/>
			<path id="Rectangle-18_2_" class="st8" d="M-155.9,2469.7h2c0.6,0,1,0.4,1,1l0,0c0,0.6-0.4,1-1,1h-2c-0.6,0-1-0.4-1-1l0,0
				C-156.9,2470.1-156.5,2469.7-155.9,2469.7z"/>
			<path id="Combined-Shape_90_" class="st8" d="M-153.9,2471.2h-4.5c-0.3,0-0.5,0.2-0.5,0.5v5.5c-0.6,0-1-0.4-1-1v-5
				c0-0.6,0.4-1,1-1h4C-154.3,2470.2-153.9,2470.6-153.9,2471.2z"/>
		</g>
	</g>
	<g>
		<path id="Rectangle-38-Copy-4_5_" class="st18" d="M69.9,2484.2h28c2.2,0,4,1.8,4,4v28c0,2.2-1.8,4-4,4h-28c-2.2,0-4-1.8-4-4v-28
			C65.9,2486,67.7,2484.2,69.9,2484.2z"/>
		<path id="Rectangle-14_1_" class="st8" d="M75.9,2494.2h16c0.6,0,1,0.4,1,1v7h-18v-7C74.9,2494.6,75.3,2494.2,75.9,2494.2z"/>
		<rect id="Rectangle-15_1_" x="73.9" y="2503.2" class="st8" width="20" height="1"/>
		<rect id="Rectangle-16_1_" x="83.4" y="2503.2" class="st8" width="1" height="11"/>
		<rect id="Rectangle-17_1_" x="76.9" y="2513.2" class="st8" width="14" height="1"/>
		<path id="Rectangle-18_1_" class="st8" d="M80.9,2490.7h2c0.6,0,1,0.4,1,1l0,0c0,0.6-0.4,1-1,1h-2c-0.6,0-1-0.4-1-1l0,0
			C79.9,2491.1,80.3,2490.7,80.9,2490.7z"/>
		<path id="Combined-Shape_89_" class="st8" d="M82.9,2492.2h-4.5c-0.3,0-0.5,0.2-0.5,0.5v5.5c-0.6,0-1-0.4-1-1v-5c0-0.6,0.4-1,1-1
			h4C82.5,2491.2,82.9,2491.6,82.9,2492.2z"/>
	</g>
</g>
</svg>
