<?xml version="1.0" encoding="UTF-8"?>
<svg width="32px" height="32px" viewBox="0 0 32 32" version="1.1" xmlns="http://www.w3.org/2000/svg" xmlns:xlink="http://www.w3.org/1999/xlink">
    <title>设置icon@1x</title>
    <g id="页面-1" stroke="none" stroke-width="1" fill="none" fill-rule="evenodd">
        <g id="会议" transform="translate(-849.000000, -27.000000)">
            <g id="设置icon" transform="translate(849.000000, 27.000000)">
                <g id="设置2" transform="translate(0.812500, 0.687500)">
                    <rect id="矩形" x="0.1875" y="0.3125" width="30" height="30"></rect>
                    <path d="M9.5625,10.625 C8.00918675,10.625 6.75,9.36581325 6.75,7.8125 C6.75,6.25918675 8.00918675,5 9.5625,5 C11.1158133,5 12.375,6.25918675 12.375,7.8125 C12.375,9.36581325 11.1158133,10.625 9.5625,10.625 Z M9.5625,9.40512048 C10.442067,9.40512048 11.1551205,8.69206702 11.1551205,7.8125 C11.1551205,6.93293298 10.442067,6.21987952 9.5625,6.21987952 C8.68293298,6.21987952 7.96987952,6.93293298 7.96987952,7.8125 C7.96987952,8.69206702 8.68293298,9.40512048 9.5625,9.40512048 Z" id="形状" fill="#777777" fill-rule="nonzero"></path>
                    <path d="M9.5625,25.625 C8.00918675,25.625 6.75,24.3658133 6.75,22.8125 C6.75,21.2591867 8.00918675,20 9.5625,20 C11.1158133,20 12.375,21.2591867 12.375,22.8125 C12.375,24.3658133 11.1158133,25.625 9.5625,25.625 Z M9.5625,24.4051205 C10.442067,24.4051205 11.1551205,23.692067 11.1551205,22.8125 C11.1551205,21.932933 10.442067,21.2198795 9.5625,21.2198795 C8.68293298,21.2198795 7.96987952,21.932933 7.96987952,22.8125 C7.96987952,23.692067 8.68293298,24.4051205 9.5625,24.4051205 Z" id="形状备份" fill="#777777" fill-rule="nonzero"></path>
                    <rect id="矩形" fill="#777777" x="3" y="6.875" width="4.6875" height="1"></rect>
                    <rect id="矩形备份-7" fill="#777777" x="3" y="21.875" width="4.6875" height="1"></rect>
                    <rect id="矩形备份-5" fill="#777777" transform="translate(25.500000, 14.843750) rotate(-180.000000) translate(-25.500000, -14.843750) " x="23.625" y="14.375" width="3.75" height="1"></rect>
                    <rect id="矩形备份-4" fill="#777777" x="11.4375" y="6.875" width="15.9375" height="1"></rect>
                    <rect id="矩形备份-8" fill="#777777" x="11.4375" y="21.875" width="15.9375" height="1"></rect>
                    <rect id="矩形备份-6" fill="#777777" transform="translate(11.437500, 14.843750) rotate(-180.000000) translate(-11.437500, -14.843750) " x="3" y="14.375" width="16.875" height="1"></rect>
                    <path d="M21.75,18.125 C20.1966867,18.125 18.9375,16.8658133 18.9375,15.3125 C18.9375,13.7591867 20.1966867,12.5 21.75,12.5 C23.3033133,12.5 24.5625,13.7591867 24.5625,15.3125 C24.5625,16.8658133 23.3033133,18.125 21.75,18.125 Z M21.75,16.9051205 C22.629567,16.9051205 23.3426205,16.192067 23.3426205,15.3125 C23.3426205,14.432933 22.629567,13.7198795 21.75,13.7198795 C20.870433,13.7198795 20.1573795,14.432933 20.1573795,15.3125 C20.1573795,16.192067 20.870433,16.9051205 21.75,16.9051205 Z" id="形状" fill="#777777" fill-rule="nonzero"></path>
                </g>
            </g>
        </g>
    </g>
</svg>