<?xml version="1.0" encoding="UTF-8" standalone="no"?>
<svg width="220px" height="318px" viewBox="0 0 220 318" version="1.1" xmlns="http://www.w3.org/2000/svg" xmlns:xlink="http://www.w3.org/1999/xlink">
    <!-- Generator: Sketch 47.1 (45422) - http://www.bohemiancoding.com/sketch -->
    <title>1.5.0</title>
    <desc>Created with Sketch.</desc>
    <defs></defs>
    <g id="1.5.0" stroke="none" stroke-width="1" fill="none" fill-rule="evenodd">
        <g>
            <g id="Group" transform="translate(20.000000, 51.000000)">
                <circle id="Oval-2" stroke="#B1B1B1" cx="8" cy="7" r="2.5"></circle>
                <path d="M12.9999998,12.998915 C12.999267,10.7902747 10.7609716,9 8,9 C5.25641376,9 3.02894213,10.7677995 3.00027976,12.9572427 C2.99893315,12.9722 2.99824524,12.9873472 2.99824524,13.002655 C2.99824524,13.2787974 3.22210286,13.502655 3.49824524,13.502655 C3.77438761,13.502655 3.99824524,13.2787974 3.99824524,13.002655 C3.99824524,13.0017695 3.99824294,13.0008845 3.99823834,13 L4,13 C4,11.3431458 5.790861,10 8,10 C10.2089932,10 11.9997636,11.3429685 12,12.9996719 C12.0001773,13.2756635 12.223967,13.4993439 12.5,13.4993439 C12.7760804,13.4993439 12.9998995,13.2755867 13,12.9995298 L12,13 Z" id="Combined-Shape" fill="#B1B1B1"></path>
                <rect id="Rectangle-2" stroke="#B1B1B1" x="0.5" y="0.5" width="15" height="17" rx="2"></rect>
            </g>
            <g id="Group-Copy" transform="translate(56.000000, 51.000000)">
                <circle id="Oval-2" stroke="#3A91F3" cx="8" cy="7" r="2.5"></circle>
                <path d="M12.9999998,12.998915 C12.999267,10.7902747 10.7609716,9 8,9 C5.25641376,9 3.02894213,10.7677995 3.00027976,12.9572427 C2.99893315,12.9722 2.99824524,12.9873472 2.99824524,13.002655 C2.99824524,13.2787974 3.22210286,13.502655 3.49824524,13.502655 C3.77438761,13.502655 3.99824524,13.2787974 3.99824524,13.002655 C3.99824524,13.0017695 3.99824294,13.0008845 3.99823834,13 L4,13 C4,11.3431458 5.790861,10 8,10 C10.2089932,10 11.9997636,11.3429685 12,12.9996719 C12.0001773,13.2756635 12.223967,13.4993439 12.5,13.4993439 C12.7760804,13.4993439 12.9998995,13.2755867 13,12.9995298 L12,13 Z" id="Combined-Shape" fill="#3A91F3"></path>
                <rect id="Rectangle-2" stroke="#3A91F3" x="0.5" y="0.5" width="15" height="17" rx="2"></rect>
            </g>
            <g id="Group-Copy-2" transform="translate(92.000000, 51.000000)">
                <rect id="Rectangle-2" fill="#3A91F3" x="0" y="0" width="16" height="18" rx="2"></rect>
                <circle id="Oval-2" fill="#FFFFFF" cx="8" cy="7" r="3"></circle>
                <path d="M3.03051599,13 C3.30687393,10.7500248 5.42635908,9 8,9 C10.5736409,9 12.6931261,10.7500248 12.969484,13 L3.03051599,13 Z" id="Combined-Shape" fill="#FFFFFF"></path>
                <path d="M12.9999998,13.4406189 C12.9992671,10.9880211 10.7613645,9 8.00087723,9 C5.25777234,9 3.03069151,10.9630634 3.00203416,13.3943436 C3.00068779,13.4109531 3,13.4277733 3,13.444772 C3,13.751416 3.22381835,14 3.49991228,14 C3.7760062,14 3.99982455,13.751416 3.99982455,13.444772 C3.99982455,13.4437887 3.99982225,13.4428059 3.99981766,13.4418237 L4.00157901,13.4418237 C4.00157901,11.6019601 5.79212581,10.1104559 8.00087723,10.1104559 C10.2094829,10.1104559 11.9999391,11.6017632 12.0001754,13.4414594 C12.0003527,13.747936 12.2241031,13.9963231 12.5000877,13.9963231 C12.7761816,13.9963231 13,13.7477391 13,13.4410951 C13,13.4409364 12.9999999,13.4407776 12.9999998,13.4406189 Z" id="Combined-Shape" fill="#FFFFFF"></path>
                <rect id="Rectangle-10" fill="#FFFFFF" x="3" y="13" width="9.99824555" height="1" rx="0.5"></rect>
            </g>
            <g id="Group-2" transform="translate(20.000000, 12.000000)">
                <circle id="Oval" stroke="#B1B1B1" cx="7" cy="7" r="6.5"></circle>
                <path d="M7,7 L7,4.5 C7,4.22385763 6.77614237,4 6.5,4 L6.5,4 L6.5,4 C6.22385763,4 6,4.22385763 6,4.5 L6,4.5 L6,7.5 C6,7.63807119 6.05596441,7.76307119 6.14644661,7.85355339 C6.23692881,7.94403559 6.36192881,8 6.5,8 L9.5,8 C9.77614237,8 10,7.77614237 10,7.5 C10,7.22385763 9.77614237,7 9.5,7 L7,7 Z" id="Combined-Shape" fill="#B1B1B1"></path>
            </g>
            <g id="Group-3" transform="translate(20.000000, 94.000000)">
                <rect id="Rectangle-5" stroke="#777777" x="0.5" y="0.5" width="21" height="17" rx="4"></rect>
                <rect id="Rectangle-6" fill="#777777" x="4" y="5" width="2" height="2"></rect>
                <rect id="Rectangle-6-Copy-4" fill="#777777" x="4" y="8" width="2" height="2"></rect>
                <rect id="Rectangle-6-Copy" fill="#777777" x="8" y="5" width="2" height="2"></rect>
                <rect id="Rectangle-6-Copy-5" fill="#777777" x="8" y="8" width="2" height="2"></rect>
                <rect id="Rectangle-6-Copy-2" fill="#777777" x="12" y="5" width="2" height="2"></rect>
                <rect id="Rectangle-6-Copy-6" fill="#777777" x="12" y="8" width="2" height="2"></rect>
                <rect id="Rectangle-6-Copy-3" fill="#777777" x="16" y="5" width="2" height="2"></rect>
                <rect id="Rectangle-6-Copy-7" fill="#777777" x="16" y="8" width="2" height="2"></rect>
                <rect id="Rectangle-7" fill="#777777" x="5" y="12" width="12" height="2" rx="1"></rect>
            </g>
            <g id="Group-3-Copy" transform="translate(62.000000, 94.000000)">
                <rect id="Rectangle-5" stroke="#3A91F3" x="0.5" y="0.5" width="21" height="17" rx="4"></rect>
                <rect id="Rectangle-6" fill="#3A91F3" x="4" y="5" width="2" height="2"></rect>
                <rect id="Rectangle-6-Copy-4" fill="#3A91F3" x="4" y="8" width="2" height="2"></rect>
                <rect id="Rectangle-6-Copy" fill="#3A91F3" x="8" y="5" width="2" height="2"></rect>
                <rect id="Rectangle-6-Copy-5" fill="#3A91F3" x="8" y="8" width="2" height="2"></rect>
                <rect id="Rectangle-6-Copy-2" fill="#3A91F3" x="12" y="5" width="2" height="2"></rect>
                <rect id="Rectangle-6-Copy-6" fill="#3A91F3" x="12" y="8" width="2" height="2"></rect>
                <rect id="Rectangle-6-Copy-3" fill="#3A91F3" x="16" y="5" width="2" height="2"></rect>
                <rect id="Rectangle-6-Copy-7" fill="#3A91F3" x="16" y="8" width="2" height="2"></rect>
                <rect id="Rectangle-7" fill="#3A91F3" x="5" y="12" width="12" height="2" rx="1"></rect>
            </g>
            <g id="Group-3-Copy-2" transform="translate(104.000000, 94.000000)">
                <rect id="Rectangle-5" fill="#3A91F3" x="0" y="0" width="22" height="18" rx="4"></rect>
                <path d="M4,5 L6,5 L6,7 L4,7 L4,5 Z M4,8 L6,8 L6,10 L4,10 L4,8 Z M8,5 L10,5 L10,7 L8,7 L8,5 Z M8,8 L10,8 L10,10 L8,10 L8,8 Z M12,5 L14,5 L14,7 L12,7 L12,5 Z M12,8 L14,8 L14,10 L12,10 L12,8 Z M16,5 L18,5 L18,7 L16,7 L16,5 Z M16,8 L18,8 L18,10 L16,10 L16,8 Z M6,12 L16,12 C16.5522847,12 17,12.4477153 17,13 C17,13.5522847 16.5522847,14 16,14 L6,14 C5.44771525,14 5,13.5522847 5,13 C5,12.4477153 5.44771525,12 6,12 L6,12 Z" id="Combined-Shape" fill="#FFFFFF"></path>
            </g>
            <rect id="Rectangle-9" fill="#1FCF7C" x="20" y="220" width="36" height="36" rx="4"></rect>
            <path d="M42.9238937,242.175535 L40.3422528,233.537211 C40.1143511,232.776206 39.3633962,232.226799 38.5526638,232.226799 L37.4505161,232.226799 C36.6397837,232.226799 35.8850928,232.779919 35.6609271,233.537211 L33.0755501,242.175535 C32.8775371,242.832597 33.0792862,243.64186 33.5575062,244.139296 L36.7892275,247.487714 C37.1030594,247.814389 37.5439185,248 37.9997219,248 C38.4555254,248 38.8963845,247.814389 39.2102164,247.487714 L42.4419376,244.139296 C42.9238937,243.64186 43.1219067,242.832597 42.9238937,242.175535 Z M37.0395458,231.770196 L38.7357324,231.770196 C39.3484518,231.770196 40.0172126,231.42496 40.3646694,230.934948 L41.6723023,229.07884 C41.9823981,228.640799 42.0234951,228.121089 41.7881212,227.68676 C41.5564834,227.256143 41.0969438,227 40.5589463,227 L35.2163319,227 C34.6820705,227 34.2225309,227.256143 33.987157,227.683048 C33.7517831,228.117377 33.7928801,228.640799 34.1029759,229.075128 L35.4106088,230.934948 C35.7580656,231.42496 36.4268264,231.770196 37.0395458,231.770196 Z" id="Shape" fill="#FFFFFF" fill-rule="nonzero"></path>
            <g id="Group-6" transform="translate(86.000000, 220.000000)">
                <g id="Group-13" fill="#3A91F3">
                    <g id="Group-14">
                        <path d="M4,0 L32.0358887,0 L32.0358887,0 C34.2252069,-4.02171235e-16 36,1.77479309 36,3.96411133 L36,7.92822266 L36,32 L36,32 C36,34.209139 34.209139,36 32,36 L4,36 L4,36 C1.790861,36 2.705415e-16,34.209139 0,32 L0,4 L0,4 C-2.705415e-16,1.790861 1.790861,4.05812251e-16 4,0 Z" id="Rectangle-11"></path>
                    </g>
                </g>
                <g id="Group-15" transform="translate(5.000000, 6.000000)" fill="#FFFFFF">
                    <rect id="Rectangle-62" x="2" y="10" width="22" height="2" rx="1"></rect>
                    <rect id="Rectangle-63" x="2" y="10" width="2" height="10" rx="1"></rect>
                    <rect id="Rectangle-63-Copy" x="22" y="10" width="2" height="10" rx="1"></rect>
                    <rect id="Rectangle-63-Copy-2" x="12" y="4" width="2" height="16" rx="1"></rect>
                    <rect id="Rectangle-64" x="10" y="0" width="6" height="6" rx="1"></rect>
                    <rect id="Rectangle-64-Copy" x="0" y="16" width="6" height="6" rx="1"></rect>
                    <rect id="Rectangle-64-Copy-2" x="10" y="16" width="6" height="6" rx="1"></rect>
                    <rect id="Rectangle-64-Copy-3" x="20" y="16" width="6" height="6" rx="1"></rect>
                </g>
            </g>
            <g id="Group-4" transform="translate(23.000000, 183.000000)" fill="#B1B1B1">
                <rect id="Rectangle" x="0" y="0" width="10" height="1" rx="0.5"></rect>
                <rect id="Rectangle-Copy" x="0" y="3" width="10" height="1" rx="0.5"></rect>
                <rect id="Rectangle-Copy-2" x="0" y="6" width="10" height="1" rx="0.5"></rect>
            </g>
            <g id="Group-5" transform="translate(20.000000, 140.000000)" fill="#777777">
                <path d="M5,0 L17,0 C17.5522847,-1.01453063e-16 18,0.44771525 18,1 L18,1 C18,1.55228475 17.5522847,2 17,2 L5,2 C4.44771525,2 4,1.55228475 4,1 L4,1 L4,1 C4,0.44771525 4.44771525,1.01453063e-16 5,0 Z M5,6 L17,6 C17.5522847,6 18,6.44771525 18,7 C18,7.55228475 17.5522847,8 17,8 L5,8 C4.44771525,8 4,7.55228475 4,7 C4,6.44771525 4.44771525,6 5,6 Z M5,12 L17,12 C17.5522847,12 18,12.4477153 18,13 C18,13.5522847 17.5522847,14 17,14 L5,14 C4.44771525,14 4,13.5522847 4,13 C4,12.4477153 4.44771525,12 5,12 Z M1,2 C0.44771525,2 0,1.55228475 0,1 C0,0.44771525 0.44771525,0 1,0 C1.55228475,0 2,0.44771525 2,1 C2,1.55228475 1.55228475,2 1,2 Z M1,8 C0.44771525,8 0,7.55228475 0,7 C0,6.44771525 0.44771525,6 1,6 C1.55228475,6 2,6.44771525 2,7 C2,7.55228475 1.55228475,8 1,8 Z M1,14 C0.44771525,14 0,13.5522847 0,13 C0,12.4477153 0.44771525,12 1,12 C1.55228475,12 2,12.4477153 2,13 C2,13.5522847 1.55228475,14 1,14 Z" id="Combined-Shape"></path>
            </g>
            <g id="Group-5-Copy" transform="translate(58.000000, 140.000000)" fill="#3A91F3">
                <path d="M5,0 L17,0 C17.5522847,-1.01453063e-16 18,0.44771525 18,1 L18,1 C18,1.55228475 17.5522847,2 17,2 L5,2 C4.44771525,2 4,1.55228475 4,1 L4,1 L4,1 C4,0.44771525 4.44771525,1.01453063e-16 5,0 Z M5,6 L17,6 C17.5522847,6 18,6.44771525 18,7 C18,7.55228475 17.5522847,8 17,8 L5,8 C4.44771525,8 4,7.55228475 4,7 C4,6.44771525 4.44771525,6 5,6 Z M5,12 L17,12 C17.5522847,12 18,12.4477153 18,13 C18,13.5522847 17.5522847,14 17,14 L5,14 C4.44771525,14 4,13.5522847 4,13 C4,12.4477153 4.44771525,12 5,12 Z M1,2 C0.44771525,2 0,1.55228475 0,1 C0,0.44771525 0.44771525,0 1,0 C1.55228475,0 2,0.44771525 2,1 C2,1.55228475 1.55228475,2 1,2 Z M1,8 C0.44771525,8 0,7.55228475 0,7 C0,6.44771525 0.44771525,6 1,6 C1.55228475,6 2,6.44771525 2,7 C2,7.55228475 1.55228475,8 1,8 Z M1,14 C0.44771525,14 0,13.5522847 0,13 C0,12.4477153 0.44771525,12 1,12 C1.55228475,12 2,12.4477153 2,13 C2,13.5522847 1.55228475,14 1,14 Z" id="Combined-Shape"></path>
            </g>
            <g id="Group-5-Copy-2" transform="translate(96.000000, 140.000000)" fill="#3A91F3">
                <path d="M5,0 L17,0 C17.5522847,-1.01453063e-16 18,0.44771525 18,1 L18,1 C18,1.55228475 17.5522847,2 17,2 L5,2 C4.44771525,2 4,1.55228475 4,1 L4,1 L4,1 C4,0.44771525 4.44771525,1.01453063e-16 5,0 Z M5,6 L17,6 C17.5522847,6 18,6.44771525 18,7 C18,7.55228475 17.5522847,8 17,8 L5,8 C4.44771525,8 4,7.55228475 4,7 C4,6.44771525 4.44771525,6 5,6 Z M5,12 L17,12 C17.5522847,12 18,12.4477153 18,13 C18,13.5522847 17.5522847,14 17,14 L5,14 C4.44771525,14 4,13.5522847 4,13 C4,12.4477153 4.44771525,12 5,12 Z M1,2 C0.44771525,2 0,1.55228475 0,1 C0,0.44771525 0.44771525,0 1,0 C1.55228475,0 2,0.44771525 2,1 C2,1.55228475 1.55228475,2 1,2 Z M1,8 C0.44771525,8 0,7.55228475 0,7 C0,6.44771525 0.44771525,6 1,6 C1.55228475,6 2,6.44771525 2,7 C2,7.55228475 1.55228475,8 1,8 Z M1,14 C0.44771525,14 0,13.5522847 0,13 C0,12.4477153 0.44771525,12 1,12 C1.55228475,12 2,12.4477153 2,13 C2,13.5522847 1.55228475,14 1,14 Z" id="Combined-Shape"></path>
            </g>
            <g id="Group-7" transform="translate(152.000000, 220.000000)">
                <g id="Group-4-Copy" fill="#F56B2F">
                    <rect id="Rectangle-12-Copy" x="0" y="0" width="36" height="36" rx="4"></rect>
                </g>
                <g id="Group-Copy" transform="translate(5.000000, 10.000000)" fill="#FFFFFF">
                    <g id="Group-Copy-13" transform="translate(4.910714, 0.000000)">
                        <path d="M5.05191063,8.375405 C3.88766203,7.54620689 3.125,6.1620651 3.125,4.59459459 C3.125,2.05707007 5.1237288,0 7.58928571,0 C10.0548426,0 12.0535714,2.05707007 12.0535714,4.59459459 C12.0535714,6.18190552 11.2714803,7.58121736 10.0822587,8.4066245 C12.7056525,8.95602147 14.7153991,11.1052811 14.972355,13.7503013 L14.9756494,13.7862272 L14.9756494,14.3284564 C14.9756494,15.6648397 13.8622764,16.7481923 12.4859146,16.7481923 L2.48973478,16.7481923 C1.11469223,16.7481923 0,15.6602804 0,14.3284564 L0.00346184167,13.7503013 C0.265334478,11.0525232 2.34928211,8.86976558 5.05191063,8.375405 Z" id="Combined-Shape"></path>
                    </g>
                    <g id="Group-Copy-14" opacity="0.9" transform="translate(0.000000, 2.297297)">
                        <path d="M4.53054974,13.792629 L2.05036982,13.792629 C0.917981838,13.792629 0,12.8967015 0,11.7999053 L0.00285092843,11.3237775 C0.218510747,9.10207797 1.93470291,7.30451283 4.16039699,6.89739235 C3.20160403,6.21452332 2.57352941,5.07464185 2.57352941,3.78378378 C2.57352941,1.6940577 4.21954136,0 6.25,0 C6.70012643,0 7.13135917,0.0832547333 7.52995365,0.235618448 C7.28029445,0.872506593 7.14285714,1.56838335 7.14285714,2.2972973 C7.14285714,3.70633865 7.65642709,4.99192805 8.50142563,5.96660758 C6.06323257,6.83465613 4.27422742,9.00212577 4.02167549,11.6038831 L4.01785714,12.2415772 C4.01785714,12.8190116 4.20783307,13.3548763 4.53054974,13.792629 Z" id="Combined-Shape"></path>
                    </g>
                    <g id="Group-Copy-15" opacity="0.9" transform="translate(16.517857, 2.297297)">
                        <path d="M3.80621654,13.792629 L6.39865582,13.792629 C7.53213028,13.792629 8.44902564,12.9004562 8.44902564,11.7999053 L8.44902564,11.3533636 L8.44631266,11.3237775 C8.23470193,9.14552558 6.57961648,7.37554709 4.41917454,6.92310253 C5.39853345,6.24335547 6.04260853,5.09098102 6.04260853,3.78378378 C6.04260853,1.6940577 4.39659658,0 2.36613794,0 C1.91601151,0 1.48477878,0.0832547333 1.08618429,0.235618448 C1.33584349,0.872506593 1.4732808,1.56838335 1.4732808,2.2972973 C1.4732808,3.71042005 0.956731352,4.99937463 0.107361168,5.97506945 C2.35736083,6.99306191 3.97422575,9.13366297 4.21700691,11.6684608 L4.22075835,11.7099558 L4.22075835,12.3362386 C4.22075835,12.8698348 4.06924236,13.368505 3.80621654,13.792629 Z" id="Combined-Shape"></path>
                    </g>
                </g>
            </g>
            <g id="Group-16" transform="translate(24.000000, 281.000000)">
                <rect id="Rectangle-65" stroke="#FFFFFF" x="0.5" y="0.5" width="13" height="11" rx="2"></rect>
                <path d="M13.5,3.60025344 L13.5,8.17061533 L17.4706169,10.3192136 C18.1148719,10.6678357 18.5,10.4409814 18.5,9.71769565 L18.5,2.31953461 C18.5,1.59029208 18.0834297,1.33311373 17.4298605,1.65639403 L13.5,3.60025344 Z" id="Combined-Shape" stroke="#FFFFFF"></path>
                <circle id="Oval-21" fill="#FFFFFF" cx="4" cy="4" r="1"></circle>
            </g>
        </g>
    </g>
</svg>