<?xml version="1.0" encoding="UTF-8"?>
<svg width="160px" height="104px" viewBox="0 0 160 104" version="1.1" xmlns="http://www.w3.org/2000/svg" xmlns:xlink="http://www.w3.org/1999/xlink">
    <title>编组备份 2@1x</title>
    <defs>
        <polygon id="path-1" points="0 0 160 0 160 104 0 104"></polygon>
    </defs>
    <g id="页面-1" stroke="none" stroke-width="1" fill="none" fill-rule="evenodd">
        <g id="02_移动端_内外网文件隔离展示?" transform="translate(-400.000000, -441.000000)">
            <g id="编组备份-2" transform="translate(400.000000, 441.000000)">
                <mask id="mask-2" fill="white">
                    <use xlink:href="#path-1"></use>
                </mask>
                <g id="Clip-2"></g>
                <path d="M141.524248,21.2152551 C141.524248,19.4574629 140.09325,18.0330862 138.329072,18.0330862 C136.564096,18.0330862 135.133897,19.4574629 135.133897,21.2152551 C135.133897,22.9722516 136.564096,24.397424 138.329072,24.397424 C140.09325,24.397424 141.524248,22.9722516 141.524248,21.2152551 Z M131.937923,21.2152551 C131.937923,17.7004664 134.799119,14.8509173 138.328273,14.8509173 C141.858227,14.8509173 144.719423,17.7004664 144.718624,21.2152551 C144.718624,24.7300438 141.858227,27.5795929 138.329072,27.5795929 C134.799119,27.5795929 131.937923,24.7300438 131.937923,21.2152551 Z M14.3461298,48.5689307 C14.3461298,46.8119342 12.9159314,45.3867618 11.1509546,45.3867618 C9.38677687,45.3867618 7.95577943,46.8119342 7.95577943,48.5689307 C7.95577943,50.3267229 9.38677687,51.7510996 11.1509546,51.7510996 C12.9159314,51.7510996 14.3461298,50.3267229 14.3461298,48.5689307 Z M4.75740626,48.5721137 C4.75581028,45.0565292 7.61540818,42.2061844 11.1445627,42.2045929 C14.6801091,42.2045929 17.541305,45.054142 17.541305,48.5689307 C17.541305,52.0837194 14.6801091,54.9332705 11.1509546,54.9332705 C7.62180013,54.93486 4.75900626,52.0869024 4.75740626,48.5721137 Z M48.8585744,50.9154982 L63.7781808,50.9154982 C64.9519023,50.9154982 65.9043027,51.8576557 65.9043027,53.0369441 C65.9043027,54.2074794 64.9542993,55.1584061 63.7781808,55.1584061 L48.8585744,55.1584061 C47.6872498,55.161573 46.7348495,54.2170283 46.7324526,53.049676 C46.7324526,51.8664089 47.6832549,50.9154982 48.8585744,50.9154982 Z M48.8481875,40.3082685 L82.9596188,40.3082685 C84.1277474,40.3082685 85.0753537,41.2504261 85.0753537,42.4297145 C85.0753537,43.6010454 84.1277474,44.5511604 82.9596188,44.5511604 L48.8481875,44.5511604 C47.6784609,44.5503646 46.7316536,43.6050241 46.7324516,42.4400591 C46.7324516,41.2583835 47.6808579,40.3082685 48.8481875,40.3082685 Z M48.8609714,29.7010388 L72.294653,29.7010388 C73.4707715,29.7010388 74.4247698,30.650358 74.4247698,31.8224848 C74.4247698,32.9938158 73.4707715,33.9439467 72.294653,33.9439467 L48.8625693,33.9439467 C47.6904458,33.9471137 46.7364475,33.0033647 46.7324526,31.8352166 C46.7324526,30.6511538 47.6856519,29.7026303 48.8609714,29.7010388 Z M69.1761812,66.7499516 C65.0158218,62.6073231 58.2715173,62.6073231 54.1119569,66.7499516 C49.9515976,70.8933758 49.9515976,77.6110227 54.1119569,81.7536512 C58.2715173,85.8962796 65.0158218,85.8962796 69.1761812,81.7536512 C73.3357416,77.6110227 73.3357416,70.8933758 69.1761812,66.7499516 Z M4.12372484,93.3452126 L16.9172095,93.3452126 C18.089333,93.3452126 19.0409343,94.2873702 19.0409343,95.4666586 C19.0409343,96.6379896 18.0765491,97.5881055 16.9172095,97.5881055 L4.12372484,97.5881055 C2.95160131,97.5889003 2.00079899,96.6443555 2,95.4770032 C2,94.2953276 2.9651842,93.3452126 4.12372484,93.3452126 Z M27.0292718,4.77365123 L30.2028741,4.77365123 C31.0977469,4.77365123 31.821635,5.48026938 31.821635,6.36513355 C31.821635,7.24283605 31.0977469,7.95582013 30.2028741,7.95582013 L27.0292718,7.95582013 L27.0292718,11.1172998 C27.0292718,12.0077341 26.3197655,12.7294714 25.4312847,12.7294714 C24.5436028,12.7239012 23.8277046,12.0013682 23.8340966,11.1172998 L23.8340966,7.95582013 L20.6604942,7.95582013 C19.7744104,7.96457328 19.0489242,7.25556791 19.0409343,6.3738867 C19.0409343,5.48663531 19.7656215,4.77365123 20.6604942,4.77365123 L23.8340966,4.77365123 L23.8340966,1.61296733 C23.8340966,0.721737233 24.5428039,0 25.4312847,0 C26.3133735,0 27.0292718,0.721737233 27.0292718,1.61296733 L27.0292718,4.77365123 Z M102.116288,82.737983 L108.525814,82.737983 C110.87086,82.7260469 112.766073,80.8297957 112.766872,78.4950911 L112.766872,16.9723632 C112.766872,14.6217438 110.866865,12.7294714 108.525814,12.7294714 L57.3622627,12.7294714 C55.0180156,12.7422032 53.1244009,14.6376587 53.1228029,16.9723632 L53.1228029,19.0938092 L93.587032,19.0938092 C98.287511,19.0834645 102.105901,22.8688052 102.116288,27.5493547 L102.116288,27.5684525 L102.116288,82.737983 Z M86.8395315,93.3452126 L93.6125998,93.3452126 C95.9560478,93.3452126 97.8560545,91.4569189 97.8560545,89.0911804 L97.8560545,27.4689849 C97.8560545,25.1780461 96.0159723,23.336701 93.7452327,23.336701 L42.3236062,23.336701 C40.0528665,23.336701 38.2119854,25.1867992 38.2119854,27.4689849 L38.2119854,89.0911804 C38.2119854,91.4394126 40.1295699,93.3452126 42.4530431,93.3452126 L74.7891109,93.3452126 L73.6936907,92.25266 C72.6134514,91.1815924 72.1907839,89.6171653 72.5862857,88.1522058 L70.5752189,86.1469381 C63.9675423,91.0455207 54.6241118,89.6816203 49.7055075,83.1008409 C45.2926662,77.1972373 45.8855194,68.9660907 51.0997513,63.7508031 C56.9124293,57.9410969 66.353337,57.9235906 72.1867889,63.7134033 C77.4521563,68.9382398 78.0490045,77.2266797 73.5874246,83.1477897 L75.6008883,85.1514659 C77.0718354,84.7559826 78.6434557,85.1761339 79.718102,86.2527717 L86.8395315,93.3452126 Z M79.0517414,97.5881045 L25.4248927,97.5881045 C24.2535682,97.5889003 23.3027659,96.6443555 23.3011679,95.4770032 C23.3011679,94.2953276 24.2663521,93.3452126 25.4248927,93.3452126 L35.0855237,93.3452126 C34.3400627,92.0584992 33.9485559,90.5983142 33.9517518,89.1126654 L33.9517518,27.5684525 C33.9541488,22.8863115 37.768544,19.0914219 42.470621,19.0938092 L42.4810079,19.0938092 L48.8625693,19.0938092 L48.8625693,16.9612228 C48.8649663,12.2782861 52.6793615,8.48419226 57.3814385,8.48650624 L108.498648,8.48650624 C113.198329,8.47543911 117.016719,12.2615756 117.027106,16.9421251 C117.027106,16.9492867 117.027905,16.9548569 117.027905,16.9612228 L117.027905,78.5054357 C117.027905,80.0475821 116.614026,81.4918523 115.891736,82.737983 L127.676092,82.737983 C128.854607,82.737983 129.808605,83.6801405 129.808605,84.8594289 C129.808605,86.0307599 128.8602,86.9808748 127.678489,86.9808748 L102.116288,86.9808748 L102.116288,89.1126654 C102.116288,90.6548118 101.703208,92.0998777 100.980918,93.3452126 L102.123479,93.3452126 C103.294005,93.3452126 104.246405,94.2873702 104.246405,95.4666586 C104.246405,96.6379896 103.28202,97.5881045 102.123479,97.5881045 L90.9159966,97.5881045 C91.8899697,99.213008 91.6782364,101.343207 90.2624198,102.75326 C88.6069052,104.409993 85.915895,104.416359 84.2523904,102.767584 C84.2475964,102.762809 84.2436015,102.758035 84.2380085,102.75326 L79.0517414,97.5881045 Z M154.804825,62.5842466 L154.804825,60.4405199 C154.802428,59.8644033 154.331022,59.3988947 153.75255,59.4012728 C153.748555,59.4012728 153.743761,59.4012728 153.739766,59.4020777 C153.159697,59.4012728 152.686693,59.8636076 152.674708,60.4405199 L152.674708,62.5842466 L150.523018,62.5842466 C149.944547,62.5858381 149.477136,63.0553253 149.479524,63.6314419 L149.479524,63.6449695 C149.479524,64.2131287 149.947743,64.7056925 150.523018,64.7056925 L152.674708,64.7056925 L152.674708,66.8478277 C152.674708,67.4319017 153.151707,67.8878614 153.739766,67.8878614 C154.319836,67.8878614 154.79284,67.4255358 154.804825,66.8478277 L154.804825,64.7056925 L156.956514,64.7056925 C157.542177,64.7056925 158,64.2298393 158,63.6449695 C158,63.0664657 157.535785,62.5945912 156.956514,62.5842466 L154.804825,62.5842466 Z" id="Fill-1" fill="#A3C8E3" mask="url(#mask-2)"></path>
            </g>
        </g>
    </g>
</svg>