<?xml version="1.0" encoding="UTF-8"?>
<svg width="88px" height="96px" viewBox="0 0 88 96" version="1.1" xmlns="http://www.w3.org/2000/svg" xmlns:xlink="http://www.w3.org/1999/xlink" style="background: #FFFFFF;">
    <!-- Generator: Sketch 49.3 (51167) - http://www.bohemiancoding.com/sketch -->
    <title>Artboard</title>
    <desc>Created with Sketch.</desc>
    <defs></defs>
    <g id="Artboard" stroke="none" stroke-width="1" fill="none" fill-rule="evenodd">
        <path d="M31.5,50 C28.4624339,50 26,47.5375661 26,44.5 C26,41.4624339 28.4624339,39 31.5,39 C34.5375661,39 37,41.4624339 37,44.5 C37,47.5375661 34.5375661,50 31.5,50 Z M30.69426,46.8668967 C30.8336136,46.8668967 30.9686124,46.8146391 31.0774824,46.7057691 L34.8400292,42.930158 C35.0490595,42.7211276 35.0490595,42.3770984 34.8400292,42.168068 C34.626644,41.9546829 34.2869696,41.9546829 34.0779392,42.168068 L30.69426,45.5648117 L28.9262114,43.7880535 C28.7128262,43.5790231 28.3731519,43.5790231 28.1641215,43.7880535 C27.9550911,43.9970838 27.9550911,44.341113 28.1641215,44.5501434 L30.3153925,46.7101239 C30.4199077,46.8146391 30.5549064,46.8668967 30.69426,46.8668967 Z" id="Combined-Shape" fill="#D8D8D8"></path>
        <path d="M58.5,50 C55.4624339,50 53,47.5375661 53,44.5 C53,41.4624339 55.4624339,39 58.5,39 C61.5375661,39 64,41.4624339 64,44.5 C64,47.5375661 61.5375661,50 58.5,50 Z M58,42 L58,46 L59,46 L59,42 L58,42 Z M58.5,48 C58.7761424,48 59,47.7761424 59,47.5 C59,47.2238576 58.7761424,47 58.5,47 C58.2238576,47 58,47.2238576 58,47.5 C58,47.7761424 58.2238576,48 58.5,48 Z" id="Combined-Shape" fill="#EE524D"></path>
    </g>
</svg>