<?xml version="1.0" encoding="UTF-8" standalone="no"?>
<svg width="221px" height="193px" viewBox="0 0 221 193" version="1.1" xmlns="http://www.w3.org/2000/svg" xmlns:xlink="http://www.w3.org/1999/xlink">
    <!-- Generator: Sketch 46.2 (44496) - http://www.bohemiancoding.com/sketch -->
    <title>工作栏</title>
    <desc>Created with Sketch.</desc>
    <defs></defs>
    <g id="Page-3" stroke="none" stroke-width="1" fill="none" fill-rule="evenodd">
        <g id="工作栏">
            <path d="M21,14.5 C19.0670034,14.5 17.5,16.0670034 17.5,18 L17.5,23 C17.5,24.9329966 19.0670034,26.5 21,26.5 L26,26.5 C27.9329966,26.5 29.5,24.9329966 29.5,23 L29.5,18 C29.5,16.0670034 27.9329966,14.5 26,14.5 L21,14.5 Z M21,29.5 C19.0670034,29.5 17.5,31.0670034 17.5,33 L17.5,38 C17.5,39.9329966 19.0670034,41.5 21,41.5 L26,41.5 C27.9329966,41.5 29.5,39.9329966 29.5,38 L29.5,33 C29.5,31.0670034 27.9329966,29.5 26,29.5 L21,29.5 Z M36,14.5 C34.0670034,14.5 32.5,16.0670034 32.5,18 L32.5,23 C32.5,24.9329966 34.0670034,26.5 36,26.5 L41,26.5 C42.9329966,26.5 44.5,24.9329966 44.5,23 L44.5,18 C44.5,16.0670034 42.9329966,14.5 41,14.5 L36,14.5 Z M36,29.5 C34.0670034,29.5 32.5,31.0670034 32.5,33 L32.5,38 C32.5,39.9329966 34.0670034,41.5 36,41.5 L41,41.5 C42.9329966,41.5 44.5,39.9329966 44.5,38 L44.5,33 C44.5,31.0670034 42.9329966,29.5 41,29.5 L36,29.5 Z" id="Combined-Shape" stroke="#777777"></path>
            <path d="M73,14.5 C71.0670034,14.5 69.5,16.0670034 69.5,18 L69.5,23 C69.5,24.9329966 71.0670034,26.5 73,26.5 L78,26.5 C79.9329966,26.5 81.5,24.9329966 81.5,23 L81.5,18 C81.5,16.0670034 79.9329966,14.5 78,14.5 L73,14.5 Z M73,29.5 C71.0670034,29.5 69.5,31.0670034 69.5,33 L69.5,38 C69.5,39.9329966 71.0670034,41.5 73,41.5 L78,41.5 C79.9329966,41.5 81.5,39.9329966 81.5,38 L81.5,33 C81.5,31.0670034 79.9329966,29.5 78,29.5 L73,29.5 Z M88,14.5 C86.0670034,14.5 84.5,16.0670034 84.5,18 L84.5,23 C84.5,24.9329966 86.0670034,26.5 88,26.5 L93,26.5 C94.9329966,26.5 96.5,24.9329966 96.5,23 L96.5,18 C96.5,16.0670034 94.9329966,14.5 93,14.5 L88,14.5 Z M88,29.5 C86.0670034,29.5 84.5,31.0670034 84.5,33 L84.5,38 C84.5,39.9329966 86.0670034,41.5 88,41.5 L93,41.5 C94.9329966,41.5 96.5,39.9329966 96.5,38 L96.5,33 C96.5,31.0670034 94.9329966,29.5 93,29.5 L88,29.5 Z" id="Combined-Shape-Copy" stroke="#348FF6"></path>
            <path d="M125,14 L130,14 L130,14 C132.209139,14 134,15.790861 134,18 L134,23 C134,25.209139 132.209139,27 130,27 L125,27 L125,27 C122.790861,27 121,25.209139 121,23 L121,18 L121,18 C121,15.790861 122.790861,14 125,14 L125,14 Z M125,29 L130,29 C132.209139,29 134,30.790861 134,33 L134,38 C134,40.209139 132.209139,42 130,42 L125,42 L125,42 C122.790861,42 121,40.209139 121,38 L121,33 L121,33 C121,30.790861 122.790861,29 125,29 L125,29 Z M140,14 L145,14 L145,14 C147.209139,14 149,15.790861 149,18 L149,23 C149,25.209139 147.209139,27 145,27 L140,27 C137.790861,27 136,25.209139 136,23 L136,18 L136,18 C136,15.790861 137.790861,14 140,14 L140,14 Z M140,29 L145,29 C147.209139,29 149,30.790861 149,33 L149,38 C149,40.209139 147.209139,42 145,42 L140,42 C137.790861,42 136,40.209139 136,38 L136,33 C136,30.790861 137.790861,29 140,29 Z" id="Combined-Shape-Copy-2" fill="#348FF6"></path>
            <path d="M19.4142136,76.4852814 L27.1923882,68.7071068 C27.5829124,68.3165825 27.5829124,67.6834175 27.1923882,67.2928932 C26.8018639,66.9023689 26.1686989,66.9023689 25.7781746,67.2928932 L17.2928932,75.7781746 C17.0976311,75.9734367 17,76.2293591 17,76.4852814 C17,76.7412037 17.0976311,76.997126 17.2928932,77.1923882 L25.7781746,85.6776695 C26.1686989,86.0681938 26.8018639,86.0681938 27.1923882,85.6776695 C27.5829124,85.2871452 27.5829124,84.6539803 27.1923882,84.263456 L19.4142136,76.4852814 L19.4142136,76.4852814 Z" id="Combined-Shape" fill="#777777"></path>
            <path d="M46.4142136,76.4852814 L54.1923882,68.7071068 C54.5829124,68.3165825 54.5829124,67.6834175 54.1923882,67.2928932 C53.8018639,66.9023689 53.1686989,66.9023689 52.7781746,67.2928932 L44.2928932,75.7781746 C44.0976311,75.9734367 44,76.2293591 44,76.4852814 C44,76.7412037 44.0976311,76.997126 44.2928932,77.1923882 L52.7781746,85.6776695 C53.1686989,86.0681938 53.8018639,86.0681938 54.1923882,85.6776695 C54.5829124,85.2871452 54.5829124,84.6539803 54.1923882,84.263456 L46.4142136,76.4852814 L46.4142136,76.4852814 Z" id="Combined-Shape-Copy-3" fill="#BBBBBB"></path>
            <path d="M20.4142136,118.485281 L28.1923882,110.707107 C28.5829124,110.316582 28.5829124,109.683418 28.1923882,109.292893 C27.8018639,108.902369 27.1686989,108.902369 26.7781746,109.292893 L18.2928932,117.778175 C18.0976311,117.973437 18,118.229359 18,118.485281 C18,118.741204 18.0976311,118.997126 18.2928932,119.192388 L26.7781746,127.67767 C27.1686989,128.068194 27.8018639,128.068194 28.1923882,127.67767 C28.5829124,127.287145 28.5829124,126.65398 28.1923882,126.263456 L20.4142136,118.485281 L20.4142136,118.485281 Z" id="Combined-Shape-Copy-4" fill="#777777" transform="translate(23.242641, 118.485281) scale(-1, 1) translate(-23.242641, -118.485281) "></path>
            <path d="M46.4142136,118.485281 L54.1923882,110.707107 C54.5829124,110.316582 54.5829124,109.683418 54.1923882,109.292893 C53.8018639,108.902369 53.1686989,108.902369 52.7781746,109.292893 L44.2928932,117.778175 C44.0976311,117.973437 44,118.229359 44,118.485281 C44,118.741204 44.0976311,118.997126 44.2928932,119.192388 L52.7781746,127.67767 C53.1686989,128.068194 53.8018639,128.068194 54.1923882,127.67767 C54.5829124,127.287145 54.5829124,126.65398 54.1923882,126.263456 L46.4142136,118.485281 L46.4142136,118.485281 Z" id="Combined-Shape-Copy-5" fill="#BBBBBB" transform="translate(49.242641, 118.485281) scale(-1, 1) translate(-49.242641, -118.485281) "></path>
            <g id="Group" transform="translate(93.000000, 67.000000)" fill="#777777">
                <path d="M15.4091848,15.3004109 L15.409668,15.3044739 L15.4243986,15.3029477 C13.7911733,16.9674451 11.5161697,18 9,18 C4.02943725,18 0,13.9705627 0,9 C0,4.02943725 4.02943725,0 9,0 C13.2831748,0 16.8675252,2.9920226 17.7769836,7 L15.7101213,7 C14.8495721,4.10851105 12.1710206,2 9,2 C5.13400675,2 2,5.13400675 2,9 C2,12.8659932 5.13400675,16 9,16 C10.8874539,16 12.6004326,15.2529831 13.8594101,14.0384754 C13.8909384,13.9965026 13.9261906,13.9564717 13.9651589,13.9188405 C14.3624393,13.5351913 14.9955078,13.5462415 15.3791571,13.9435219 C15.7443303,14.3216699 15.751905,14.9134424 15.4091848,15.3004109 Z" id="Combined-Shape"></path>
                <path d="M18.7803301,8.28033009 C18.9160534,8.14460678 19,7.95710678 19,7.75 L19,1.25 C19,0.835786438 18.6642136,0.5 18.25,0.5 C17.8357864,0.5 17.5,0.835786438 17.5,1.25 L17.5,1.25 L17.5,7 L11.75,7 C11.3357864,7 11,7.33578644 11,7.75 C11,8.16421356 11.3357864,8.5 11.75,8.5 L18.25,8.5 C18.4571068,8.5 18.6446068,8.41605339 18.7803301,8.28033009 Z" id="Combined-Shape"></path>
            </g>
            <g id="Group-Copy" transform="translate(135.000000, 67.000000)" fill="#4E4E4E">
                <path d="M15.4091848,15.3004109 L15.409668,15.3044739 L15.4243986,15.3029477 C13.7911733,16.9674451 11.5161697,18 9,18 C4.02943725,18 0,13.9705627 0,9 C0,4.02943725 4.02943725,0 9,0 C13.2831748,0 16.8675252,2.9920226 17.7769836,7 L15.7101213,7 C14.8495721,4.10851105 12.1710206,2 9,2 C5.13400675,2 2,5.13400675 2,9 C2,12.8659932 5.13400675,16 9,16 C10.8874539,16 12.6004326,15.2529831 13.8594101,14.0384754 C13.8909384,13.9965026 13.9261906,13.9564717 13.9651589,13.9188405 C14.3624393,13.5351913 14.9955078,13.5462415 15.3791571,13.9435219 C15.7443303,14.3216699 15.751905,14.9134424 15.4091848,15.3004109 Z" id="Combined-Shape"></path>
                <path d="M18.7803301,8.28033009 C18.9160534,8.14460678 19,7.95710678 19,7.75 L19,1.25 C19,0.835786438 18.6642136,0.5 18.25,0.5 C17.8357864,0.5 17.5,0.835786438 17.5,1.25 L17.5,1.25 L17.5,7 L11.75,7 C11.3357864,7 11,7.33578644 11,7.75 C11,8.16421356 11.3357864,8.5 11.75,8.5 L18.25,8.5 C18.4571068,8.5 18.6446068,8.41605339 18.7803301,8.28033009 Z" id="Combined-Shape"></path>
            </g>
            <path d="M22.7407102,155.5 L19.1429904,159.09772 C18.9581573,159.282553 18.9510263,159.605745 19.1459666,159.800685 L19.1993151,159.854033 C19.3912599,160.045978 19.7089836,160.050306 19.9022802,159.85701 L23.5,156.25929 L27.0977198,159.85701 C27.282553,160.041843 27.6057446,160.048974 27.8006849,159.854033 L27.8540334,159.800685 C28.0459782,159.60874 28.0503062,159.291016 27.8570096,159.09772 L24.2592898,155.5 L27.8570096,151.90228 C28.0418427,151.717447 28.0489737,151.394255 27.8540334,151.199315 L27.8006849,151.145967 C27.6087401,150.954022 27.2910164,150.949694 27.0977198,151.14299 L23.5,154.74071 L19.9022802,151.14299 C19.717447,150.958157 19.3942554,150.951026 19.1993151,151.145967 L19.1459666,151.199315 C18.9540218,151.39126 18.9496938,151.708984 19.1429904,151.90228 L22.7407102,155.5 Z" id="Combined-Shape-Copy-15" fill="#777777"></path>
            <path d="M47.7407102,155.5 L44.1429904,159.09772 C43.9581573,159.282553 43.9510263,159.605745 44.1459666,159.800685 L44.1993151,159.854033 C44.3912599,160.045978 44.7089836,160.050306 44.9022802,159.85701 L48.5,156.25929 L52.0977198,159.85701 C52.282553,160.041843 52.6057446,160.048974 52.8006849,159.854033 L52.8540334,159.800685 C53.0459782,159.60874 53.0503062,159.291016 52.8570096,159.09772 L49.2592898,155.5 L52.8570096,151.90228 C53.0418427,151.717447 53.0489737,151.394255 52.8540334,151.199315 L52.8006849,151.145967 C52.6087401,150.954022 52.2910164,150.949694 52.0977198,151.14299 L48.5,154.74071 L44.9022802,151.14299 C44.717447,150.958157 44.3942554,150.951026 44.1993151,151.145967 L44.1459666,151.199315 C43.9540218,151.39126 43.9496938,151.708984 44.1429904,151.90228 L47.7407102,155.5 Z" id="Combined-Shape-Copy-16" fill="#4E4E4E"></path>
        </g>
    </g>
</svg>