<?xml version="1.0" encoding="UTF-8" standalone="no"?>
<svg width="300px" height="1054px" viewBox="0 0 300 1054" version="1.1" xmlns="http://www.w3.org/2000/svg" xmlns:xlink="http://www.w3.org/1999/xlink">
    <!-- Generator: Sketch 49.2 (51160) - http://www.bohemiancoding.com/sketch -->
    <title>视频会议</title>
    <desc>Created with Sketch.</desc>
    <defs></defs>
    <g id="视频会议" stroke="none" stroke-width="1" fill="none" fill-rule="evenodd">
        <path d="M96.8006095,43.2141009 L91.5048659,43.2141009 C91.2260362,43.2141009 91,42.9880648 91,42.709235 C91,42.4304053 91.2260362,42.2043691 91.5048659,42.2043691 L114.495134,42.2043691 C114.773964,42.2043691 115,42.4304053 115,42.709235 C115,42.9880648 114.773964,43.2141009 114.495134,43.2141009 L108.19939,43.2141009 L111.124761,46.1394716 C111.320023,46.3347337 111.320023,46.6513162 111.124761,46.8465783 L111.11788,46.8534598 C110.922617,47.048722 110.606035,47.048722 110.410773,46.8534598 L106.875239,43.3179259 C106.84349,43.2861773 106.816904,43.2512213 106.79548,43.2141009 L98.2045205,43.2141009 C98.1830962,43.2512213 98.1565097,43.2861773 98.1247611,43.3179259 L94.5892272,46.8534598 C94.393965,47.048722 94.0773825,47.048722 93.8821204,46.8534598 L93.8752389,46.8465783 C93.6799768,46.6513162 93.6799768,46.3347337 93.8752389,46.1394716 L96.8006095,43.2141009 Z M103,23.0194637 L103,21.5 C103,21.2238576 103.223858,21 103.5,21 C103.776142,21 104,21.2238576 104,21.5 L104,23.0194637 L114.495134,23.0194637 C114.773964,23.0194637 115,23.2454999 115,23.5243297 C115,23.8031594 114.773964,24.0291956 114.495134,24.0291956 L91.5048659,24.0291956 C91.2260362,24.0291956 91,23.8031594 91,23.5243297 C91,23.2454999 91.2260362,23.0194637 91.5048659,23.0194637 L103,23.0194637 Z M95,25.0389274 L111,25.0389274 C113.209139,25.0389274 115,26.8297884 115,29.0389274 L115,37.1946372 C115,39.4037762 113.209139,41.1946372 111,41.1946372 L95,41.1946372 C92.790861,41.1946372 91,39.4037762 91,37.1946372 L91,29.0389274 C91,26.8297884 92.790861,25.0389274 95,25.0389274 Z M95,26.0486593 C93.3431458,26.0486593 92,27.3918051 92,29.0486593 L92,37.1849054 C92,38.8417596 93.3431458,40.1849054 95,40.1849054 L111,40.1849054 C112.656854,40.1849054 114,38.8417596 114,37.1849054 L114,29.0486593 C114,27.3918051 112.656854,26.0486593 111,26.0486593 L95,26.0486593 Z" id="Combined-Shape" fill="#FFFFFF"></path>
        <path d="M36.8006095,43.2141009 L31.5048659,43.2141009 C31.2260362,43.2141009 31,42.9880648 31,42.709235 C31,42.4304053 31.2260362,42.2043691 31.5048659,42.2043691 L54.4951341,42.2043691 C54.7739638,42.2043691 55,42.4304053 55,42.709235 C55,42.9880648 54.7739638,43.2141009 54.4951341,43.2141009 L48.1993905,43.2141009 L51.1247611,46.1394716 C51.3200232,46.3347337 51.3200232,46.6513162 51.1247611,46.8465783 L51.1178796,46.8534598 C50.9226175,47.048722 50.606035,47.048722 50.4107728,46.8534598 L46.8752389,43.3179259 C46.8434903,43.2861773 46.8169038,43.2512213 46.7954795,43.2141009 L38.2045205,43.2141009 C38.1830962,43.2512213 38.1565097,43.2861773 38.1247611,43.3179259 L34.5892272,46.8534598 C34.393965,47.048722 34.0773825,47.048722 33.8821204,46.8534598 L33.8752389,46.8465783 C33.6799768,46.6513162 33.6799768,46.3347337 33.8752389,46.1394716 L36.8006095,43.2141009 Z M43,23.0194637 L43,21.5 C43,21.2238576 43.2238576,21 43.5,21 C43.7761424,21 44,21.2238576 44,21.5 L44,23.0194637 L54.4951341,23.0194637 C54.7739638,23.0194637 55,23.2454999 55,23.5243297 C55,23.8031594 54.7739638,24.0291956 54.4951341,24.0291956 L31.5048659,24.0291956 C31.2260362,24.0291956 31,23.8031594 31,23.5243297 C31,23.2454999 31.2260362,23.0194637 31.5048659,23.0194637 L43,23.0194637 Z M35,25.0389274 L51,25.0389274 C53.209139,25.0389274 55,26.8297884 55,29.0389274 L55,37.1946372 C55,39.4037762 53.209139,41.1946372 51,41.1946372 L35,41.1946372 C32.790861,41.1946372 31,39.4037762 31,37.1946372 L31,29.0389274 C31,26.8297884 32.790861,25.0389274 35,25.0389274 Z M35,26.0486593 C33.3431458,26.0486593 32,27.3918051 32,29.0486593 L32,37.1849054 C32,38.8417596 33.3431458,40.1849054 35,40.1849054 L51,40.1849054 C52.6568542,40.1849054 54,38.8417596 54,37.1849054 L54,29.0486593 C54,27.3918051 52.6568542,26.0486593 51,26.0486593 L35,26.0486593 Z" id="Combined-Shape-Copy-4" fill="#FFFFFF" opacity="0.6"></path>
        <path d="M156.80061,43.2141009 L151.504866,43.2141009 C151.226036,43.2141009 151,42.9880648 151,42.709235 C151,42.4304053 151.226036,42.2043691 151.504866,42.2043691 L174.495134,42.2043691 C174.773964,42.2043691 175,42.4304053 175,42.709235 C175,42.9880648 174.773964,43.2141009 174.495134,43.2141009 L168.19939,43.2141009 L171.124761,46.1394716 C171.320023,46.3347337 171.320023,46.6513162 171.124761,46.8465783 L171.11788,46.8534598 C170.922617,47.048722 170.606035,47.048722 170.410773,46.8534598 L166.875239,43.3179259 C166.84349,43.2861773 166.816904,43.2512213 166.79548,43.2141009 L158.20452,43.2141009 C158.183096,43.2512213 158.15651,43.2861773 158.124761,43.3179259 L154.589227,46.8534598 C154.393965,47.048722 154.077383,47.048722 153.88212,46.8534598 L153.875239,46.8465783 C153.679977,46.6513162 153.679977,46.3347337 153.875239,46.1394716 L156.80061,43.2141009 Z M163,23.0194637 L163,21.5 C163,21.2238576 163.223858,21 163.5,21 C163.776142,21 164,21.2238576 164,21.5 L164,23.0194637 L174.495134,23.0194637 C174.773964,23.0194637 175,23.2454999 175,23.5243297 C175,23.8031594 174.773964,24.0291956 174.495134,24.0291956 L151.504866,24.0291956 C151.226036,24.0291956 151,23.8031594 151,23.5243297 C151,23.2454999 151.226036,23.0194637 151.504866,23.0194637 L163,23.0194637 Z M155,25.0389274 L171,25.0389274 C173.209139,25.0389274 175,26.8297884 175,29.0389274 L175,37.1946372 C175,39.4037762 173.209139,41.1946372 171,41.1946372 L155,41.1946372 C152.790861,41.1946372 151,39.4037762 151,37.1946372 L151,29.0389274 C151,26.8297884 152.790861,25.0389274 155,25.0389274 Z M155,26.0486593 C153.343146,26.0486593 152,27.3918051 152,29.0486593 L152,37.1849054 C152,38.8417596 153.343146,40.1849054 155,40.1849054 L171,40.1849054 C172.656854,40.1849054 174,38.8417596 174,37.1849054 L174,29.0486593 C174,27.3918051 172.656854,26.0486593 171,26.0486593 L155,26.0486593 Z" id="Combined-Shape-Copy" fill="#0099FF"></path>
        <path d="M33,86 L33,87 C33,88.1045695 33.8954305,89 35,89 L56,89 C57.1045695,89 58,88.1045695 58,87 L58,73 C58,71.8954305 57.1045695,71 56,71 L35,71 C33.8954305,71 33,71.8954305 33,73 L33,85 L58,85 L58,86 L33,86 Z M48.233875,90 L48.7697734,92 L50.5,92 C50.7761424,92 51,92.2238576 51,92.5 C51,92.7761424 50.7761424,93 50.5,93 L40.5,93 C40.2238576,93 40,92.7761424 40,92.5 C40,92.2238576 40.2238576,92 40.5,92 L42.198435,92 L42.7343333,90 L35,90 C33.3431458,90 32,88.6568542 32,87 L32,73 C32,71.3431458 33.3431458,70 35,70 L56,70 C57.6568542,70 59,71.3431458 59,73 L59,87 C59,88.6568542 57.6568542,90 56,90 L48.233875,90 Z M47.1985988,90 L43.7696095,90 L43.2337111,92 L47.7344972,92 L47.1985988,90 Z" id="Combined-Shape-Copy-5" fill="#FFFFFF" opacity="0.6"></path>
        <path d="M92,86 L92,87 C92,88.1045695 92.8954305,89 94,89 L115,89 C116.104569,89 117,88.1045695 117,87 L117,73 C117,71.8954305 116.104569,71 115,71 L94,71 C92.8954305,71 92,71.8954305 92,73 L92,85 L117,85 L117,86 L92,86 Z M107.233875,90 L107.769773,92 L109.5,92 C109.776142,92 110,92.2238576 110,92.5 C110,92.7761424 109.776142,93 109.5,93 L99.5,93 C99.2238576,93 99,92.7761424 99,92.5 C99,92.2238576 99.2238576,92 99.5,92 L101.198435,92 L101.734333,90 L94,90 C92.3431458,90 91,88.6568542 91,87 L91,73 C91,71.3431458 92.3431458,70 94,70 L115,70 C116.656854,70 118,71.3431458 118,73 L118,87 C118,88.6568542 116.656854,90 115,90 L107.233875,90 Z M106.198599,90 L102.76961,90 L102.233711,92 L106.734497,92 L106.198599,90 Z" id="Combined-Shape-Copy-9" fill="#FFFFFF"></path>
        <path d="M151,86 L151,87 C151,88.1045695 151.895431,89 153,89 L174,89 C175.104569,89 176,88.1045695 176,87 L176,73 C176,71.8954305 175.104569,71 174,71 L153,71 C151.895431,71 151,71.8954305 151,73 L151,85 L176,85 L176,86 L151,86 Z M166.233875,90 L166.769773,92 L168.5,92 C168.776142,92 169,92.2238576 169,92.5 C169,92.7761424 168.776142,93 168.5,93 L158.5,93 C158.223858,93 158,92.7761424 158,92.5 C158,92.2238576 158.223858,92 158.5,92 L160.198435,92 L160.734333,90 L153,90 C151.343146,90 150,88.6568542 150,87 L150,73 C150,71.3431458 151.343146,70 153,70 L174,70 C175.656854,70 177,71.3431458 177,73 L177,87 C177,88.6568542 175.656854,90 174,90 L166.233875,90 Z M165.198599,90 L161.76961,90 L161.233711,92 L165.734497,92 L165.198599,90 Z" id="Combined-Shape-Copy-10" fill="#0099FF"></path>
        <path d="M110.809524,129.75 L110.809524,125.369048 C110.809524,125.027157 111.086681,124.75 111.428571,124.75 C111.770462,124.75 112.047619,125.027157 112.047619,125.369048 L112.047619,129.75 L116.375,129.75 C116.720178,129.75 117,130.029822 117,130.375 C117,130.720178 116.720178,131 116.375,131 L112.047619,131 L112.047619,135.380952 C112.047619,135.722843 111.770462,136 111.428571,136 C111.086681,136 110.809524,135.722843 110.809524,135.380952 L110.809524,131 L106.482143,131 C106.136965,131 105.857143,130.720178 105.857143,130.375 C105.857143,130.029822 106.136965,129.75 106.482143,129.75 L110.809524,129.75 Z M99.4207242,122.992942 C97.7009802,121.812182 96.5714286,119.82052 96.5714286,117.5625 C96.5714286,113.938131 99.4815777,111 103.071429,111 C106.661279,111 109.571429,113.938131 109.571429,117.5625 C109.571429,121.186869 106.661279,124.125 103.071429,124.125 C102.913465,124.125 102.756818,124.119311 102.601677,124.108125 L102.607317,124.125 L101.000416,124.125 C96.4323225,124.125 92.6564651,127.353722 92.2437032,131.389825 L92.2380952,132.287442 C92.2380952,133.628772 93.4348519,134.75 94.9355949,134.75 L105.857143,134.75 L105.857143,136 L95.0138033,136 C92.797041,136 91,134.315761 91,132.253913 L91.005581,131.358849 C91.4366395,127.094436 94.9300525,123.661252 99.4207242,122.992942 Z M103.071429,122.875 C105.977498,122.875 108.333333,120.496513 108.333333,117.5625 C108.333333,114.628487 105.977498,112.25 103.071429,112.25 C100.165359,112.25 97.8095238,114.628487 97.8095238,117.5625 C97.8095238,120.496513 100.165359,122.875 103.071429,122.875 Z" id="Combined-Shape" fill="#FFFFFF"></path>
        <path d="M50.8095238,129.75 L50.8095238,125.369048 C50.8095238,125.027157 51.0866809,124.75 51.4285714,124.75 C51.770462,124.75 52.047619,125.027157 52.047619,125.369048 L52.047619,129.75 L56.375,129.75 C56.720178,129.75 57,130.029822 57,130.375 C57,130.720178 56.720178,131 56.375,131 L52.047619,131 L52.047619,135.380952 C52.047619,135.722843 51.770462,136 51.4285714,136 C51.0866809,136 50.8095238,135.722843 50.8095238,135.380952 L50.8095238,131 L46.4821429,131 C46.1369649,131 45.8571429,130.720178 45.8571429,130.375 C45.8571429,130.029822 46.1369649,129.75 46.4821429,129.75 L50.8095238,129.75 Z M39.4207242,122.992942 C37.7009802,121.812182 36.5714286,119.82052 36.5714286,117.5625 C36.5714286,113.938131 39.4815777,111 43.0714286,111 C46.6612794,111 49.5714286,113.938131 49.5714286,117.5625 C49.5714286,121.186869 46.6612794,124.125 43.0714286,124.125 C42.9134653,124.125 42.7568181,124.119311 42.601677,124.108125 L42.6073169,124.125 L41.0004158,124.125 C36.4323225,124.125 32.6564651,127.353722 32.2437032,131.389825 L32.2380952,132.287442 C32.2380952,133.628772 33.4348519,134.75 34.9355949,134.75 L45.8571429,134.75 L45.8571429,136 L35.0138033,136 C32.797041,136 31,134.315761 31,132.253913 L31.005581,131.358849 C31.4366395,127.094436 34.9300525,123.661252 39.4207242,122.992942 Z M43.0714286,122.875 C45.9774983,122.875 48.3333333,120.496513 48.3333333,117.5625 C48.3333333,114.628487 45.9774983,112.25 43.0714286,112.25 C40.1653588,112.25 37.8095238,114.628487 37.8095238,117.5625 C37.8095238,120.496513 40.1653588,122.875 43.0714286,122.875 Z" id="Combined-Shape-Copy-6" fill="#FFFFFF" opacity="0.6"></path>
        <path d="M170.809524,129.75 L170.809524,125.369048 C170.809524,125.027157 171.086681,124.75 171.428571,124.75 C171.770462,124.75 172.047619,125.027157 172.047619,125.369048 L172.047619,129.75 L176.375,129.75 C176.720178,129.75 177,130.029822 177,130.375 C177,130.720178 176.720178,131 176.375,131 L172.047619,131 L172.047619,135.380952 C172.047619,135.722843 171.770462,136 171.428571,136 C171.086681,136 170.809524,135.722843 170.809524,135.380952 L170.809524,131 L166.482143,131 C166.136965,131 165.857143,130.720178 165.857143,130.375 C165.857143,130.029822 166.136965,129.75 166.482143,129.75 L170.809524,129.75 Z M159.420724,122.992942 C157.70098,121.812182 156.571429,119.82052 156.571429,117.5625 C156.571429,113.938131 159.481578,111 163.071429,111 C166.661279,111 169.571429,113.938131 169.571429,117.5625 C169.571429,121.186869 166.661279,124.125 163.071429,124.125 C162.913465,124.125 162.756818,124.119311 162.601677,124.108125 L162.607317,124.125 L161.000416,124.125 C156.432322,124.125 152.656465,127.353722 152.243703,131.389825 L152.238095,132.287442 C152.238095,133.628772 153.434852,134.75 154.935595,134.75 L165.857143,134.75 L165.857143,136 L155.013803,136 C152.797041,136 151,134.315761 151,132.253913 L151.005581,131.358849 C151.436639,127.094436 154.930052,123.661252 159.420724,122.992942 Z M163.071429,122.875 C165.977498,122.875 168.333333,120.496513 168.333333,117.5625 C168.333333,114.628487 165.977498,112.25 163.071429,112.25 C160.165359,112.25 157.809524,114.628487 157.809524,117.5625 C157.809524,120.496513 160.165359,122.875 163.071429,122.875 Z" id="Combined-Shape-Copy-3" fill="#0099FF"></path>
        <g id="Group-Copy" transform="translate(87.000000, 159.000000)" stroke="#FFFFFF">
            <path d="M3.6575486,25.1388889 C1.63754028,25.1388889 0,23.5704973 0,21.6504692 L0.00508562366,20.8169701 C0.412134187,16.7018164 3.81587014,13.4178968 8.12217061,12.9690164 C6.28180585,11.9159733 5.04166667,9.93336652 5.04166667,7.66110971 C5.04166667,4.28603624 7.77770431,1.5499986 11.1527778,1.5499986" id="Combined-Shape" stroke-linecap="round" stroke-linejoin="round"></path>
            <path d="M27.6575486,25.5888903 C25.6375403,25.5888903 24,24.0204987 24,22.1004706 L24.0050856,21.2669715 C24.4121342,17.1518178 27.8158701,13.8678982 32.1221706,13.4190178 C30.2818059,12.3659747 29.0416667,10.3833679 29.0416667,8.11111111 C29.0416667,4.73603764 31.7777043,2 35.1527778,2" id="Combined-Shape" stroke-linecap="round" stroke-linejoin="round" transform="translate(29.576389, 13.794445) scale(-1, 1) translate(-29.576389, -13.794445) "></path>
            <path d="M19.0371165,13.5 L14.9631877,13.5 C10.0424377,13.5 5.95896402,17.0592643 5.50553865,21.6215635 L5.5,22.5277845 C5.5,24.3434139 7.0601246,25.8333333 8.99005301,25.8333333 L25.009947,25.8333333 C26.9439516,25.8333333 28.5,24.3486948 28.5,22.5277845 L28.5021686,21.7215318 L28.4971525,21.6677687 C28.0410464,17.0603248 23.9547044,13.5 19.0371165,13.5 Z" id="Combined-Shape"></path>
            <circle id="Oval-4-Copy" cx="17.1666667" cy="7.26666514" r="6.16666667"></circle>
        </g>
        <g id="Group-Copy-3" opacity="0.6" transform="translate(27.000000, 159.000000)" stroke="#FFFFFF">
            <path d="M3.6575486,25.1388889 C1.63754028,25.1388889 0,23.5704973 0,21.6504692 L0.00508562366,20.8169701 C0.412134187,16.7018164 3.81587014,13.4178968 8.12217061,12.9690164 C6.28180585,11.9159733 5.04166667,9.93336652 5.04166667,7.66110971 C5.04166667,4.28603624 7.77770431,1.5499986 11.1527778,1.5499986" id="Combined-Shape" stroke-linecap="round" stroke-linejoin="round"></path>
            <path d="M27.6575486,25.5888903 C25.6375403,25.5888903 24,24.0204987 24,22.1004706 L24.0050856,21.2669715 C24.4121342,17.1518178 27.8158701,13.8678982 32.1221706,13.4190178 C30.2818059,12.3659747 29.0416667,10.3833679 29.0416667,8.11111111 C29.0416667,4.73603764 31.7777043,2 35.1527778,2" id="Combined-Shape" stroke-linecap="round" stroke-linejoin="round" transform="translate(29.576389, 13.794445) scale(-1, 1) translate(-29.576389, -13.794445) "></path>
            <path d="M19.0371165,13.5 L14.9631877,13.5 C10.0424377,13.5 5.95896402,17.0592643 5.50553865,21.6215635 L5.5,22.5277845 C5.5,24.3434139 7.0601246,25.8333333 8.99005301,25.8333333 L25.009947,25.8333333 C26.9439516,25.8333333 28.5,24.3486948 28.5,22.5277845 L28.5021686,21.7215318 L28.4971525,21.6677687 C28.0410464,17.0603248 23.9547044,13.5 19.0371165,13.5 Z" id="Combined-Shape"></path>
            <circle id="Oval-4-Copy" cx="17.1666667" cy="7.26666514" r="6.16666667"></circle>
        </g>
        <g id="Group-Copy-2" transform="translate(147.000000, 159.000000)" stroke="#0099FF">
            <path d="M3.6575486,25.1388889 C1.63754028,25.1388889 0,23.5704973 0,21.6504692 L0.00508562366,20.8169701 C0.412134187,16.7018164 3.81587014,13.4178968 8.12217061,12.9690164 C6.28180585,11.9159733 5.04166667,9.93336652 5.04166667,7.66110971 C5.04166667,4.28603624 7.77770431,1.5499986 11.1527778,1.5499986" id="Combined-Shape" stroke-linecap="round" stroke-linejoin="round"></path>
            <path d="M27.6575486,25.5888903 C25.6375403,25.5888903 24,24.0204987 24,22.1004706 L24.0050856,21.2669715 C24.4121342,17.1518178 27.8158701,13.8678982 32.1221706,13.4190178 C30.2818059,12.3659747 29.0416667,10.3833679 29.0416667,8.11111111 C29.0416667,4.73603764 31.7777043,2 35.1527778,2" id="Combined-Shape" stroke-linecap="round" stroke-linejoin="round" transform="translate(29.576389, 13.794445) scale(-1, 1) translate(-29.576389, -13.794445) "></path>
            <path d="M19.0371165,13.5 L14.9631877,13.5 C10.0424377,13.5 5.95896402,17.0592643 5.50553865,21.6215635 L5.5,22.5277845 C5.5,24.3434139 7.0601246,25.8333333 8.99005301,25.8333333 L25.009947,25.8333333 C26.9439516,25.8333333 28.5,24.3486948 28.5,22.5277845 L28.5021686,21.7215318 L28.4971525,21.6677687 C28.0410464,17.0603248 23.9547044,13.5 19.0371165,13.5 Z" id="Combined-Shape"></path>
            <circle id="Oval-4-Copy" cx="17.1666667" cy="7.26666514" r="6.16666667"></circle>
        </g>
        <path d="M173.811494,239.996256 C173.791342,239.998728 173.77082,240 173.75,240 L157.25,240 C156.973858,240 156.75,239.776142 156.75,239.5 L156.75,239.25 C156.75,238.973858 156.973858,238.75 157.25,238.75 L160.777873,238.75 L161.921915,234.480376 C156.761963,232.941553 153,228.160103 153,222.5 C153,220.046319 153.706972,217.75776 154.92833,215.826908 L155.751707,216.880783 C154.796567,218.5342 154.25,220.453271 154.25,222.5 C154.25,228.713203 159.286797,233.75 165.5,233.75 C166.573288,233.75 167.611471,233.599701 168.594652,233.319003 L169.418512,234.373496 C169.405028,234.377944 169.391534,234.382369 169.37803,234.386772 L170.547153,238.75 L172.837812,238.75 L173.811494,239.996256 Z M173.718651,231.918503 L172.947787,230.931842 C175.279632,228.870577 176.75,225.857 176.75,222.5 C176.75,216.286797 171.713203,211.25 165.5,211.25 C163.130908,211.25 160.932853,211.982297 159.119844,213.232882 L158.348977,212.246217 C160.375223,210.83047 162.840628,210 165.5,210 C172.403559,210 178,215.596441 178,222.5 C178,226.257121 176.342414,229.627091 173.718651,231.918503 Z M159.909502,222.202518 L160.787156,223.325864 C160.601217,223.849272 160.5,224.412816 160.5,225 C160.5,227.761424 162.738576,230 165.5,230 C165.663119,230 165.824414,229.992189 165.983531,229.97692 L166.861905,231.101187 C166.423495,231.198617 165.967748,231.25 165.5,231.25 C162.04822,231.25 159.25,228.45178 159.25,225 C159.25,223.994354 159.487512,223.044181 159.909502,222.202518 Z M163.648185,219.028894 C164.233338,218.847623 164.855269,218.75 165.5,218.75 C168.95178,218.75 171.75,221.54822 171.75,225 C171.75,226.186492 171.419383,227.295765 170.845249,228.240717 L170.006937,227.167726 C170.322922,226.511957 170.5,225.776658 170.5,225 C170.5,222.238576 168.261424,220 165.5,220 C165.152974,220 164.814205,220.035353 164.487098,220.102655 L163.648185,219.028894 Z M163.135674,234.776711 L162.065757,238.75 L169.259269,238.75 L168.172382,234.713689 C167.311368,234.90121 166.417221,235 165.5,235 C164.691676,235 163.901272,234.923275 163.135674,234.776711 Z M165.5,216.25 C164.809644,216.25 164.25,215.690356 164.25,215 C164.25,214.309644 164.809644,213.75 165.5,213.75 C166.190356,213.75 166.75,214.309644 166.75,215 C166.75,215.690356 166.190356,216.25 165.5,216.25 Z M154.015368,211.705293 L154.980681,210.951108 L176.528833,238.531485 L175.56352,239.28567 L154.015368,211.705293 Z" id="Combined-Shape" fill="#0099FF"></path>
        <path d="M113.811494,239.996256 C113.791342,239.998728 113.77082,240 113.75,240 L97.25,240 C96.9738576,240 96.75,239.776142 96.75,239.5 L96.75,239.25 C96.75,238.973858 96.9738576,238.75 97.25,238.75 L100.777873,238.75 L101.921915,234.480376 C96.7619628,232.941553 93,228.160103 93,222.5 C93,220.046319 93.7069718,217.75776 94.9283297,215.826908 L95.7517068,216.880783 C94.7965675,218.5342 94.25,220.453271 94.25,222.5 C94.25,228.713203 99.2867966,233.75 105.5,233.75 C106.573288,233.75 107.611471,233.599701 108.594652,233.319003 L109.418512,234.373496 C109.405028,234.377944 109.391534,234.382369 109.37803,234.386772 L110.547153,238.75 L112.837812,238.75 L113.811494,239.996256 Z M113.718651,231.918503 L112.947787,230.931842 C115.279632,228.870577 116.75,225.857 116.75,222.5 C116.75,216.286797 111.713203,211.25 105.5,211.25 C103.130908,211.25 100.932853,211.982297 99.1198436,213.232882 L98.3489768,212.246217 C100.375223,210.83047 102.840628,210 105.5,210 C112.403559,210 118,215.596441 118,222.5 C118,226.257121 116.342414,229.627091 113.718651,231.918503 Z M99.9095021,222.202518 L100.787156,223.325864 C100.601217,223.849272 100.5,224.412816 100.5,225 C100.5,227.761424 102.738576,230 105.5,230 C105.663119,230 105.824414,229.992189 105.983531,229.97692 L106.861905,231.101187 C106.423495,231.198617 105.967748,231.25 105.5,231.25 C102.04822,231.25 99.25,228.45178 99.25,225 C99.25,223.994354 99.4875125,223.044181 99.9095021,222.202518 Z M103.648185,219.028894 C104.233338,218.847623 104.855269,218.75 105.5,218.75 C108.95178,218.75 111.75,221.54822 111.75,225 C111.75,226.186492 111.419383,227.295765 110.845249,228.240717 L110.006937,227.167726 C110.322922,226.511957 110.5,225.776658 110.5,225 C110.5,222.238576 108.261424,220 105.5,220 C105.152974,220 104.814205,220.035353 104.487098,220.102655 L103.648185,219.028894 Z M103.135674,234.776711 L102.065757,238.75 L109.259269,238.75 L108.172382,234.713689 C107.311368,234.90121 106.417221,235 105.5,235 C104.691676,235 103.901272,234.923275 103.135674,234.776711 Z M105.5,216.25 C104.809644,216.25 104.25,215.690356 104.25,215 C104.25,214.309644 104.809644,213.75 105.5,213.75 C106.190356,213.75 106.75,214.309644 106.75,215 C106.75,215.690356 106.190356,216.25 105.5,216.25 Z M94.0153683,211.705293 L94.9806814,210.951108 L116.528833,238.531485 L115.56352,239.28567 L94.0153683,211.705293 Z" id="Combined-Shape-Copy-7" fill="#FFFFFF"></path>
        <path d="M53.8114938,239.996256 C53.7913421,239.998728 53.7708197,240 53.75,240 L37.25,240 C36.9738576,240 36.75,239.776142 36.75,239.5 L36.75,239.25 C36.75,238.973858 36.9738576,238.75 37.25,238.75 L40.7778731,238.75 L41.9219152,234.480376 C36.7619628,232.941553 33,228.160103 33,222.5 C33,220.046319 33.7069718,217.75776 34.9283297,215.826908 L35.7517068,216.880783 C34.7965675,218.5342 34.25,220.453271 34.25,222.5 C34.25,228.713203 39.2867966,233.75 45.5,233.75 C46.5732878,233.75 47.6114713,233.599701 48.5946517,233.319003 L49.4185122,234.373496 C49.4050282,234.377944 49.391534,234.382369 49.3780297,234.386772 L50.5471532,238.75 L52.8378119,238.75 L53.8114938,239.996256 Z M53.718651,231.918503 L52.9477867,230.931842 C55.2796324,228.870577 56.75,225.857 56.75,222.5 C56.75,216.286797 51.7132034,211.25 45.5,211.25 C43.1309081,211.25 40.9328533,211.982297 39.1198436,213.232882 L38.3489768,212.246217 C40.3752231,210.83047 42.8406282,210 45.5,210 C52.4035594,210 58,215.596441 58,222.5 C58,226.257121 56.3424141,229.627091 53.718651,231.918503 Z M39.9095021,222.202518 L40.7871562,223.325864 C40.6012173,223.849272 40.5,224.412816 40.5,225 C40.5,227.761424 42.7385763,230 45.5,230 C45.6631192,230 45.824414,229.992189 45.9835307,229.97692 L46.8619045,231.101187 C46.4234953,231.198617 45.9677482,231.25 45.5,231.25 C42.0482203,231.25 39.25,228.45178 39.25,225 C39.25,223.994354 39.4875125,223.044181 39.9095021,222.202518 Z M43.6481848,219.028894 C44.2333384,218.847623 44.8552686,218.75 45.5,218.75 C48.9517797,218.75 51.75,221.54822 51.75,225 C51.75,226.186492 51.4193826,227.295765 50.845249,228.240717 L50.0069366,227.167726 C50.3229217,226.511957 50.5,225.776658 50.5,225 C50.5,222.238576 48.2614237,220 45.5,220 C45.1529739,220 44.8142049,220.035353 44.4870984,220.102655 L43.6481848,219.028894 Z M43.135674,234.776711 L42.0657571,238.75 L49.2592692,238.75 L48.1723821,234.713689 C47.3113683,234.90121 46.417221,235 45.5,235 C44.6916762,235 43.9012724,234.923275 43.135674,234.776711 Z M45.5,216.25 C44.8096441,216.25 44.25,215.690356 44.25,215 C44.25,214.309644 44.8096441,213.75 45.5,213.75 C46.1903559,213.75 46.75,214.309644 46.75,215 C46.75,215.690356 46.1903559,216.25 45.5,216.25 Z M34.0153683,211.705293 L34.9806814,210.951108 L56.5288331,238.531485 L55.5635199,239.28567 L34.0153683,211.705293 Z" id="Combined-Shape-Copy-8" fill="#FFFFFF" opacity="0.6"></path>
        <g id="Group" opacity="0.6" transform="translate(35.000000, 273.000000)" fill="#FFFFFF">
            <path d="M16.3098259,19.9185216 C14.9416466,21.6712212 12.859147,22.8391479 10.5,22.984629 L10.5,28 L16.1315789,28 C16.4077213,28 16.6315789,28.2238576 16.6315789,28.5 C16.6315789,28.7761424 16.4077213,29 16.1315789,29 L4.5,29 C4.22385763,29 4,28.7761424 4,28.5 C4,28.2238576 4.22385763,28 4.5,28 L9.5,28 L9.5,22.984629 C5.31463514,22.7265308 2,19.2503527 2,15 L2,11 C2,10.7238576 2.22385763,10.5 2.5,10.5 C2.77614237,10.5 3,10.7238576 3,11 L3,15 C3,18.8659932 6.13400675,22 10,22 C12.2877841,22 14.3192314,20.9024917 15.5965607,19.2052563 L16.3098259,19.9185216 Z M17.8968372,16.2881415 L16.9898019,15.3811063 C16.9965717,15.2549295 17,15.1278651 17,15 L17,11 C17,10.7238576 17.2238576,10.5 17.5,10.5 C17.7761424,10.5 18,10.7238576 18,11 L18,15 C18,15.4385157 17.9647178,15.8687909 17.8968372,16.2881415 Z M16,14.3913043 L15,13.3913043 L15,5.75 C15,3.12664744 12.7614237,1 10,1 C7.96156941,1 6.20804428,2.15883404 5.42956469,3.82086904 L4.7328373,3.12414165 C5.75144809,1.26249934 7.72828779,0 10,0 C13.3137085,0 16,2.6862915 16,6 L16,14.3913043 Z M14.8812032,18.4898989 C13.7926718,20.0096821 12.0119865,21 10,21 C6.6862915,21 4,18.3137085 4,15 L4,7.60869565 L5,8.60869565 L5,15.25 C5,17.8733526 7.23857625,20 10,20 C11.7661537,20 13.3184295,19.1300659 14.2079425,17.8166382 L14.8812032,18.4898989 Z" id="Combined-Shape"></path>
            <rect id="Rectangle-11" transform="translate(10.401913, 11.401913) rotate(45.000000) translate(-10.401913, -11.401913) " x="-3.8086134" y="10.9019129" width="28.4210526" height="1" rx="0.5"></rect>
        </g>
        <g id="Group-Copy-4" transform="translate(92.000000, 273.000000)" fill="#FFFFFF">
            <path d="M16.3098259,19.9185216 C14.9416466,21.6712212 12.859147,22.8391479 10.5,22.984629 L10.5,28 L16.1315789,28 C16.4077213,28 16.6315789,28.2238576 16.6315789,28.5 C16.6315789,28.7761424 16.4077213,29 16.1315789,29 L4.5,29 C4.22385763,29 4,28.7761424 4,28.5 C4,28.2238576 4.22385763,28 4.5,28 L9.5,28 L9.5,22.984629 C5.31463514,22.7265308 2,19.2503527 2,15 L2,11 C2,10.7238576 2.22385763,10.5 2.5,10.5 C2.77614237,10.5 3,10.7238576 3,11 L3,15 C3,18.8659932 6.13400675,22 10,22 C12.2877841,22 14.3192314,20.9024917 15.5965607,19.2052563 L16.3098259,19.9185216 Z M17.8968372,16.2881415 L16.9898019,15.3811063 C16.9965717,15.2549295 17,15.1278651 17,15 L17,11 C17,10.7238576 17.2238576,10.5 17.5,10.5 C17.7761424,10.5 18,10.7238576 18,11 L18,15 C18,15.4385157 17.9647178,15.8687909 17.8968372,16.2881415 Z M16,14.3913043 L15,13.3913043 L15,5.75 C15,3.12664744 12.7614237,1 10,1 C7.96156941,1 6.20804428,2.15883404 5.42956469,3.82086904 L4.7328373,3.12414165 C5.75144809,1.26249934 7.72828779,0 10,0 C13.3137085,0 16,2.6862915 16,6 L16,14.3913043 Z M14.8812032,18.4898989 C13.7926718,20.0096821 12.0119865,21 10,21 C6.6862915,21 4,18.3137085 4,15 L4,7.60869565 L5,8.60869565 L5,15.25 C5,17.8733526 7.23857625,20 10,20 C11.7661537,20 13.3184295,19.1300659 14.2079425,17.8166382 L14.8812032,18.4898989 Z" id="Combined-Shape"></path>
            <rect id="Rectangle-11" transform="translate(10.401913, 11.401913) rotate(45.000000) translate(-10.401913, -11.401913) " x="-3.8086134" y="10.9019129" width="28.4210526" height="1" rx="0.5"></rect>
        </g>
        <g id="Group-Copy-5" transform="translate(149.000000, 273.000000)" fill="#0099FF">
            <path d="M16.3098259,19.9185216 C14.9416466,21.6712212 12.859147,22.8391479 10.5,22.984629 L10.5,28 L16.1315789,28 C16.4077213,28 16.6315789,28.2238576 16.6315789,28.5 C16.6315789,28.7761424 16.4077213,29 16.1315789,29 L4.5,29 C4.22385763,29 4,28.7761424 4,28.5 C4,28.2238576 4.22385763,28 4.5,28 L9.5,28 L9.5,22.984629 C5.31463514,22.7265308 2,19.2503527 2,15 L2,11 C2,10.7238576 2.22385763,10.5 2.5,10.5 C2.77614237,10.5 3,10.7238576 3,11 L3,15 C3,18.8659932 6.13400675,22 10,22 C12.2877841,22 14.3192314,20.9024917 15.5965607,19.2052563 L16.3098259,19.9185216 Z M17.8968372,16.2881415 L16.9898019,15.3811063 C16.9965717,15.2549295 17,15.1278651 17,15 L17,11 C17,10.7238576 17.2238576,10.5 17.5,10.5 C17.7761424,10.5 18,10.7238576 18,11 L18,15 C18,15.4385157 17.9647178,15.8687909 17.8968372,16.2881415 Z M16,14.3913043 L15,13.3913043 L15,5.75 C15,3.12664744 12.7614237,1 10,1 C7.96156941,1 6.20804428,2.15883404 5.42956469,3.82086904 L4.7328373,3.12414165 C5.75144809,1.26249934 7.72828779,0 10,0 C13.3137085,0 16,2.6862915 16,6 L16,14.3913043 Z M14.8812032,18.4898989 C13.7926718,20.0096821 12.0119865,21 10,21 C6.6862915,21 4,18.3137085 4,15 L4,7.60869565 L5,8.60869565 L5,15.25 C5,17.8733526 7.23857625,20 10,20 C11.7661537,20 13.3184295,19.1300659 14.2079425,17.8166382 L14.8812032,18.4898989 Z" id="Combined-Shape"></path>
            <rect id="Rectangle-11" transform="translate(10.401913, 11.401913) rotate(45.000000) translate(-10.401913, -11.401913) " x="-3.8086134" y="10.9019129" width="28.4210526" height="1" rx="0.5"></rect>
        </g>
        <g id="Group-17" transform="translate(34.000000, 726.000000)">
            <rect id="Rectangle-22" fill="#F3B100" x="0" y="0" width="24" height="12" rx="6"></rect>
            <text id="Host" font-family="PingFangSC-Medium, PingFang SC" font-size="8" font-weight="400" fill="#532F00">
                <tspan x="3" y="9">Host</tspan>
            </text>
        </g>
        <g id="Group-16" transform="translate(30.000000, 331.000000)" fill="#FFFFFF">
            <circle id="Oval" fill-opacity="0.4" cx="15" cy="15" r="15"></circle>
            <g id="Group" opacity="0.6" transform="translate(8.000000, 6.000000)">
                <path d="M10.71715,14.1155798 C9.81765752,14.8264061 8.70970674,15.2850697 7.5,15.3848685 L7.5,17.972973 L10.5,17.972973 C10.7761424,17.972973 11,18.1968306 11,18.472973 L11,18.5 C11,18.7761424 10.7761424,19 10.5,19 L3.5,19 C3.22385763,19 3,18.7761424 3,18.5 L3,18.472973 C3,18.1968306 3.22385763,17.972973 3.5,17.972973 L6.5,17.972973 L6.5,15.3848685 C3.42023474,15.1307931 1,12.5507373 1,9.40540541 L1,7.18918919 C1,6.90558351 1.22385763,6.67567568 1.5,6.67567568 C1.77614237,6.67567568 2,6.90558351 2,7.18918919 L2,9.37837838 C2,12.1398021 4.23857625,14.3783784 7,14.3783784 C8.12055783,14.3783784 9.15502074,14.0097623 9.9887445,13.3871743 L10.71715,14.1155798 Z M12.5782939,11.619417 L11.7866859,10.827809 C11.9254173,10.3690411 12,9.88241962 12,9.37837838 L12,7.18918919 C12,6.90558351 12.2238576,6.67567568 12.5,6.67567568 C12.7761424,6.67567568 13,6.90558351 13,7.18918919 L13,9.40540541 C13,10.1873653 12.8504131,10.9343874 12.5782939,11.619417 Z M10.969438,10.0105611 L10,9.04112311 L10,3.85135135 C10,2.2915201 8.65685425,1.02702703 7,1.02702703 C5.60501239,1.02702703 4.43240613,1.92339957 4.09659086,3.13771397 L3.30650279,2.3476259 C3.90927446,0.969018417 5.33597624,0 7,0 C9.209139,0 11,1.70788675 11,3.81467181 L11,9.53667954 C11,9.69714702 10.9896105,9.85530033 10.969438,10.0105611 Z M9.27576909,12.6741988 C8.62975344,13.1011711 7.8455125,13.3513514 7,13.3513514 C4.790861,13.3513514 3,11.6434646 3,9.53667954 L3,6.39842976 L4,7.39842976 L4,9.5 C4,11.0598313 5.34314575,12.3243243 7,12.3243243 C7.559258,12.3243243 8.08277373,12.1802548 8.53095737,11.9293871 L9.27576909,12.6741988 Z" id="Combined-Shape"></path>
                <rect id="Rectangle-11" transform="translate(7.000000, 7.500000) rotate(45.000000) translate(-7.000000, -7.500000) " x="-2" y="7" width="18" height="1" rx="0.5"></rect>
            </g>
        </g>
        <g id="Group-15" transform="translate(86.000000, 331.000000)" fill="#FFFFFF">
            <circle id="Oval-Copy" opacity="0.6" cx="15" cy="15" r="15"></circle>
            <g id="Group-Copy-6" transform="translate(8.000000, 6.000000)">
                <path d="M10.6449927,13.766313 C9.7586935,14.445127 8.67755629,14.8823167 7.5,14.9794631 L7.5,17.5 L10.5,17.5 C10.7761424,17.5 11,17.7238576 11,18 C11,18.2761424 10.7761424,18.5 10.5,18.5 L3.5,18.5 C3.22385763,18.5 3,18.2761424 3,18 C3,17.7238576 3.22385763,17.5 3.5,17.5 L6.5,17.5 L6.5,14.9794631 C3.42023474,14.7253877 1,12.1453319 1,9 L1,7 C1,6.72385763 1.22385763,6.5 1.5,6.5 C1.77614237,6.5 2,6.72385763 2,7 L2,9 C2,11.7614237 4.23857625,14 7,14 C8.09456127,14 9.10697605,13.648289 9.9303955,13.0517158 L10.6449927,13.766313 Z M12.5069875,11.3856672 L11.7341664,10.6128461 C11.9065075,10.1068296 12,9.56433299 12,9 L12,7 C12,6.72385763 12.2238576,6.5 12.5,6.5 C12.7761424,6.5 13,6.72385763 13,7 L13,9 C13,9.84778232 12.8241699,10.6544973 12.5069875,11.3856672 Z M10.9565299,9.83520957 L10,8.87867966 L10,3.75 C10,2.23121694 8.65685425,1 7,1 C5.62933078,1 4.47335709,1.84261908 4.114913,2.99359266 L3.33830997,2.21698962 C3.95838676,0.911363672 5.36457625,0 7,0 C9.209139,0 11,1.66294236 11,3.71428571 L11,9.28571429 C11,9.47241709 10.985165,9.6559025 10.9565299,9.83520957 Z M9.24128964,12.36261 C8.60193468,12.7649618 7.83052678,13 7,13 C4.790861,13 3,11.3370576 3,9.28571429 L3,6.12132034 L4,7.12132034 L4,9.25 C4,10.7687831 5.34314575,12 7,12 C7.54933753,12 8.06418959,11.8646543 8.507036,11.6283563 L9.24128964,12.36261 Z" id="Combined-Shape"></path>
                <rect id="Rectangle-11" transform="translate(6.717514, 7.717514) rotate(45.000000) translate(-6.717514, -7.717514) " x="-2.28248558" y="7.21751442" width="18" height="1" rx="0.5"></rect>
            </g>
        </g>
        <g id="Group-14" transform="translate(142.000000, 331.000000)">
            <circle id="Oval-Copy-2" fill="#FFFFFF" opacity="0.6" cx="15" cy="15" r="15"></circle>
            <g id="Group-Copy-7" transform="translate(8.000000, 6.000000)" fill="#0099FF">
                <path d="M10.6449927,13.766313 C9.7586935,14.445127 8.67755629,14.8823167 7.5,14.9794631 L7.5,17.5 L10.5,17.5 C10.7761424,17.5 11,17.7238576 11,18 C11,18.2761424 10.7761424,18.5 10.5,18.5 L3.5,18.5 C3.22385763,18.5 3,18.2761424 3,18 C3,17.7238576 3.22385763,17.5 3.5,17.5 L6.5,17.5 L6.5,14.9794631 C3.42023474,14.7253877 1,12.1453319 1,9 L1,7 C1,6.72385763 1.22385763,6.5 1.5,6.5 C1.77614237,6.5 2,6.72385763 2,7 L2,9 C2,11.7614237 4.23857625,14 7,14 C8.09456127,14 9.10697605,13.648289 9.9303955,13.0517158 L10.6449927,13.766313 Z M12.5069875,11.3856672 L11.7341664,10.6128461 C11.9065075,10.1068296 12,9.56433299 12,9 L12,7 C12,6.72385763 12.2238576,6.5 12.5,6.5 C12.7761424,6.5 13,6.72385763 13,7 L13,9 C13,9.84778232 12.8241699,10.6544973 12.5069875,11.3856672 Z M10.9565299,9.83520957 L10,8.87867966 L10,3.75 C10,2.23121694 8.65685425,1 7,1 C5.62933078,1 4.47335709,1.84261908 4.114913,2.99359266 L3.33830997,2.21698962 C3.95838676,0.911363672 5.36457625,0 7,0 C9.209139,0 11,1.66294236 11,3.71428571 L11,9.28571429 C11,9.47241709 10.985165,9.6559025 10.9565299,9.83520957 Z M9.24128964,12.36261 C8.60193468,12.7649618 7.83052678,13 7,13 C4.790861,13 3,11.3370576 3,9.28571429 L3,6.12132034 L4,7.12132034 L4,9.25 C4,10.7687831 5.34314575,12 7,12 C7.54933753,12 8.06418959,11.8646543 8.507036,11.6283563 L9.24128964,12.36261 Z" id="Combined-Shape"></path>
                <rect id="Rectangle-11" transform="translate(6.717514, 7.717514) rotate(45.000000) translate(-6.717514, -7.717514) " x="-2.28248558" y="7.21751442" width="18" height="1" rx="0.5"></rect>
            </g>
        </g>
        <g id="Group-13" transform="translate(142.000000, 379.000000)">
            <circle id="Oval" fill="#FFFFFF" opacity="0.6" cx="15" cy="15" r="15"></circle>
            <g id="Group" transform="translate(6.000000, 9.000000)">
                <path d="M3.12132034,1 L11,1 C12.1045695,1 13,1.8954305 13,3 L13,10 C13,10.2606825 12.9501265,10.5097164 12.8594008,10.7380805 L12,9.87867966 L12,3 C12,2.44771525 11.5522847,2 11,2 L4.12132034,2 L3.12132034,1 Z M9.87867966,12 L2,12 C0.8954305,12 1.3527075e-16,11.1045695 0,10 L0,3 C-3.19243959e-17,2.73931752 0.0498734558,2.49028362 0.140599153,2.2619195 L1,3.12132034 L1,10 C1,10.5522847 1.44771525,11 2,11 L8.87867966,11 L9.87867966,12 Z M1.06066017,0.353553391 L13.0814755,12.3743687 C13.2767376,12.5696308 13.2767376,12.8862133 13.0814755,13.0814755 C12.8862133,13.2767376 12.5696308,13.2767376 12.3743687,13.0814755 L0.353553391,1.06066017 C0.158291245,0.865398026 0.158291245,0.548815536 0.353553391,0.353553391 C0.548815536,0.158291245 0.865398026,0.158291245 1.06066017,0.353553391 Z" id="Combined-Shape" fill="#0099FF"></path>
                <path d="M12.5434783,8.11266118 L16.8213372,10.2341072 C16.8903827,10.2683478 16.9664089,10.2861638 17.0434783,10.2861638 C17.3196206,10.2861638 17.5434783,10.0623061 17.5434783,9.78616375 L17.5434783,3.13079647 C17.5434783,3.04601348 17.5219193,2.96262285 17.4808278,2.88846325 C17.3469908,2.64692178 17.0426865,2.55961 16.801145,2.69344694 L12.5434783,5.05259912 L12.5434783,8.11266118 Z" id="Combined-Shape" stroke="#0099FF"></path>
            </g>
        </g>
        <g id="Group-12" transform="translate(86.000000, 379.000000)">
            <circle id="Oval-Copy-3" fill="#FFFFFF" opacity="0.6" cx="15" cy="15" r="15"></circle>
            <g id="Group-Copy-8" transform="translate(6.000000, 9.000000)">
                <path d="M3.12132034,1 L11,1 C12.1045695,1 13,1.8954305 13,3 L13,10 C13,10.2606825 12.9501265,10.5097164 12.8594008,10.7380805 L12,9.87867966 L12,3 C12,2.44771525 11.5522847,2 11,2 L4.12132034,2 L3.12132034,1 Z M9.87867966,12 L2,12 C0.8954305,12 1.3527075e-16,11.1045695 0,10 L0,3 C-3.19243959e-17,2.73931752 0.0498734558,2.49028362 0.140599153,2.2619195 L1,3.12132034 L1,10 C1,10.5522847 1.44771525,11 2,11 L8.87867966,11 L9.87867966,12 Z M1.06066017,0.353553391 L13.0814755,12.3743687 C13.2767376,12.5696308 13.2767376,12.8862133 13.0814755,13.0814755 C12.8862133,13.2767376 12.5696308,13.2767376 12.3743687,13.0814755 L0.353553391,1.06066017 C0.158291245,0.865398026 0.158291245,0.548815536 0.353553391,0.353553391 C0.548815536,0.158291245 0.865398026,0.158291245 1.06066017,0.353553391 Z" id="Combined-Shape" fill="#FFFFFF"></path>
                <path d="M12.5434783,8.11266118 L16.8213372,10.2341072 C16.8903827,10.2683478 16.9664089,10.2861638 17.0434783,10.2861638 C17.3196206,10.2861638 17.5434783,10.0623061 17.5434783,9.78616375 L17.5434783,3.13079647 C17.5434783,3.04601348 17.5219193,2.96262285 17.4808278,2.88846325 C17.3469908,2.64692178 17.0426865,2.55961 16.801145,2.69344694 L12.5434783,5.05259912 L12.5434783,8.11266118 Z" id="Combined-Shape" stroke="#FFFFFF"></path>
            </g>
        </g>
        <g id="Group-10" transform="translate(30.000000, 379.000000)">
            <circle id="Oval-Copy-4" fill="#FFFFFF" opacity="0.4" cx="15" cy="15" r="15"></circle>
            <g id="Group-Copy-9" opacity="0.6" transform="translate(6.000000, 9.000000)">
                <path d="M3.12132034,1 L11,1 C12.1045695,1 13,1.8954305 13,3 L13,10 C13,10.2606825 12.9501265,10.5097164 12.8594008,10.7380805 L12,9.87867966 L12,3 C12,2.44771525 11.5522847,2 11,2 L4.12132034,2 L3.12132034,1 Z M9.87867966,12 L2,12 C0.8954305,12 1.3527075e-16,11.1045695 0,10 L0,3 C-3.19243959e-17,2.73931752 0.0498734558,2.49028362 0.140599153,2.2619195 L1,3.12132034 L1,10 C1,10.5522847 1.44771525,11 2,11 L8.87867966,11 L9.87867966,12 Z M1.06066017,0.353553391 L13.0814755,12.3743687 C13.2767376,12.5696308 13.2767376,12.8862133 13.0814755,13.0814755 C12.8862133,13.2767376 12.5696308,13.2767376 12.3743687,13.0814755 L0.353553391,1.06066017 C0.158291245,0.865398026 0.158291245,0.548815536 0.353553391,0.353553391 C0.548815536,0.158291245 0.865398026,0.158291245 1.06066017,0.353553391 Z" id="Combined-Shape" fill="#FFFFFF"></path>
                <path d="M12.5434783,8.11266118 L16.8213372,10.2341072 C16.8903827,10.2683478 16.9664089,10.2861638 17.0434783,10.2861638 C17.3196206,10.2861638 17.5434783,10.0623061 17.5434783,9.78616375 L17.5434783,3.13079647 C17.5434783,3.04601348 17.5219193,2.96262285 17.4808278,2.88846325 C17.3469908,2.64692178 17.0426865,2.55961 16.801145,2.69344694 L12.5434783,5.05259912 L12.5434783,8.11266118 Z" id="Combined-Shape" stroke="#FFFFFF"></path>
            </g>
        </g>
        <g id="Group-9" transform="translate(30.000000, 427.000000)">
            <circle id="Oval" fill="#FFFFFF" opacity="0.4" cx="15" cy="15" r="15"></circle>
            <g id="Group" opacity="0.6" transform="translate(8.000000, 7.000000)">
                <path d="M2.58571429,7.93318836 C2.58571429,7.0173202 2.58571429,5.46728356 2.58571429,2.2 C2.58571429,1.37555968 3.23714683,0.7 4.05,0.7 C4.36782499,0.7 4.66097193,0.803279852 4.9001498,0.978356719 C4.91143164,0.163769402 5.55855697,-0.5 6.36428571,-0.5 C6.93433521,-0.5 7.42499577,-0.167750266 7.66725911,0.315094178 C7.92949967,0.0582733297 8.28512635,-0.1 8.67857143,-0.1 C9.4914246,-0.1 10.1428571,0.575559678 10.1428571,1.4 L10.1428571,1.77824708 C10.3820076,1.60323674 10.6750985,1.5 10.9928571,1.5 C11.8057103,1.5 12.4571429,2.17555968 12.4571429,3 L12.4571429,10.2 C12.4566778,10.244995 12.4566778,10.244995 12.4555906,10.2795804 C12.4542867,10.32169 12.4542867,10.3352998 12.4571424,10.3896086 C12.4528808,13.6998583 10.4887762,16.5 7.13571429,16.5 C4.71958589,16.5 3.00629079,14.9355488 2.23127179,12.6638171 C2.21489193,12.6288906 2.21489193,12.6288906 2.19961755,12.5934235 C2.08949145,12.3319987 1.28415451,11.088291 -0.143617192,8.98865836 C-0.494450283,8.47275475 -0.436867536,7.77371896 -0.00504883328,7.32523547 C0.507742327,6.79265463 1.32857624,6.73486312 1.95795023,7.23745562 L2.29352765,7.59204763 C2.41935546,7.69136323 2.49630143,7.78725945 2.58257998,7.92807274 C2.58364078,7.92980404 2.58468544,7.93150911 2.58571429,7.93318842 Z" id="Combined-Shape" stroke="#FFFFFF" stroke-linecap="round" stroke-linejoin="round"></path>
                <rect id="Rectangle-13" fill="#FFFFFF" x="4.62857143" y="0.8" width="1" height="7.6" rx="0.5"></rect>
                <rect id="Rectangle-13-Copy" fill="#FFFFFF" x="7.32857143" y="0.4" width="1" height="8" rx="0.5"></rect>
                <rect id="Rectangle-13-Copy-2" fill="#FFFFFF" x="9.64285714" y="0.8" width="1" height="8" rx="0.5"></rect>
            </g>
        </g>
        <g id="Group-7" transform="translate(86.000000, 427.000000)">
            <circle id="Oval-Copy-5" fill="#FFFFFF" opacity="0.6" cx="15" cy="15" r="15"></circle>
            <g id="Group-Copy-10" transform="translate(8.000000, 7.000000)">
                <path d="M2.58571429,7.93318836 C2.58571429,7.0173202 2.58571429,5.46728356 2.58571429,2.2 C2.58571429,1.37555968 3.23714683,0.7 4.05,0.7 C4.36782499,0.7 4.66097193,0.803279852 4.9001498,0.978356719 C4.91143164,0.163769402 5.55855697,-0.5 6.36428571,-0.5 C6.93433521,-0.5 7.42499577,-0.167750266 7.66725911,0.315094178 C7.92949967,0.0582733297 8.28512635,-0.1 8.67857143,-0.1 C9.4914246,-0.1 10.1428571,0.575559678 10.1428571,1.4 L10.1428571,1.77824708 C10.3820076,1.60323674 10.6750985,1.5 10.9928571,1.5 C11.8057103,1.5 12.4571429,2.17555968 12.4571429,3 L12.4571429,10.2 C12.4566778,10.244995 12.4566778,10.244995 12.4555906,10.2795804 C12.4542867,10.32169 12.4542867,10.3352998 12.4571424,10.3896086 C12.4528808,13.6998583 10.4887762,16.5 7.13571429,16.5 C4.71958589,16.5 3.00629079,14.9355488 2.23127179,12.6638171 C2.21489193,12.6288906 2.21489193,12.6288906 2.19961755,12.5934235 C2.08949145,12.3319987 1.28415451,11.088291 -0.143617192,8.98865836 C-0.494450283,8.47275475 -0.436867536,7.77371896 -0.00504883328,7.32523547 C0.507742327,6.79265463 1.32857624,6.73486312 1.95795023,7.23745562 L2.29352765,7.59204763 C2.41935546,7.69136323 2.49630143,7.78725945 2.58257998,7.92807274 C2.58364078,7.92980404 2.58468544,7.93150911 2.58571429,7.93318842 Z" id="Combined-Shape" stroke="#FFFFFF" stroke-linecap="round" stroke-linejoin="round"></path>
                <rect id="Rectangle-13" fill="#FFFFFF" x="4.62857143" y="0.8" width="1" height="7.6" rx="0.5"></rect>
                <rect id="Rectangle-13-Copy" fill="#FFFFFF" x="7.32857143" y="0.4" width="1" height="8" rx="0.5"></rect>
                <rect id="Rectangle-13-Copy-2" fill="#FFFFFF" x="9.64285714" y="0.8" width="1" height="8" rx="0.5"></rect>
            </g>
        </g>
        <g id="Group-18" transform="translate(25.000000, 827.000000)" fill="#FFFFFF">
            <g id="Group">
                <circle id="Oval" opacity="0.4" cx="15" cy="15" r="15"></circle>
                <path d="M15.5006289,20.7179983 L20.1328897,16.0857375 C20.3281518,15.8904754 20.6447343,15.8904754 20.8399965,16.0857375 L20.8404412,16.0861822 C21.0357033,16.2814444 21.0357033,16.5980269 20.8404412,16.793289 L15.5093216,22.1244086 C15.4853658,22.1938809 15.4456588,22.2591258 15.3902005,22.3145841 L15.3897558,22.3150288 C15.2830831,22.4217014 15.1402026,22.4700983 15.0006752,22.4602194 C14.8611478,22.4700983 14.7182673,22.4217014 14.6115946,22.3150288 L14.6111499,22.3145841 C14.5556916,22.2591258 14.5159846,22.1938809 14.4920288,22.1244086 L9.16090924,16.793289 C8.96564709,16.5980269 8.96564709,16.2814444 9.16090924,16.0861822 L9.16135393,16.0857375 C9.35661608,15.8904754 9.67319857,15.8904754 9.86846071,16.0857375 L14.5,20.7172768 L14.5,6.5 C14.5,6.22385763 14.7238576,6 15,6 L15.0006289,6 C15.2767713,6 15.5006289,6.22385763 15.5006289,6.5 L15.5006289,20.7179983 Z" id="Combined-Shape" opacity="0.6"></path>
            </g>
        </g>
        <g id="Group-18-Copy" transform="translate(25.000000, 875.000000)" fill="#FFFFFF">
            <g id="Group">
                <circle id="Oval" opacity="0.4" cx="15" cy="15" r="15"></circle>
                <path d="M15.4861663,21.7179983 L20.1184271,17.0857375 C20.3136892,16.8904754 20.6302717,16.8904754 20.8255338,17.0857375 L20.8259785,17.0861822 C21.0212407,17.2814444 21.0212407,17.5980269 20.8259785,17.793289 L15.494859,23.1244086 C15.4709032,23.1938809 15.4311961,23.2591258 15.3757378,23.3145841 L15.3752931,23.3150288 C15.2686205,23.4217014 15.1257399,23.4700983 14.9862126,23.4602194 C14.8466852,23.4700983 14.7038046,23.4217014 14.597132,23.3150288 L14.5966873,23.3145841 C14.541229,23.2591258 14.5015219,23.1938809 14.4775662,23.1244086 L9.14644661,17.793289 C8.95118446,17.5980269 8.95118446,17.2814444 9.14644661,17.0861822 L9.14689131,17.0857375 C9.34215345,16.8904754 9.65873594,16.8904754 9.85399809,17.0857375 L14.4855374,21.7172768 L14.4855374,7.5 C14.4855374,7.22385763 14.709395,7 14.9855374,7 L14.9861663,7 C15.2623086,7 15.4861663,7.22385763 15.4861663,7.5 L15.4861663,21.7179983 Z" id="Combined-Shape" opacity="0.6" transform="translate(14.986213, 15.230738) scale(1, -1) translate(-14.986213, -15.230738) "></path>
            </g>
        </g>
        <g id="Group-19" transform="translate(81.000000, 827.000000)" fill="#FFFFFF">
            <g id="Group-Copy-15">
                <circle id="Oval" opacity="0.6" cx="15" cy="15" r="15"></circle>
                <path d="M15.5006289,20.7179983 L20.1328897,16.0857375 C20.3281518,15.8904754 20.6447343,15.8904754 20.8399965,16.0857375 L20.8404412,16.0861822 C21.0357033,16.2814444 21.0357033,16.5980269 20.8404412,16.793289 L15.5093216,22.1244086 C15.4853658,22.1938809 15.4456588,22.2591258 15.3902005,22.3145841 L15.3897558,22.3150288 C15.2830831,22.4217014 15.1402026,22.4700983 15.0006752,22.4602194 C14.8611478,22.4700983 14.7182673,22.4217014 14.6115946,22.3150288 L14.6111499,22.3145841 C14.5556916,22.2591258 14.5159846,22.1938809 14.4920288,22.1244086 L9.16090924,16.793289 C8.96564709,16.5980269 8.96564709,16.2814444 9.16090924,16.0861822 L9.16135393,16.0857375 C9.35661608,15.8904754 9.67319857,15.8904754 9.86846071,16.0857375 L14.5,20.7172768 L14.5,6.5 C14.5,6.22385763 14.7238576,6 15,6 L15.0006289,6 C15.2767713,6 15.5006289,6.22385763 15.5006289,6.5 L15.5006289,20.7179983 Z" id="Combined-Shape"></path>
            </g>
        </g>
        <g id="Group-19-Copy" transform="translate(81.000000, 875.000000)" fill="#FFFFFF">
            <g id="Group-Copy-15">
                <circle id="Oval" opacity="0.6" cx="15" cy="15" r="15"></circle>
                <path d="M15.4861663,21.7179983 L20.1184271,17.0857375 C20.3136892,16.8904754 20.6302717,16.8904754 20.8255338,17.0857375 L20.8259785,17.0861822 C21.0212407,17.2814444 21.0212407,17.5980269 20.8259785,17.793289 L15.494859,23.1244086 C15.4709032,23.1938809 15.4311961,23.2591258 15.3757378,23.3145841 L15.3752931,23.3150288 C15.2686205,23.4217014 15.1257399,23.4700983 14.9862126,23.4602194 C14.8466852,23.4700983 14.7038046,23.4217014 14.597132,23.3150288 L14.5966873,23.3145841 C14.541229,23.2591258 14.5015219,23.1938809 14.4775662,23.1244086 L9.14644661,17.793289 C8.95118446,17.5980269 8.95118446,17.2814444 9.14644661,17.0861822 L9.14689131,17.0857375 C9.34215345,16.8904754 9.65873594,16.8904754 9.85399809,17.0857375 L14.4855374,21.7172768 L14.4855374,7.5 C14.4855374,7.22385763 14.709395,7 14.9855374,7 L14.9861663,7 C15.2623086,7 15.4861663,7.22385763 15.4861663,7.5 L15.4861663,21.7179983 Z" id="Combined-Shape" transform="translate(14.986213, 15.230738) scale(1, -1) translate(-14.986213, -15.230738) "></path>
            </g>
        </g>
        <g id="Group-20" transform="translate(137.000000, 827.000000)">
            <g id="Group-Copy-16">
                <circle id="Oval" fill="#FFFFFF" opacity="0.6" cx="15" cy="15" r="15"></circle>
                <path d="M15.5006289,20.7179983 L20.1328897,16.0857375 C20.3281518,15.8904754 20.6447343,15.8904754 20.8399965,16.0857375 L20.8404412,16.0861822 C21.0357033,16.2814444 21.0357033,16.5980269 20.8404412,16.793289 L15.5093216,22.1244086 C15.4853658,22.1938809 15.4456588,22.2591258 15.3902005,22.3145841 L15.3897558,22.3150288 C15.2830831,22.4217014 15.1402026,22.4700983 15.0006752,22.4602194 C14.8611478,22.4700983 14.7182673,22.4217014 14.6115946,22.3150288 L14.6111499,22.3145841 C14.5556916,22.2591258 14.5159846,22.1938809 14.4920288,22.1244086 L9.16090924,16.793289 C8.96564709,16.5980269 8.96564709,16.2814444 9.16090924,16.0861822 L9.16135393,16.0857375 C9.35661608,15.8904754 9.67319857,15.8904754 9.86846071,16.0857375 L14.5,20.7172768 L14.5,6.5 C14.5,6.22385763 14.7238576,6 15,6 L15.0006289,6 C15.2767713,6 15.5006289,6.22385763 15.5006289,6.5 L15.5006289,20.7179983 Z" id="Combined-Shape" fill="#0099FF"></path>
            </g>
        </g>
        <g id="Group-20-Copy" transform="translate(137.000000, 875.000000)">
            <g id="Group-Copy-16">
                <circle id="Oval" fill="#FFFFFF" opacity="0.6" cx="15" cy="15" r="15"></circle>
                <path d="M15.4861663,21.7179983 L20.1184271,17.0857375 C20.3136892,16.8904754 20.6302717,16.8904754 20.8255338,17.0857375 L20.8259785,17.0861822 C21.0212407,17.2814444 21.0212407,17.5980269 20.8259785,17.793289 L15.494859,23.1244086 C15.4709032,23.1938809 15.4311961,23.2591258 15.3757378,23.3145841 L15.3752931,23.3150288 C15.2686205,23.4217014 15.1257399,23.4700983 14.9862126,23.4602194 C14.8466852,23.4700983 14.7038046,23.4217014 14.597132,23.3150288 L14.5966873,23.3145841 C14.541229,23.2591258 14.5015219,23.1938809 14.4775662,23.1244086 L9.14644661,17.793289 C8.95118446,17.5980269 8.95118446,17.2814444 9.14644661,17.0861822 L9.14689131,17.0857375 C9.34215345,16.8904754 9.65873594,16.8904754 9.85399809,17.0857375 L14.4855374,21.7172768 L14.4855374,7.5 C14.4855374,7.22385763 14.709395,7 14.9855374,7 L14.9861663,7 C15.2623086,7 15.4861663,7.22385763 15.4861663,7.5 L15.4861663,21.7179983 Z" id="Combined-Shape" fill="#0099FF" transform="translate(14.986213, 15.230738) scale(1, -1) translate(-14.986213, -15.230738) "></path>
            </g>
        </g>
        <g id="Group-Copy-3" transform="translate(30.000000, 523.000000)">
            <g id="Group-11" fill="#41D936">
                <circle id="Oval-Copy" cx="15" cy="15" r="15"></circle>
            </g>
            <path d="M14.2216514,15.7962383 C12.1418907,15.7605955 9.94084748,15.9324221 9.92232418,16.8839667 C9.89847543,18.2472971 10.0540986,19.2642944 7.33938068,19.5111392 C4.62477754,19.7580766 5.00768694,17.8065262 5.03133533,16.4857925 C5.05727968,14.9616555 8.65686586,12.9060041 14.269794,13.0033315 C19.8838767,13.1019335 23.4076432,15.2825572 23.3816675,16.8055297 C23.3586556,18.1268436 23.6731371,20.0918214 20.9687102,19.7490918 C18.2643509,19.4061952 18.4560711,18.3959462 18.4791583,17.0332751 C18.496502,16.0804036 16.301463,15.8319337 14.2216514,15.7962383 Z" id="Fill-1" fill="#FFFFFF" transform="translate(14.191398, 16.394286) scale(-1, -1) rotate(45.000000) translate(-14.191398, -16.394286) "></path>
        </g>
        <g id="Group-2" transform="translate(35.000000, 678.000000)" fill="#FFFFFF">
            <rect id="Rectangle-16-Copy" x="9" y="0" width="1" height="10" rx="0.5"></rect>
            <rect id="Rectangle-16-Copy-2" x="6" y="2" width="1" height="8" rx="0.5"></rect>
            <rect id="Rectangle-16-Copy-3" x="3" y="4" width="1" height="6" rx="0.5"></rect>
            <rect id="Rectangle-16-Copy-4" x="0" y="6" width="1" height="4" rx="0.5"></rect>
        </g>
        <g id="Group-2-Copy" transform="translate(77.000000, 678.000000)" fill="#FFFFFF">
            <rect id="Rectangle-16-Copy" opacity="0.3" x="9" y="0" width="1" height="10" rx="0.5"></rect>
            <rect id="Rectangle-16-Copy-2" x="6" y="2" width="1" height="8" rx="0.5"></rect>
            <rect id="Rectangle-16-Copy-3" x="3" y="4" width="1" height="6" rx="0.5"></rect>
            <rect id="Rectangle-16-Copy-4" x="0" y="6" width="1" height="4" rx="0.5"></rect>
        </g>
        <g id="Group-2-Copy-2" transform="translate(119.000000, 678.000000)" fill="#FFFFFF">
            <rect id="Rectangle-16-Copy" opacity="0.3" x="9" y="0" width="1" height="10" rx="0.5"></rect>
            <rect id="Rectangle-16-Copy-2" opacity="0.3" x="6" y="2" width="1" height="8" rx="0.5"></rect>
            <rect id="Rectangle-16-Copy-3" x="3" y="4" width="1" height="6" rx="0.5"></rect>
            <rect id="Rectangle-16-Copy-4" x="0" y="6" width="1" height="4" rx="0.5"></rect>
        </g>
        <g id="Group-2-Copy-3" transform="translate(161.000000, 678.000000)" fill="#FFFFFF">
            <rect id="Rectangle-16-Copy" opacity="0.3" x="9" y="0" width="1" height="10" rx="0.5"></rect>
            <rect id="Rectangle-16-Copy-2" opacity="0.3" x="6" y="2" width="1" height="8" rx="0.5"></rect>
            <rect id="Rectangle-16-Copy-3" fill-opacity="0.3" x="3" y="4" width="1" height="6" rx="0.5"></rect>
            <rect id="Rectangle-16-Copy-4" x="0" y="6" width="1" height="4" rx="0.5"></rect>
        </g>
        <g id="Group-2-Copy-4" transform="translate(203.000000, 678.000000)" fill="#FFFFFF">
            <rect id="Rectangle-16-Copy" opacity="0.3" x="9" y="0" width="1" height="10" rx="0.5"></rect>
            <rect id="Rectangle-16-Copy-2" opacity="0.3" x="6" y="2" width="1" height="8" rx="0.5"></rect>
            <rect id="Rectangle-16-Copy-3" fill-opacity="0.3" x="3" y="4" width="1" height="6" rx="0.5"></rect>
            <rect id="Rectangle-16-Copy-4" fill-opacity="0.3" x="0" y="6" width="1" height="4" rx="0.5"></rect>
        </g>
        <g id="Group-Copy-13" transform="translate(86.000000, 523.000000)">
            <g id="Group-11" fill="#1FA416">
                <circle id="Oval-Copy" cx="15" cy="15" r="15"></circle>
            </g>
            <path d="M14.2216514,15.7962383 C12.1418907,15.7605955 9.94084748,15.9324221 9.92232418,16.8839667 C9.89847543,18.2472971 10.0540986,19.2642944 7.33938068,19.5111392 C4.62477754,19.7580766 5.00768694,17.8065262 5.03133533,16.4857925 C5.05727968,14.9616555 8.65686586,12.9060041 14.269794,13.0033315 C19.8838767,13.1019335 23.4076432,15.2825572 23.3816675,16.8055297 C23.3586556,18.1268436 23.6731371,20.0918214 20.9687102,19.7490918 C18.2643509,19.4061952 18.4560711,18.3959462 18.4791583,17.0332751 C18.496502,16.0804036 16.301463,15.8319337 14.2216514,15.7962383 Z" id="Fill-1" fill="#FFFFFF" transform="translate(14.191398, 16.394286) scale(-1, -1) rotate(45.000000) translate(-14.191398, -16.394286) "></path>
        </g>
        <g id="Group-8" transform="translate(142.000000, 427.000000)">
            <circle id="Oval-Copy-6" fill="#FFFFFF" opacity="0.6" cx="15" cy="15" r="15"></circle>
            <g id="Group-Copy-11" transform="translate(8.000000, 7.000000)">
                <path d="M2.7,7.98701916 C2.7,7.07821632 2.7,5.53217825 2.7,2.2 C2.7,1.37157288 3.37157288,0.7 4.2,0.7 C4.53768178,0.7 4.84930184,0.811583448 5.1,0.999890147 C5.10005937,0.171513507 5.77160949,-0.5 6.6,-0.5 C7.18929641,-0.5 7.69922303,-0.160177506 7.94450847,0.334196097 C8.21553683,0.0657738316 8.58840914,-0.1 9,-0.1 C9.82842712,-0.1 10.5,0.571572875 10.5,1.4 L10.5,1.79989014 C10.7506982,1.61158345 11.0623182,1.5 11.4,1.5 C12.2284271,1.5 12.9,2.17157288 12.9,3 L12.9,10.2 C12.8995125,10.2454678 12.8995125,10.2454678 12.8983811,10.280153 C12.8970541,10.3214744 12.8970541,10.3345735 12.8999996,10.3896324 C12.8955773,13.7019375 10.8602405,16.5 7.4,16.5 C4.90865059,16.5 3.13658542,14.9396742 2.33375357,12.6702551 C2.3166815,12.6351528 2.3166815,12.6351528 2.30074849,12.5994779 C2.18684321,12.3387388 1.35138649,11.0945955 -0.128777736,8.99565479 C-0.495104159,8.4762069 -0.434651224,7.76853793 0.0144679604,7.31874528 C0.538502585,6.79392486 1.36987786,6.73748167 2.01076775,7.23097006 L2.36004133,7.58665407 C2.48927103,7.68501189 2.56882687,7.78061972 2.65811776,7.92114475 C2.67606452,7.94938916 2.68955681,7.97064844 2.7,7.98701916 Z" id="Combined-Shape" stroke="#0099FF" stroke-linecap="round" stroke-linejoin="round"></path>
                <rect id="Rectangle-13" fill="#0099FF" x="4.8" y="0.8" width="1" height="7.6" rx="0.5"></rect>
                <rect id="Rectangle-13-Copy" fill="#0099FF" x="7.6" y="0.4" width="1" height="8" rx="0.5"></rect>
                <rect id="Rectangle-13-Copy-2" fill="#0099FF" x="10" y="0.8" width="1" height="8" rx="0.5"></rect>
            </g>
        </g>
        <rect id="Rectangle-20" fill="#FFFFFF" x="133" y="780" width="12" height="2" rx="1"></rect>
        <path d="M40,774.651239 L43.3719018,771.279337 C43.7443518,770.906888 44.3482125,770.906888 44.7206625,771.279337 C45.0931125,771.651787 45.0931125,772.255648 44.7206625,772.628098 L41.3487607,776 L44.7206625,779.371902 C45.0931125,779.744352 45.0931125,780.348213 44.7206625,780.720663 C44.3482125,781.093112 43.7443518,781.093112 43.3719018,780.720663 L40,777.348761 L36.6280982,780.720663 C36.2556482,781.093112 35.6517875,781.093112 35.2793375,780.720663 C34.9068875,780.348213 34.9068875,779.744352 35.2793375,779.371902 L38.6512393,776 L35.2793375,772.628098 C34.9068875,772.255648 34.9068875,771.651787 35.2793375,771.279337 C35.6517875,770.906888 36.2556482,770.906888 36.6280982,771.279337 L40,774.651239 Z" id="Combined-Shape" fill="#FFFFFF"></path>
        <path d="M73.5857864,780 L69,775.414214 L69,778 C69,778.552285 68.5522847,779 68,779 C67.4477153,779 67,778.552285 67,778 L67,773 C67,772.447715 67.4477153,772 68,772 L73,772 C73.5522847,772 74,772.447715 74,773 C74,773.552285 73.5522847,774 73,774 L70.4142136,774 L75,778.585786 L75,776 C75,775.447715 75.4477153,775 76,775 C76.5522847,775 77,775.447715 77,776 L77,781 C77,781.276142 76.8880712,781.526142 76.7071068,781.707107 C76.5261424,781.888071 76.2761424,782 76,782 L71,782 C70.4477153,782 70,781.552285 70,781 C70,780.447715 70.4477153,780 71,780 L73.5857864,780 Z" id="Combined-Shape" fill="#FFFFFF"></path>
        <path d="M107,780.414214 L107,782 C107,782.552285 106.552285,783 106,783 C105.447715,783 105,782.552285 105,782 L105,778 C105,777.447715 105.447715,777 106,777 L110,777 C110.552285,777 111,777.447715 111,778 C111,778.552285 110.552285,779 110,779 L108.414214,779 L109.949747,780.535534 C110.340272,780.926058 110.340272,781.559223 109.949747,781.949747 C109.559223,782.340272 108.926058,782.340272 108.535534,781.949747 L107,780.414214 Z M103,773.585786 L103,772 C103,771.447715 103.447715,771 104,771 C104.552285,771 105,771.447715 105,772 L105,776 C105,776.552285 104.552285,777 104,777 L100,777 C99.4477153,777 99,776.552285 99,776 C99,775.447715 99.4477153,775 100,775 L101.585786,775 L99.7071068,773.12132 C99.3165825,772.730796 99.3165825,772.097631 99.7071068,771.707107 C100.097631,771.316582 100.730796,771.316582 101.12132,771.707107 L103,773.585786 Z" id="Combined-Shape" fill="#FFFFFF"></path>
        <g id="Group-3" transform="translate(30.000000, 578.000000)">
            <circle id="Oval-3" fill="#FF654C" cx="25" cy="25" r="25"></circle>
            <path d="M25.0600821,22.3995908 C21.7976613,22.3996704 18.3721195,22.7258727 18.3721394,24.3571029 C18.4536402,26.396096 18.6984413,27.9457459 14.4571947,28.4350891 C10.2976481,28.8428917 10.7869714,25.906713 10.7869913,23.7861992 C10.7869714,21.3393239 16.3330867,18.0769032 24.9785614,18.0769231 C33.7870775,18.0769032 39.2515925,21.4209243 39.2515925,23.7046188 C39.1700718,25.7435919 39.7409954,28.761371 35.6629695,28.2720477 C31.5034029,27.8642252 31.7480247,26.3145952 31.7480247,24.1939421 C31.7480446,22.7258727 28.3225028,22.3996704 25.0600821,22.3995908 Z" id="Fill-1" fill="#FFFFFF"></path>
        </g>
        <g id="Group-3-Copy-2" transform="translate(30.000000, 475.000000)">
            <circle id="Oval-3" fill="#FF654C" cx="15" cy="15" r="15"></circle>
            <path d="M15.0360493,13.4397545 C13.0785968,13.4398022 11.0232717,13.6355236 11.0232837,14.6142618 C11.0721841,15.8376576 11.2190648,16.7674475 8.67431683,17.0610534 C6.17858885,17.305735 6.47218282,15.5440278 6.47219477,14.2717195 C6.47218282,12.8035944 9.79985199,10.8461419 14.9871368,10.8461538 C20.2722465,10.8461419 23.5509555,12.8525546 23.5509555,14.2227713 C23.5020431,15.4461552 23.8445972,17.2568226 21.3977817,16.9632286 C18.9020417,16.7185351 19.0488148,15.7887571 19.0488148,14.5163652 C19.0488268,13.6355236 16.9935017,13.4398022 15.0360493,13.4397545 Z" id="Fill-1" fill="#FFFFFF"></path>
        </g>
        <g id="Group-3-Copy-3" transform="translate(86.000000, 475.000000)">
            <circle id="Oval-3" fill="#ED5B43" cx="15" cy="15" r="15"></circle>
            <path d="M15.0360493,13.4397545 C13.0785968,13.4398022 11.0232717,13.6355236 11.0232837,14.6142618 C11.0721841,15.8376576 11.2190648,16.7674475 8.67431683,17.0610534 C6.17858885,17.305735 6.47218282,15.5440278 6.47219477,14.2717195 C6.47218282,12.8035944 9.79985199,10.8461419 14.9871368,10.8461538 C20.2722465,10.8461419 23.5509555,12.8525546 23.5509555,14.2227713 C23.5020431,15.4461552 23.8445972,17.2568226 21.3977817,16.9632286 C18.9020417,16.7185351 19.0488148,15.7887571 19.0488148,14.5163652 C19.0488268,13.6355236 16.9935017,13.4398022 15.0360493,13.4397545 Z" id="Fill-1" fill="#FFFFFF"></path>
        </g>
        <g id="Group-3-Copy" transform="translate(104.000000, 578.000000)">
            <circle id="Oval-3" fill="#ED5B43" cx="25" cy="25" r="25"></circle>
            <path d="M25.0600821,22.3995908 C21.7976613,22.3996704 18.3721195,22.7258727 18.3721394,24.3571029 C18.4536402,26.396096 18.6984413,27.9457459 14.4571947,28.4350891 C10.2976481,28.8428917 10.7869714,25.906713 10.7869913,23.7861992 C10.7869714,21.3393239 16.3330867,18.0769032 24.9785614,18.0769231 C33.7870775,18.0769032 39.2515925,21.4209243 39.2515925,23.7046188 C39.1700718,25.7435919 39.7409954,28.761371 35.6629695,28.2720477 C31.5034029,27.8642252 31.7480247,26.3145952 31.7480247,24.1939421 C31.7480446,22.7258727 28.3225028,22.3996704 25.0600821,22.3995908 Z" id="Fill-1" fill="#FFFFFF"></path>
        </g>
    </g>
</svg>